<svg width="100" height="100" viewBox="0 0 100 100" fill="none" xmlns="http://www.w3.org/2000/svg">
<path d="M0 10C0 4.47716 4.47715 0 10 0H100V100H10C4.47716 100 0 95.5229 0 90V10Z" fill="url(#paint0_linear_5229_111329)"/>
<path d="M50 85C69.33 85 85 69.33 85 50C85 30.67 69.33 15 50 15C30.67 15 15 30.67 15 50C15 69.33 30.67 85 50 85Z" fill="white"/>
<path d="M49.989 27.7031C41.3578 27.7031 34.3628 34.7099 34.3628 43.3557C34.3628 52.0015 41.3578 59.0083 49.989 59.0083C58.6202 59.0083 65.6152 51.9905 65.6152 43.3557C65.6152 34.7209 58.6202 27.7031 49.989 27.7031ZM54.3156 43.3557V54.2454C54.3156 56.6433 52.3719 58.5903 49.978 58.5903C47.5841 58.5903 45.6405 56.6433 45.6405 54.2454V43.3557H34.8789C34.8899 35.0069 41.6323 28.2531 49.978 28.2311C58.3018 28.2531 65.0552 35.0069 65.0662 43.3557H54.3046H54.3156Z" fill="#F26F24"/>
<path d="M49.9894 28.1318C47.5955 28.1318 45.6519 30.0788 45.6519 32.4657V43.3554H54.316V32.4767C54.316 30.0788 52.3723 28.1428 49.9784 28.1428M46.6841 33.3017C46.6841 33.3017 45.9044 29.4078 50.1651 29.0228C50.1651 29.0228 47.0135 29.6938 46.6841 33.3017Z" fill="#F26F24"/>
<path d="M33.7369 63.793H37.3277L37.3497 65.146C37.3497 66.114 37.1301 66.7519 36.6908 67.0489C36.2406 67.3239 35.2523 67.4779 33.7149 67.4779C32.2983 67.4779 31.3759 67.2909 30.9147 66.9059C30.4535 66.5319 30.2339 65.74 30.2339 64.585C30.2339 63.089 30.3217 62.1541 30.5084 61.7581C30.728 61.2741 31.0904 60.9551 31.5406 60.7791C31.9909 60.6141 32.7925 60.5371 33.8906 60.5371C35.3401 60.5371 36.2735 60.6581 36.7018 60.9221C37.1301 61.1751 37.3387 61.7581 37.3387 62.6381H35.7684C35.7355 62.1871 35.6256 61.9121 35.417 61.8131C35.2084 61.7031 34.7032 61.6481 33.8687 61.6481C32.9792 61.6481 32.4082 61.7361 32.1556 61.9231C31.925 62.1101 31.8042 62.5501 31.8042 63.232V64.794C31.8042 65.476 31.925 65.905 32.1666 66.092C32.4082 66.268 32.9572 66.3559 33.8138 66.3559C34.6703 66.3559 35.1974 66.279 35.439 66.125C35.6696 65.971 35.7904 65.597 35.7904 65.014V64.739H33.7479V63.782L33.7369 63.793Z" fill="#F26F24"/>
<path d="M41.819 60.5479C43.3015 60.5479 44.2569 60.7458 44.6851 61.1638C45.1024 61.5708 45.322 62.4838 45.322 63.9138C45.322 65.4867 45.1134 66.4657 44.6851 66.8727C44.2569 67.2797 43.2246 67.4777 41.5665 67.4777C40.084 67.4777 39.1396 67.2797 38.6894 66.8727C38.2611 66.4767 38.0415 65.5967 38.0415 64.2327C38.0415 62.6048 38.2501 61.5818 38.6784 61.1748C39.0957 60.7568 40.1389 60.5479 41.819 60.5479ZM41.6982 61.6588C40.666 61.6588 40.0511 61.7688 39.8754 61.9888C39.7106 62.2088 39.6118 62.9898 39.6118 64.3097C39.6118 65.2887 39.7106 65.8827 39.9193 66.0807C40.1279 66.2787 40.7319 66.3777 41.7312 66.3777C42.7305 66.3777 43.2795 66.2677 43.4662 66.0477C43.6529 65.8167 43.7517 65.1347 43.7517 64.0018C43.7517 62.8688 43.6749 62.1868 43.4772 61.9778C43.3015 61.7688 42.6975 61.6698 41.6982 61.6698" fill="#F26F24"/>
<path d="M53.9427 60.5371V67.4779H51.3182L48.9902 63.672C48.8694 63.474 48.6828 63.155 48.4412 62.6711L48.1776 62.1761L47.9141 61.6811H47.8592L47.8811 62.1321V62.5941L47.9141 63.507V67.4889H46.3657V60.5481H48.9902L51.1206 64.057C51.3073 64.376 51.5159 64.75 51.7575 65.201L52.0759 65.773L52.3944 66.3339H52.4383V65.883L52.4054 65.443V60.5591H53.9537L53.9427 60.5371Z" fill="#F26F24"/>
<path d="M61.4316 62.594H59.9162C59.9162 62.528 59.9162 62.484 59.9162 62.451C59.8722 62.066 59.7734 61.835 59.6087 61.736C59.433 61.6371 59.0487 61.5931 58.4227 61.5931C57.687 61.5931 57.2148 61.6481 56.9842 61.758C56.7536 61.868 56.6328 62.11 56.6328 62.473C56.6328 62.902 56.7316 63.166 56.9183 63.254C57.105 63.342 57.7199 63.408 58.7302 63.452C59.9491 63.507 60.7398 63.661 61.0912 63.892C61.4426 64.123 61.6292 64.618 61.6292 65.344C61.6292 66.2459 61.4206 66.8289 60.9923 67.1039C60.575 67.3679 59.6526 67.4999 58.2251 67.4999C56.9513 67.4999 56.0837 67.3679 55.6774 67.1039C55.2601 66.8509 55.0405 66.3229 55.0405 65.5309V65.278H56.5449V65.4209C56.5449 65.8939 56.6548 66.1799 56.8524 66.2899C57.0391 66.3999 57.5882 66.4549 58.4776 66.4549C59.1804 66.4549 59.6197 66.3889 59.8064 66.2679C59.993 66.1359 60.0919 65.8609 60.0919 65.4209C60.0919 65.091 60.015 64.871 59.8722 64.772C59.7185 64.662 59.411 64.596 58.9279 64.563L58.0823 64.519C56.7975 64.453 55.9739 64.299 55.6115 64.068C55.2492 63.826 55.0735 63.32 55.0735 62.539C55.0735 61.7581 55.2821 61.2081 55.7214 60.9551C56.1386 60.6801 57.0062 60.5591 58.3019 60.5591C59.5977 60.5591 60.3664 60.6801 60.7947 60.9221C61.201 61.1641 61.4206 61.6261 61.4206 62.352V62.605L61.4316 62.594Z" fill="#F26F24"/>
<path d="M67.6358 66.147H64.1218L63.6057 67.4779H61.9805L64.6928 60.5371H67.0208L69.7661 67.4779H68.1629L67.6468 66.147H67.6358ZM67.2734 65.168L65.8568 61.5601L64.4842 65.168H67.2734Z" fill="#F26F24"/>
<path fill-rule="evenodd" clip-rule="evenodd" d="M99.9998 4.29199V10.0766C98.5086 10.0765 97.2998 8.78163 97.2998 7.18428C97.2998 5.58693 98.5086 4.29202 99.9998 4.29199Z" fill="white"/>
<path fill-rule="evenodd" clip-rule="evenodd" d="M99.9998 12.0767V17.8612C98.5086 17.8612 97.2998 16.5663 97.2998 14.9689C97.2998 13.3716 98.5086 12.0767 99.9998 12.0767Z" fill="white"/>
<path fill-rule="evenodd" clip-rule="evenodd" d="M99.9998 19.8613V25.6459C98.5086 25.6459 97.2998 24.351 97.2998 22.7536C97.2998 21.1563 98.5086 19.8614 99.9998 19.8613Z" fill="white"/>
<path fill-rule="evenodd" clip-rule="evenodd" d="M99.9998 27.646V33.4306C98.5086 33.4305 97.2998 32.1356 97.2998 30.5383C97.2998 28.9409 98.5086 27.646 99.9998 27.646Z" fill="white"/>
<path fill-rule="evenodd" clip-rule="evenodd" d="M99.9998 35.4307V41.2152C98.5086 41.2152 97.2998 39.9203 97.2998 38.323C97.2998 36.7256 98.5086 35.4307 99.9998 35.4307Z" fill="white"/>
<path fill-rule="evenodd" clip-rule="evenodd" d="M99.9998 43.2153V48.9999C98.5086 48.9999 97.2998 47.705 97.2998 46.1076C97.2998 44.5103 98.5086 43.2154 99.9998 43.2153Z" fill="white"/>
<path fill-rule="evenodd" clip-rule="evenodd" d="M99.9998 51V56.7846C98.5086 56.7845 97.2998 55.4896 97.2998 53.8923C97.2998 52.2949 98.5086 51 99.9998 51Z" fill="white"/>
<path fill-rule="evenodd" clip-rule="evenodd" d="M99.9998 58.7847V64.5692C98.5086 64.5692 97.2998 63.2743 97.2998 61.677C97.2998 60.0796 98.5086 58.7847 99.9998 58.7847Z" fill="white"/>
<path fill-rule="evenodd" clip-rule="evenodd" d="M99.9998 66.5693V72.3539C98.5086 72.3539 97.2998 71.059 97.2998 69.4616C97.2998 67.8643 98.5086 66.5694 99.9998 66.5693Z" fill="white"/>
<path fill-rule="evenodd" clip-rule="evenodd" d="M99.9998 74.354V80.1386C98.5086 80.1386 97.2998 78.8436 97.2998 77.2463C97.2998 75.6489 98.5086 74.354 99.9998 74.354Z" fill="white"/>
<path fill-rule="evenodd" clip-rule="evenodd" d="M99.9998 82.1387V87.9232C98.5086 87.9232 97.2998 86.6283 97.2998 85.031C97.2998 83.4336 98.5086 82.1387 99.9998 82.1387Z" fill="white"/>
<path fill-rule="evenodd" clip-rule="evenodd" d="M99.9998 89.9233V95.7079C98.5086 95.7079 97.2998 94.413 97.2998 92.8156C97.2998 91.2183 98.5086 89.9234 99.9998 89.9233Z" fill="white"/>
<defs>
<linearGradient id="paint0_linear_5229_111329" x1="0.5" y1="52.5" x2="100" y2="52.5" gradientUnits="userSpaceOnUse">
<stop stop-color="#FE6C01"/>
<stop offset="1" stop-color="#FF9950"/>
</linearGradient>
</defs>
</svg>
