<svg width="86" height="83" viewBox="0 0 86 83" fill="none" xmlns="http://www.w3.org/2000/svg">
<path d="M0 10C0 4.47715 4.47715 0 10 0H83V83H0V10Z" fill="#FF6B00"/>
<circle cx="82.9998" cy="5.80982" r="2.49" fill="white"/>
<circle cx="82.9998" cy="12.45" r="2.49" fill="white"/>
<circle cx="82.9998" cy="39.01" r="2.49" fill="white"/>
<circle cx="82.9998" cy="65.5701" r="2.49" fill="white"/>
<circle cx="82.9998" cy="19.0901" r="2.49" fill="white"/>
<circle cx="82.9998" cy="45.6502" r="2.49" fill="white"/>
<circle cx="82.9998" cy="72.2097" r="2.49" fill="white"/>
<circle cx="82.9998" cy="25.7297" r="2.49" fill="white"/>
<circle cx="82.9998" cy="52.2898" r="2.49" fill="white"/>
<circle cx="82.9998" cy="78.8499" r="2.49" fill="white"/>
<circle cx="82.9998" cy="32.3699" r="2.49" fill="white"/>
<circle cx="82.9998" cy="58.9299" r="2.49" fill="white"/>
<g clip-path="url(#clip0_7001_260967)">
<path d="M42 76C60.7777 76 76 60.7777 76 42C76 23.2223 60.7777 8 42 8C23.2223 8 8 23.2223 8 42C8 60.7777 23.2223 76 42 76Z" fill="white"/>
<path d="M41.9885 17.8618C33.3573 17.8618 26.3623 24.8686 26.3623 33.5144C26.3623 42.1601 33.3573 49.1669 41.9885 49.1669C50.6197 49.1669 57.6148 42.1491 57.6148 33.5144C57.6148 24.8796 50.6197 17.8618 41.9885 17.8618ZM46.3151 33.5144V44.4041C46.3151 46.802 44.3715 48.749 41.9776 48.749C39.5837 48.749 37.64 46.802 37.64 44.4041V33.5144H26.8784C26.8894 25.1656 33.6318 18.4118 41.9776 18.3898C50.3013 18.4118 57.0547 25.1656 57.0657 33.5144H46.3041H46.3151Z" fill="#F26F24"/>
<path d="M41.9889 18.2905C39.595 18.2905 37.6514 20.2375 37.6514 22.6244V33.5141H46.3155V22.6354C46.3155 20.2375 44.3719 18.3015 41.978 18.3015M38.6836 23.4604C38.6836 23.4604 37.9039 19.5665 42.1646 19.1815C42.1646 19.1815 39.013 19.8525 38.6836 23.4604Z" fill="#F26F24"/>
<path d="M25.7364 53.9517H29.3272L29.3492 55.3047C29.3492 56.2726 29.1296 56.9106 28.6903 57.2076C28.2401 57.4826 27.2518 57.6366 25.7144 57.6366C24.2979 57.6366 23.3754 57.4496 22.9142 57.0646C22.453 56.6906 22.2334 55.8987 22.2334 54.7437C22.2334 53.2477 22.3212 52.3128 22.5079 51.9168C22.7276 51.4328 23.0899 51.1138 23.5402 50.9378C23.9904 50.7728 24.792 50.6958 25.8901 50.6958C27.3396 50.6958 28.2731 50.8168 28.7013 51.0808C29.1296 51.3338 29.3382 51.9168 29.3382 52.7967H27.7679C27.735 52.3458 27.6252 52.0708 27.4165 51.9718C27.2079 51.8618 26.7027 51.8068 25.8682 51.8068C24.9787 51.8068 24.4077 51.8948 24.1551 52.0818C23.9245 52.2688 23.8037 52.7087 23.8037 53.3907V54.9527C23.8037 55.6347 23.9245 56.0637 24.1661 56.2506C24.4077 56.4266 24.9567 56.5146 25.8133 56.5146C26.6698 56.5146 27.1969 56.4376 27.4385 56.2836C27.6691 56.1297 27.7899 55.7557 27.7899 55.1727V54.8977H25.7474V53.9407L25.7364 53.9517Z" fill="#F26F24"/>
<path d="M33.8185 50.7065C35.301 50.7065 36.2564 50.9045 36.6846 51.3225C37.1019 51.7295 37.3215 52.6425 37.3215 54.0725C37.3215 55.6454 37.1129 56.6244 36.6846 57.0314C36.2564 57.4384 35.2241 57.6364 33.566 57.6364C32.0835 57.6364 31.1391 57.4384 30.6889 57.0314C30.2606 56.6354 30.041 55.7554 30.041 54.3914C30.041 52.7635 30.2497 51.7405 30.6779 51.3335C31.0952 50.9155 32.1384 50.7065 33.8185 50.7065ZM33.6978 51.8175C32.6655 51.8175 32.0506 51.9275 31.8749 52.1475C31.7102 52.3675 31.6113 53.1485 31.6113 54.4684C31.6113 55.4474 31.7102 56.0414 31.9188 56.2394C32.1274 56.4374 32.7314 56.5364 33.7307 56.5364C34.73 56.5364 35.279 56.4264 35.4657 56.2064C35.6524 55.9754 35.7512 55.2934 35.7512 54.1604C35.7512 53.0275 35.6744 52.3455 35.4767 52.1365C35.301 51.9275 34.697 51.8285 33.6978 51.8285" fill="#F26F24"/>
<path d="M45.9423 50.6958V57.6366H43.3177L40.9897 53.8307C40.8689 53.6327 40.6823 53.3137 40.4407 52.8297L40.1771 52.3348L39.9136 51.8398H39.8587L39.8806 52.2908V52.7527L39.9136 53.6657V57.6476H38.3652V50.7068H40.9897L43.1201 54.2157C43.3068 54.5347 43.5154 54.9087 43.757 55.3597L44.0755 55.9317L44.3939 56.4926H44.4378V56.0417L44.4049 55.6017V50.7178H45.9532L45.9423 50.6958Z" fill="#F26F24"/>
<path d="M53.4311 52.7527H51.9157C51.9157 52.6867 51.9157 52.6427 51.9157 52.6097C51.8718 52.2247 51.7729 51.9937 51.6082 51.8947C51.4325 51.7957 51.0482 51.7517 50.4222 51.7517C49.6865 51.7517 49.2143 51.8067 48.9837 51.9167C48.7531 52.0267 48.6323 52.2687 48.6323 52.6317C48.6323 53.0607 48.7311 53.3247 48.9178 53.4127C49.1045 53.5007 49.7194 53.5667 50.7297 53.6107C51.9486 53.6657 52.7393 53.8197 53.0907 54.0507C53.4421 54.2817 53.6288 54.7767 53.6288 55.5026C53.6288 56.4046 53.4201 56.9876 52.9918 57.2626C52.5746 57.5266 51.6521 57.6586 50.2246 57.6586C48.9508 57.6586 48.0832 57.5266 47.6769 57.2626C47.2597 57.0096 47.04 56.4816 47.04 55.6896V55.4366H48.5445V55.5796C48.5445 56.0526 48.6543 56.3386 48.8519 56.4486C49.0386 56.5586 49.5877 56.6136 50.4771 56.6136C51.1799 56.6136 51.6192 56.5476 51.8059 56.4266C51.9926 56.2946 52.0914 56.0196 52.0914 55.5796C52.0914 55.2497 52.0145 55.0297 51.8718 54.9307C51.718 54.8207 51.4105 54.7547 50.9274 54.7217L50.0818 54.6777C48.797 54.6117 47.9734 54.4577 47.6111 54.2267C47.2487 53.9847 47.073 53.4787 47.073 52.6977C47.073 51.9167 47.2816 51.3668 47.7209 51.1138C48.1382 50.8388 49.0057 50.7178 50.3014 50.7178C51.5972 50.7178 52.3659 50.8388 52.7942 51.0808C53.2005 51.3228 53.4201 51.7847 53.4201 52.5107V52.7637L53.4311 52.7527Z" fill="#F26F24"/>
<path d="M59.6358 56.3056H56.1218L55.6057 57.6366H53.9805L56.6928 50.6958H59.0208L61.7661 57.6366H60.1629L59.6468 56.3056H59.6358ZM59.2734 55.3267L57.8568 51.7188L56.4842 55.3267H59.2734Z" fill="#F26F24"/>
</g>
<defs>
<clipPath id="clip0_7001_260967">
<rect width="68" height="68" fill="white" transform="translate(8 8)"/>
</clipPath>
</defs>
</svg>
