<svg width="101" height="100" viewBox="0 0 101 100" fill="none" xmlns="http://www.w3.org/2000/svg">
<path d="M0.200195 10C0.200195 4.47716 4.67735 0 10.2002 0H100.2V100H10.2002C4.67735 100 0.200195 95.5229 0.200195 90V10Z" fill="url(#paint0_linear_7001_4497)"/>
<path fill-rule="evenodd" clip-rule="evenodd" d="M100.2 4.29199V10.0766C98.7088 10.0765 97.5 8.78163 97.5 7.18428C97.5 5.58693 98.7088 4.29202 100.2 4.29199Z" fill="white"/>
<path fill-rule="evenodd" clip-rule="evenodd" d="M100.2 12.0767V17.8612C98.7088 17.8612 97.5 16.5663 97.5 14.9689C97.5 13.3716 98.7088 12.0767 100.2 12.0767Z" fill="white"/>
<path fill-rule="evenodd" clip-rule="evenodd" d="M100.2 19.8613V25.6459C98.7088 25.6459 97.5 24.351 97.5 22.7536C97.5 21.1563 98.7088 19.8614 100.2 19.8613Z" fill="white"/>
<path fill-rule="evenodd" clip-rule="evenodd" d="M100.2 27.646V33.4306C98.7088 33.4305 97.5 32.1356 97.5 30.5383C97.5 28.9409 98.7088 27.646 100.2 27.646Z" fill="white"/>
<path fill-rule="evenodd" clip-rule="evenodd" d="M100.2 35.4307V41.2152C98.7088 41.2152 97.5 39.9203 97.5 38.323C97.5 36.7256 98.7088 35.4307 100.2 35.4307Z" fill="white"/>
<path fill-rule="evenodd" clip-rule="evenodd" d="M100.2 43.2153V48.9999C98.7088 48.9999 97.5 47.705 97.5 46.1076C97.5 44.5103 98.7088 43.2154 100.2 43.2153Z" fill="white"/>
<path fill-rule="evenodd" clip-rule="evenodd" d="M100.2 51V56.7846C98.7088 56.7845 97.5 55.4896 97.5 53.8923C97.5 52.2949 98.7088 51 100.2 51Z" fill="white"/>
<path fill-rule="evenodd" clip-rule="evenodd" d="M100.2 58.7847V64.5692C98.7088 64.5692 97.5 63.2743 97.5 61.677C97.5 60.0796 98.7088 58.7847 100.2 58.7847Z" fill="white"/>
<path fill-rule="evenodd" clip-rule="evenodd" d="M100.2 66.5693V72.3539C98.7088 72.3539 97.5 71.059 97.5 69.4616C97.5 67.8643 98.7088 66.5694 100.2 66.5693Z" fill="white"/>
<path fill-rule="evenodd" clip-rule="evenodd" d="M100.2 74.354V80.1386C98.7088 80.1386 97.5 78.8436 97.5 77.2463C97.5 75.6489 98.7088 74.354 100.2 74.354Z" fill="white"/>
<path fill-rule="evenodd" clip-rule="evenodd" d="M100.2 82.1387V87.9232C98.7088 87.9232 97.5 86.6283 97.5 85.031C97.5 83.4336 98.7088 82.1387 100.2 82.1387Z" fill="white"/>
<path fill-rule="evenodd" clip-rule="evenodd" d="M100.2 89.9233V95.7079C98.7088 95.7079 97.5 94.413 97.5 92.8156C97.5 91.2183 98.7088 89.9234 100.2 89.9233Z" fill="white"/>
<defs>
<linearGradient id="paint0_linear_7001_4497" x1="0.700195" y1="52.5" x2="100.2" y2="52.5" gradientUnits="userSpaceOnUse">
<stop stop-color="#FE6C01"/>
<stop offset="1" stop-color="#FF9950"/>
</linearGradient>
</defs>
</svg>
