<svg width="61" height="59" viewBox="0 0 61 59" fill="none" xmlns="http://www.w3.org/2000/svg">
<rect x="0.5" width="60" height="59" rx="29.5" fill="#F6F7F7"/>
<path d="M42.5 23.8477C42.5 20.6651 41.2357 17.6128 38.9853 15.3624C36.7348 13.1119 33.6826 11.8477 30.5 11.8477C27.3174 11.8477 24.2652 13.1119 22.0147 15.3624C19.7643 17.6128 18.5 20.6651 18.5 23.8477C18.5 37.8477 12.5 41.8477 12.5 41.8477H48.5C48.5 41.8477 42.5 37.8477 42.5 23.8477Z" stroke="#FF9B53" strokeWidth="3" strokeLinecap="round" strokeLinejoin="round"/>
<path d="M33.96 45.1582C33.6084 45.7644 33.1037 46.2675 32.4965 46.6173C31.8893 46.967 31.2008 47.1511 30.5 47.1511C29.7993 47.1511 29.1108 46.967 28.5036 46.6173C27.8964 46.2675 27.3917 45.7644 27.04 45.1582" stroke="#FF9B53" strokeWidth="3" strokeLinecap="round" strokeLinejoin="round"/>
</svg>
