<svg width="13" height="12" viewBox="0 0 13 12" fill="none" xmlns="http://www.w3.org/2000/svg">
<g opacity="0.3">
<path d="M9.98513 6.25819L9.74983 6.69936C9.94401 6.80293 10.1831 6.76735 10.3387 6.61174L9.98513 6.25819ZM9.21375 9.58669C9.39791 9.38092 9.3804 9.06483 9.17464 8.88066C8.96887 8.6965 8.65278 8.71401 8.46861 8.91977L9.21375 9.58669ZM11.7292 5.22119C11.9245 5.02592 11.9245 4.70934 11.7292 4.51408C11.534 4.31882 11.2174 4.31882 11.0221 4.51408L11.7292 5.22119ZM8.61593 4.96129C8.37228 4.83134 8.06941 4.92351 7.93946 5.16717C7.80951 5.41082 7.90169 5.71369 8.14535 5.84364L8.61593 4.96129ZM5.49256 10.2508C3.28753 10.2508 1.5 8.46322 1.5 6.25819H0.5C0.5 9.0155 2.73525 11.2508 5.49256 11.2508V10.2508ZM1.5 6.25819C1.5 4.05316 3.28753 2.26562 5.49256 2.26562V1.26562C2.73525 1.26562 0.5 3.50087 0.5 6.25819H1.5ZM5.49256 2.26562C7.6976 2.26562 9.48513 4.05316 9.48513 6.25819H10.4851C10.4851 3.50087 8.24988 1.26562 5.49256 1.26562V2.26562ZM8.46861 8.91977C7.73683 9.73738 6.67498 10.2508 5.49256 10.2508V11.2508C6.97124 11.2508 8.30029 10.6073 9.21375 9.58669L8.46861 8.91977ZM10.3387 6.61174L11.7292 5.22119L11.0221 4.51408L9.63157 5.90463L10.3387 6.61174ZM10.2204 5.81701L8.61593 4.96129L8.14535 5.84364L9.74983 6.69936L10.2204 5.81701Z" fill="#A7A9AC"/>
<path d="M5.49561 4.11914L5.49561 6.45086L6.67223 7.32812" stroke="#A7A9AC" strokeLinecap="round" strokeLinejoin="round"/>
</g>
<path d="M10.4981 5.74256L10.2628 6.18374C10.457 6.2873 10.696 6.25173 10.8516 6.09612L10.4981 5.74256ZM9.72669 9.07106C9.91085 8.8653 9.89334 8.5492 9.68758 8.36504C9.48181 8.18088 9.16572 8.19839 8.98155 8.40415L9.72669 9.07106ZM12.2422 4.70556C12.4374 4.5103 12.4374 4.19372 12.2422 3.99845C12.0469 3.80319 11.7303 3.80319 11.5351 3.99845L12.2422 4.70556ZM9.12887 4.44566C8.88522 4.31571 8.58235 4.40789 8.4524 4.65154C8.32245 4.8952 8.41463 5.19806 8.65829 5.32801L9.12887 4.44566ZM6.0055 9.73513C3.80047 9.73513 2.01294 7.9476 2.01294 5.74256H1.01294C1.01294 8.49988 3.24819 10.7351 6.0055 10.7351V9.73513ZM2.01294 5.74256C2.01294 3.53753 3.80047 1.75 6.0055 1.75V0.75C3.24819 0.75 1.01294 2.98525 1.01294 5.74256H2.01294ZM6.0055 1.75C8.21054 1.75 9.99807 3.53753 9.99807 5.74256H10.9981C10.9981 2.98525 8.76282 0.75 6.0055 0.75V1.75ZM8.98155 8.40415C8.24977 9.22176 7.18792 9.73513 6.0055 9.73513V10.7351C7.48418 10.7351 8.81323 10.0917 9.72669 9.07106L8.98155 8.40415ZM10.8516 6.09612L12.2422 4.70556L11.5351 3.99845L10.1445 5.38901L10.8516 6.09612ZM10.7334 5.30139L9.12887 4.44566L8.65829 5.32801L10.2628 6.18374L10.7334 5.30139Z" fill="#A7A9AC"/>
<path d="M6.00855 3.60351L6.00854 5.93524L7.18517 6.8125" stroke="#A7A9AC" strokeLinecap="round" strokeLinejoin="round"/>
</svg>
