<svg width="16" height="16" viewBox="0 0 16 16" fill="none" xmlns="http://www.w3.org/2000/svg">
<path d="M15.4536 1.35153C15.6478 1.35153 15.8051 1.19415 15.8051 1C15.8051 0.805855 15.6478 0.648469 15.4536 0.648469V1.35153ZM13.7361 1.40587L14.0741 1.50255L14.0742 1.50245L13.7361 1.40587ZM11.1942 10.2922L10.8562 10.1955L10.855 10.1997L11.1942 10.2922ZM10.7926 10.8818L11.0016 11.1646L11.0084 11.1593L10.7926 10.8818ZM2.70937 10.8818L2.92225 10.602L2.91832 10.5991L2.70937 10.8818ZM2.30777 10.2922L2.64694 10.1997L2.64576 10.1956L2.30777 10.2922ZM0.453613 3.8069V3.45537C0.343295 3.45537 0.239376 3.50715 0.172951 3.59523C0.106525 3.68331 0.0852994 3.79746 0.115624 3.90353L0.453613 3.8069ZM10.109 4.15843C10.3031 4.15843 10.4605 4.00104 10.4605 3.8069C10.4605 3.61275 10.3031 3.45537 10.109 3.45537V4.15843ZM7.02638 5.78343C7.02638 5.58929 6.86899 5.4319 6.67485 5.4319C6.4807 5.4319 6.32332 5.58929 6.32332 5.78343H7.02638ZM6.32332 9.08079C6.32332 9.27494 6.4807 9.43233 6.67485 9.43233C6.86899 9.43233 7.02638 9.27494 7.02638 9.08079H6.32332ZM5.10446 7.15887C4.91031 7.15887 4.75293 7.31626 4.75293 7.5104C4.75293 7.70455 4.91031 7.86194 5.10446 7.86194V7.15887ZM8.40182 7.86194C8.59596 7.86194 8.75335 7.70455 8.75335 7.5104C8.75335 7.31626 8.59596 7.15887 8.40182 7.15887V7.86194ZM10.4032 14.6847C9.97786 14.6847 9.63111 14.3379 9.63111 13.9126H8.92805C8.92805 14.7262 9.58957 15.3877 10.4032 15.3877V14.6847ZM9.63111 13.9126C9.63111 13.4873 9.97786 13.1405 10.4032 13.1405V12.4374C9.58957 12.4374 8.92805 13.099 8.92805 13.9126H9.63111ZM10.4032 13.1405C10.8285 13.1405 11.1753 13.4872 11.1753 13.9126H11.8783C11.8783 13.099 11.2168 12.4374 10.4032 12.4374V13.1405ZM11.1753 13.9126C11.1753 14.3379 10.8285 14.6847 10.4032 14.6847V15.3877C11.2168 15.3877 11.8783 14.7262 11.8783 13.9126H11.1753ZM3.10127 14.6847C2.67593 14.6847 2.32918 14.3379 2.32918 13.9126H1.62612C1.62612 14.7262 2.28764 15.3877 3.10127 15.3877V14.6847ZM2.32918 13.9126C2.32918 13.4873 2.67593 13.1405 3.10127 13.1405V12.4374C2.28764 12.4374 1.62612 13.099 1.62612 13.9126H2.32918ZM3.10127 13.1405C3.5266 13.1405 3.87335 13.4873 3.87335 13.9126H4.57641C4.57641 13.099 3.91489 12.4374 3.10127 12.4374V13.1405ZM3.87335 13.9126C3.87335 14.3379 3.5266 14.6847 3.10127 14.6847V15.3877C3.91489 15.3877 4.57641 14.7262 4.57641 13.9126H3.87335ZM15.4536 0.648469H14.2745V1.35153H15.4536V0.648469ZM14.2745 0.648469C14.075 0.648469 13.8865 0.711255 13.728 0.828391L14.1459 1.39378C14.184 1.36565 14.2261 1.35153 14.2745 1.35153V0.648469ZM13.728 0.828391C13.5631 0.950262 13.4521 1.12034 13.3981 1.3093L14.0742 1.50245C14.0885 1.45216 14.1143 1.41716 14.1459 1.39378L13.728 0.828391ZM13.3982 1.30919L10.8562 10.1955L11.5321 10.3889L14.0741 1.50255L13.3982 1.30919ZM10.855 10.1997C10.8128 10.3545 10.7148 10.4969 10.5767 10.6043L11.0084 11.1593C11.2548 10.9676 11.4473 10.6999 11.5333 10.3847L10.855 10.1997ZM10.5836 10.5991C10.445 10.7015 10.2827 10.7567 10.1133 10.7567V11.4598C10.4394 11.4598 10.747 11.3526 11.0015 11.1645L10.5836 10.5991ZM10.1133 10.7567H3.38867V11.4598H10.1133V10.7567ZM3.38867 10.7567C3.21893 10.7567 3.05513 10.7032 2.92223 10.602L2.49651 11.1616C2.75666 11.3595 3.07137 11.4598 3.38867 11.4598V10.7567ZM2.91832 10.5991C2.78679 10.5019 2.69069 10.3603 2.64692 10.1997L1.96863 10.3847C2.05302 10.6942 2.23889 10.9712 2.50042 11.1645L2.91832 10.5991ZM2.64576 10.1956L0.791602 3.71027L0.115624 3.90353L1.96978 10.3889L2.64576 10.1956ZM0.453613 4.15843H10.109V3.45537H0.453613V4.15843ZM6.32332 5.78343V9.08079H7.02638V5.78343H6.32332ZM5.10446 7.86194H8.40182V7.15887H5.10446V7.86194Z" fill="white"/>
</svg>
