<svg width="50" height="50" viewBox="0 0 50 50" fill="none" xmlns="http://www.w3.org/2000/svg">
<g opacity="0.3">
<path d="M18.683 20.709L30.5059 29.9226" stroke="#FF6B00" stroke-width="2.05181" stroke-linecap="round" stroke-linejoin="round"/>
<path d="M12.5348 40.6215C9.27816 38.0627 8.7118 33.3598 11.2807 30.1032L25.45 12.121C28.0088 8.8745 32.7319 8.30814 35.9784 10.8669C39.235 13.4257 39.8014 18.1286 37.2325 21.3852L23.0632 39.3674C20.5044 42.6139 15.7813 43.1802 12.5348 40.6215V40.6215Z" stroke="#FF6B00" stroke-width="2.05181" stroke-linecap="round" stroke-linejoin="round"/>
</g>
<path d="M20.1702 19.2207L31.9931 28.4343" stroke="#FF9B53" stroke-width="2.05181" stroke-linecap="round" stroke-linejoin="round"/>
<path d="M14.0221 39.1332C10.7655 36.5744 10.1991 31.8715 12.768 28.6149L26.9373 10.6327C29.4961 7.38622 34.2192 6.81986 37.4657 9.37863C40.7223 11.9374 41.2887 16.6403 38.7198 19.8969L24.5505 37.8791C21.9917 41.1256 17.2686 41.6919 14.0221 39.1332V39.1332Z" stroke="#FF6B00" stroke-width="2.05181" stroke-linecap="round" stroke-linejoin="round"/>
</svg>
