<svg width="16" height="16" viewBox="0 0 16 16" fill="none" xmlns="http://www.w3.org/2000/svg">
<g opacity="0.3">
<path d="M7.5938 11.0098C7.80356 11.0098 7.98642 11.0797 8.14239 11.2249C8.29299 11.3647 8.36828 11.5691 8.36828 11.8273C8.36828 12.0639 8.29298 12.2576 8.13701 12.4082C7.98104 12.5588 7.80356 12.6394 7.5938 12.6394C7.38405 12.6394 7.21731 12.5695 7.06672 12.4297C6.91612 12.2898 6.83545 12.0908 6.83545 11.8273C6.83545 11.5637 6.91074 11.3701 7.06133 11.2249C7.21193 11.0797 7.38943 11.0098 7.5938 11.0098ZM6.83545 9.2887V4.46965C6.83545 4.13619 6.91075 3.88342 7.05597 3.71131C7.20118 3.5392 7.38405 3.45312 7.60994 3.45312C7.83583 3.45312 8.01869 3.53921 8.15853 3.71669C8.29837 3.89418 8.36828 4.14157 8.36828 4.46965V9.23489C8.36828 9.56298 8.29837 9.81577 8.15853 9.9825C8.01869 10.1492 7.83583 10.2299 7.60994 10.2299C7.38405 10.2299 7.20118 10.1492 7.05597 9.9825C6.91075 9.81577 6.83545 9.58451 6.83545 9.2887Z" fill="#FF6B00"/>
<path d="M7.60417 14.6522C11.2518 14.6522 14.2088 11.6952 14.2088 8.04755C14.2088 4.39989 11.2518 1.44287 7.60417 1.44287C3.95652 1.44287 0.999512 4.39989 0.999512 8.04755C0.999512 11.6952 3.95652 14.6522 7.60417 14.6522Z" stroke="#FF6B00" stroke-width="1.09113"/>
</g>
<path d="M8.38604 10.2195C8.5958 10.2195 8.77866 10.2894 8.93463 10.4346C9.08523 10.5745 9.16051 10.7788 9.16051 11.037C9.16051 11.2736 9.08522 11.4673 8.92925 11.6179C8.77327 11.7685 8.5958 11.8491 8.38604 11.8491C8.17628 11.8491 8.00955 11.7792 7.85895 11.6394C7.70836 11.4995 7.62769 11.3005 7.62769 11.037C7.62769 10.7735 7.70297 10.5798 7.85357 10.4346C8.00416 10.2894 8.18166 10.2195 8.38604 10.2195ZM7.62769 8.49841V3.67937C7.62769 3.34591 7.70298 3.09314 7.8482 2.92103C7.99342 2.74892 8.17628 2.66284 8.40217 2.66284C8.62807 2.66284 8.81093 2.74892 8.95076 2.92641C9.0906 3.1039 9.16051 3.35128 9.16051 3.67937V8.44461C9.16051 8.77269 9.0906 9.02548 8.95076 9.19221C8.81093 9.35894 8.62807 9.43963 8.40217 9.43963C8.17628 9.43963 7.99342 9.35894 7.8482 9.19221C7.70298 9.02548 7.62769 8.79423 7.62769 8.49841Z" fill="#FF6B00"/>
<path d="M8.39641 13.8619C12.0441 13.8619 15.0011 10.9049 15.0011 7.25727C15.0011 3.60961 12.0441 0.652588 8.39641 0.652588C4.74876 0.652588 1.79175 3.60961 1.79175 7.25727C1.79175 10.9049 4.74876 13.8619 8.39641 13.8619Z" stroke="#FF6B00" stroke-width="1.09113"/>
</svg>
