<svg width="15" height="15" viewBox="0 0 15 15" fill="none" xmlns="http://www.w3.org/2000/svg">
<path d="M11.1061 5.40417C11.1061 4.35214 10.6882 3.3432 9.94431 2.59931C9.20042 1.85542 8.19148 1.4375 7.13945 1.4375C6.08743 1.4375 5.07849 1.85542 4.3346 2.59931C3.5907 3.3432 3.17279 4.35214 3.17279 5.40417C3.17279 10.0319 1.18945 11.3542 1.18945 11.3542H13.0895C13.0895 11.3542 11.1061 10.0319 11.1061 5.40417Z" stroke="white" stroke-width="1.3" stroke-linecap="round" stroke-linejoin="round"/>
<path d="M9.44011 11.3545C9.20631 11.9123 8.87073 12.3753 8.46697 12.6972C8.06321 13.0191 7.60544 13.1885 7.13949 13.1885C6.67354 13.1885 6.21577 13.0191 5.81201 12.6972C5.40825 12.3753 5.07267 11.9123 4.83887 11.3545" stroke="white" stroke-width="1.3" stroke-linecap="round" stroke-linejoin="round"/>
</svg>
