<svg width="18" height="18" viewBox="0 0 18 18" fill="none" xmlns="http://www.w3.org/2000/svg">
<g id="information">
<g id="information_2" opacity="0.3">
<path id="Vector" d="M8.76346 6.06812C8.52945 6.06812 8.32546 5.9901 8.15145 5.82809C7.98345 5.67208 7.89941 5.44407 7.89941 5.15606C7.89941 4.89204 7.98345 4.67602 8.15746 4.50801C8.33147 4.34 8.52945 4.25 8.76346 4.25C8.99748 4.25 9.18351 4.32801 9.35152 4.48402C9.51953 4.64003 9.60953 4.86204 9.60953 5.15606C9.60953 5.45007 9.52554 5.66608 9.35753 5.82809C9.18952 5.9901 8.99148 6.06812 8.76346 6.06812ZM9.60953 7.98823V13.3645C9.60953 13.7365 9.5255 14.0186 9.3635 14.2106C9.20149 14.4026 8.99749 14.4986 8.74548 14.4986C8.49347 14.4986 8.28944 14.4026 8.13344 14.2046C7.97743 14.0065 7.89941 13.7305 7.89941 13.3645V8.04822C7.89941 7.6822 7.97743 7.40017 8.13344 7.21416C8.28944 7.02815 8.49347 6.93817 8.74548 6.93817C8.99749 6.93817 9.20149 7.02815 9.3635 7.21416C9.5255 7.40017 9.60953 7.65821 9.60953 7.98823Z" fill="#D9D9D9"/>
<path id="Vector_2" d="M8.75123 16.7446C12.8207 16.7446 16.1196 13.4457 16.1196 9.37623C16.1196 5.30678 12.8207 2.00781 8.75123 2.00781C4.68178 2.00781 1.38281 5.30678 1.38281 9.37623C1.38281 13.4457 4.68178 16.7446 8.75123 16.7446Z" stroke="#D9D9D9" stroke-width="1.3"/>
</g>
<g id="information_3">
<path id="Vector_3" d="M9.64286 5.18579C9.40884 5.18579 9.20486 5.10777 9.03085 4.94576C8.86284 4.78976 8.77881 4.56175 8.77881 4.27373C8.77881 4.00972 8.86285 3.79369 9.03685 3.62569C9.21086 3.45768 9.40884 3.36768 9.64286 3.36768C9.87687 3.36768 10.0629 3.44569 10.2309 3.6017C10.3989 3.75771 10.4889 3.97971 10.4889 4.27373C10.4889 4.56775 10.4049 4.78376 10.2369 4.94576C10.0689 5.10777 9.87087 5.18579 9.64286 5.18579ZM10.4889 7.1059V12.4822C10.4889 12.8542 10.4049 13.1362 10.2429 13.3282C10.0809 13.5202 9.87689 13.6162 9.62488 13.6162C9.37286 13.6162 9.16884 13.5202 9.01283 13.3222C8.85682 13.1242 8.77881 12.8482 8.77881 12.4822V7.16589C8.77881 6.79987 8.85682 6.51785 9.01283 6.33184C9.16884 6.14583 9.37286 6.05585 9.62488 6.05585C9.87689 6.05585 10.0809 6.14583 10.2429 6.33184C10.4049 6.51785 10.4889 6.77589 10.4889 7.1059Z" fill="#D9D9D9"/>
<path id="Vector_4" d="M9.6316 15.8618C13.7011 15.8618 17 12.5629 17 8.49342C17 4.42396 13.7011 1.125 9.6316 1.125C5.56215 1.125 2.26318 4.42396 2.26318 8.49342C2.26318 12.5629 5.56215 15.8618 9.6316 15.8618Z" stroke="#D9D9D9" stroke-width="1.3"/>
</g>
</g>
</svg>
