<svg width="17" height="17" viewBox="0 0 17 17" fill="none" xmlns="http://www.w3.org/2000/svg">
<g opacity="0.3">
<path d="M13.4129 6.55957V14.6235C13.4129 15.0123 13.2562 15.3852 12.9772 15.6602C12.6983 15.9352 12.3199 16.0896 11.9255 16.0896H4.48839C4.0939 16.0896 3.71557 15.9352 3.43663 15.6602C3.15769 15.3852 3.00098 15.0123 3.00098 14.6235V6.55957" stroke="#4D4D4F" stroke-width="1.2" stroke-linecap="round" stroke-linejoin="round"/>
<path d="M9.69455 8.02637V12.4249M6.71973 8.02637V12.4249" stroke="#4D4D4F" stroke-width="1.2" stroke-linecap="round" stroke-linejoin="round"/>
<path d="M1.51465 4.36006H11.1828M11.1828 4.36006H14.9014M11.1828 4.36006V2.8939C11.1828 2.50505 11.0261 2.13212 10.7472 1.85716C10.4682 1.5822 10.0899 1.42773 9.69542 1.42773H6.72059C6.32611 1.42773 5.94778 1.5822 5.66883 1.85716C5.57611 1.94856 5.4969 2.05078 5.43245 2.16082" stroke="#4D4D4F" stroke-width="1.2" stroke-linecap="round" stroke-linejoin="round"/>
</g>
<path d="M14.2615 5.92236V13.9863C14.2615 14.3751 14.1048 14.748 13.8258 15.023C13.5469 15.298 13.1686 15.4524 12.7741 15.4524H5.33702C4.94254 15.4524 4.56421 15.298 4.28526 15.023C4.00632 14.748 3.84961 14.3751 3.84961 13.9863V5.92236" stroke="#4D4D4F" stroke-width="1.2" stroke-linecap="round" stroke-linejoin="round"/>
<path d="M10.5432 7.38867V11.7872M7.56836 7.38867V11.7872" stroke="#4D4D4F" stroke-width="1.2" stroke-linecap="round" stroke-linejoin="round"/>
<path d="M2.36328 3.72334H12.0315M12.0315 3.72334H15.75M12.0315 3.72334V2.25718C12.0315 1.86833 11.8748 1.4954 11.5958 1.22045C11.3169 0.945486 10.9385 0.791016 10.5441 0.791016H7.56923C7.17474 0.791016 6.79641 0.945486 6.51747 1.22045C6.42474 1.31184 6.34553 1.41406 6.28108 1.5241" stroke="#4D4D4F" stroke-width="1.2" stroke-linecap="round" stroke-linejoin="round"/>
</svg>
