<svg width="61" height="63" viewBox="0 0 61 63" fill="none" xmlns="http://www.w3.org/2000/svg">
<g opacity="0.3">
<path d="M30.0118 59.5292C44.93 59.5292 57.0235 47.2074 57.0235 32.0077C57.0235 16.8081 44.93 4.48633 30.0118 4.48633C15.0936 4.48633 3 16.8081 3 32.0077C3 47.2074 15.0936 59.5292 30.0118 59.5292Z" stroke="#FF6B00" stroke-width="5.52" stroke-linecap="round" stroke-linejoin="round"/>
<path d="M21.4473 23.9531L29.6826 32.0082M29.6826 32.0082L37.9179 40.0632M29.6826 32.0082L21.4473 40.0632M37.9179 23.9531L35.1728 26.6381" stroke="#FF6B00" stroke-width="5.52" stroke-linecap="round" stroke-linejoin="round"/>
</g>
<path d="M31.9883 57.5155C46.9065 57.5155 59.0001 45.1937 59.0001 29.9941C59.0001 14.7944 46.9065 2.47266 31.9883 2.47266C17.0701 2.47266 4.97656 14.7944 4.97656 29.9941C4.97656 45.1937 17.0701 57.5155 31.9883 57.5155Z" stroke="#FF6B00" stroke-width="4" stroke-linecap="round" stroke-linejoin="round"/>
<path d="M23.4238 21.9395L31.6591 29.9945M31.6591 29.9945L39.8944 38.0496M31.6591 29.9945L23.4238 38.0496M39.8944 21.9395L37.1493 24.6245" stroke="#FF9B53" stroke-width="4" stroke-linecap="round" stroke-linejoin="round"/>
</svg>
