<svg width="22" height="20" viewBox="0 0 22 20" fill="none" xmlns="http://www.w3.org/2000/svg">
<g opacity="0.3">
<path d="M7.4979 19.7597C8.28457 19.7597 8.92476 19.1195 8.92476 18.3328C8.92476 17.5461 8.28457 16.9059 7.4979 16.9059C6.71123 16.9059 6.07104 17.5461 6.07104 18.3328C6.07104 19.1195 6.71123 19.7597 7.4979 19.7597Z" fill="#FF6B00"/>
<path d="M16.7694 19.7597C17.5561 19.7597 18.1962 19.1195 18.1962 18.3328C18.1962 17.5461 17.5561 16.9059 16.7694 16.9059C15.9827 16.9059 15.3425 17.5461 15.3425 18.3328C15.3425 19.1195 15.9827 19.7597 16.7694 19.7597Z" fill="#FF6B00"/>
<path d="M1.08545 1.93726H2.58284C2.74017 1.93726 2.88664 1.98609 3.01143 2.07832C3.13621 2.17055 3.22303 2.30076 3.26643 2.45267L6.49447 13.7373C6.57584 14.0357 6.76031 14.2961 7.00445 14.486C7.25401 14.6705 7.55242 14.7735 7.86708 14.7735H16.4065C16.7158 14.7735 17.0196 14.6759 17.2692 14.486C17.5187 14.3015 17.6978 14.0357 17.7791 13.7373L20.1337 5.50169H7.87251" stroke="#FF6B00" stroke-width="1.10134" stroke-linecap="round" stroke-linejoin="round"/>
</g>
<path d="M8.29551 18.9622C9.08218 18.9622 9.72237 18.322 9.72237 17.5353C9.72237 16.7486 9.08218 16.1085 8.29551 16.1085C7.50884 16.1085 6.86865 16.7486 6.86865 17.5353C6.86865 18.322 7.50884 18.9622 8.29551 18.9622Z" fill="#FF6B00"/>
<path d="M17.567 18.9622C18.3537 18.9622 18.9939 18.322 18.9939 17.5353C18.9939 16.7486 18.3537 16.1085 17.567 16.1085C16.7803 16.1085 16.1401 16.7486 16.1401 17.5353C16.1401 18.322 16.7803 18.9622 17.567 18.9622Z" fill="#FF6B00"/>
<path d="M1.88306 1.13971H3.38045C3.53778 1.13971 3.68425 1.18854 3.80903 1.28077C3.93382 1.373 4.02064 1.50321 4.06404 1.65512L7.29207 12.9398C7.37345 13.2381 7.55791 13.4986 7.80205 13.6884C8.05162 13.8729 8.35002 13.976 8.66469 13.976H17.2041C17.5134 13.976 17.8172 13.8783 18.0668 13.6884C18.3163 13.504 18.4954 13.2381 18.5767 12.9398L20.9313 4.70414H8.67012" stroke="#FF6B00" stroke-width="1.5" stroke-linecap="round" stroke-linejoin="round"/>
</svg>
