<svg width="27" height="25" viewBox="0 0 27 25" fill="none" xmlns="http://www.w3.org/2000/svg">
<g opacity="0.3">
<path d="M8.95735 24.1064C9.93811 24.1064 10.7362 23.3082 10.7362 22.3275C10.7362 21.3467 9.93811 20.5486 8.95735 20.5486C7.9766 20.5486 7.17847 21.3467 7.17847 22.3275C7.17847 23.3082 7.9766 24.1064 8.95735 24.1064Z" fill="white"/>
<path d="M20.5164 24.1064C21.4972 24.1064 22.2953 23.3082 22.2953 22.3275C22.2953 21.3467 21.4972 20.5486 20.5164 20.5486C19.5357 20.5486 18.7375 21.3467 18.7375 22.3275C18.7375 23.3082 19.5357 24.1064 20.5164 24.1064Z" fill="white"/>
<path d="M0.962891 1.88696H2.82971C3.02586 1.88696 3.20847 1.94784 3.36404 2.06283C3.51961 2.17781 3.62785 2.34015 3.68196 2.52953L7.7064 16.5983C7.80786 16.9703 8.03783 17.2949 8.3422 17.5317C8.65334 17.7617 9.02536 17.8902 9.41767 17.8902H20.0639C20.4494 17.8902 20.8282 17.7684 21.1394 17.5317C21.4505 17.3017 21.6737 16.9703 21.7752 16.5983L24.7107 6.3308H9.42444" stroke="white" stroke-width="1.10134" stroke-linecap="round" stroke-linejoin="round"/>
</g>
<path d="M9.95174 23.1122C10.9325 23.1122 11.7306 22.3141 11.7306 21.3333C11.7306 20.3526 10.9325 19.5544 9.95174 19.5544C8.97099 19.5544 8.17285 20.3526 8.17285 21.3333C8.17285 22.3141 8.97099 23.1122 9.95174 23.1122Z" fill="white"/>
<path d="M21.5108 23.1122C22.4916 23.1122 23.2897 22.3141 23.2897 21.3333C23.2897 20.3526 22.4916 19.5544 21.5108 19.5544C20.5301 19.5544 19.7319 20.3526 19.7319 21.3333C19.7319 22.3141 20.5301 23.1122 21.5108 23.1122Z" fill="white"/>
<path d="M1.95728 0.892578H3.8241C4.02025 0.892578 4.20286 0.953459 4.35842 1.06844C4.51399 1.18343 4.62223 1.34576 4.67634 1.53515L8.70078 15.6039C8.80224 15.9759 9.03221 16.3006 9.33658 16.5373C9.64772 16.7673 10.0197 16.8958 10.4121 16.8958H21.0583C21.4438 16.8958 21.8226 16.774 22.1338 16.5373C22.4449 16.3073 22.6681 15.9759 22.7696 15.6039L25.705 5.33641H10.4188" stroke="white" stroke-width="1.5" stroke-linecap="round" stroke-linejoin="round"/>
</svg>
