<svg width="22" height="20" viewBox="0 0 22 20" fill="none" xmlns="http://www.w3.org/2000/svg">
<g opacity="0.3">
<path d="M6.93164 14.7484C7.24423 15.6341 7.75215 16.4481 8.40989 17.1124C9.07413 17.7831 9.87517 18.2976 10.7608 18.6167C11.6465 18.9358 12.5908 19.0595 13.5285 18.9749C14.4663 18.8902 15.3715 18.5907 16.1855 18.1088L18.3931 18.773C18.4843 18.799 18.582 18.799 18.6732 18.773C18.7643 18.7469 18.849 18.7014 18.9206 18.6362C18.9857 18.5711 19.0313 18.4865 19.0574 18.3953C19.0834 18.3041 19.0834 18.2064 19.0574 18.1088L18.4322 15.9011C19.0053 14.9503 19.3179 13.8693 19.3439 12.7622C19.37 11.6682 19.1095 10.5806 18.5885 9.61682C18.2694 9.0242 17.8656 8.47718 17.3772 8.0083C17.0712 7.72176 16.739 7.46127 16.3874 7.23334C15.4626 6.64724 14.3946 6.30861 13.3006 6.25" stroke="#FF6B00" stroke-width="1.5" stroke-linecap="round" stroke-linejoin="round"/>
<path d="M7.04219 14.7466C5.9807 14.7075 4.94525 14.4014 4.02703 13.8609L1.81938 14.4861C1.72821 14.5121 1.63053 14.5121 1.53936 14.4861C1.44818 14.4665 1.36352 14.4144 1.29189 14.3493C1.22677 14.2842 1.18121 14.1995 1.15516 14.1084C1.12911 14.0172 1.12911 13.9195 1.15516 13.8283L1.81938 11.6207C1.02489 10.2792 0.744886 8.6967 1.03142 7.16633C1.31796 5.63595 2.15803 4.26188 3.38884 3.30458C4.61965 2.34728 6.15655 1.87189 7.71297 1.96958C9.26939 2.06726 10.7346 2.7315 11.8352 3.83207C12.9357 4.93263 13.5935 6.39788 13.6912 7.9543C13.7889 9.51073 13.3134 11.0411 12.3627 12.2719C11.9133 12.845 11.3728 13.3464 10.7542 13.7372" stroke="#FF6B00" stroke-width="1.5" stroke-linecap="round" stroke-linejoin="round"/>
</g>
<path d="M7.89062 13.7895C8.20321 14.6751 8.71114 15.4892 9.36887 16.1534C10.0331 16.8242 10.8342 17.3386 11.7198 17.6577C12.6055 17.9768 13.5497 18.1005 14.4875 18.0159C15.4253 17.9312 16.3304 17.6317 17.1445 17.1498L19.3521 17.814C19.4433 17.8401 19.541 17.8401 19.6321 17.814C19.7233 17.788 19.808 17.7424 19.8796 17.6773C19.9447 17.6121 19.9903 17.5275 20.0164 17.4363C20.0424 17.3451 20.0424 17.2475 20.0164 17.1498L19.3912 14.9421C19.9643 13.9913 20.2769 12.9103 20.3029 11.8032C20.329 10.7092 20.0685 9.62164 19.5475 8.65783C19.2284 8.06522 18.8246 7.51819 18.3362 7.04931C18.0301 6.76278 17.698 6.50229 17.3463 6.27436C16.4216 5.68826 15.3536 5.34963 14.2596 5.29102" stroke="#FF6B00" stroke-width="1.5" stroke-linecap="round" stroke-linejoin="round"/>
<path d="M7.99922 13.7895C6.93773 13.7504 5.90228 13.4444 4.98406 12.9039L2.77641 13.529C2.68524 13.5551 2.58756 13.5551 2.49639 13.529C2.40522 13.5095 2.32055 13.4574 2.24892 13.3923C2.1838 13.3272 2.13824 13.2425 2.11219 13.1513C2.08614 13.0602 2.08614 12.9625 2.11219 12.8713L2.77641 10.6637C1.98192 9.32214 1.70192 7.73967 1.98845 6.20929C2.27499 4.67892 3.11507 3.30484 4.34588 2.34755C5.57669 1.39025 7.11358 0.914862 8.67 1.01255C10.2264 1.11023 11.6916 1.77447 12.7922 2.87504C13.8928 3.9756 14.5505 5.44085 14.6482 6.99727C14.7459 8.55369 14.2705 10.0841 13.3197 11.3149C12.8704 11.888 12.3299 12.3894 11.7112 12.7801" stroke="#FF9B53" stroke-width="1.5" stroke-linecap="round" stroke-linejoin="round"/>
</svg>
