<svg width="46" height="49" viewBox="0 0 46 49" fill="none" xmlns="http://www.w3.org/2000/svg">
  <g opacity="0.3">
  <path d="M35.9765 31.3975L42.0218 41.1581C42.2709 41.5757 41.9824 42.0976 41.4973 42.0976H36.3437C36.1207 42.0976 35.924 42.215 35.806 42.3977L32.9211 47.2519C32.685 47.6564 32.108 47.6564 31.8589 47.2519L29.4854 43.4546" stroke="#FF6B00" stroke-width="2.66037" stroke-linecap="round"/>
  <path d="M7.82223 31.3975L1.77694 41.1581C1.52778 41.5757 1.81628 42.0976 2.30147 42.0976H7.45505C7.67798 42.0976 7.87468 42.215 7.9927 42.3977L10.8777 47.2519C11.1137 47.6564 11.6907 47.6564 11.9398 47.2519L17.7491 37.9611" stroke="#FF6B00" stroke-width="2.66037" stroke-linecap="round"/>
  <path d="M17.121 23.5716L12.623 19.2133L18.8388 18.3129L21.6189 12.7148L24.3989 18.3129L30.6147 19.2133L26.1168 23.5716L27.179 29.7307L21.632 26.8207L16.0719 29.7307" stroke="#FF6B00" stroke-width="2.66037" stroke-linecap="round" stroke-linejoin="round"/>
  <path d="M21.6044 38.2228C31.046 38.2228 38.6912 30.6022 38.6912 21.2201C38.6912 11.8379 31.0329 4.21729 21.6044 4.21729C12.1758 4.21729 4.51758 11.8379 4.51758 21.2201C4.51758 30.6022 12.1758 38.2228 21.6044 38.2228Z" stroke="#FF6B00" stroke-width="2.66037" stroke-linecap="round" stroke-linejoin="round"/>
  </g>
  <path d="M37.9042 29.4756L43.9495 39.2362C44.1987 39.6538 43.9102 40.1757 43.425 40.1757H38.2714C38.0485 40.1757 37.8518 40.2931 37.7338 40.4758L34.8488 45.3301C34.6128 45.7346 34.0358 45.7346 33.7866 45.3301L31.4131 41.5328" stroke="#FF9B53" stroke-width="2.66037" stroke-linecap="round"/>
  <path d="M9.74996 29.4756L3.70467 39.2362C3.45551 39.6538 3.74401 40.1757 4.22921 40.1757H9.38278C9.60571 40.1757 9.80241 40.2931 9.92043 40.4758L12.8054 45.3301C13.0414 45.7346 13.6184 45.7346 13.8676 45.3301L19.6768 36.0392" stroke="#FF9B53" stroke-width="2.66037" stroke-linecap="round"/>
  <path d="M19.0487 21.6526L14.5508 17.2943L20.7665 16.3939L23.5466 10.7959L26.3266 16.3939L32.5424 17.2943L28.0445 21.6526L29.1067 27.8117L23.5597 24.9018L17.9996 27.8117" stroke="#FF9B53" stroke-width="2.66037" stroke-linecap="round" stroke-linejoin="round"/>
  <path d="M23.5321 36.3039C32.9738 36.3039 40.6189 28.6833 40.6189 19.3011C40.6189 9.91895 32.9607 2.29834 23.5321 2.29834C14.1036 2.29834 6.44531 9.91895 6.44531 19.3011C6.44531 28.6833 14.1036 36.3039 23.5321 36.3039Z" stroke="#FF6B00" stroke-width="2.66037" stroke-linecap="round" stroke-linejoin="round"/>
</svg>
