<svg width="43" height="52" viewBox="0 0 43 52" fill="none" xmlns="http://www.w3.org/2000/svg">
  <g opacity="0.3">
  <path d="M2.91857 9.7548C2.05308 10.6291 1.58105 11.8035 1.58105 13.0301V45.3784C1.58105 45.9917 1.69902 46.5919 1.93506 47.153C2.1711 47.7141 2.51208 48.223 2.94482 48.6536C3.37757 49.0842 3.88902 49.4235 4.4529 49.6584C5.01678 49.8933 5.61997 50.0107 6.23631 50.0107H34.1023C34.7187 50.0107 35.3219 49.8933 35.8857 49.6584C36.4496 49.4235 36.9611 49.0842 37.3938 48.6536C37.8266 48.223 38.1675 47.7141 38.4036 47.153C38.6396 46.5919 38.7576 45.9917 38.7576 45.3784V13.0301C38.7576 11.8035 38.2856 10.6291 37.4201 9.7548C36.9873 9.32419 36.4759 8.98492 35.912 8.76309C35.3481 8.54126 34.7449 8.42383 34.1286 8.42383H29.4864" stroke="#FF6B00" stroke-width="2.66203" stroke-linecap="round" stroke-linejoin="round"/>
  <path d="M29.4211 8.40762V6.05881C29.4211 5.75868 29.3555 5.45857 29.2506 5.17149C29.1326 4.89747 28.9621 4.63648 28.7523 4.42769C28.5425 4.21891 28.2802 4.04929 28.0048 3.93185C27.7295 3.81441 27.4279 3.76221 27.1131 3.76221H13.1736C12.5572 3.76221 11.9671 4.01014 11.5344 4.44076C11.1016 4.87137 10.8525 5.45857 10.8525 6.07187V10.6912C10.8525 11.3045 11.1016 11.8917 11.5344 12.3223C11.9671 12.7529 12.5572 13.0008 13.1736 13.0008H27.1131C27.7295 13.0008 28.3196 12.7529 28.7523 12.3223C29.1851 11.8917 29.4342 11.3045 29.4342 10.6912V8.40762H29.4211Z" stroke="#FF6B00" stroke-width="2.66203" stroke-linecap="round" stroke-linejoin="round"/>
  <path d="M8.54492 18.6118H32.2671" stroke="#FF6B00" stroke-width="2.66203" stroke-linecap="round"/>
  <path d="M8.54492 24.9014H32.2671" stroke="#FF6B00" stroke-width="2.66203" stroke-linecap="round"/>
  <path d="M8.54492 31.2051H32.2671" stroke="#FF6B00" stroke-width="2.66203" stroke-linecap="round"/>
  <path d="M8.54492 37.4951H32.2671" stroke="#FF6B00" stroke-width="2.66203" stroke-linecap="round"/>
  <path d="M8.54492 43.7959H32.2671" stroke="#FF6B00" stroke-width="2.66203" stroke-linecap="round"/>
  </g>
  <path d="M4.8463 7.83293C3.98082 8.70721 3.50879 9.88162 3.50879 11.1082V43.4565C3.50879 44.0698 3.62676 44.67 3.8628 45.2311C4.09884 45.7922 4.43981 46.3011 4.87256 46.7318C5.3053 47.1624 5.81676 47.5016 6.38063 47.7365C6.94451 47.9714 7.54771 48.0888 8.16404 48.0888H36.0301C36.6464 48.0888 37.2496 47.9714 37.8135 47.7365C38.3774 47.5016 38.8888 47.1624 39.3216 46.7318C39.7543 46.3011 40.0953 45.7922 40.3313 45.2311C40.5674 44.67 40.6853 44.0698 40.6853 43.4565V11.1082C40.6853 9.88162 40.2133 8.70721 39.3478 7.83293C38.9151 7.40231 38.4036 7.06305 37.8397 6.84122C37.2759 6.61939 36.6727 6.50195 36.0563 6.50195H31.4141" stroke="#FF6B00" stroke-width="2.66203" stroke-linecap="round" stroke-linejoin="round"/>
  <path d="M31.3489 6.48867V4.13986C31.3489 3.83974 31.2833 3.53962 31.1784 3.25255C31.0604 2.97852 30.8899 2.71753 30.6801 2.50875C30.4702 2.29997 30.208 2.13034 29.9326 2.0129C29.6572 1.89546 29.3556 1.84326 29.0409 1.84326H15.1013C14.485 1.84326 13.8949 2.0912 13.4621 2.52181C13.0294 2.95243 12.7803 3.53963 12.7803 4.15293V8.77223C12.7803 9.38553 13.0294 9.97274 13.4621 10.4033C13.8949 10.834 14.485 11.0819 15.1013 11.0819H29.0409C29.6572 11.0819 30.2473 10.834 30.6801 10.4033C31.1128 9.97274 31.362 9.38553 31.362 8.77223V6.48867H31.3489Z" stroke="#FF9B53" stroke-width="2.66203" stroke-linecap="round" stroke-linejoin="round"/>
  <path d="M10.4727 16.6929H34.1948" stroke="#FF9B53" stroke-width="2.66203" stroke-linecap="round"/>
  <path d="M10.4727 22.9824H34.1948" stroke="#FF9B53" stroke-width="2.66203" stroke-linecap="round"/>
  <path d="M10.4727 29.2866H34.1948" stroke="#FF9B53" stroke-width="2.66203" stroke-linecap="round"/>
  <path d="M10.4727 35.5762H34.1948" stroke="#FF9B53" stroke-width="2.66203" stroke-linecap="round"/>
  <path d="M10.4727 41.8745H34.1948" stroke="#FF9B53" stroke-width="2.66203" stroke-linecap="round"/>
</svg>
