<svg width="65" height="44" viewBox="0 0 65 44" fill="none" xmlns="http://www.w3.org/2000/svg">
  <g opacity="0.3">
  <path d="M14.6172 35.089H10.8799V30.9004" stroke="#FF6B00" stroke-width="2.66203" stroke-linecap="round" stroke-linejoin="round"/>
  <path d="M10.8799 11.577V3.94336H42.1948V35.1042H31.2188" stroke="#FF6B00" stroke-width="2.66203" stroke-linecap="round" stroke-linejoin="round"/>
  <path d="M42.1807 9.26611H53.5238L62.6114 16.7954V35.103H61.0509" stroke="#FF6B00" stroke-width="2.66203" stroke-linecap="round" stroke-linejoin="round"/>
  <path d="M41.29 35.104H44.6864" stroke="#FF6B00" stroke-width="2.66203" stroke-linecap="round" stroke-linejoin="round"/>
  <path d="M47.3877 15.6211V24.8336H56.4097V18.4788L53.0396 15.6342H47.3877V15.6211Z" stroke="#FF6B00" stroke-width="2.66203" stroke-linecap="round" stroke-linejoin="round"/>
  <path d="M25.5015 15.6128H9.00488" stroke="#FF6B00" stroke-width="2.66203" stroke-linecap="round" stroke-linejoin="round"/>
  <path d="M22.0129 21.5205H5.5293" stroke="#FF6B00" stroke-width="2.66203" stroke-linecap="round" stroke-linejoin="round"/>
  <path d="M18.5246 27.4458H2.04102" stroke="#FF6B00" stroke-width="2.66203" stroke-linecap="round" stroke-linejoin="round"/>
  <path d="M22.7731 42.3606C25.3433 42.3606 27.4152 40.2859 27.4152 37.7414C27.4152 35.1968 25.3302 33.1221 22.7731 33.1221C20.2159 33.1221 18.1309 35.1968 18.1309 37.7414C18.1309 40.2859 20.2159 42.3606 22.7731 42.3606Z" stroke="#FF6B00" stroke-width="2.66203" stroke-linecap="round" stroke-linejoin="round"/>
  <path d="M52.7906 42.3606C55.3608 42.3606 57.4328 40.2859 57.4328 37.7414C57.4328 35.1968 55.3477 33.1221 52.7906 33.1221C50.2334 33.1221 48.1484 35.1968 48.1484 37.7414C48.1484 40.2859 50.2334 42.3606 52.7906 42.3606Z" stroke="#FF6B00" stroke-width="2.66203" stroke-linecap="round" stroke-linejoin="round"/>
  </g>
  <path d="M15.4258 33.1681H11.6885V28.9795" stroke="#FF6B00" stroke-width="2.66203" stroke-linecap="round" stroke-linejoin="round"/>
  <path d="M11.6885 9.65613V2.02246H43.0034V33.1833H32.0274" stroke="#FF6B00" stroke-width="2.66203" stroke-linecap="round" stroke-linejoin="round"/>
  <path d="M42.9893 7.34521H54.3324L63.42 14.8745V33.1821H61.8595" stroke="#FF6B00" stroke-width="2.66203" stroke-linecap="round" stroke-linejoin="round"/>
  <path d="M42.0986 33.1831H45.495" stroke="#FF6B00" stroke-width="2.66203" stroke-linecap="round" stroke-linejoin="round"/>
  <path d="M48.1963 13.7002V22.9127H57.2183V16.5579L53.8482 13.7133H48.1963V13.7002Z" stroke="#FF6B00" stroke-width="2.66203" stroke-linecap="round" stroke-linejoin="round"/>
  <path d="M26.3101 13.6919H9.81348" stroke="#FF9B53" stroke-width="2.66203" stroke-linecap="round" stroke-linejoin="round"/>
  <path d="M22.8215 19.5996H6.33789" stroke="#FF9B53" stroke-width="2.66203" stroke-linecap="round" stroke-linejoin="round"/>
  <path d="M19.3332 25.5249H2.84961" stroke="#FF9B53" stroke-width="2.66203" stroke-linecap="round" stroke-linejoin="round"/>
  <path d="M23.5817 40.4397C26.1519 40.4397 28.2238 38.365 28.2238 35.8205C28.2238 33.2759 26.1388 31.2012 23.5817 31.2012C21.0245 31.2012 18.9395 33.2759 18.9395 35.8205C18.9395 38.365 21.0245 40.4397 23.5817 40.4397Z" stroke="#FF9B53" stroke-width="2.66203" stroke-linecap="round" stroke-linejoin="round"/>
  <path d="M53.5992 40.4397C56.1694 40.4397 58.2414 38.365 58.2414 35.8205C58.2414 33.2759 56.1563 31.2012 53.5992 31.2012C51.042 31.2012 48.957 33.2759 48.957 35.8205C48.957 38.365 51.042 40.4397 53.5992 40.4397Z" stroke="#FF9B53" stroke-width="2.66203" stroke-linecap="round" stroke-linejoin="round"/>
</svg>
