<svg width="23" height="23" viewBox="0 0 23 23" fill="none" xmlns="http://www.w3.org/2000/svg">
<g opacity="0.3">
<path d="M11.0791 21.6943C16.6019 21.6943 21.0791 17.2172 21.0791 11.6943C21.0791 6.17149 16.6019 1.69434 11.0791 1.69434C5.55625 1.69434 1.0791 6.17149 1.0791 11.6943C1.0791 17.2172 5.55625 21.6943 11.0791 21.6943Z" stroke="white" stroke-width="1.34634" stroke-linecap="round" stroke-linejoin="round"/>
<path d="M7.9082 8.76758L10.957 11.6944M10.957 11.6944L14.0058 14.6212M10.957 11.6944L7.9082 14.6212M14.0058 8.76758L12.9895 9.74319" stroke="white" stroke-width="1.34634" stroke-linecap="round" stroke-linejoin="round"/>
</g>
<path d="M11.8105 20.9629C17.3334 20.9629 21.8105 16.4857 21.8105 10.9629C21.8105 5.44004 17.3334 0.962891 11.8105 0.962891C6.2877 0.962891 1.81055 5.44004 1.81055 10.9629C1.81055 16.4857 6.2877 20.9629 11.8105 20.9629Z" stroke="white" stroke-width="1.34634" stroke-linecap="round" stroke-linejoin="round"/>
<path d="M8.63965 8.03613L11.6884 10.963M11.6884 10.963L14.7372 13.8898M11.6884 10.963L8.63965 13.8898M14.7372 8.03613L13.7209 9.01174" stroke="white" stroke-width="1.34634" stroke-linecap="round" stroke-linejoin="round"/>
</svg>
