<svg width="15" height="15" viewBox="0 0 15 15" fill="none" xmlns="http://www.w3.org/2000/svg">
<g opacity="0.3">
<path d="M10.289 4.83529V3.50195C10.289 2.39738 9.39358 1.50195 8.28901 1.50195H3C1.89543 1.50195 1 2.39738 1 3.50195V8.78998C1 9.89455 1.89543 10.79 3 10.79H4.33333" stroke="#4D4D4F"/>
<rect x="4.37695" y="4.88281" width="9.28901" height="9.28802" rx="2" stroke="#4D4D4F"/>
</g>
<path d="M10.955 4.16536V2.83203C10.955 1.72746 10.0596 0.832031 8.95502 0.832031H3.66602C2.56145 0.832031 1.66602 1.72746 1.66602 2.83203V8.12005C1.66602 9.22462 2.56145 10.1201 3.66601 10.1201H4.99935" stroke="#4D4D4F"/>
<rect x="5.04492" y="4.21289" width="9.28901" height="9.28802" rx="2" stroke="#4D4D4F"/>
</svg>
