<svg width="20" height="20" viewBox="0 0 20 20" fill="none" xmlns="http://www.w3.org/2000/svg">
<g opacity="0.3">
<path d="M13.2773 6.66667V5C13.2773 3.61929 12.158 2.5 10.7773 2.5H4.16602C2.7853 2.5 1.66602 3.61929 1.66602 5V11.61C1.66602 12.9907 2.7853 14.11 4.16602 14.11H5.83268" stroke="#FF6B00" stroke-width="1.25"/>
<rect x="5.88916" y="6.72363" width="11.6113" height="11.61" rx="2.5" stroke="#FF6B00" stroke-width="1.25"/>
</g>
<path d="M14.1108 5.83341V4.16675C14.1108 2.78604 12.9915 1.66675 11.6108 1.66675H4.99951C3.6188 1.66675 2.49951 2.78604 2.49951 4.16675V10.7768C2.49951 12.1575 3.6188 13.2768 4.99951 13.2768H6.66618" stroke="#FF9B53" stroke-width="1.25"/>
<rect x="6.72217" y="5.89038" width="11.6113" height="11.61" rx="2.5" stroke="#FF6B00" stroke-width="1.25"/>
</svg>
