<svg width="20" height="24" viewBox="0 0 20 24" fill="none" xmlns="http://www.w3.org/2000/svg">
<g id="L&#225;&#187;&#139;ch">
<g id="Group 1000002115" opacity="0.3">
<path id="Vector" d="M13.1553 2.68994V5.54757" stroke="#FF6B00" stroke-width="1.5" stroke-linecap="round" stroke-linejoin="round"/>
<path id="Vector_2" d="M5.53479 2.68994V5.54757" stroke="#FF6B00" stroke-width="1.5" stroke-linecap="round" stroke-linejoin="round"/>
<path id="Vector_3" d="M3.63009 11.2624H17.9183V7.45221C17.9183 6.40006 17.0653 5.54712 16.0132 5.54712H2.67755C1.6254 5.54712 0.772461 6.40006 0.772461 7.45221V20.7878C0.772461 21.84 1.6254 22.6929 2.67755 22.6929H16.0132C17.0653 22.6929 17.9183 21.84 17.9183 20.7878V14.12" stroke="#FF6B00" stroke-width="1.5" stroke-linecap="round" stroke-linejoin="round"/>
<path id="Vector_4" d="M14.6813 14.1196H3.63184M14.1098 18.8824H10.2996M14.6813 16.5962H3.63184" stroke="#FF6B00" stroke-width="1.5" stroke-linecap="round" stroke-linejoin="round"/>
</g>
<g id="Group 1000002114">
<path id="Vector_5" d="M14.1521 1.69336V4.55099" stroke="#FF6B00" stroke-width="1.5" stroke-linecap="round" stroke-linejoin="round"/>
<path id="Vector_6" d="M6.53381 1.69336V4.55099" stroke="#FF6B00" stroke-width="1.5" stroke-linecap="round" stroke-linejoin="round"/>
<path id="Vector_7" d="M4.62692 10.2675H18.9151V6.45733C18.9151 5.40518 18.0621 4.55225 17.01 4.55225H3.67438C2.62222 4.55225 1.76929 5.40518 1.76929 6.45733V19.793C1.76929 20.8451 2.62222 21.698 3.67438 21.698H17.01C18.0621 21.698 18.9151 20.8451 18.9151 19.793V13.1251" stroke="#FF6B00" stroke-width="1.5" stroke-linecap="round" stroke-linejoin="round"/>
<path id="Vector_8" d="M15.676 13.1243H4.62646M15.1045 17.887H11.2943M15.676 15.6009H4.62646" stroke="#FF9B53" stroke-width="1.5" stroke-linecap="round" stroke-linejoin="round"/>
</g>
</g>
</svg>
