<svg width="152" height="152" viewBox="0 0 152 152" fill="none" xmlns="http://www.w3.org/2000/svg">
<g clip-path="url(#clip0_0_2547)">
<path d="M152 76C152 97.2646 143.266 116.488 129.191 130.281C129.103 130.368 129.014 130.454 128.924 130.54C127.769 131.66 126.58 132.745 125.354 133.792C122.939 135.861 120.391 137.778 117.727 139.53C105.749 147.414 91.4096 152 75.9995 152C60.5895 152 46.2496 147.414 34.2721 139.53C31.6082 137.778 29.0603 135.861 26.6449 133.792C25.419 132.745 24.2295 131.66 23.0748 130.54C22.9854 130.454 22.8959 130.368 22.8081 130.281C8.73331 116.487 -0.000488281 97.2646 -0.000488281 76C-0.000488281 34.0257 34.0252 0 75.9995 0C117.974 0 152 34.0257 152 76Z" fill="#E0E0E0"/>
<path d="M128.924 130.538C127.769 131.658 126.58 132.743 125.354 133.79C122.939 135.859 120.391 137.776 117.727 139.529C105.749 147.413 91.4096 151.998 75.9995 151.998C60.5895 151.998 46.2496 147.413 34.2721 139.529C31.6082 137.776 29.0603 135.859 26.6449 133.79C25.419 132.743 24.2295 131.658 23.0748 130.538C25.9392 121.662 32.9434 114.467 42.1825 111.551L64.678 104.448V100.739C61.8584 99.0637 59.3387 97.1487 57.2613 95.7455C53.3963 93.1379 50.7954 89.051 50.0267 84.4538L48.8273 77.2773C45.07 77.2773 42.0334 74.2406 42.0334 70.4834C42.0334 67.6903 43.7099 65.2948 46.1154 64.2528C44.0148 59.3276 42.4741 54.1075 41.548 48.7549C40.9599 45.3638 40.6286 41.7871 41.6242 38.5169C42.6182 35.2467 45.2523 32.3774 48.3601 32.321L48.7677 32.3492C50.7291 29.2861 53.7939 27.2683 57.0111 26.102C60.2283 24.9341 63.6244 24.5381 66.989 24.1505C68.3044 23.9997 69.6264 23.8457 70.9517 23.7131C77.0631 23.125 83.7178 22.9826 89.9666 24.722C96.2171 26.4632 102.256 30.3662 105.438 36.5885C107.966 41.5253 108.478 47.4809 107.842 53.1152C107.421 56.8542 106.525 60.4939 105.473 64.0871C108.095 65.0264 109.966 67.5329 109.966 70.4834C109.966 74.2406 106.932 77.2773 103.172 77.2773L101.972 84.4538C101.204 89.051 98.6044 93.1379 94.7394 95.7455C92.6587 97.1487 90.1422 99.0637 87.3226 100.739V104.448L109.816 111.551C119.057 114.469 126.062 121.664 128.927 130.538H128.924Z" fill="#9E9E9E"/>
</g>
<defs>
<clipPath id="clip0_0_2547">
<rect width="152" height="152" fill="white" transform="translate(-0.000488281)"/>
</clipPath>
</defs>
</svg>
