<svg width="19" height="18" viewBox="0 0 19 18" fill="none" xmlns="http://www.w3.org/2000/svg">
<g opacity="0.3">
<path d="M7.93457 3.77319L3.45457 8.04005" stroke="white" stroke-width="1.1776" stroke-linecap="round"/>
<path d="M10.4387 6.14261L12.2512 7.93326L15.2677 10.9134L16.7876 16.8933L10.7235 15.3794L2.3719 7.17406C2.07251 6.87883 1.83503 6.52834 1.673 6.14261C1.51097 5.75687 1.42758 5.34344 1.42758 4.92592C1.42758 4.50841 1.51097 4.09498 1.673 3.70924C1.83503 3.32351 2.07251 2.97302 2.3719 2.67779C2.67129 2.38256 3.02671 2.14837 3.41788 1.98859C3.80905 1.82882 4.2283 1.74658 4.6517 1.74658C5.0751 1.74658 5.49435 1.82882 5.88552 1.98859C6.27669 2.14837 6.63211 2.38256 6.9315 2.67779L8.04092 3.77325" stroke="white" stroke-width="1.1776" stroke-linecap="round" stroke-linejoin="round"/>
</g>
<path d="M8.57471 3.1333L4.09471 7.40016" stroke="white" stroke-width="1.1776" stroke-linecap="round"/>
<path d="M11.0788 5.50271L12.8913 7.29336L15.9079 10.2735L17.4277 16.2534L11.3636 14.7395L3.01204 6.53417C2.71265 6.23894 2.47516 5.88845 2.31313 5.50271C2.15111 5.11698 2.06771 4.70355 2.06771 4.28603C2.06771 3.86852 2.15111 3.45509 2.31313 3.06935C2.47516 2.68361 2.71265 2.33313 3.01204 2.0379C3.31142 1.74267 3.66685 1.50848 4.05802 1.3487C4.44919 1.18892 4.86844 1.10669 5.29184 1.10669C5.71523 1.10669 6.13449 1.18892 6.52565 1.3487C6.91682 1.50848 7.27225 1.74267 7.57164 2.0379L8.68106 3.13336" stroke="white" stroke-width="1.1776" stroke-linecap="round" stroke-linejoin="round"/>
</svg>
