<svg width="15" height="15" viewBox="0 0 15 15" fill="none" xmlns="http://www.w3.org/2000/svg">
<g opacity="0.3">
<path d="M6.26562 3.51904L2.55854 7.04976" stroke="#FF6B00" stroke-width="1.03125" stroke-linecap="round"/>
<path d="M8.33821 5.47915L9.83804 6.96087L12.3341 9.42684L13.5918 14.375L8.5739 13.1223L1.66318 6.33265C1.41544 6.08836 1.21893 5.79834 1.08485 5.47915C0.950779 5.15996 0.881774 4.81786 0.881774 4.47238C0.881774 4.12689 0.950779 3.78479 1.08485 3.4656C1.21893 3.14642 1.41544 2.8564 1.66318 2.6121C1.91091 2.36781 2.20502 2.17402 2.5287 2.04181C2.85238 1.9096 3.1993 1.84155 3.54965 1.84155C3.9 1.84155 4.24692 1.9096 4.5706 2.04181C4.89429 2.17402 5.18839 2.36781 5.43613 2.6121L6.35414 3.51857" stroke="#FF6B00" stroke-width="1.03125" stroke-linecap="round" stroke-linejoin="round"/>
</g>
<path d="M6.7959 2.98926L3.08882 6.51998" stroke="#FF9B53" stroke-width="1.03125" stroke-linecap="round"/>
<path d="M8.86922 4.9501L10.369 6.43181L12.8652 8.89779L14.1228 13.846L9.10491 12.5933L2.19418 5.8036C1.94645 5.5593 1.74993 5.26928 1.61586 4.9501C1.48179 4.63091 1.41278 4.28881 1.41278 3.94332C1.41278 3.59784 1.48179 3.25574 1.61586 2.93655C1.74993 2.61736 1.94645 2.32734 2.19418 2.08305C2.44192 1.83876 2.73602 1.64497 3.05971 1.51276C3.38339 1.38055 3.73031 1.3125 4.08066 1.3125C4.43101 1.3125 4.77793 1.38055 5.10161 1.51276C5.42529 1.64497 5.7194 1.83876 5.96713 2.08305L6.88515 2.98952" stroke="#FF6B00" stroke-width="1.03125" stroke-linecap="round" stroke-linejoin="round"/>
</svg>
