<svg width="24" height="24" viewBox="0 0 24 24" fill="none" xmlns="http://www.w3.org/2000/svg">
<g opacity="0.3">
<path d="M21.0908 7.72363V17.8351C21.0908 18.1672 20.957 18.4885 20.7213 18.7242C20.4857 18.9598 20.1643 19.0937 19.8323 19.0937H3.04763C2.8816 19.0937 2.72092 19.0616 2.56561 18.9973C2.41029 18.933 2.27643 18.842 2.1586 18.7242C2.04078 18.6063 1.94973 18.4671 1.88546 18.3171C1.82119 18.1618 1.78906 18.0011 1.78906 17.8351V7.72363" stroke="#FF6B00" stroke-width="1.5" stroke-linecap="round" stroke-linejoin="round"/>
<path d="M2.13672 18.686L6.72652 13.1858" stroke="#FF6B00" stroke-width="1.5" stroke-linecap="round" stroke-linejoin="round"/>
<path d="M20.6883 18.7557L16.0449 13.1858" stroke="#FF6B00" stroke-width="1.5" stroke-linecap="round" stroke-linejoin="round"/>
<path d="M21.0908 7.72294C21.0908 7.39089 20.957 7.06955 20.7213 6.8339C20.4857 6.59825 20.1643 6.46436 19.8323 6.46436H3.04763C2.8816 6.46436 2.72092 6.49649 2.56561 6.56075C2.41029 6.62502 2.27643 6.71607 2.1586 6.8339C2.04078 6.95172 1.94973 7.09097 1.88546 7.24092C1.82119 7.39624 1.78906 7.55691 1.78906 7.72294L11.3757 14.1229L21.0855 7.72294H21.0908Z" stroke="#FF6B00" stroke-width="1.5" stroke-linecap="round" stroke-linejoin="round"/>
</g>
<path d="M21.878 6.93628V17.0478C21.878 17.3798 21.7441 17.7012 21.5084 17.9368C21.2728 18.1724 20.9514 18.3063 20.6194 18.3063H3.83474C3.66871 18.3063 3.50803 18.2742 3.35272 18.2099C3.1974 18.1457 3.06354 18.0546 2.94571 17.9368C2.82789 17.819 2.73684 17.6797 2.67257 17.5298C2.6083 17.3745 2.57617 17.2138 2.57617 17.0478V6.93628" stroke="#FF6B00" stroke-width="1.5" stroke-linecap="round" stroke-linejoin="round"/>
<path d="M2.92383 17.8982L7.51363 12.3979" stroke="#FF6B00" stroke-width="1.5" stroke-linecap="round" stroke-linejoin="round"/>
<path d="M21.4773 17.9683L16.834 12.3984" stroke="#FF6B00" stroke-width="1.5" stroke-linecap="round" stroke-linejoin="round"/>
<path d="M21.878 6.93485C21.878 6.6028 21.7441 6.28146 21.5084 6.04581C21.2728 5.81016 20.9514 5.67627 20.6194 5.67627H3.83474C3.66871 5.67627 3.50803 5.7084 3.35272 5.77267C3.1974 5.83694 3.06354 5.92799 2.94571 6.04581C2.82789 6.16364 2.73684 6.30288 2.67257 6.45284C2.6083 6.60815 2.57617 6.76883 2.57617 6.93485L12.1628 13.3349L21.8726 6.93485H21.878Z" stroke="#FF9B53" stroke-width="1.5" stroke-linecap="round" stroke-linejoin="round"/>
</svg>
