<svg width="24" height="25" viewBox="0 0 24 25" fill="none" xmlns="http://www.w3.org/2000/svg">
<g opacity="0.3">
<path d="M2 10.3799C2 10.3799 5.2434 13.9547 11.2669 13.9547C17.2903 13.9547 20.5337 10.3799 20.5337 10.3799" stroke="#4D4D4F" stroke-width="1.2" stroke-linecap="round" stroke-linejoin="round"/>
<path d="M3.85337 11.8511L2 13.9557M20.5337 13.9557L18.6841 11.8538M8.40711 13.6698L7.56012 16.19M14.1053 13.6769L14.9736 16.19" stroke="#4D4D4F" stroke-width="1.2" stroke-linecap="round" stroke-linejoin="round"/>
</g>
<path d="M2.83203 9.55029C2.83203 9.55029 6.07543 13.1251 12.0989 13.1251C18.1224 13.1251 21.3658 9.55029 21.3658 9.55029" stroke="#4D4D4F" stroke-width="1.5" stroke-linecap="round" stroke-linejoin="round"/>
<path d="M4.6854 11.02L2.83203 13.1247M21.3658 13.1247L19.5161 11.0227M9.23914 12.8387L8.39215 15.359M14.9373 12.8459L15.8056 15.359" stroke="#4D4D4F" stroke-width="1.5" stroke-linecap="round" stroke-linejoin="round"/>
</svg>
