<svg width="25" height="25" viewBox="0 0 25 25" fill="none" xmlns="http://www.w3.org/2000/svg">
<g opacity="0.3">
<path d="M12.0256 6.49524C10.067 6.49704 8.14701 7.03986 6.47742 8.06381C4.80783 9.08776 3.45356 10.553 2.56405 12.298C2.42894 12.5579 2.3584 12.8466 2.3584 13.1396C2.3584 13.4326 2.42894 13.7212 2.56405 13.9812C3.45618 15.7226 4.81157 17.1839 6.48097 18.2044C8.15036 19.2249 10.069 19.7649 12.0256 19.7649C13.9822 19.7649 15.9008 19.2249 17.5702 18.2044C19.2396 17.1839 20.595 15.7226 21.4871 13.9812C21.6222 13.7212 21.6928 13.4326 21.6928 13.1396C21.6928 12.8466 21.6222 12.5579 21.4871 12.298C20.5976 10.553 19.2433 9.08776 17.5738 8.06381C15.9042 7.03986 13.9842 6.49704 12.0256 6.49524V6.49524Z" stroke="#FF6B00" stroke-width="1.2" stroke-linecap="round" stroke-linejoin="round"/>
<path d="M12.0255 16.2397C13.738 16.2397 15.1262 14.8515 15.1262 13.139C15.1262 11.4266 13.738 10.0383 12.0255 10.0383C10.313 10.0383 8.9248 11.4266 8.9248 13.139C8.9248 14.8515 10.313 16.2397 12.0255 16.2397Z" stroke="#FF6B00" stroke-width="1.2" stroke-linecap="round" stroke-linejoin="round"/>
</g>
<path d="M12.8322 5.68982C10.8737 5.69162 8.95365 6.23444 7.28406 7.25839C5.61447 8.28234 4.26021 9.74762 3.37069 11.4925C3.23558 11.7525 3.16504 12.0412 3.16504 12.3342C3.16504 12.6271 3.23558 12.9158 3.37069 13.1758C4.26282 14.9171 5.61821 16.3785 7.28761 17.399C8.957 18.4195 10.8756 18.9594 12.8322 18.9594C14.7888 18.9594 16.7075 18.4195 18.3769 17.399C20.0463 16.3785 21.4016 14.9171 22.2938 13.1758C22.4289 12.9158 22.4994 12.6271 22.4994 12.3342C22.4994 12.0412 22.4289 11.7525 22.2938 11.4925C21.4043 9.74762 20.05 8.28234 18.3804 7.25839C16.7108 6.23444 14.7908 5.69162 12.8322 5.68982V5.68982Z" stroke="#FF6B00" stroke-width="1.5" stroke-linecap="round" stroke-linejoin="round"/>
<path d="M12.8321 15.4338C14.5446 15.4338 15.9328 14.0456 15.9328 12.3331C15.9328 10.6206 14.5446 9.23242 12.8321 9.23242C11.1197 9.23242 9.73145 10.6206 9.73145 12.3331C9.73145 14.0456 11.1197 15.4338 12.8321 15.4338Z" stroke="#FF6B00" stroke-width="1.5" stroke-linecap="round" stroke-linejoin="round"/>
</svg>
