<svg width="22" height="17" viewBox="0 0 22 17" fill="none" xmlns="http://www.w3.org/2000/svg">
<g opacity="0.3">
<path d="M10.5266 2.16016C8.568 2.16195 6.64799 2.70477 4.9784 3.72873C3.30881 4.75268 1.95454 6.21796 1.06502 7.96288C0.929912 8.22285 0.859375 8.51152 0.859375 8.8045C0.859375 9.09748 0.929912 9.38615 1.06502 9.64611C1.95715 11.3875 3.31255 12.8489 4.98194 13.8693C6.65134 14.8898 8.56998 15.4298 10.5266 15.4298C12.4832 15.4298 14.4018 14.8898 16.0712 13.8693C17.7406 12.8489 19.096 11.3875 19.9881 9.64611C20.1232 9.38615 20.1938 9.09748 20.1938 8.8045C20.1938 8.51152 20.1232 8.22285 19.9881 7.96288C19.0986 6.21796 17.7443 4.75268 16.0747 3.72873C14.4051 2.70477 12.4851 2.16195 10.5266 2.16016V2.16016Z" stroke="#FF6B00" stroke-width="1.2" stroke-linecap="round" stroke-linejoin="round"/>
<path d="M10.5265 11.9045C12.2389 11.9045 13.6272 10.5163 13.6272 8.80382C13.6272 7.09135 12.2389 5.70312 10.5265 5.70312C8.81401 5.70312 7.42578 7.09135 7.42578 8.80382C7.42578 10.5163 8.81401 11.9045 10.5265 11.9045Z" stroke="#FF6B00" stroke-width="1.2" stroke-linecap="round" stroke-linejoin="round"/>
</g>
<path d="M11.3332 1.35449C9.37464 1.35629 7.45463 1.89911 5.78504 2.92306C4.11545 3.94701 2.76118 5.41229 1.87166 7.15722C1.73655 7.41718 1.66602 7.70585 1.66602 7.99883C1.66602 8.29181 1.73655 8.58049 1.87166 8.84045C2.76379 10.5818 4.11919 12.0432 5.78858 13.0637C7.45798 14.0841 9.37662 14.6241 11.3332 14.6241C13.2898 14.6241 15.2084 14.0841 16.8778 13.0637C18.5472 12.0432 19.9026 10.5818 20.7948 8.84045C20.9299 8.58049 21.0004 8.29181 21.0004 7.99883C21.0004 7.70585 20.9299 7.41718 20.7948 7.15722C19.9052 5.41229 18.551 3.94701 16.8814 2.92306C15.2118 1.89911 13.2918 1.35629 11.3332 1.35449V1.35449Z" stroke="#FF6B00" stroke-width="1.5" stroke-linecap="round" stroke-linejoin="round"/>
<path d="M11.3331 11.0988C13.0456 11.0988 14.4338 9.71062 14.4338 7.99815C14.4338 6.28569 13.0456 4.89746 11.3331 4.89746C9.62065 4.89746 8.23242 6.28569 8.23242 7.99815C8.23242 9.71062 9.62065 11.0988 11.3331 11.0988Z" stroke="#FF6B00" stroke-width="1.5" stroke-linecap="round" stroke-linejoin="round"/>
</svg>
