<svg width="23" height="10" viewBox="0 0 23 10" fill="none" xmlns="http://www.w3.org/2000/svg">
<g opacity="0.3">
<path d="M1.50006 2.29688C1.50006 2.29688 4.85007 5.9892 11.0715 5.9892C17.293 5.9892 20.643 2.29688 20.643 2.29688" stroke="#FF6B00" stroke-width="1.57715" stroke-linecap="round" stroke-linejoin="round"/>
<path d="M3.41435 3.81543L1.50006 5.98928M20.643 5.98928L18.7325 3.8182M8.11777 5.6939L7.24294 8.29698M14.0033 5.70128L14.9001 8.29698" stroke="#FF6B00" stroke-width="1.57715" stroke-linecap="round" stroke-linejoin="round"/>
</g>
<path d="M2.35718 1.43994C2.35718 1.43994 5.70719 5.13226 11.9286 5.13226C18.1501 5.13226 21.5001 1.43994 21.5001 1.43994" stroke="#FF6B00" stroke-width="1.57715" stroke-linecap="round" stroke-linejoin="round"/>
<path d="M4.27147 2.9585L2.35718 5.13235M21.5001 5.13235L19.5896 2.96126M8.97489 4.83696L8.10005 7.44005M14.8604 4.84435L15.7572 7.44005" stroke="#FF6B00" stroke-width="1.57715" stroke-linecap="round" stroke-linejoin="round"/>
</svg>
