<svg width="20" height="30" viewBox="0 0 20 30" fill="none" xmlns="http://www.w3.org/2000/svg">
<g clip-path="url(#clip0_1097_97142)">
<path d="M3.46406 6.73505C4.46574 7.75627 5.46741 8.77748 6.52048 9.85296C7.71221 8.54191 8.42462 6.94349 8.94817 5.23777C9.46813 3.54314 9.61396 1.78932 9.73229 0.00219727C15.1841 4.26959 17.0775 10.0244 16.2994 17.0348C17.6046 16.1221 18.6171 15.1107 19.455 13.8243C19.596 14.5853 19.7849 15.3401 19.871 16.1073C20.1232 18.3877 20.0479 20.6485 19.2673 22.829C17.9405 26.5352 15.4567 28.9526 11.6866 29.7987C6.83126 30.889 1.03997 27.4788 0.172169 21.7955C-0.247387 19.0464 0.089692 16.423 1.30294 13.9193C2.24484 11.9768 2.98355 9.95656 3.28596 7.7908C3.33019 7.47506 3.32421 7.15069 3.34095 6.83125L3.46526 6.73382L3.46406 6.73505ZM6.60416 14.9837C6.17504 16.9127 5.20444 18.4963 4.45737 20.1835C3.89199 21.46 3.77604 22.8081 4.0677 24.1944C4.63189 26.8732 6.89223 28.9711 9.63069 29.3263C11.989 29.6322 14.6152 28.1016 15.7411 25.736C16.7512 23.6122 16.5826 21.4477 15.8929 19.2758C15.8738 19.2178 15.8547 19.1598 15.8212 19.0612C15.0622 20.5375 14.4729 21.0974 13.8131 21.0407C14.2195 17.184 13.1007 13.7405 11.1643 10.5017C11.0173 13.1386 10.4925 15.5954 8.59435 17.6366C8.11981 16.5451 7.65723 15.5868 6.60535 14.9825L6.60416 14.9837Z" fill="#FF6B00"/>
<path d="M6.60411 14.9822C7.65599 15.5866 8.11977 16.5449 8.59311 17.6364C10.4913 15.5952 11.016 13.1384 11.163 10.5015C13.0995 13.739 14.2183 17.1825 13.8119 21.0404C14.4717 21.0972 15.061 20.5372 15.82 19.0609C15.8535 19.1596 15.8738 19.2175 15.8917 19.2755C16.5814 21.4474 16.7499 23.612 15.7399 25.7358C14.6151 28.1014 11.9878 29.632 9.62945 29.3261C6.89099 28.9709 4.63065 26.873 4.06646 24.1941C3.7748 22.8078 3.89075 21.4585 4.45613 20.1833C5.2032 18.496 6.1738 16.9124 6.60292 14.9835L6.60411 14.9822Z" fill="#FFB038"/>
<path d="M11.1762 21.3439C11.3459 22.0703 11.7284 22.7216 12.0667 23.3814C12.405 24.0412 12.7098 24.7529 12.705 25.5003C12.6966 26.741 11.7081 27.8967 10.5164 28.0583C9.32464 28.2198 8.07912 27.3688 7.75997 26.1712C7.5735 25.4732 7.67869 24.7257 7.87114 24.0301C8.22495 22.7499 8.88476 21.5647 9.76212 20.5903C9.92947 20.4041 10.8893 19.3002 11.1296 19.4544C11.3041 19.5666 11.1618 19.9872 11.1439 20.1377C11.0973 20.5509 11.0806 20.932 11.1762 21.3427V21.3439Z" fill="#EEEFEE"/>
</g>
<defs>
<clipPath id="clip0_1097_97142">
<rect width="20" height="30" fill="white" transform="translate(0 0.000732422)"/>
</clipPath>
</defs>
</svg>
