<svg width="51" height="50" viewBox="0 0 51 50" fill="none" xmlns="http://www.w3.org/2000/svg">
<g opacity="0.3">
<path d="M22.353 17.6581V14.6733C22.353 11.4398 22.353 9.69864 19.3682 9.20117" stroke="#FF6B00" stroke-width="2.05181" stroke-linecap="round"/>
<path d="M27.3264 17.6581V14.6733C27.3264 11.4398 27.3264 9.69864 30.3112 9.20117" stroke="#FF6B00" stroke-width="2.05181" stroke-linecap="round"/>
<path d="M36.113 26.1164C34.4635 21.3394 29.9272 17.9082 24.5896 17.9082C20.9005 17.9082 17.5943 19.5472 15.3593 22.1367M36.6871 31.5886C35.9512 37.6158 30.8156 42.2842 24.5896 42.2842C17.8584 42.2842 12.4016 36.8274 12.4016 30.0962C12.4016 29.0664 12.5293 28.0665 12.7698 27.1114" stroke="#FF6B00" stroke-width="2.05181" stroke-linecap="round"/>
<path d="M10.4121 25.8672C20.8589 31.3393 28.0722 22.8824 38.7678 27.1109" stroke="#FF6B00" stroke-width="2.05181" stroke-linecap="round"/>
<circle cx="24.8388" cy="31.0901" r="1.4924" fill="#FF6B00"/>
<circle cx="32.301" cy="30.592" r="1.4924" fill="#FF6B00"/>
<circle cx="22.3513" cy="36.5608" r="1.4924" fill="#FF6B00"/>
<circle cx="29.3156" cy="35.5666" r="1.4924" fill="#FF6B00"/>
<circle cx="18.8706" cy="32.0862" r="1.4924" fill="#FF6B00"/>
</g>
<path d="M23.8372 16.1718V13.187C23.8372 9.95345 23.8372 8.21231 20.8523 7.71484" stroke="#FF9B53" stroke-width="2.05181" stroke-linecap="round"/>
<path d="M28.8105 16.1718V13.187C28.8105 9.95345 28.8105 8.21231 31.7954 7.71484" stroke="#FF9B53" stroke-width="2.05181" stroke-linecap="round"/>
<path d="M37.5993 24.6301C35.9498 19.8531 31.4136 16.4219 26.0759 16.4219C22.3869 16.4219 19.0806 18.0608 16.8456 20.6504M38.1734 30.1023C37.4376 36.1295 32.3019 40.7978 26.0759 40.7978C19.3447 40.7978 13.8879 35.3411 13.8879 28.6098C13.8879 27.5801 14.0156 26.5802 14.2561 25.625" stroke="#FF6B00" stroke-width="2.05181" stroke-linecap="round"/>
<path d="M11.8984 24.3809C22.3453 29.853 29.5586 21.396 40.2541 25.6245" stroke="#FF9B53" stroke-width="2.05181" stroke-linecap="round"/>
<circle cx="26.3247" cy="29.6037" r="1.4924" fill="#FF9B53"/>
<circle cx="33.7883" cy="29.1057" r="1.4924" fill="#FF9B53"/>
<circle cx="23.8386" cy="35.0744" r="1.4924" fill="#FF9B53"/>
<circle cx="30.803" cy="34.0783" r="1.4924" fill="#FF9B53"/>
<circle cx="20.3564" cy="30.5998" r="1.4924" fill="#FF9B53"/>
</svg>
