<svg width="720" height="134" viewBox="0 0 720 134" fill="none" xmlns="http://www.w3.org/2000/svg">
<g opacity="0.15">
<path d="M405.179 269.431L81.6973 82.3691V440.928L405.179 627.99V269.431Z" fill="#C6C6C6"/>
<path d="M405.179 271.423L81.6973 84.3613V261.885L405.179 271.423Z" fill="#979797"/>
<path d="M81.6986 440.928C68.1966 433.146 61.6113 422.706 61.6113 411.744C61.6113 398.6 61.6113 53.5176 61.6113 53.5176L81.6986 84.0777V440.881V440.928Z" fill="#979797" fill-opacity="0.8"/>
<path d="M126.989 23.0991L210.702 -25.3035C237.327 -40.6784 277.549 -42.3868 300.621 -29.0523L595.63 142.872C618.655 156.206 615.765 179.459 589.187 194.881L505.474 243.284C478.849 258.659 438.627 260.367 415.555 247.032L120.499 75.1082C97.4742 61.7738 100.364 38.5215 126.942 23.0991H126.989Z" fill="#E1E1E1"/>
<path d="M61.4664 117.959C61.4664 128.873 68.4307 138.886 81.0326 146.194L405.936 334.11C435.403 351.146 487.138 349.01 521.248 329.269L629.691 266.536C647.457 256.286 657.596 242.762 657.596 229.475C657.596 218.56 657.453 217.896 657.453 217.896C659.112 221.597 659.964 225.441 659.964 229.475C659.964 243.663 649.352 257.899 630.876 268.624L522.432 331.357C503.435 342.319 479.036 347.966 455.917 347.966C436.73 347.966 418.395 344.075 404.751 336.198L79.8482 148.234C66.4883 140.499 59.0977 129.727 59.0977 117.959C59.0977 113.925 59.9504 109.892 61.6086 105.953L61.4664 117.959Z" fill="#F0F0F0"/>
<path d="M61.4664 80.6614C61.4664 91.5757 68.4307 101.588 81.0326 108.896L405.936 296.812C435.403 313.848 487.138 311.713 521.248 291.972L629.691 229.238C647.457 218.988 657.596 205.464 657.596 192.177C657.596 181.263 657.453 180.599 657.453 180.599C659.112 184.3 659.964 188.144 659.964 192.177C659.964 206.366 649.352 220.602 630.876 231.326L522.432 294.06C503.435 305.022 479.036 310.669 455.917 310.669C436.73 310.669 418.395 306.778 404.751 298.9L79.8482 110.984C66.4883 103.249 59.0977 92.4773 59.0977 80.7089C59.0977 76.6753 59.9504 72.6418 61.6086 68.7031L61.4664 80.7089V80.6614Z" fill="#F0F0F0"/>
<path d="M202.172 -22.2658L269.493 -61.1777L336.814 -22.2658L269.493 16.6461L202.172 -22.2658ZM269.493 -58.4729L206.909 -22.2658L269.493 13.9412L332.076 -22.2658L269.493 -58.4729Z" fill="#F0F0F0"/>
<path d="M137.363 15.2225L204.684 -23.6895L272.005 15.2225L204.684 54.1344L137.363 15.2225ZM204.684 -20.9846L142.101 15.2225L204.684 51.4295L267.268 15.2225L204.684 -20.9846Z" fill="#F0F0F0"/>
<path d="M72.5526 52.7107L139.874 13.7988L207.194 52.7107L139.874 91.6227L72.5526 52.7107ZM139.874 16.5037L77.2902 52.7107L139.874 88.9178L202.457 52.7107L139.874 16.5037Z" fill="#F0F0F0"/>
<path d="M267.172 15.2693L334.493 -23.6426L401.814 15.2693L334.493 54.1813L267.172 15.2693ZM334.493 -20.9377L271.91 15.2693L334.493 51.4764L397.076 15.2693L334.493 -20.9377Z" fill="#F0F0F0"/>
<path d="M202.361 52.7576L269.682 13.8457L337.003 52.7576L269.682 91.6695L202.361 52.7576ZM269.682 16.5506L207.099 52.7576L269.682 88.9647L332.266 52.7576L269.682 16.5506Z" fill="#F0F0F0"/>
<path d="M137.6 90.199L204.921 51.2871L272.241 90.199L204.921 129.111L137.6 90.199ZM204.921 53.992L142.337 90.199L204.921 126.406L267.504 90.199L204.921 53.992Z" fill="#F0F0F0"/>
<path d="M332.078 52.7596L399.399 13.8477L466.72 52.7596L399.399 91.6715L332.078 52.7596ZM399.399 16.5525L336.816 52.7596L399.399 88.9666L461.982 52.7596L399.399 16.5525Z" fill="#F0F0F0"/>
<path d="M267.27 90.2479L334.59 51.3359L401.911 90.2479L334.59 129.16L267.27 90.2479ZM334.59 54.0408L272.007 90.2479L334.59 126.455L397.174 90.2479L334.59 54.0408Z" fill="#F0F0F0"/>
<path d="M202.459 127.689L269.78 88.7773L337.101 127.689L269.78 166.601L202.459 127.689ZM269.78 91.4822L207.197 127.689L269.78 163.896L332.363 127.689L269.78 91.4822Z" fill="#F0F0F0"/>
<path d="M397.076 90.2947L464.397 51.3828L531.718 90.2947L464.397 129.207L397.076 90.2947ZM464.397 54.0877L401.814 90.2947L464.397 126.502L526.981 90.2947L464.397 54.0877Z" fill="#F0F0F0"/>
<path d="M332.268 127.736L399.589 88.8242L466.909 127.736L399.589 166.648L332.268 127.736ZM399.589 91.5291L337.005 127.736L399.589 163.943L462.172 127.736L399.589 91.5291Z" fill="#F0F0F0"/>
<path d="M267.457 165.224L334.778 126.312L402.099 165.224L334.778 204.136L267.457 165.224ZM334.778 129.017L272.195 165.224L334.778 201.431L397.361 165.224L334.778 129.017Z" fill="#F0F0F0"/>
<path d="M462.029 127.83L529.35 88.9178L596.671 127.83L529.35 166.742L462.029 127.83ZM529.35 91.6227L466.767 127.83L529.35 164.037L591.934 127.83L529.35 91.6227Z" fill="#F0F0F0"/>
<path d="M397.219 165.318L464.54 126.406L531.86 165.318L464.54 204.23L397.219 165.318ZM464.54 129.111L401.956 165.318L464.54 201.525L527.123 165.318L464.54 129.111Z" fill="#F0F0F0"/>
<path d="M527.027 165.365L594.348 126.453L645.277 155.685L594.538 204.419L527.027 165.365ZM594.348 129.158L531.765 165.365L594.159 201.43L641.345 156.159L594.348 129.158Z" fill="#F0F0F0"/>
<path d="M608.703 155.922C606.24 151.082 601.929 146.621 595.58 142.92L300.572 -29.0044C289.344 -35.5055 273.994 -38.4476 258.123 -37.9256C241.494 -37.4036 224.297 -33.1328 210.652 -25.2555L126.94 23.1471C117.464 28.6517 111.021 35.1528 107.658 41.7963C99.5563 36.3866 92.829 28.367 85.9121 20.5371L197.908 -45.4233C215.485 -55.5783 237.704 -61.1304 259.213 -61.7947C279.632 -62.4116 299.387 -58.6154 313.884 -50.2635L635.044 131.721C628.412 141.686 619.41 149.801 608.656 155.875L608.703 155.922Z" fill="#808080"/>
<path d="M257.605 -37.925C241.118 -37.3556 224.158 -33.0373 210.703 -25.2549L126.99 23.1477C117.515 28.6523 111.072 35.1535 107.708 41.797C99.6071 36.3873 92.8798 28.3676 85.9629 20.5378L197.959 -45.4227C215.109 -55.3404 236.665 -60.8451 257.653 -61.6992C257.653 -61.6992 257.747 -37.925 257.558 -37.925H257.605Z" fill="#4A4A4A"/>
<path d="M65.8751 32.3535C72.5551 39.2343 78.1928 47.159 85.1097 54.0398C93.4952 62.3916 103.018 67.7064 113.819 70.2689C115.762 71.9772 117.941 73.5906 120.547 75.1091L415.556 247.033C438.58 260.368 478.85 258.707 505.475 243.284L589.188 194.882C594.589 191.75 598.947 188.333 602.358 184.679C624.53 176.233 643.528 162.471 655.845 143.442L657.551 144.391V164.132C658.404 177.846 648.786 192.509 629.173 203.851L521.203 266.299C486.856 286.135 434.932 288.318 405.228 271.092L81.6986 84.1253C68.0544 76.248 61.6113 65.6184 61.6113 54.5618V34.916L65.8751 32.401V32.3535Z" fill="#808080"/>
<path d="M81.6974 63.1975L405.179 250.259C434.884 267.438 486.855 265.302 521.155 245.467L629.124 183.018C663.472 163.182 667.167 133.144 637.462 115.966L313.933 -71.096C284.229 -88.2742 232.258 -86.1388 197.957 -66.3032L89.9881 -3.85433C55.6407 15.9813 51.9454 46.0193 81.65 63.1975H81.6974ZM126.989 2.55189L210.702 -45.8507C237.327 -61.2257 277.549 -62.934 300.621 -49.5995L595.63 122.325C618.654 135.659 615.764 158.911 589.186 174.334L505.474 222.736C478.848 238.111 438.626 239.82 415.554 226.485L120.498 54.561C97.4735 41.2265 100.363 17.9743 126.941 2.55189H126.989Z" fill="#C5C5C5"/>
<g style="mix-blend-mode:multiply">
<path d="M107.043 41.3216C111.686 33.7765 119.456 26.5161 130.258 20.2997L210.702 -26.2048C254.24 -47.2742 289.914 -33.7499 289.914 -33.7499C276.033 -32.2788 262.246 -28.1978 250.924 -21.6492L167.211 26.7534C143.239 40.6098 138.548 60.825 154.609 74.4916C154.609 74.4916 118.698 54.2764 114.102 50.1005C108.228 44.7857 106.996 41.3691 106.996 41.3691L107.043 41.3216Z" fill="#949494"/>
</g>
<path d="M325.777 189.709C327.103 189.709 328.146 188.665 328.146 187.337V134.379C328.146 133.05 327.103 132.006 325.777 132.006C324.45 132.006 323.408 133.05 323.408 134.379V187.337C323.408 188.665 324.45 189.709 325.777 189.709Z" fill="#8D8686"/>
<path d="M206.769 121.139C208.096 121.139 209.138 120.095 209.138 118.766V65.5231C209.138 64.1944 208.096 63.1504 206.769 63.1504C205.443 63.1504 204.4 64.1944 204.4 65.5231V118.766C204.4 120.095 205.443 121.139 206.769 121.139Z" fill="#8D8686"/>
<g style="mix-blend-mode:multiply">
<path d="M395.512 187.146L276.504 118.339C255.754 106.333 258.359 85.4059 282.332 71.5495C306.256 57.693 342.499 56.1745 363.249 68.1803L482.257 136.988C503.008 148.994 500.402 169.921 476.43 183.777C452.505 197.634 416.263 199.152 395.512 187.146Z" fill="#949494"/>
</g>
<path d="M222.833 58.2618L341.841 127.069C362.591 139.075 379.41 126.31 379.41 98.6448C379.41 70.9319 362.591 38.7584 341.841 26.8001L222.833 -42.0075C202.082 -54.0133 185.264 -41.2483 185.264 -13.5829C185.264 14.13 202.082 46.3035 222.833 58.2618Z" fill="#C8C8C8"/>
<path d="M222.833 58.2624L324.027 37.0507C344.778 49.0564 362.591 38.759 341.841 26.7532L222.833 -42.0544C202.082 -54.0601 185.264 -41.2951 185.264 -13.6297C185.264 14.0832 202.082 46.2567 222.833 58.2149V58.2624Z" fill="#F3F3F3"/>
<path d="M340.087 130.059L221.126 61.2515C199.475 48.7237 181.852 15.1266 181.852 -13.6302C181.852 -29.4797 187.205 -41.6278 196.585 -47.0375C204.497 -51.6405 214.493 -50.9287 224.632 -45.0445L343.592 23.7632C365.243 36.2909 382.867 69.888 382.867 98.6449C382.867 114.494 377.513 126.642 368.133 132.052C364.675 134.045 360.837 135.042 356.763 135.042C351.504 135.042 345.819 133.381 340.087 130.059ZM199.996 -41.0109C192.843 -36.8825 188.768 -26.8698 188.768 -13.5828C188.768 12.9438 204.829 43.836 224.584 55.2723L343.545 124.08C351.457 128.635 358.942 129.347 364.675 126.073C371.828 121.945 375.903 111.932 375.903 98.6449C375.903 72.1183 359.842 41.2261 340.087 29.7898L221.126 -39.0179C216.483 -41.6753 212.03 -43.0514 207.956 -43.0514C205.066 -43.0514 202.413 -42.3871 200.044 -41.0109H199.996Z" fill="#BDBDBD"/>
<path d="M205.063 68.5606L324.071 137.368C344.822 149.374 361.64 136.609 361.64 108.944C361.64 81.2307 344.822 49.0572 324.071 37.0989L205.063 -31.7087C184.313 -43.7144 167.494 -30.9494 167.494 -3.28403C167.494 24.4288 184.313 56.6023 205.063 68.5606Z" fill="white"/>
<path d="M322.319 140.356L203.358 71.5483C181.708 59.0206 164.084 25.4235 164.084 -3.33335C164.084 -19.1828 169.437 -31.3309 178.818 -36.7406C186.73 -41.3436 196.726 -40.6318 206.864 -34.7476L325.825 34.06C347.475 46.5878 365.099 80.1849 365.099 108.942C365.099 124.791 359.746 136.939 350.365 142.349C346.907 144.342 343.07 145.339 338.995 145.339C333.737 145.339 328.051 143.678 322.319 140.356ZM182.182 -30.714C175.028 -26.5856 170.953 -16.5729 170.953 -3.28589C170.953 23.2406 187.014 54.1329 206.77 65.5692L325.73 134.377C333.642 138.932 341.127 139.644 346.86 136.37C354.013 132.241 358.088 122.229 358.088 108.942C358.088 82.4152 342.027 51.5229 322.272 40.0866L203.311 -28.721C198.668 -31.3784 194.215 -32.7545 190.141 -32.7545C187.251 -32.7545 184.598 -32.0902 182.229 -30.714H182.182Z" fill="#BDBDBD"/>
</g>
<g opacity="0.1">
<path d="M245.927 45.402C246.54 45.7525 247.109 46.8914 247.152 47.8114L247.59 63.3626C247.59 64.2825 247.065 64.7205 246.496 64.3701C245.884 64.0196 245.315 62.9245 245.315 62.0046V61.4789C245.184 62.2236 244.309 63.0997 242.777 62.1798C240.853 61.0408 238.49 57.4487 238.359 52.63C238.228 47.8114 240.459 46.9791 242.384 48.118C243.609 48.8189 244.615 50.4835 245.009 51.8853V51.4473V51.1844L244.877 46.4534C244.877 45.5335 245.359 45.0078 245.971 45.402H245.927ZM243.084 59.4638C244.046 60.0333 245.315 59.7266 245.227 56.7478C245.14 53.769 243.827 51.9292 242.865 51.3597C241.727 50.6588 240.546 51.3597 240.634 54.0318C240.721 56.704 241.946 58.8067 243.127 59.5076" fill="#282829"/>
<path d="M247.764 26.8295C248.07 27.0047 248.332 27.5304 248.332 28.0122L248.42 30.2902L249.82 31.1225C250.082 31.2977 250.345 31.7358 250.345 32.1738C250.345 32.6119 250.126 32.7433 249.864 32.6119L248.464 31.7796L248.726 40.935C248.726 41.7236 248.989 42.2054 249.426 42.4683L250.082 42.6873C250.082 42.6873 250.17 42.6873 250.214 42.7311C250.432 42.8625 250.651 43.2568 250.651 43.6072C250.651 44.4395 249.864 44.1767 249.207 43.7824C248.42 43.3006 247.632 42.4245 247.589 40.4094L247.326 31.1225L246.495 30.6406C246.232 30.4654 246.014 30.0711 246.014 29.6331C246.014 29.195 246.189 28.976 246.451 29.1512L247.282 29.6331L247.195 27.3551C247.195 26.8733 247.457 26.6542 247.72 26.8295H247.764Z" fill="#282829"/>
<path d="M256.295 34.8442C256.689 35.1071 256.995 35.5889 256.995 36.1146C256.995 36.6403 256.732 36.7717 256.251 36.5089C254.589 35.5451 253.539 36.8155 253.364 38.4363L253.582 45.5329C253.582 45.971 253.364 46.2338 253.057 46.0586C252.751 45.8834 252.489 45.3139 252.489 44.8759L252.139 33.311C252.139 32.873 252.401 32.6101 252.664 32.7854C252.97 32.9606 253.232 33.5301 253.232 33.9681L253.32 36.246C253.407 35.5013 254.457 33.7491 256.295 34.8442Z" fill="#282829"/>
<path d="M265.788 40.54C266.094 40.7152 266.357 41.3285 266.357 41.7665L266.707 53.2876C266.707 53.7694 266.488 54.0323 266.182 53.857C265.875 53.6818 265.613 53.1123 265.613 52.6305L265.525 50.3525C265.482 51.1411 264.475 52.8933 262.419 51.6667C260.888 50.7468 259.094 48.3813 258.963 44.2197L258.744 37.2545C258.744 36.8164 258.963 36.5098 259.269 36.685C259.576 36.8602 259.838 37.4735 259.838 37.9116L260.057 44.8768C260.144 47.768 261.369 49.564 262.594 50.3087C264.388 51.3601 265.263 49.7393 265.394 48.1622L265.175 41.1094C265.175 40.6714 265.394 40.3647 265.7 40.54H265.788Z" fill="#282829"/>
<path d="M264.475 61.304C266.444 62.4868 269.2 66.4293 269.331 71.1604C269.462 75.8915 266.837 76.5485 264.869 75.3658C262.9 74.183 260.144 70.3281 260.013 65.6408C259.881 60.9536 262.419 60.1212 264.431 61.3478L264.475 61.304ZM264.781 72.3432C266.006 73.0441 267.144 72.2994 267.056 69.8024C266.969 67.3055 265.744 65.0275 264.563 64.3266C263.381 63.6257 262.2 64.3704 262.288 66.955C262.375 69.5396 263.556 71.5984 264.781 72.3432Z" fill="#282829"/>
<path d="M272.963 44.7448C274.538 45.6647 276.332 48.1178 276.419 52.2356L276.638 59.2008C276.638 59.6389 276.376 59.9017 276.069 59.6827C275.763 59.5074 275.501 58.938 275.501 58.4999L275.282 51.5347C275.194 48.6435 273.969 46.8475 272.744 46.1028C270.994 45.0514 270.076 46.6722 269.944 48.2054L270.163 55.302C270.163 55.7401 269.901 56.0029 269.638 55.8277C269.332 55.6525 269.026 55.083 269.026 54.645L268.676 43.0801C268.676 42.6421 268.938 42.3792 269.245 42.5983C269.551 42.7735 269.813 43.343 269.813 43.781L269.901 46.0589C269.944 45.3142 270.951 43.5182 272.963 44.701V44.7448Z" fill="#282829"/>
<path d="M275.107 67.6552C276.245 68.3561 277.12 69.3636 277.863 70.7654C278.126 71.2035 278.52 71.9044 278.563 72.7805C278.563 73.569 278.17 73.8319 277.688 73.5252C277.295 73.2624 276.945 72.7367 276.77 72.4739C276.332 71.6416 275.72 71.0283 275.282 70.7654C273.926 69.9769 272.876 70.7654 272.964 73.35C273.051 75.9346 274.189 77.9935 275.545 78.782C276.026 79.0448 276.595 79.1762 276.988 78.8696C277.12 78.782 277.426 78.5629 277.863 78.8258C278.345 79.0886 278.782 79.9209 278.826 80.7094C278.826 81.5418 278.432 81.717 278.213 81.8922C277.513 82.4617 276.682 82.4179 275.545 81.7608C273.445 80.5342 270.82 76.7231 270.689 72.0358C270.557 67.3486 273.007 66.5162 275.107 67.7866V67.6552Z" fill="#282829"/>
<path d="M286.002 52.5857C286.352 52.8047 286.614 53.3304 286.614 53.7684L286.964 65.8589C287.095 70.0205 284.777 69.8891 283.027 68.8377C281.889 68.1806 281.058 67.1731 280.621 66.6036L280.271 65.6837L280.708 65.2456L281.058 65.5961C281.496 66.2094 282.196 66.9103 282.983 67.3483C284.558 68.3121 285.914 67.9616 285.827 65.2018V64.939V64.6762V62.5735C285.346 64.1067 284.164 64.6323 282.764 63.7562C280.883 62.6611 278.565 59.069 278.433 54.5569C278.302 50.0449 280.533 49.2126 282.371 50.3077C283.683 51.0962 284.952 52.7609 285.564 54.9512V53.0675C285.477 52.6295 285.739 52.3666 286.046 52.5418L286.002 52.5857ZM282.808 62.3106C284.208 63.1429 285.827 62.442 285.739 58.8937C285.652 55.3454 283.946 52.7171 282.502 51.8848C281.058 51.0524 279.439 51.7095 279.527 55.214C279.614 58.7185 281.364 61.4345 282.764 62.3106" fill="#282829"/>
<path d="M289.807 51.7982C290.113 51.9734 290.375 52.4991 290.375 52.981L290.463 55.2589L291.863 56.0912C292.125 56.2664 292.388 56.7045 292.388 57.1426C292.388 57.5806 292.169 57.7121 291.907 57.5806L290.507 56.7483L290.769 65.9038C290.769 66.6923 291.032 67.1742 291.469 67.437L292.125 67.656C292.125 67.656 292.213 67.656 292.256 67.6999C292.475 67.8313 292.694 68.2255 292.694 68.576C292.694 69.4083 291.907 69.1455 291.25 68.7512C290.463 68.2693 289.675 67.3932 289.632 65.3781L289.369 56.0912L288.582 55.6094C288.275 55.4341 288.057 55.0399 288.057 54.6018C288.057 54.1638 288.232 53.9447 288.538 54.1199L289.325 54.6018L289.238 52.3239C289.238 51.842 289.5 51.623 289.763 51.7982H289.807Z" fill="#282829"/>
<path d="M301.443 61.7427C301.749 61.918 302.056 62.4874 302.056 62.9255L302.406 74.4903C302.406 74.9284 302.187 75.235 301.837 75.016C301.531 74.8408 301.268 74.2275 301.268 73.7894V71.6867C300.787 73.22 299.562 73.7018 298.206 72.8695C296.325 71.7744 294.006 68.1822 293.875 63.6702C293.743 59.1582 295.975 58.3259 297.812 59.421C299.124 60.2095 300.393 61.8742 301.006 64.0645V62.1808C300.918 61.7427 301.181 61.4799 301.487 61.6551L301.443 61.7427ZM298.25 71.4677C299.649 72.3 301.224 71.5991 301.137 68.0508C301.049 64.5025 299.343 61.918 297.943 61.0418C296.543 60.1657 294.881 60.8666 294.968 64.3711C295.056 67.8756 296.806 70.5916 298.206 71.4677" fill="#282829"/>
<path d="M315.138 69.8016C316.669 70.7215 318.419 73.1309 318.55 77.2924L318.769 84.2576C318.769 84.6957 318.55 84.9585 318.244 84.7833C317.937 84.6081 317.675 84.0386 317.675 83.6005L317.456 76.6353C317.369 73.7441 316.144 71.9481 314.963 71.2472C313.169 70.1958 312.25 71.7729 312.119 73.3499V73.4813L312.338 80.4465C312.338 80.8845 312.119 81.1474 311.813 80.9722C311.506 80.7969 311.244 80.2275 311.244 79.7894L311.025 72.8242C310.938 69.933 309.713 68.137 308.488 67.3922C306.694 66.3409 305.819 67.9617 305.688 69.4949L305.907 76.5915C305.907 77.0296 305.688 77.2924 305.382 77.1172C305.075 76.942 304.813 76.3725 304.813 75.9345L304.463 64.3696C304.463 63.9316 304.725 63.6687 304.988 63.8439C305.294 64.0192 305.557 64.5887 305.557 65.0267L305.644 67.3046C305.732 66.5599 306.694 64.7639 308.75 65.9905C309.975 66.7352 311.375 68.4436 311.944 71.2472C312.381 69.933 313.431 68.794 315.225 69.8892L315.138 69.8016Z" fill="#282829"/>
<path d="M256.864 56.8785C257.477 57.229 258.045 58.3241 258.045 59.244L258.352 69.7137C258.352 70.6774 257.87 71.1593 257.258 70.7651C256.645 70.3708 256.12 69.3195 256.077 68.3557V67.0415C255.989 67.9177 255.027 69.4947 253.146 68.3557C251.352 67.3044 249.777 64.676 249.646 60.1202L249.471 54.1187C249.471 53.1988 249.952 52.7169 250.564 53.1112C251.177 53.5054 251.702 54.5568 251.746 55.4767L251.921 61.4782C252.008 63.8437 252.839 65.2893 253.889 65.9026C255.464 66.8225 255.902 64.9388 255.945 64.2379L255.77 57.8861C255.77 56.9661 256.208 56.4843 256.864 56.8347V56.8785Z" fill="#282829"/>
<path d="M285.211 73.6562C287.092 74.7951 289.454 78.4748 289.629 83.1621C289.804 87.8494 287.573 88.8131 285.648 87.6741C284.117 86.7542 283.155 84.8267 282.98 83.9068V84.4325V84.6953L283.111 89.4264C283.111 90.3463 282.63 90.8282 282.017 90.4339C281.405 90.0397 280.836 88.9883 280.836 88.0684L280.398 72.5172C280.398 71.6411 280.923 71.1592 281.536 71.5097C282.148 71.8601 282.673 72.9991 282.717 73.8752V74.3133C283.067 73.3057 284.03 72.8677 285.255 73.6124L285.211 73.6562ZM285.123 84.4763C286.261 85.1334 287.398 84.5201 287.354 81.8041C287.311 79.0881 286.042 77.0292 284.905 76.3283C283.942 75.7589 282.673 76.0655 282.761 79.0443C282.848 82.0231 284.161 83.9068 285.167 84.4763" fill="#282829"/>
<path d="M292.258 72.9569C292.87 73.3074 293.395 74.4463 293.439 75.3663L293.614 81.7182C293.658 80.8421 294.664 79.3088 296.501 80.404C298.339 81.4991 299.87 84.1275 300.001 88.6834L300.176 94.641C300.176 95.5609 299.739 96.0428 299.083 95.6485C298.47 95.2981 297.945 94.2029 297.901 93.283L297.726 87.3254C297.639 84.9598 296.808 83.4704 295.801 82.9009C294.226 81.981 293.745 83.8647 293.701 84.5656L293.876 90.9175C293.876 91.8374 293.439 92.3193 292.783 91.9688C292.127 91.6184 291.602 90.5232 291.602 89.6033L291.164 74.0959C291.164 73.176 291.645 72.6503 292.258 73.0445V72.9569Z" fill="#282829"/>
<path d="M309.624 88.2449C310.236 88.5954 310.849 89.7343 310.849 90.6543L311.155 101.212C311.155 102.131 310.63 102.57 310.018 102.219C309.405 101.869 308.836 100.773 308.836 99.8536V99.3279C308.705 100.073 307.83 100.949 306.299 100.029C304.374 98.8898 302.012 95.2977 301.88 90.4791C301.749 85.6604 304.024 84.8281 305.905 85.967C307.13 86.7117 308.136 88.3326 308.53 89.7343V89.2963C308.53 88.4202 309.011 87.8945 309.624 88.2887V88.2449ZM306.649 97.269C307.611 97.8385 308.88 97.5318 308.793 94.553C308.705 91.5742 307.393 89.6905 306.387 89.1211C305.249 88.4202 304.068 89.1211 304.155 91.7932C304.243 94.4654 305.468 96.5681 306.649 97.269Z" fill="#282829"/>
<path d="M324.5 97.0505C326.294 98.1018 327.869 100.774 328 105.33L328.175 111.287C328.175 112.207 327.694 112.689 327.081 112.295C326.469 111.901 325.944 110.849 325.9 109.929L325.725 103.972C325.637 101.606 324.806 100.117 323.756 99.5036C322.181 98.5837 321.7 100.467 321.7 101.168V101.562L321.875 107.52C321.875 108.44 321.438 108.922 320.781 108.528C320.169 108.177 319.644 107.082 319.6 106.162L319.425 100.204C319.338 97.839 318.506 96.3496 317.456 95.7363C315.882 94.8163 315.444 96.7 315.4 97.4009L315.575 103.753C315.575 104.673 315.138 105.155 314.482 104.804C313.825 104.454 313.3 103.359 313.3 102.439L312.994 91.9689C312.994 91.049 313.475 90.5233 314.088 90.9176C314.7 91.3119 315.225 92.407 315.269 93.3269V94.6411C315.357 93.765 316.319 92.2318 318.2 93.3269C319.513 94.1154 320.738 95.7801 321.306 98.3646C321.744 97.0505 322.794 96.0429 324.5 97.0505Z" fill="#282829"/>
<path d="M199.334 4.88086C199.64 5.05608 199.903 5.53795 199.99 6.01982C200.078 6.5893 199.859 6.98355 199.553 6.93975C198.678 6.72072 197.847 6.80833 197.147 7.20259C196.447 7.55303 195.834 8.21013 195.397 9.21767C194.916 10.1376 194.653 11.2766 194.522 12.6345C194.434 13.9925 194.522 15.4819 194.784 17.059C194.434 15.4819 194.216 13.9049 194.172 12.4155C194.172 10.9261 194.391 9.61192 194.741 8.42916C195.134 7.2902 195.703 6.37027 196.447 5.75698C197.191 5.1437 198.065 4.88086 199.072 4.88086H199.115C199.115 4.88086 199.203 4.88086 199.247 4.92467L199.334 4.88086Z" fill="#FF6B00"/>
<path d="M221.689 21.7029C225.014 23.6742 227.857 29.369 227.989 34.4067C228.032 36.4218 227.682 37.9988 226.983 39.094C226.676 38.9188 226.37 38.875 226.064 38.9188C225.626 39.0064 225.451 39.3568 225.495 40.1453L225.101 38.9626C224.664 37.8236 224.139 37.2103 223.658 36.9037C223.395 36.7285 223.089 36.6846 222.826 36.6408C221.82 36.6408 221.558 37.6922 221.908 39.0502L221.645 38.3931C221.208 37.2979 220.639 36.5532 220.026 36.2028C219.589 35.9399 219.152 35.8961 218.758 36.0714C218.233 36.2904 217.839 36.9037 217.927 37.9112L213.158 24.4627C212.852 23.5866 212.37 22.8857 211.846 22.5791C211.583 22.4038 211.321 22.36 211.058 22.4476C210.402 22.6667 210.183 23.8494 210.621 25.1636L217.795 47.4172C216.877 49.7827 214.908 50.5274 212.589 49.1694C209.264 47.1981 206.421 41.5033 206.289 36.4656L206.202 34.0563C206.158 32.0412 205.021 29.7195 203.665 28.931L202.09 27.9672C198.765 25.9959 195.921 20.3011 195.79 15.2634C195.659 10.2257 198.196 7.72878 201.565 9.74386L203.14 10.7076C204.452 11.4961 205.502 10.5324 205.458 8.47349L205.371 6.06415C205.239 1.02644 207.777 -1.47051 211.146 0.544574C214.514 2.55966 217.314 8.21065 217.445 13.2484L217.533 15.6577C217.577 17.7166 218.714 19.9945 220.07 20.783L221.645 21.7467L221.689 21.7029ZM218.802 31.6031C219.633 26.5216 217.227 19.3374 213.42 15.6139C212.808 15.0006 212.195 14.5187 211.583 14.1683C210.358 13.4236 209.177 13.2045 208.127 13.5112C206.552 14.0369 205.458 15.6139 205.064 18.067C204.233 23.1485 206.639 30.3328 210.446 34.0563V34.1439L210.708 34.0563V33.7496L210.533 33.5306C208.783 31.8222 207.296 29.3252 206.333 26.4778C205.371 23.6304 205.064 20.783 205.414 18.4613C205.764 16.1396 206.814 14.6502 208.302 14.1683C209.308 13.8616 210.446 14.0807 211.583 14.7816C212.152 15.132 212.72 15.5701 213.289 16.1396C215.039 17.848 216.527 20.345 217.489 23.1924C218.452 26.0397 218.758 28.8871 218.408 31.2089V31.5155L218.583 31.7346H218.714L218.802 31.6469M216.22 29.1062C216.483 27.573 216.264 25.6893 215.652 23.8494C214.995 21.922 214.033 20.3011 212.895 19.1622C212.502 18.8117 212.152 18.5051 211.758 18.2423C211.014 17.8042 210.271 17.629 209.614 17.848C208.608 18.1108 207.952 19.1184 207.689 20.6516C207.427 22.2286 207.646 24.1123 208.258 25.9521C208.914 27.8358 209.877 29.4566 211.014 30.5956L211.102 30.6832L211.452 30.508L211.146 29.6757C210.183 28.7557 209.396 27.3539 208.871 25.8207C208.346 24.2437 208.171 22.6667 208.346 21.3963C208.564 20.0821 209.133 19.2498 209.964 19.0308C210.489 18.8555 211.146 18.987 211.758 19.3812C212.064 19.5564 212.414 19.8193 212.72 20.1259C213.683 21.0897 214.514 22.4476 214.995 24.0247C215.52 25.5579 215.695 27.1787 215.52 28.4491L215.783 29.2376L216.177 29.1062" fill="#FF6B00"/>
</g>
</svg>
