<svg width="37" height="36" viewBox="0 0 37 36" fill="none" xmlns="http://www.w3.org/2000/svg">
<g id="Frame 1000005276">
<g id="Group">
<path id="Vector" d="M18.4932 1.71777C11.4307 1.71777 5.70703 7.45111 5.70703 14.5255C5.70703 21.6 11.4307 27.3333 18.4932 27.3333C25.5558 27.3333 31.2795 21.591 31.2795 14.5255C31.2795 7.46011 25.5558 1.71777 18.4932 1.71777ZM22.0335 14.5255V23.4361C22.0335 25.3982 20.4431 26.9913 18.4843 26.9913C16.5254 26.9913 14.935 25.3982 14.935 23.4361V14.5255H6.12934C6.13833 7.69413 11.6554 2.1678 18.4843 2.1498C25.2952 2.1678 30.8212 7.69413 30.8302 14.5255H22.0245H22.0335Z" fill="#F26F24"/>
<path id="Vector_2" d="M18.4965 2.06836C16.5377 2.06836 14.9473 3.66145 14.9473 5.61457V14.5251H22.0367V5.62357C22.0367 3.66145 20.4463 2.07736 18.4875 2.07736M15.7919 6.29861C15.7919 6.29861 15.1539 3.11242 18.6403 2.7974C18.6403 2.7974 16.0615 3.34644 15.7919 6.29861Z" fill="#F26F24"/>
<path id="Vector_3" d="M5.19642 31.2481H8.13464L8.15261 32.3552C8.15261 33.1473 7.9729 33.6693 7.61349 33.9123C7.24509 34.1373 6.4364 34.2633 5.17845 34.2633C4.01933 34.2633 3.26456 34.1103 2.88717 33.7953C2.50979 33.4893 2.33008 32.8412 2.33008 31.8962C2.33008 30.6721 2.40196 29.9071 2.55471 29.583C2.73442 29.187 3.03094 28.926 3.39934 28.782C3.76774 28.647 4.42367 28.584 5.32221 28.584C6.50828 28.584 7.27204 28.683 7.62247 28.899C7.9729 29.106 8.14363 29.583 8.14363 30.3031H6.85872C6.83176 29.9341 6.74191 29.7091 6.57118 29.628C6.40046 29.538 5.98713 29.493 5.30424 29.493C4.57643 29.493 4.10919 29.565 3.90252 29.7181C3.71383 29.8711 3.61499 30.2311 3.61499 30.7891V32.0672C3.61499 32.6252 3.71383 32.9762 3.91151 33.1293C4.10919 33.2733 4.55845 33.3453 5.25932 33.3453C5.96018 33.3453 6.39147 33.2823 6.58915 33.1563C6.77785 33.0303 6.87669 32.7242 6.87669 32.2472V32.0222H5.2054V31.2391L5.19642 31.2481Z" fill="#F26F24"/>
<path id="Vector_4" d="M11.8136 28.5938C13.0267 28.5938 13.8084 28.7558 14.1588 29.0978C14.5003 29.4308 14.68 30.1778 14.68 31.3479C14.68 32.635 14.5092 33.436 14.1588 33.7691C13.8084 34.1021 12.9638 34.2641 11.607 34.2641C10.3939 34.2641 9.6212 34.1021 9.25279 33.7691C8.90236 33.445 8.72266 32.725 8.72266 31.6089C8.72266 30.2768 8.89338 29.4398 9.24381 29.1068C9.58525 28.7648 10.4389 28.5938 11.8136 28.5938ZM11.7148 29.5028C10.8702 29.5028 10.367 29.5928 10.2232 29.7728C10.0884 29.9528 10.0076 30.5919 10.0076 31.6719C10.0076 32.473 10.0884 32.959 10.2592 33.121C10.4299 33.283 10.9241 33.364 11.7417 33.364C12.5594 33.364 13.0087 33.274 13.1614 33.094C13.3142 32.905 13.3951 32.347 13.3951 31.4199C13.3951 30.4929 13.3322 29.9348 13.1704 29.7638C13.0267 29.5928 12.5325 29.5118 11.7148 29.5118" fill="#F26F24"/>
<path id="Vector_5" d="M21.7312 28.584V34.2633H19.5837L17.6788 31.1491C17.5799 30.9871 17.4272 30.7261 17.2295 30.3301L17.0138 29.9251L16.7982 29.52H16.7533L16.7712 29.8891V30.2671L16.7982 31.0141V34.2723H15.5312V28.593H17.6788L19.4219 31.4642C19.5747 31.7252 19.7454 32.0312 19.9431 32.4002L20.2037 32.8682L20.4642 33.3273H20.5002V32.9582L20.4732 32.5982V28.602H21.7402L21.7312 28.584Z" fill="#F26F24"/>
<path id="Vector_6" d="M27.8564 30.2686H26.6165C26.6165 30.2146 26.6165 30.1786 26.6165 30.1516C26.5805 29.8366 26.4997 29.6476 26.3649 29.5666C26.2211 29.4856 25.9066 29.4496 25.3945 29.4496C24.7924 29.4496 24.4061 29.4946 24.2174 29.5846C24.0287 29.6746 23.9298 29.8726 23.9298 30.1696C23.9298 30.5206 24.0107 30.7366 24.1635 30.8086C24.3162 30.8807 24.8194 30.9347 25.646 30.9707C26.6434 31.0157 27.2904 31.1417 27.5779 31.3307C27.8654 31.5197 28.0182 31.9247 28.0182 32.5188C28.0182 33.2568 27.8475 33.7338 27.497 33.9588C27.1556 34.1748 26.4008 34.2829 25.2327 34.2829C24.1904 34.2829 23.4806 34.1748 23.1481 33.9588C22.8067 33.7518 22.627 33.3198 22.627 32.6718V32.4647H23.858V32.5818C23.858 32.9688 23.9478 33.2028 24.1095 33.2928C24.2623 33.3828 24.7116 33.4278 25.4394 33.4278C26.0144 33.4278 26.3739 33.3738 26.5266 33.2748C26.6794 33.1668 26.7602 32.9418 26.7602 32.5818C26.7602 32.3117 26.6973 32.1317 26.5805 32.0507C26.4547 31.9607 26.2031 31.9067 25.8078 31.8797L25.1159 31.8437C24.0646 31.7897 23.3907 31.6637 23.0942 31.4747C22.7977 31.2767 22.6539 30.8627 22.6539 30.2236C22.6539 29.5846 22.8246 29.1345 23.184 28.9275C23.5255 28.7025 24.2353 28.6035 25.2956 28.6035C26.3559 28.6035 26.9849 28.7025 27.3353 28.9005C27.6678 29.0985 27.8475 29.4766 27.8475 30.0706V30.2776L27.8564 30.2686Z" fill="#F26F24"/>
<path id="Vector_7" d="M32.9341 33.1743H30.0588L29.6365 34.2633H28.3066L30.526 28.584H32.4309L34.6773 34.2633H33.3654L32.9431 33.1743H32.9341ZM32.6376 32.3732L31.4785 29.421L30.3553 32.3732H32.6376Z" fill="#F26F24"/>
</g>
</g>
</svg>
