<svg width="36" height="36" viewBox="0 0 36 36" fill="none" xmlns="http://www.w3.org/2000/svg">
<g opacity="0.3">
<path d="M8.95737 35.2364C9.93812 35.2364 10.7363 34.4382 10.7363 33.4575C10.7363 32.4767 9.93812 31.6786 8.95737 31.6786C7.97662 31.6786 7.17848 32.4767 7.17848 33.4575C7.17848 34.4382 7.97662 35.2364 8.95737 35.2364Z" fill="white"/>
<path d="M20.5164 35.2364C21.4971 35.2364 22.2953 34.4382 22.2953 33.4575C22.2953 32.4767 21.4971 31.6786 20.5164 31.6786C19.5356 31.6786 18.7375 32.4767 18.7375 33.4575C18.7375 34.4382 19.5356 35.2364 20.5164 35.2364Z" fill="white"/>
<path d="M0.962891 13.0168H2.82971C3.02586 13.0168 3.20847 13.0777 3.36404 13.1927C3.51961 13.3077 3.62785 13.47 3.68196 13.6594L7.7064 27.7281C7.80786 28.1001 8.03783 28.4248 8.3422 28.6615C8.65334 28.8915 9.02536 29.02 9.41767 29.02H20.0639C20.4494 29.02 20.8282 28.8983 21.1394 28.6615C21.4505 28.4316 21.6737 28.1001 21.7752 27.7281L24.7107 17.4606H9.42444" stroke="white" stroke-width="1.10134" stroke-linecap="round" stroke-linejoin="round"/>
</g>
<path d="M9.95171 34.242C10.9325 34.242 11.7306 33.4439 11.7306 32.4631C11.7306 31.4824 10.9325 30.6842 9.95171 30.6842C8.97096 30.6842 8.17282 31.4824 8.17282 32.4631C8.17282 33.4439 8.97096 34.242 9.95171 34.242Z" fill="white"/>
<path d="M21.5107 34.242C22.4915 34.242 23.2896 33.4439 23.2896 32.4631C23.2896 31.4824 22.4915 30.6842 21.5107 30.6842C20.53 30.6842 19.7318 31.4824 19.7318 32.4631C19.7318 33.4439 20.53 34.242 21.5107 34.242Z" fill="white"/>
<path d="M1.95724 12.0225H3.82407C4.02022 12.0225 4.20282 12.0833 4.35839 12.1983C4.51396 12.3133 4.6222 12.4756 4.67631 12.665L8.70075 26.7338C8.80221 27.1058 9.03218 27.4304 9.33655 27.6672C9.64769 27.8971 10.0197 28.0257 10.412 28.0257H21.0583C21.4438 28.0257 21.8226 27.9039 22.1337 27.6672C22.4449 27.4372 22.6681 27.1058 22.7695 26.7338L25.705 16.4663H10.4188" stroke="white" stroke-width="1.5" stroke-linecap="round" stroke-linejoin="round"/>
<path d="M34.7051 14.0234V10.0234C34.7051 5.05288 30.6756 1.02344 25.7051 1.02344C20.7345 1.02344 16.7051 5.05287 16.7051 10.0234V14.0234C16.7051 18.994 20.7345 23.0234 25.7051 23.0234C30.6756 23.0234 34.7051 18.994 34.7051 14.0234Z" fill="white"/>
<path d="M34.7051 14.0234V10.0234C34.7051 5.05288 30.6756 1.02344 25.7051 1.02344C20.7345 1.02344 16.7051 5.05287 16.7051 10.0234V14.0234C16.7051 18.994 20.7345 23.0234 25.7051 23.0234C30.6756 23.0234 34.7051 18.994 34.7051 14.0234Z" stroke="#FF7A1A" stroke-width="2"/>
</svg>
