<svg width="28" height="23" viewBox="0 0 28 23" fill="none" xmlns="http://www.w3.org/2000/svg">
<path d="M12.5812 3.23867L13.849 4.52337C14.2322 4.09469 15.6755 2.83367 16.3493 2.25675C17.3715 1.62647 18.5532 1.28516 19.7695 1.28516C21.5145 1.28516 23.1881 1.98762 24.422 3.23802C25.6559 4.48842 26.3491 6.18432 26.3491 7.95265C26.3491 12.8372 18.8493 21.2852 13.849 21.2852C8.84858 21.2852 1.34912 12.8378 1.34912 7.9533C1.34912 6.18497 2.04233 4.48907 3.27624 3.23867C4.51015 1.98827 6.1837 1.2858 7.92872 1.2858C9.67373 1.2858 11.3473 1.98827 12.5812 3.23867Z" stroke="#979797" stroke-width="2" stroke-linecap="round" stroke-linejoin="round"/>
</svg>
