<svg width="22" height="22" viewBox="0 0 27 26" fill="none" xmlns="http://www.w3.org/2000/svg">
<circle cx="13.4951" cy="13" r="12.6094" fill="#F0F0F0"/>
<path opacity="0.3" d="M12.8786 10.6616L12.1541 9.97556C11.8093 9.64193 11.3946 9.37878 10.935 9.19552C10.4803 9.01226 9.98569 8.923 9.49105 8.923C8.99642 8.923 8.50681 9.01696 8.04715 9.19552C7.59249 9.37878 7.17779 9.64193 6.82805 9.97556C6.11858 10.6475 5.71887 11.5591 5.72386 12.5083C5.72386 15.135 10.0157 19.6648 12.8736 19.6648C15.7314 19.6648 20.0182 15.1209 20.0182 12.5083C20.0182 11.5591 19.6236 10.6475 18.9191 9.97086C18.3295 9.40228 17.5501 9.04047 16.7107 8.94649C15.8713 8.85251 15.022 9.02637 14.3075 9.44458" fill="#FF6B00"/>
<path d="M13.5011 10.0089L12.7766 9.32285C12.4318 8.98922 12.0171 8.72607 11.5575 8.54281C11.1028 8.35955 10.6082 8.27029 10.1136 8.27029C9.61892 8.27029 9.12931 8.36425 8.66965 8.54281C8.21498 8.72607 7.80029 8.98922 7.45055 9.32285C6.74108 9.9948 6.34136 10.9064 6.34636 11.8556C6.34636 14.4823 10.6382 19.0121 13.4961 19.0121C16.3539 19.0121 20.6407 14.4682 20.6407 11.8556C20.6407 10.9064 20.2461 9.99479 19.5416 9.31815C18.952 8.74957 18.1726 8.38776 17.3332 8.29378C16.4938 8.1998 15.6445 8.37366 14.93 8.79187" fill="#FF6B00"/>
</svg>
