<svg width="26" height="21" viewBox="0 0 26 21" fill="none" xmlns="http://www.w3.org/2000/svg">
<path d="M11.5304 2.23867L12.7982 3.52337C13.1814 3.09469 14.6248 1.83367 15.2985 1.25675C16.3208 0.626468 17.5024 0.285156 18.7187 0.285156C20.4638 0.285156 22.1373 0.987623 23.3712 2.23802C24.6051 3.48842 25.2983 5.18432 25.2983 6.95265C25.2983 11.8372 17.7986 20.2852 12.7982 20.2852C7.7978 20.2852 0.29834 11.8378 0.29834 6.9533C0.29834 5.18497 0.991545 3.48907 2.22546 2.23867C3.45937 0.98827 5.13292 0.285804 6.87793 0.285804C8.62295 0.285804 10.2965 0.98827 11.5304 2.23867Z" fill="#FF6B00"/>
</svg>
