<svg width="18" height="18" viewBox="0 0 18 18" fill="none" xmlns="http://www.w3.org/2000/svg">
<g opacity="0.3">
<path d="M8.83008 16.8008C12.9722 16.8008 16.3301 13.4429 16.3301 9.30078C16.3301 5.15865 12.9722 1.80078 8.83008 1.80078C4.68794 1.80078 1.33008 5.15865 1.33008 9.30078C1.33008 13.4429 4.68794 16.8008 8.83008 16.8008Z" stroke="#FF6B00" stroke-width="1.16894" stroke-linecap="round" stroke-linejoin="round"/>
<path d="M6.83594 6.9057C7.01227 6.40445 7.3603 5.98178 7.8184 5.71255C8.27651 5.44332 8.81511 5.3449 9.33882 5.43473C9.86253 5.52456 10.3375 5.79684 10.6797 6.20335C11.0219 6.60985 11.2092 7.12434 11.2084 7.6557C11.2084 9.1557 10.0124 9.53175 10.0124 9.53175C9.37711 9.8494 8.74182 9.95528 8.74182 11.7553" stroke="#FF6B00" stroke-width="1.16894" stroke-linecap="round" stroke-linejoin="round"/>
<path d="M8.74219 13.4492H8.74935" stroke="#FF6B00" stroke-width="1.16894" stroke-linecap="round" stroke-linejoin="round"/>
</g>
<path d="M9.4668 16.1641C13.6089 16.1641 16.9668 12.8062 16.9668 8.66406C16.9668 4.52193 13.6089 1.16406 9.4668 1.16406C5.32466 1.16406 1.9668 4.52193 1.9668 8.66406C1.9668 12.8062 5.32466 16.1641 9.4668 16.1641Z" stroke="#FF6B00" stroke-width="1.16894" stroke-linecap="round" stroke-linejoin="round"/>
<path d="M7.47266 6.26703C7.64898 5.76578 7.99702 5.34311 8.45512 5.07388C8.91322 4.80465 9.45183 4.70623 9.97554 4.79606C10.4992 4.88589 10.9743 5.15817 11.3165 5.56467C11.6587 5.97118 11.8459 6.48567 11.8452 7.01703C11.8452 8.51703 10.6491 8.89308 10.6491 8.89308C10.0138 9.21073 9.37854 9.31661 9.37854 11.1166" stroke="#FF6B00" stroke-width="1.16894" stroke-linecap="round" stroke-linejoin="round"/>
<path d="M9.37891 12.8105H9.38607" stroke="#FF6B00" stroke-width="1.16894" stroke-linecap="round" stroke-linejoin="round"/>
</svg>
