<svg width="19" height="19" viewBox="0 0 19 19" fill="none" xmlns="http://www.w3.org/2000/svg">
<g id="Help">
<path id="Vector" d="M9.36576 18.0904C14.1344 18.0904 18.0001 14.2247 18.0001 9.45609C18.0001 4.68749 14.1344 0.821777 9.36576 0.821777C4.59716 0.821777 0.731445 4.68749 0.731445 9.45609C0.731445 14.2247 4.59716 18.0904 9.36576 18.0904Z" stroke="#FF6B00" stroke-width="1.34573" stroke-linecap="round" stroke-linejoin="round"/>
<g id="Group 1000001401">
<path id="Vector_2" d="M7.07031 6.69704C7.27331 6.11998 7.67398 5.63338 8.20137 5.32343C8.72875 5.01348 9.34882 4.90018 9.95173 5.0036C10.5547 5.10701 11.1015 5.42047 11.4955 5.88846C11.8894 6.35644 12.105 6.94874 12.1041 7.56047C12.1041 9.28733 10.7272 9.72026 10.7272 9.72026C9.99582 10.0859 9.26444 10.2078 9.26444 12.2801" stroke="#FF9B53" stroke-width="1.34573" stroke-linecap="round" stroke-linejoin="round"/>
<path id="Vector_3" d="M9.26465 14.2305H9.2729" stroke="#FF9B53" stroke-width="1.34573" stroke-linecap="round" stroke-linejoin="round"/>
</g>
</g>
</svg>
