<svg width="20" height="20" viewBox="0 0 20 20" fill="none" xmlns="http://www.w3.org/2000/svg">
<path opacity="0.3" d="M14.3589 7.89049L14.3791 8.49015C14.643 8.48127 14.8701 8.30086 14.9384 8.04578L14.3589 7.89049ZM15.6377 12.3333C15.7057 12.009 15.4978 11.691 15.1735 11.623C14.8491 11.5551 14.5312 11.763 14.4632 12.0873L15.6377 12.3333ZM15.633 5.45379C15.7187 5.13371 15.5288 4.80471 15.2087 4.71894C14.8886 4.63318 14.5596 4.82313 14.4739 5.14321L15.633 5.45379ZM11.8588 7.37429C11.5276 7.38543 11.2682 7.66295 11.2793 7.99413C11.2905 8.32531 11.568 8.58475 11.8992 8.57361L11.8588 7.37429ZM11.815 15.745C9.16995 17.2721 5.78768 16.3659 4.26054 13.7208L3.22131 14.3208C5.07982 17.5398 9.196 18.6427 12.415 16.7842L11.815 15.745ZM4.26054 13.7208C2.73339 11.0757 3.63967 7.69341 6.28476 6.16627L5.68476 5.12703C2.46572 6.98555 1.36279 11.1017 3.22131 14.3208L4.26054 13.7208ZM6.28476 6.16627C8.92986 4.63912 12.3121 5.5454 13.8393 8.19049L14.8785 7.59049C13.02 4.37144 8.90381 3.26852 5.68476 5.12703L6.28476 6.16627ZM14.4632 12.0873C14.1517 13.5747 13.2334 14.9261 11.815 15.745L12.415 16.7842C14.1413 15.7876 15.2592 14.1406 15.6377 12.3333L14.4632 12.0873ZM14.9384 8.04578L15.633 5.45379L14.4739 5.14321L13.7793 7.7352L14.9384 8.04578ZM14.3387 7.29083L11.8588 7.37429L11.8992 8.57361L14.3791 8.49015L14.3387 7.29083Z" fill="#A7A9AC"/>
<path opacity="0.3" d="M8.09138 8.98972L9.79754 11.9449L11.9307 12.1957" stroke="#A7A9AC" stroke-width="1.2" stroke-linecap="round" stroke-linejoin="round"/>
<path d="M14.6167 6.9337L14.6369 7.53336C14.9008 7.52448 15.1279 7.34407 15.1963 7.08899L14.6167 6.9337ZM15.8955 11.3765C15.9635 11.0522 15.7556 10.7342 15.4313 10.6662C15.107 10.5983 14.789 10.8062 14.721 11.1305L15.8955 11.3765ZM15.8908 4.497C15.9765 4.17692 15.7866 3.84792 15.4665 3.76216C15.1464 3.67639 14.8174 3.86634 14.7317 4.18642L15.8908 4.497ZM12.1166 6.4175C11.7854 6.42865 11.526 6.70616 11.5371 7.03734C11.5483 7.36852 11.8258 7.62797 12.157 7.61682L12.1166 6.4175ZM12.0729 14.7882C9.42776 16.3154 6.0455 15.4091 4.51835 12.764L3.47912 13.364C5.33764 16.583 9.45381 17.686 12.6729 15.8274L12.0729 14.7882ZM4.51835 12.764C2.9912 10.1189 3.89748 6.73662 6.54258 5.20948L5.94258 4.17025C2.72353 6.02876 1.6206 10.1449 3.47912 13.364L4.51835 12.764ZM6.54258 5.20948C9.18767 3.68233 12.5699 4.58861 14.0971 7.2337L15.1363 6.6337C13.2778 3.41466 9.16162 2.31173 5.94258 4.17025L6.54258 5.20948ZM14.721 11.1305C14.4095 12.6179 13.4913 13.9693 12.0729 14.7882L12.6729 15.8274C14.3991 14.8308 15.517 13.1839 15.8955 11.3765L14.721 11.1305ZM15.1963 7.08899L15.8908 4.497L14.7317 4.18642L14.0371 6.77841L15.1963 7.08899ZM14.5965 6.33404L12.1166 6.4175L12.157 7.61682L14.6369 7.53336L14.5965 6.33404Z" fill="#A7A9AC"/>
<path d="M8.36677 7.9636L10.0729 10.9188L12.2061 11.1696" stroke="#A7A9AC" stroke-width="1.2" stroke-linecap="round" stroke-linejoin="round"/>
</svg>
