<svg width="30" height="20" viewBox="0 0 30 20" fill="none" xmlns="http://www.w3.org/2000/svg">
<path d="M11.4374 15.4033V12.4971L8.91937 11.0439L6.40137 12.4971V15.4033L8.91937 16.8564L11.4374 15.4033Z" stroke="#FF6B00" stroke-width="1.12589" stroke-linecap="round" stroke-linejoin="round"/>
<path d="M16.4628 15.3965V12.4902L13.9448 11.0371L11.4268 12.4902V15.3965L13.9448 16.8496L16.4628 15.3965Z" stroke="#FF6B00" stroke-width="1.12589" stroke-linecap="round" stroke-linejoin="round"/>
<path d="M18.953 11.0544V8.14257L16.435 6.68945L13.917 8.14257V11.0544L16.435 12.5075L18.953 11.0544Z" stroke="#FF6B00" stroke-width="1.12589" stroke-linecap="round" stroke-linejoin="round"/>
<path d="M23.8949 11.0495V8.13769L21.3769 6.68457L18.8589 8.13769V11.0495L21.3769 12.5026L23.8949 11.0495Z" stroke="#FF6B00" stroke-width="1.12589" stroke-linecap="round" stroke-linejoin="round"/>
<path d="M6.38508 15.6299L4.64355 16.6393" stroke="#FF6B00" stroke-width="1.12589" stroke-linecap="round" stroke-linejoin="round"/>
<path d="M16.4624 6.65669V4.27734" stroke="#FF6B00" stroke-width="1.12589" stroke-linecap="round" stroke-linejoin="round"/>
<path d="M23.8774 8.12045L26.2568 6.65625" stroke="#FF6B00" stroke-width="1.12589" stroke-linecap="round" stroke-linejoin="round"/>
<path d="M3.18484 19.2027C4.09442 19.2027 4.83207 18.465 4.83207 17.5554C4.83207 16.6459 4.09442 15.9082 3.18484 15.9082C2.27525 15.9082 1.5376 16.6459 1.5376 17.5554C1.5376 18.465 2.27525 19.2027 3.18484 19.2027V19.2027Z" stroke="#FF9B53" stroke-width="1.12589" stroke-linecap="round" stroke-linejoin="round"/>
<path d="M16.4568 4.2769C17.3664 4.2769 18.104 3.53925 18.104 2.62966C18.104 1.72007 17.3664 0.982422 16.4568 0.982422C15.5472 0.982422 14.8096 1.72007 14.8096 2.62966C14.8096 3.53925 15.5472 4.2769 16.4568 4.2769Z" stroke="#FF9B53" stroke-width="1.12589" stroke-linecap="round" stroke-linejoin="round"/>
<path d="M27.5384 7.29936C28.4479 7.29936 29.1856 6.56171 29.1856 5.65212C29.1856 4.74254 28.4479 4.00488 27.5384 4.00488C26.6288 4.00488 25.8911 4.74254 25.8911 5.65212C25.8911 6.56171 26.6288 7.29936 27.5384 7.29936Z" stroke="#FF9B53" stroke-width="1.12589" stroke-linecap="round" stroke-linejoin="round"/>
</svg>
