<svg width="16" height="16" viewBox="0 0 16 16" fill="none" xmlns="http://www.w3.org/2000/svg">
<path d="M13.8209 8.24463V13.0772C13.8209 13.7011 13.3327 14.207 12.7305 14.207H3.26941C2.66721 14.207 2.17902 13.7011 2.17902 13.0772V8.24463" stroke="#4D4D4F" stroke-linecap="round" stroke-linejoin="round"/>
<path d="M0.761047 5.26698L2.43146 1.79346H13.5675L15.238 5.26698" stroke="#4D4D4F" stroke-linecap="round" stroke-linejoin="round"/>
<path d="M5.51608 6.25945C5.51608 6.78588 5.28196 7.29073 4.86525 7.66297C4.44853 8.0352 3.88334 8.24433 3.29402 8.24433H2.98293C2.3936 8.24433 1.82841 8.0352 1.4117 7.66297C0.994978 7.29073 0.760864 6.78588 0.760864 6.25945V5.26702" stroke="#4D4D4F" stroke-linecap="round" stroke-linejoin="round"/>
<path d="M10.5159 6.25945C10.5159 6.78588 10.2818 7.29073 9.8651 7.66297C9.44838 8.0352 8.8832 8.24433 8.29387 8.24433H7.73836C7.14902 8.24433 6.58383 8.0352 6.16712 7.66297C5.7504 7.29073 5.5163 6.78588 5.5163 6.25945" stroke="#4D4D4F" stroke-linecap="round" stroke-linejoin="round"/>
<path d="M15.2379 5.26702V6.25945C15.2379 6.78588 15.0038 7.29073 14.5871 7.66297C14.1704 8.0352 13.6051 8.24433 13.0158 8.24433H12.7381C12.1487 8.24433 11.5835 8.0352 11.1668 7.66297C10.7501 7.29073 10.516 6.78588 10.516 6.25945" stroke="#4D4D4F" stroke-linecap="round" stroke-linejoin="round"/>
<rect x="6.35107" y="10.5093" width="3.29785" height="3.66016" rx="0.5" stroke="#4D4D4F"/>
</svg>
