<svg width="22" height="22" viewBox="0 0 22 22" fill="none" xmlns="http://www.w3.org/2000/svg">
<rect x="0.453613" width="21.0833" height="21.0843" rx="10.5417" fill="#C7C8CA"/>
<g opacity="0.3">
<path d="M6.27637 14.7354V7.39608C6.27637 6.81694 6.74468 6.34863 7.32381 6.34863H14.6631C15.2423 6.34863 15.7106 6.81694 15.7106 7.39608V10.542" stroke="white" stroke-width="0.725708" stroke-linecap="round" stroke-linejoin="round"/>
<path d="M15.7139 14.7384V12.6399L13.0935 10.0195L7.32715 15.7859H14.6665C15.2456 15.7859 15.7139 15.3176 15.7139 14.7384V14.7384Z" stroke="white" stroke-width="0.725708" stroke-linecap="round" stroke-linejoin="round"/>
<path d="M9.36163 10.3414C9.86212 10.3414 10.2697 9.93391 10.2697 9.43342C10.2697 8.93293 9.86212 8.52539 9.36163 8.52539C8.86115 8.52539 8.45361 8.93293 8.45361 9.43342C8.45361 9.93391 8.86115 10.3414 9.36163 10.3414Z" stroke="white" stroke-width="0.725708" stroke-linecap="round" stroke-linejoin="round"/>
</g>
<path d="M6.80176 14.21V6.87069C6.80176 6.29155 7.27007 5.82324 7.84921 5.82324H15.1885C15.7677 5.82324 16.236 6.29155 16.236 6.87069V10.0166" stroke="white" stroke-width="0.725708" stroke-linecap="round" stroke-linejoin="round"/>
<path d="M16.2393 14.213V12.1146L13.6189 9.49414L7.85254 15.2605H15.1918C15.771 15.2605 16.2393 14.7922 16.2393 14.213V14.213Z" stroke="white" stroke-width="0.725708" stroke-linecap="round" stroke-linejoin="round"/>
<path d="M9.88654 9.81605C10.387 9.81605 10.7946 9.40852 10.7946 8.90803C10.7946 8.40754 10.387 8 9.88654 8C9.38605 8 8.97852 8.40754 8.97852 8.90803C8.97852 9.40852 9.38605 9.81605 9.88654 9.81605Z" stroke="white" stroke-width="0.725708" stroke-linecap="round" stroke-linejoin="round"/>
</svg>
