<svg width="22" height="22" viewBox="0 0 22 22" fill="none" xmlns="http://www.w3.org/2000/svg">
<g opacity="0.3">
<path d="M10.7635 8.06812C10.5294 8.06812 10.3255 7.9901 10.1515 7.82809C9.98345 7.67208 9.89941 7.44407 9.89941 7.15606C9.89941 6.89204 9.98345 6.67602 10.1575 6.50801C10.3315 6.34 10.5294 6.25 10.7635 6.25C10.9975 6.25 11.1835 6.32801 11.3515 6.48402C11.5195 6.64003 11.6095 6.86204 11.6095 7.15606C11.6095 7.45007 11.5255 7.66608 11.3575 7.82809C11.1895 7.9901 10.9915 8.06812 10.7635 8.06812ZM11.6095 9.98823V15.3645C11.6095 15.7365 11.5255 16.0186 11.3635 16.2106C11.2015 16.4026 10.9975 16.4986 10.7455 16.4986C10.4935 16.4986 10.2894 16.4026 10.1334 16.2046C9.97743 16.0065 9.89941 15.7305 9.89941 15.3645V10.0482C9.89941 9.6822 9.97743 9.40017 10.1334 9.21416C10.2894 9.02815 10.4935 8.93817 10.7455 8.93817C10.9975 8.93817 11.2015 9.02815 11.3635 9.21416C11.5255 9.40017 11.6095 9.65821 11.6095 9.98823Z" fill="#979797"/>
<path d="M10.7512 18.7446C14.8207 18.7446 18.1196 15.4457 18.1196 11.3762C18.1196 7.30678 14.8207 4.00781 10.7512 4.00781C6.68178 4.00781 3.38281 7.30678 3.38281 11.3762C3.38281 15.4457 6.68178 18.7446 10.7512 18.7446Z" stroke="#979797" stroke-width="1.3"/>
</g>
<path d="M11.6429 7.18555C11.4088 7.18555 11.2049 7.10753 11.0308 6.94552C10.8628 6.78951 10.7788 6.5615 10.7788 6.27349C10.7788 6.00947 10.8628 5.79345 11.0369 5.62544C11.2109 5.45743 11.4088 5.36743 11.6429 5.36743C11.8769 5.36743 12.0629 5.44544 12.2309 5.60145C12.3989 5.75746 12.4889 5.97947 12.4889 6.27349C12.4889 6.5675 12.4049 6.78351 12.2369 6.94552C12.0689 7.10753 11.8709 7.18555 11.6429 7.18555ZM12.4889 9.10566V14.4819C12.4889 14.8539 12.4049 15.136 12.2429 15.328C12.0809 15.52 11.8769 15.616 11.6249 15.616C11.3729 15.616 11.1688 15.52 11.0128 15.322C10.8568 15.124 10.7788 14.8479 10.7788 14.4819V9.16565C10.7788 8.79963 10.8568 8.5176 11.0128 8.33159C11.1688 8.14558 11.3729 8.0556 11.6249 8.0556C11.8769 8.0556 12.0809 8.14558 12.2429 8.33159C12.4049 8.5176 12.4889 8.77564 12.4889 9.10566Z" fill="#979797"/>
<path d="M11.6316 17.8616C15.7011 17.8616 19 14.5626 19 10.4932C19 6.42372 15.7011 3.12476 11.6316 3.12476C7.56215 3.12476 4.26318 6.42372 4.26318 10.4932C4.26318 14.5626 7.56215 17.8616 11.6316 17.8616Z" stroke="#979797" stroke-width="1.3"/>
</svg>
