<svg width="22" height="22" viewBox="0 0 22 22" fill="none" xmlns="http://www.w3.org/2000/svg">
<path d="M11.0796 6.70004C10.7799 6.70004 10.5187 6.60014 10.2959 6.39269C10.0807 6.19292 9.97314 5.90095 9.97314 5.53215C9.97314 5.19408 10.0808 4.91746 10.3036 4.70233C10.5264 4.48719 10.7799 4.37195 11.0796 4.37195C11.3792 4.37195 11.6174 4.47184 11.8326 4.67161C12.0477 4.87138 12.1629 5.15566 12.1629 5.53215C12.1629 5.90864 12.0554 6.18524 11.8403 6.39269C11.6251 6.60014 11.3715 6.70004 11.0796 6.70004ZM12.1629 9.15875V16.0431C12.1629 16.5194 12.0554 16.8806 11.8479 17.1264C11.6404 17.3723 11.3792 17.4952 11.0565 17.4952C10.7338 17.4952 10.4726 17.3723 10.2728 17.1188C10.073 16.8652 9.97314 16.5117 9.97314 16.0431V9.23556C9.97314 8.76687 10.073 8.40574 10.2728 8.16756C10.4726 7.92937 10.7338 7.81415 11.0565 7.81415C11.3792 7.81415 11.6404 7.92937 11.8479 8.16756C12.0554 8.40574 12.1629 8.73616 12.1629 9.15875Z" fill="#FF9B53"/>
<path d="M11.0646 20.3705C16.2756 20.3705 20.4999 16.1462 20.4999 10.9353C20.4999 5.72432 16.2756 1.5 11.0646 1.5C5.85371 1.5 1.62939 5.72432 1.62939 10.9353C1.62939 16.1462 5.85371 20.3705 11.0646 20.3705Z" stroke="#FF6B00" stroke-width="1.55876"/>
</svg>
