<svg width="22" height="22" viewBox="0 0 22 22" fill="none" xmlns="http://www.w3.org/2000/svg">
<rect x="0.453613" y="0.0839844" width="21.093" height="21.093" rx="10.5465" fill="#C7C8CA"/>
<path opacity="0.3" d="M11.0139 8.73094L10.5521 8.26602C10.3324 8.03991 10.0681 7.86157 9.77509 7.73737C9.4853 7.61318 9.17003 7.55269 8.85476 7.55269C8.53949 7.55269 8.22743 7.61636 7.93445 7.73737C7.64466 7.86157 7.38034 8.03991 7.15743 8.26602C6.70523 8.7214 6.45046 9.3392 6.45364 9.98248C6.45364 11.7626 9.18914 14.8325 11.0107 14.8325C12.8322 14.8325 15.5645 11.7531 15.5645 9.98248C15.5645 9.3392 15.313 8.7214 14.864 8.26283C14.4882 7.8775 13.9914 7.6323 13.4564 7.56861C12.9214 7.50492 12.38 7.62274 11.9246 7.90616" stroke="white" stroke-width="0.646457" stroke-linecap="round" stroke-linejoin="round"/>
<path d="M11.4821 8.26317L11.0204 7.79824C10.8006 7.57214 10.5363 7.3938 10.2434 7.2696C9.95356 7.14541 9.63829 7.08491 9.32302 7.08491C9.00776 7.08491 8.69569 7.14859 8.40271 7.2696C8.11292 7.3938 7.84861 7.57214 7.62569 7.79824C7.17349 8.25363 6.91872 8.87143 6.9219 9.5147C6.9219 11.2948 9.6574 14.3647 11.4789 14.3647C13.3005 14.3647 16.0328 11.2853 16.0328 9.5147C16.0328 8.87143 15.7812 8.25363 15.3322 7.79505C14.9565 7.40973 14.4597 7.16452 13.9247 7.10083C13.3897 7.03714 12.8483 7.15497 12.3929 7.43839" stroke="white" stroke-width="0.646457" stroke-linecap="round" stroke-linejoin="round"/>
</svg>
