<svg width="32" height="23" viewBox="0 0 32 23" fill="none" xmlns="http://www.w3.org/2000/svg">
<g opacity="0.3">
<path d="M29.4413 4.5415V19.4889C29.4413 19.9798 29.2433 20.4548 28.895 20.8031C28.5466 21.1515 28.0716 21.3494 27.5808 21.3494H2.76869C2.52326 21.3494 2.28573 21.3019 2.05614 21.2069C1.82654 21.1119 1.62866 20.9773 1.45448 20.8031C1.28031 20.629 1.14571 20.4231 1.0507 20.2014C0.9557 19.9719 0.908203 19.7343 0.908203 19.4889V4.5415" stroke="#FF6B00" stroke-width="1.5" stroke-linecap="round" stroke-linejoin="round"/>
<path d="M1.42285 20.747L8.20778 12.6162" stroke="#FF6B00" stroke-width="1.5" stroke-linecap="round" stroke-linejoin="round"/>
<path d="M28.8465 20.8499L21.9824 12.6162" stroke="#FF6B00" stroke-width="1.5" stroke-linecap="round" stroke-linejoin="round"/>
<path d="M29.4413 4.54069C29.4413 4.04983 29.2433 3.57481 28.895 3.22645C28.5466 2.8781 28.0716 2.68018 27.5808 2.68018H2.76869C2.52326 2.68018 2.28573 2.72767 2.05614 2.82268C1.82654 2.91768 1.62866 3.05228 1.45448 3.22645C1.28031 3.40063 1.14571 3.60647 1.0507 3.82815C0.9557 4.05774 0.908203 4.29526 0.908203 4.54069L15.0797 14.0016L29.4333 4.54069H29.4413Z" stroke="#FF6B00" stroke-width="1.5" stroke-linecap="round" stroke-linejoin="round"/>
</g>
<path d="M30.6048 3.37842V18.3258C30.6048 18.8167 30.4069 19.2917 30.0586 19.6401C29.7102 19.9884 29.2352 20.1863 28.7444 20.1863H3.93227C3.68684 20.1863 3.44931 20.1388 3.21971 20.0438C2.99012 19.9488 2.79223 19.8142 2.61806 19.6401C2.44388 19.4659 2.30928 19.26 2.21428 19.0384C2.11927 18.8088 2.07178 18.5712 2.07178 18.3258V3.37842" stroke="#FF6B00" stroke-width="1.5" stroke-linecap="round" stroke-linejoin="round"/>
<path d="M2.58643 19.583L9.37135 11.4521" stroke="#FF6B00" stroke-width="1.5" stroke-linecap="round" stroke-linejoin="round"/>
<path d="M30.013 19.6859L23.1489 11.4521" stroke="#FF6B00" stroke-width="1.5" stroke-linecap="round" stroke-linejoin="round"/>
<path d="M30.6048 3.37614C30.6048 2.88528 30.4069 2.41025 30.0586 2.0619C29.7102 1.71355 29.2352 1.51562 28.7444 1.51562H3.93227C3.68684 1.51562 3.44931 1.56312 3.21971 1.65813C2.99012 1.75313 2.79223 1.88773 2.61806 2.0619C2.44388 2.23608 2.30928 2.44192 2.21428 2.6636C2.11927 2.89319 2.07178 3.13071 2.07178 3.37614L16.2433 12.837L30.5969 3.37614H30.6048Z" stroke="#FF9B53" stroke-width="1.5" stroke-linecap="round" stroke-linejoin="round"/>
</svg>
