<svg width="13" height="13" viewBox="0 0 13 13" fill="none" xmlns="http://www.w3.org/2000/svg">
<path d="M3.47095 2.54273C3.25594 2.761 3.13867 3.0542 3.13867 3.36043V5.95598M10.0711 2.21045H11.2244C11.3775 2.21045 11.5273 2.23977 11.6674 2.29515C11.8075 2.35053 11.9346 2.43523 12.0421 2.54273C12.2571 2.761 12.3743 3.0542 12.3743 3.36043V11.4363C12.3743 11.5895 12.345 11.7393 12.2864 11.8794C12.2277 12.0195 12.143 12.1465 12.0355 12.254C11.928 12.3615 11.801 12.4462 11.6609 12.5049C11.5208 12.5635 11.371 12.5928 11.2178 12.5928H4.29516C4.14205 12.5928 3.9922 12.5635 3.85212 12.5049C3.71203 12.4462 3.58497 12.3615 3.47747 12.254C3.36996 12.1465 3.28526 12.0195 3.22662 11.8794C3.16798 11.7393 3.13867 11.5895 3.13867 11.4363V10.9846" stroke="#FF6B00" stroke-width="0.8" stroke-linecap="round" stroke-linejoin="round"/>
<path d="M10.0553 2.20663V1.62023C10.0553 1.54531 10.039 1.47038 10.013 1.39871C9.98365 1.3303 9.9413 1.26514 9.88917 1.21302C9.83705 1.16089 9.77189 1.11855 9.70348 1.08923C9.63507 1.05991 9.56014 1.04688 9.48196 1.04688H6.01899C5.86587 1.04688 5.71928 1.10877 5.61177 1.21628C5.50427 1.32378 5.44238 1.47038 5.44238 1.62349V2.77673C5.44238 2.92984 5.50427 3.07644 5.61177 3.18395C5.71928 3.29145 5.86587 3.35335 6.01899 3.35335H9.48196C9.63507 3.35335 9.78167 3.29145 9.88917 3.18395C9.99668 3.07644 10.0586 2.92984 10.0586 2.77673V2.20663H10.0553Z" stroke="#FF6B00" stroke-width="0.8" stroke-linecap="round" stroke-linejoin="round"/>
<path d="M4.86816 4.75391H10.7614" stroke="#FF9B53" stroke-width="0.8" stroke-linecap="round"/>
<path d="M6.84961 6.31445H10.8007" stroke="#FF9B53" stroke-width="0.8" stroke-linecap="round"/>
<path d="M6.84961 7.87158H10.8007" stroke="#FF9B53" stroke-width="0.8" stroke-linecap="round"/>
<path d="M6.84961 9.42822H10.8007" stroke="#FF9B53" stroke-width="0.8" stroke-linecap="round"/>
<path d="M4.86816 11.041H10.7614" stroke="#FF9B53" stroke-width="0.8" stroke-linecap="round"/>
<path d="M3.13951 5.95605L0.984375 6.87035V8.2418C0.984375 9.51039 1.9039 10.6967 3.13951 10.9847C4.37512 10.6967 5.29464 9.51039 5.29464 8.2418V6.87035L3.13951 5.95605Z" stroke="#FF6B00" stroke-width="0.8" stroke-linejoin="round"/>
<path d="M2.30176 8.29151L3.02014 9.12962L4.21743 7.99219" stroke="#FF6B00" stroke-width="0.8" stroke-linecap="round" stroke-linejoin="round"/>
</svg>
