<svg width="19" height="16" viewBox="0 0 19 16" fill="none" xmlns="http://www.w3.org/2000/svg">
<path opacity="0.3" d="M9.05012 4.10115L8.23064 3.26116C7.84068 2.85266 7.3716 2.53045 6.85166 2.30606C6.33737 2.08167 5.77785 1.97238 5.21835 1.97238C4.65884 1.97238 4.10502 2.08743 3.58507 2.30606C3.07078 2.53045 2.6017 2.85266 2.20609 3.26116C1.40357 4.08391 0.951432 5.2001 0.957084 6.36231C0.957084 9.57852 5.81177 15.1249 9.04447 15.1249C12.2772 15.1249 17.1262 9.56125 17.1262 6.36231C17.1262 5.2001 16.6797 4.08391 15.8829 3.2554C15.216 2.55923 14.3343 2.11621 13.3849 2.00114C12.4354 1.88607 11.4746 2.09895 10.6665 2.61101" stroke="#FF6B00" stroke-linecap="round" stroke-linejoin="round"/>
<path d="M9.88118 3.25545L9.0617 2.41546C8.67174 2.00696 8.20266 1.68474 7.68271 1.46036C7.16842 1.23597 6.60891 1.12668 6.0494 1.12668C5.4899 1.12668 4.93607 1.24172 4.41613 1.46036C3.90184 1.68474 3.43276 2.00696 3.03715 2.41546C2.23462 3.23821 1.78249 4.3544 1.78814 5.5166C1.78814 8.73281 6.64283 14.2792 9.87552 14.2792C13.1082 14.2792 17.9572 8.71555 17.9572 5.5166C17.9572 4.3544 17.5108 3.2382 16.7139 2.4097C16.047 1.71352 15.1654 1.27051 14.2159 1.15544C13.2665 1.04037 12.3057 1.25325 11.4975 1.76531" stroke="#FF6B00" stroke-linecap="round" stroke-linejoin="round"/>
</svg>
