<svg width="16" height="19" viewBox="0 0 16 19" fill="none" xmlns="http://www.w3.org/2000/svg">
<g opacity="0.3">
<path d="M1.93966 3.49973C1.62736 3.80651 1.45703 4.2186 1.45703 4.649V15.9996C1.45703 16.2148 1.49959 16.4254 1.58477 16.6223C1.66995 16.8192 1.79299 16.9978 1.94914 17.1488C2.1053 17.3 2.28985 17.419 2.49333 17.5014C2.69681 17.5838 2.91447 17.6251 3.13687 17.6251H13.1923C13.4147 17.6251 13.6323 17.5838 13.8358 17.5014C14.0393 17.419 14.2238 17.3 14.38 17.1488C14.5361 16.9978 14.6592 16.8192 14.7444 16.6223C14.8296 16.4254 14.8721 16.2148 14.8721 15.9996V4.649C14.8721 4.2186 14.7018 3.80651 14.3895 3.49973C14.2333 3.34864 14.0488 3.22959 13.8453 3.15176C13.6419 3.07392 13.4241 3.03271 13.2017 3.03271H11.5266" stroke="#FF6B00" stroke-linecap="round" stroke-linejoin="round"/>
<path d="M11.5052 3.02748V2.20331C11.5052 2.098 11.4815 1.99269 11.4437 1.89195C11.401 1.79581 11.3395 1.70423 11.2638 1.63097C11.1881 1.5577 11.0935 1.49819 10.9941 1.45698C10.8947 1.41577 10.7859 1.39746 10.6723 1.39746H5.64222C5.41982 1.39746 5.20689 1.48445 5.05073 1.63555C4.89458 1.78665 4.80469 1.99269 4.80469 2.20789V3.82874C4.80469 4.04394 4.89458 4.24998 5.05073 4.40108C5.20689 4.55218 5.41982 4.63918 5.64222 4.63918H10.6723C10.8947 4.63918 11.1077 4.55218 11.2638 4.40108C11.4199 4.24998 11.5098 4.04394 11.5098 3.82874V3.02748H11.5052Z" stroke="#FF6B00" stroke-linecap="round" stroke-linejoin="round"/>
<path d="M3.96875 6.60742H12.5289" stroke="#FF6B00" stroke-linecap="round"/>
<path d="M3.96875 8.78809H12.5289" stroke="#FF6B00" stroke-linecap="round"/>
<path d="M3.96875 10.8184H12.5289" stroke="#FF6B00" stroke-linecap="round"/>
<path d="M3.96875 12.8511H12.5289" stroke="#FF6B00" stroke-linecap="round"/>
<path d="M3.96875 14.8838H12.5289" stroke="#FF6B00" stroke-linecap="round"/>
</g>
<path d="M2.63572 3.11246C2.32609 3.41149 2.15723 3.81317 2.15723 4.23269V15.2968C2.15723 15.5065 2.19942 15.7118 2.28387 15.9037C2.36831 16.0956 2.4903 16.2697 2.64512 16.417C2.79993 16.5642 2.9829 16.6803 3.18463 16.7606C3.38636 16.8409 3.60216 16.8811 3.82265 16.8811H13.7918C14.0123 16.8811 14.2281 16.8409 14.4298 16.7606C14.6315 16.6803 14.8146 16.5642 14.9693 16.417C15.1241 16.2697 15.2462 16.0956 15.3306 15.9037C15.4151 15.7118 15.4572 15.5065 15.4572 15.2968V4.23269C15.4572 3.81317 15.2884 3.41149 14.9787 3.11246C14.8239 2.96517 14.641 2.84913 14.4392 2.77326C14.2375 2.69739 14.0217 2.65723 13.8012 2.65723H12.1405" stroke="#FF6B00" stroke-linecap="round" stroke-linejoin="round"/>
<path d="M11.9527 2.32789V1.46687C11.9527 1.35685 11.9305 1.24684 11.8949 1.14161C11.8549 1.04115 11.7971 0.94548 11.726 0.868954C11.6548 0.792418 11.5659 0.730236 11.4725 0.687191C11.3792 0.644137 11.2769 0.625 11.1702 0.625H6.44415C6.23519 0.625 6.03512 0.715891 5.8884 0.873736C5.74169 1.03159 5.65723 1.24684 5.65723 1.47166V3.16498C5.65723 3.3898 5.74169 3.60506 5.8884 3.7629C6.03512 3.92075 6.23519 4.01165 6.44415 4.01165H11.1702C11.3792 4.01165 11.5793 3.92075 11.726 3.7629C11.8727 3.60506 11.9572 3.3898 11.9572 3.16498V2.32789H11.9527Z" stroke="#FF9B53" stroke-linecap="round" stroke-linejoin="round"/>
<path d="M4.95703 6.04346H13.357" stroke="#FF9B53" stroke-linecap="round"/>
<path d="M4.95703 8.10986H13.357" stroke="#FF9B53" stroke-linecap="round"/>
<path d="M4.95703 10.1421H13.357" stroke="#FF9B53" stroke-linecap="round"/>
<path d="M4.95703 12.1738H13.357" stroke="#FF9B53" stroke-linecap="round"/>
<path d="M4.95703 14.2061H13.357" stroke="#FF9B53" stroke-linecap="round"/>
</svg>
