<svg width="21" height="13" viewBox="0 0 21 13" fill="none" xmlns="http://www.w3.org/2000/svg">
<g opacity="0.3">
<path d="M4.2837 11.6239H0.957031V9.26897C1.33626 9.28324 1.7155 9.22616 2.07073 9.09295C2.42596 8.95975 2.75238 8.75518 3.026 8.49353C3.29962 8.23187 3.52045 7.91789 3.66927 7.5706C3.81808 7.22332 3.89487 6.85224 3.89487 6.47166C3.89487 6.09107 3.81808 5.72 3.66927 5.37271C3.52045 5.02543 3.29962 4.71144 3.026 4.44979C2.75238 4.18814 2.42596 3.98357 2.07073 3.85036C1.7155 3.71716 1.33626 3.65531 0.957031 3.67434V1.32422H19.2513V3.67434C18.8721 3.66007 18.4929 3.71716 18.1376 3.85036C17.7824 3.98357 17.456 4.18814 17.1824 4.44979C16.9087 4.71144 16.6879 5.02543 16.5391 5.37271C16.3903 5.72 16.3135 6.09107 16.3135 6.47166C16.3135 6.85224 16.3903 7.22332 16.5391 7.5706C16.6879 7.91789 16.9087 8.23187 17.1824 8.49353C17.456 8.75518 17.7824 8.95975 18.1376 9.09295C18.4929 9.22616 18.8721 9.288 19.2513 9.26897V11.6239H7.30794" stroke="#FF6B00" stroke-linecap="round" stroke-linejoin="round"/>
<path d="M13.9619 5.0874V7.86567" stroke="#FF6B00" stroke-linecap="round" stroke-linejoin="round"/>
<path d="M13.9619 1.33008V2.62406" stroke="#FF6B00" stroke-linecap="round" stroke-linejoin="round"/>
<path d="M13.9619 11.6249V10.3262" stroke="#FF6B00" stroke-linecap="round" stroke-linejoin="round"/>
<path d="M6.99066 5.63963C7.57631 5.63963 8.04676 5.16864 8.04676 4.59301C8.04676 4.01737 7.57151 3.54639 6.99066 3.54639C6.40982 3.54639 5.93457 4.01737 5.93457 4.59301C5.93457 5.16864 6.40982 5.63963 6.99066 5.63963Z" stroke="#FF6B00" stroke-linecap="round" stroke-linejoin="round"/>
<path d="M10.5717 9.18797C11.1573 9.18797 11.6278 8.71698 11.6278 8.14135C11.6278 7.56571 11.1525 7.09473 10.5717 7.09473C9.99084 7.09473 9.51562 7.56571 9.51562 8.14135C9.51562 8.71698 9.99084 9.18797 10.5717 9.18797Z" stroke="#FF6B00" stroke-linecap="round" stroke-linejoin="round"/>
<path d="M10.5724 4.59277L6.99609 8.13699" stroke="#FF6B00" stroke-linecap="round" stroke-linejoin="round"/>
</g>
<path d="M4.98878 10.9246H1.66211V8.56975C2.04134 8.58403 2.42058 8.52694 2.7758 8.39374C3.13103 8.26053 3.45746 8.05596 3.73108 7.79431C4.0047 7.53265 4.22553 7.21867 4.37434 6.87138C4.52316 6.5241 4.59995 6.15303 4.59995 5.77244C4.59995 5.39185 4.52316 5.02078 4.37434 4.6735C4.22553 4.32621 4.0047 4.01223 3.73108 3.75057C3.45746 3.48892 3.13103 3.28435 2.7758 3.15114C2.42058 3.01794 2.04134 2.95609 1.66211 2.97512V0.625H19.9564V2.97512C19.5772 2.96085 19.1979 3.01794 18.8427 3.15114C18.4875 3.28435 18.1611 3.48892 17.8874 3.75057C17.6138 4.01223 17.393 4.32621 17.2442 4.6735C17.0954 5.02078 17.0186 5.39185 17.0186 5.77244C17.0186 6.15303 17.0954 6.5241 17.2442 6.87138C17.393 7.21867 17.6138 7.53265 17.8874 7.79431C18.1611 8.05596 18.4875 8.26053 18.8427 8.39374C19.1979 8.52694 19.5772 8.58878 19.9564 8.56975V10.9246H8.01302" stroke="#FF6B00" stroke-linecap="round" stroke-linejoin="round"/>
<path d="M14.667 4.38818V7.16645" stroke="#FF6B00" stroke-linecap="round" stroke-linejoin="round"/>
<path d="M14.667 0.630859V1.92484" stroke="#FF6B00" stroke-linecap="round" stroke-linejoin="round"/>
<path d="M14.667 10.9252V9.62646" stroke="#FF6B00" stroke-linecap="round" stroke-linejoin="round"/>
<path d="M7.69574 4.94041C8.28139 4.94041 8.75183 4.46942 8.75183 3.89379C8.75183 3.31815 8.27659 2.84717 7.69574 2.84717C7.11489 2.84717 6.63965 3.31815 6.63965 3.89379C6.63965 4.46942 7.11489 4.94041 7.69574 4.94041Z" stroke="#FF9B53" stroke-linecap="round" stroke-linejoin="round"/>
<path d="M11.2768 8.48875C11.8624 8.48875 12.3329 8.01776 12.3329 7.44213C12.3329 6.86649 11.8576 6.39551 11.2768 6.39551C10.6959 6.39551 10.2207 6.86649 10.2207 7.44213C10.2207 8.01776 10.6959 8.48875 11.2768 8.48875Z" stroke="#FF9B53" stroke-linecap="round" stroke-linejoin="round"/>
<path d="M11.2774 3.89355L7.70117 7.43777" stroke="#FF9B53" stroke-linecap="round" stroke-linejoin="round"/>
</svg>
