<svg width="21" height="21" viewBox="0 0 21 21" fill="none" xmlns="http://www.w3.org/2000/svg">
<g opacity="0.3">
<path d="M5.27834 3.59113C4.94215 3.93933 4.75879 4.40706 4.75879 4.89559V6.16005M15.5984 3.06104H17.4017C17.6411 3.06104 17.8754 3.10781 18.0944 3.19615C18.3135 3.2845 18.5121 3.41962 18.6802 3.59113C19.0164 3.93933 19.1998 4.40706 19.1998 4.89559V17.779C19.1998 18.0233 19.1539 18.2623 19.0623 18.4858C18.9706 18.7093 18.8381 18.912 18.67 19.0835C18.5019 19.255 18.3033 19.3901 18.0842 19.4836C17.8652 19.5772 17.6309 19.624 17.3915 19.624H11.3112H7.43505" stroke="#FF6B00" stroke-linecap="round" stroke-linejoin="round"/>
<path d="M15.5722 3.05571V2.12024C15.5722 2.00071 15.5467 1.88118 15.506 1.76685C15.4602 1.65771 15.3939 1.55376 15.3124 1.47061C15.2309 1.38746 15.129 1.3199 15.0221 1.27313C14.9151 1.22636 14.798 1.20557 14.6757 1.20557H9.26096C9.02155 1.20557 8.79233 1.30431 8.62423 1.47581C8.45614 1.64732 8.35938 1.88118 8.35938 2.12544V3.96519C8.35938 4.20945 8.45614 4.44331 8.62423 4.61481C8.79233 4.78632 9.02155 4.88506 9.26096 4.88506H14.6757C14.9151 4.88506 15.1443 4.78632 15.3124 4.61481C15.4805 4.44331 15.5773 4.20945 15.5773 3.96519V3.05571H15.5722Z" stroke="#FF6B00" stroke-linecap="round" stroke-linejoin="round"/>
<path d="M7.46387 7.11963H16.6786" stroke="#FF6B00" stroke-linecap="round"/>
<path d="M9.86328 9.46289L16.3382 9.46289" stroke="#FF6B00" stroke-linecap="round"/>
<path d="M10.2676 12.0933L16.7407 12.0933" stroke="#FF6B00" stroke-linecap="round"/>
<path d="M10.2676 14.5757L16.7402 14.5757" stroke="#FF6B00" stroke-linecap="round"/>
<path d="M9.86328 16.895L16.3382 16.895" stroke="#FF6B00" stroke-linecap="round"/>
<path d="M0.957031 12.3949C0.957031 10.3177 2.58558 8.6377 4.59915 8.6377C6.61273 8.6377 8.24128 10.3177 8.24128 12.3949C8.24128 15.2128 4.59915 19.3726 4.59915 19.3726C4.59915 19.3726 0.957031 15.2128 0.957031 12.3949Z" stroke="#FF6B00"/>
<path d="M4.68552 13.7369C3.96751 13.7369 3.38477 13.1358 3.38477 12.3951C3.38477 11.6544 3.96751 11.0532 4.68552 11.0532C5.40354 11.0532 5.98628 11.6544 5.98628 12.3951C5.98628 13.1358 5.40354 13.7369 4.68552 13.7369Z" stroke="#FF6B00"/>
</g>
<path d="M6.03713 3.01056C5.70093 3.35876 5.51758 3.8265 5.51758 4.31502V5.57948M16.3572 2.48047H18.1605C18.3999 2.48047 18.6342 2.52724 18.8532 2.61559C19.0722 2.70394 19.2709 2.83906 19.439 3.01056C19.7752 3.35876 19.9586 3.8265 19.9586 4.31502V17.1984C19.9586 17.4427 19.9127 17.6818 19.821 17.9052C19.7294 18.1287 19.5969 18.3314 19.4288 18.5029C19.2607 18.6744 19.062 18.8095 18.843 18.9031C18.624 18.9966 18.3897 19.0434 18.1503 19.0434H12.07H8.19384" stroke="#FF6B00" stroke-linecap="round" stroke-linejoin="round"/>
<path d="M16.331 2.47514V1.53967C16.331 1.42014 16.3055 1.30061 16.2648 1.18628C16.2189 1.07714 16.1527 0.973198 16.0712 0.890046C15.9897 0.806893 15.8878 0.739337 15.7809 0.692564C15.6739 0.645791 15.5567 0.625 15.4345 0.625H10.0197C9.78034 0.625 9.55112 0.723746 9.38302 0.895248C9.21493 1.06675 9.11816 1.30062 9.11816 1.54488V3.38462C9.11816 3.62888 9.21493 3.86275 9.38302 4.03425C9.55112 4.20575 9.78034 4.3045 10.0197 4.3045H15.4345C15.6739 4.3045 15.9031 4.20575 16.0712 4.03425C16.2393 3.86275 16.3361 3.62888 16.3361 3.38462V2.47514H16.331Z" stroke="#FF9B53" stroke-linecap="round" stroke-linejoin="round"/>
<path d="M8.22266 6.53906H17.4374" stroke="#FF9B53" stroke-linecap="round"/>
<path d="M10.6221 8.88232L17.097 8.88232" stroke="#FF9B53" stroke-linecap="round"/>
<path d="M11.0264 11.5127L17.4994 11.5127" stroke="#FF9B53" stroke-linecap="round"/>
<path d="M11.0264 13.9951L17.499 13.9951" stroke="#FF9B53" stroke-linecap="round"/>
<path d="M10.6221 16.3145L17.097 16.3145" stroke="#FF9B53" stroke-linecap="round"/>
<path d="M1.7168 11.8138C1.7168 9.73665 3.34535 8.05664 5.35892 8.05664C7.37249 8.05664 9.00104 9.73665 9.00104 11.8138C9.00104 14.6317 5.35892 18.7915 5.35892 18.7915C5.35892 18.7915 1.7168 14.6317 1.7168 11.8138Z" stroke="#FF6B00"/>
<path d="M5.44529 13.1554C4.72727 13.1554 4.14453 12.5542 4.14453 11.8135C4.14453 11.0728 4.72727 10.4717 5.44529 10.4717C6.16331 10.4717 6.74605 11.0728 6.74605 11.8135C6.74605 12.5542 6.16331 13.1554 5.44529 13.1554Z" stroke="#FF9B53"/>
</svg>
