<svg width="18" height="16" viewBox="0 0 18 16" fill="none" xmlns="http://www.w3.org/2000/svg">
<g opacity="0.3">
<path d="M1.45703 14.6258V13.5432C1.45703 11.726 2.96514 10.2568 4.82059 10.2568H6.06243M16.8107 14.6258V13.5432C16.8107 11.7303 15.3069 10.2568 13.4471 10.2568H12.203" stroke="#FF6B00" stroke-width="1.36953" stroke-linecap="round" stroke-linejoin="round"/>
<path d="M9.13397 11.1981C11.9435 11.1981 14.2167 8.97282 14.2167 6.22772C14.2167 3.48262 11.9391 1.25732 9.13397 1.25732C6.32881 1.25732 4.04688 3.48262 4.04688 6.22772C4.04688 8.97282 6.32442 11.1981 9.13397 11.1981Z" stroke="#FF6B00" stroke-width="1.36953" stroke-linecap="round" stroke-linejoin="round"/>
</g>
<path d="M2.10449 13.9935V12.9109C2.10449 11.0937 3.6126 9.62451 5.46805 9.62451H6.70989M17.4581 13.9935V12.9109C17.4581 11.098 15.9544 9.62451 14.0946 9.62451H12.8504" stroke="#FF9B53" stroke-linecap="round" stroke-linejoin="round"/>
<path d="M9.78143 10.5658C12.591 10.5658 14.8641 8.34049 14.8641 5.59539C14.8641 2.85029 12.5866 0.625 9.78143 0.625C6.97628 0.625 4.69434 2.85029 4.69434 5.59539C4.69434 8.34049 6.97188 10.5658 9.78143 10.5658Z" stroke="#FF6B00" stroke-linecap="round" stroke-linejoin="round"/>
</svg>
