<svg width="28" height="15" viewBox="0 0 28 15" fill="none" xmlns="http://www.w3.org/2000/svg">
<g opacity="0.3">
<path d="M1.45703 13.6252V12.7472C1.45703 11.2732 2.7027 10.0815 4.23526 10.0815H5.26099" stroke="#FF6B00" stroke-width="1.55093" stroke-linecap="round" stroke-linejoin="round"/>
<path d="M10.0373 3.40274C9.38894 3.00909 8.62074 2.78125 7.79753 2.78125C5.48053 2.78125 3.5957 4.58621 3.5957 6.81279C3.5957 8.86553 5.19464 10.5599 7.26273 10.812" stroke="#FF6B00" stroke-width="1.55093" stroke-linecap="round" stroke-linejoin="round"/>
<path d="M26.8955 13.6252V12.7472C26.8955 11.2732 25.6498 10.0815 24.1173 10.0815H23.0915" stroke="#FF6B00" stroke-width="1.55093" stroke-linecap="round" stroke-linejoin="round"/>
<path d="M18.3152 3.40323C18.9636 3.00958 19.7318 2.78174 20.555 2.78174C22.872 2.78174 24.7568 4.5867 24.7568 6.81328C24.7568 8.86602 23.1579 10.5604 21.0898 10.8125" stroke="#FF6B00" stroke-width="1.55093" stroke-linecap="round" stroke-linejoin="round"/>
<path d="M6.9043 13.625V12.616C6.9043 10.9222 8.33577 9.55273 10.0969 9.55273H11.2757M21.4777 13.625V12.616C21.4777 10.9262 20.0504 9.55273 18.2851 9.55273H17.1042" stroke="#FF6B00" stroke-width="1.55093" stroke-linecap="round" stroke-linejoin="round"/>
<path d="M14.1909 10.4299C16.8577 10.4299 19.0153 8.35566 19.0153 5.79696C19.0153 3.23826 16.8535 1.16406 14.1909 1.16406C11.5283 1.16406 9.3623 3.23826 9.3623 5.79696C9.3623 8.35566 11.5241 10.4299 14.1909 10.4299Z" stroke="#FF6B00" stroke-width="1.55093" stroke-linecap="round" stroke-linejoin="round"/>
</g>
<path d="M2.01562 13.0862V12.2081C2.01562 10.7342 3.26129 9.54248 4.79385 9.54248H5.81958" stroke="#FF9B53" stroke-linecap="round" stroke-linejoin="round"/>
<path d="M10.5959 2.86416C9.94753 2.47052 9.17933 2.24268 8.35612 2.24268C6.03913 2.24268 4.1543 4.04763 4.1543 6.27421C4.1543 8.32696 5.75323 10.0214 7.82133 10.2734" stroke="#FF6B00" stroke-linecap="round" stroke-linejoin="round"/>
<path d="M27.4541 13.0862V12.2081C27.4541 10.7342 26.2084 9.54248 24.6759 9.54248H23.6501" stroke="#FF9B53" stroke-linecap="round" stroke-linejoin="round"/>
<path d="M18.8738 2.86416C19.5222 2.47052 20.2904 2.24268 21.1136 2.24268C23.4306 2.24268 25.3154 4.04763 25.3154 6.27421C25.3154 8.32696 23.7165 10.0214 21.6484 10.2734" stroke="#FF6B00" stroke-linecap="round" stroke-linejoin="round"/>
<path d="M7.4707 13.086V12.0769C7.4707 10.3831 8.90218 9.01367 10.6633 9.01367H11.8421M22.0441 13.086V12.0769C22.0441 10.3871 20.6168 9.01367 18.8515 9.01367H17.6706" stroke="#FF9B53" stroke-linecap="round" stroke-linejoin="round"/>
<path d="M14.7573 9.89079C17.4241 9.89079 19.5817 7.8166 19.5817 5.25789C19.5817 2.69919 17.4199 0.625 14.7573 0.625C12.0947 0.625 9.92871 2.69919 9.92871 5.25789C9.92871 7.8166 12.0905 9.89079 14.7573 9.89079Z" stroke="#FF6B00" stroke-linecap="round" stroke-linejoin="round"/>
</svg>
