<svg width="16" height="19" viewBox="0 0 16 19" fill="none" xmlns="http://www.w3.org/2000/svg">
<g opacity="0.3">
<path d="M7.06202 9.6879C7.23228 9.52461 7.4344 9.39508 7.65685 9.30671C7.8793 9.21834 8.11773 9.17285 8.3585 9.17285C8.59928 9.17285 8.8377 9.21834 9.06016 9.30671C9.28261 9.39508 9.48473 9.52461 9.65499 9.6879C9.82524 9.85119 9.9603 10.045 10.0524 10.2584C10.1446 10.4717 10.192 10.7004 10.192 10.9313C10.192 11.1623 10.1446 11.3909 10.0524 11.6043C9.9603 11.8176 9.82524 12.0115 9.65499 12.1748L4.90559 16.7131L1.45703 17.5505L2.32135 14.243L7.06202 9.6879Z" stroke="#FF6B00" stroke-linecap="round" stroke-linejoin="round"/>
<path d="M1.94186 3.27186C1.62813 3.58354 1.45703 4.00222 1.45703 4.43951V11.8218M7.57151 17.6232H13.2455C13.4689 17.6232 13.6875 17.5813 13.8919 17.4976C14.0963 17.4139 14.2817 17.2929 14.4386 17.1394C14.5955 16.9859 14.7191 16.8045 14.8046 16.6044C14.8902 16.4044 14.9329 16.1904 14.9329 15.9717V4.43951C14.9329 4.00222 14.7618 3.58354 14.4481 3.27186C14.2912 3.11834 14.1058 2.9974 13.9015 2.91831C13.6971 2.83923 13.4784 2.79736 13.255 2.79736H11.5723" stroke="#FF6B00" stroke-linecap="round" stroke-linejoin="round"/>
<path d="M11.5492 2.79233V1.95498C11.5492 1.84798 11.5254 1.74099 11.4874 1.63864C11.4446 1.54095 11.3828 1.44791 11.3067 1.37348C11.2307 1.29905 11.1356 1.23858 11.0358 1.19671C10.936 1.15484 10.8267 1.13623 10.7126 1.13623H5.65969C5.43628 1.13623 5.22238 1.22462 5.06552 1.37814C4.90865 1.53165 4.81836 1.74099 4.81836 1.95963V3.60643C4.81836 3.82507 4.90865 4.03441 5.06552 4.18792C5.22238 4.34144 5.43628 4.42983 5.65969 4.42983H10.7126C10.936 4.42983 11.1499 4.34144 11.3067 4.18792C11.4636 4.03441 11.5539 3.82507 11.5539 3.60643V2.79233H11.5492Z" stroke="#FF6B00" stroke-linecap="round" stroke-linejoin="round"/>
<path d="M3.98145 6.42969H12.5803" stroke="#FF6B00" stroke-linecap="round"/>
<path d="M11.9385 8.65918L12.6373 8.65918" stroke="#FF6B00" stroke-linecap="round"/>
<path d="M3.90234 8.65918L4.95054 8.65918" stroke="#FF6B00" stroke-linecap="round"/>
<path d="M12.2881 10.8818L12.6375 10.8818" stroke="#FF6B00" stroke-linecap="round"/>
<path d="M11.5898 13.104L12.638 13.104" stroke="#FF6B00" stroke-linecap="round"/>
<path d="M9.66797 15.3271L12.6379 15.3271" stroke="#FF6B00" stroke-linecap="round"/>
</g>
<path d="M7.58644 9.17569C7.75669 9.0124 7.95882 8.88287 8.18127 8.7945C8.40372 8.70613 8.64214 8.66064 8.88292 8.66064C9.1237 8.66064 9.36212 8.70613 9.58457 8.7945C9.80702 8.88287 10.0091 9.0124 10.1794 9.17569C10.3497 9.33898 10.4847 9.53284 10.5769 9.74619C10.669 9.95954 10.7164 10.1882 10.7164 10.4191C10.7164 10.6501 10.669 10.8787 10.5769 11.0921C10.4847 11.3054 10.3497 11.4993 10.1794 11.6626L5.43 16.2009L1.98145 17.0382L2.84577 13.7308L7.58644 9.17569Z" stroke="#FF6B00" stroke-linecap="round" stroke-linejoin="round"/>
<path d="M2.46725 2.76063C2.15352 3.07231 1.98242 3.49099 1.98242 3.92828V11.3106M8.0969 17.112H13.7709C13.9943 17.112 14.2129 17.0701 14.4173 16.9864C14.6217 16.9026 14.8071 16.7817 14.964 16.6282C15.1208 16.4746 15.2444 16.2932 15.33 16.0932C15.4156 15.8931 15.4583 15.6792 15.4583 15.4605V3.92828C15.4583 3.49099 15.2872 3.07231 14.9735 2.76063C14.8166 2.60711 14.6312 2.48617 14.4268 2.40708C14.2224 2.328 14.0038 2.28613 13.7804 2.28613H12.0977" stroke="#FF6B00" stroke-linecap="round" stroke-linejoin="round"/>
<path d="M12.0746 2.2811V1.44374C12.0746 1.33675 12.0508 1.22976 12.0128 1.12741C11.97 1.02972 11.9082 0.93668 11.8321 0.862248C11.7561 0.787816 11.661 0.727346 11.5612 0.685478C11.4614 0.64361 11.352 0.625 11.238 0.625H6.18508C5.96167 0.625 5.74777 0.713389 5.59091 0.866905C5.43405 1.02042 5.34375 1.22976 5.34375 1.4484V3.0952C5.34375 3.31384 5.43405 3.52318 5.59091 3.67669C5.74777 3.83021 5.96167 3.9186 6.18508 3.9186H11.238C11.4614 3.9186 11.6753 3.83021 11.8321 3.67669C11.989 3.52318 12.0793 3.31384 12.0793 3.0952V2.2811H12.0746Z" stroke="#FF9B53" stroke-linecap="round" stroke-linejoin="round"/>
<path d="M4.50684 5.91846H13.1057" stroke="#FF9B53" stroke-linecap="round"/>
<path d="M12.4639 8.14795L13.1627 8.14795" stroke="#FF9B53" stroke-linecap="round"/>
<path d="M4.42773 8.14795L5.47593 8.14795" stroke="#FF9B53" stroke-linecap="round"/>
<path d="M12.8135 10.3706L13.1629 10.3706" stroke="#FF9B53" stroke-linecap="round"/>
<path d="M12.1152 12.5928L13.1634 12.5928" stroke="#FF9B53" stroke-linecap="round"/>
<path d="M10.1934 14.8159L13.1633 14.8159" stroke="#FF9B53" stroke-linecap="round"/>
</svg>
