<svg width="20" height="16" viewBox="0 0 20 16" fill="none" xmlns="http://www.w3.org/2000/svg">
<g opacity="0.3">
<path d="M14.0718 11.7801V13.7809C14.0718 13.9641 14.0337 14.1473 13.9622 14.316C13.8907 14.4848 13.7811 14.639 13.6476 14.7644C13.5142 14.8897 13.3569 14.9862 13.1854 15.0489C13.0138 15.1115 12.828 15.1356 12.6469 15.1212C10.6119 14.8994 8.65803 14.1955 6.9424 13.0722C5.35068 12.0501 3.99724 10.6809 2.98693 9.07058C1.87177 7.33495 1.18076 5.35829 0.961536 3.29964C0.947239 3.11644 0.966309 2.9284 1.02826 2.75002C1.08545 2.57164 1.18076 2.40772 1.30466 2.2679C1.42857 2.13291 1.57631 2.02203 1.74311 1.94489C1.9099 1.87257 2.09099 1.83398 2.27685 1.83398H4.25936C4.57865 1.83398 4.89318 1.94486 5.13623 2.157C5.37451 2.36431 5.53177 2.64878 5.57943 2.96215C5.66998 3.60337 5.82724 4.23495 6.05599 4.8376C6.14654 5.07384 6.16561 5.33417 6.11319 5.58488C6.06076 5.83558 5.93685 6.06217 5.76053 6.24538L4.92178 7.09391C5.86061 8.76204 7.22834 10.1457 8.87724 11.0955L9.716 10.2469C9.89709 10.0686 10.1211 9.94322 10.3689 9.89019C10.6167 9.83715 10.8693 9.85644 11.1076 9.94804C11.708 10.1795 12.3276 10.3386 12.9614 10.4302C13.2855 10.4784 13.5809 10.6519 13.7858 10.9123C13.986 11.1582 14.0908 11.4715 14.0861 11.7897L14.0718 11.7801Z" stroke="#FF6B00" stroke-linecap="round" stroke-linejoin="round"/>
<path d="M11.4414 6.20546V6.78401H8.93465V6.29224L10.1213 4.99534C10.2404 4.86035 10.3357 4.73983 10.4025 4.63858C10.4692 4.53252 10.5216 4.4409 10.5502 4.35894C10.5836 4.27698 10.5978 4.19502 10.5978 4.11789C10.5978 4.007 10.5788 3.90577 10.5407 3.82863C10.5025 3.74667 10.4501 3.68398 10.3786 3.64059C10.3072 3.5972 10.2214 3.57309 10.1165 3.57309C10.0069 3.57309 9.9116 3.60204 9.83058 3.65507C9.74957 3.7081 9.69238 3.78523 9.64949 3.88165C9.61137 3.97808 9.58754 4.08896 9.58754 4.21432H8.8584C8.8584 3.99254 8.91082 3.79004 9.01567 3.60202C9.12051 3.41399 9.26824 3.26936 9.4541 3.15848C9.64473 3.04759 9.86871 2.98975 10.1308 2.98975C10.3929 2.98975 10.6026 3.03312 10.7789 3.1199C10.9553 3.20186 11.0887 3.32721 11.184 3.48631C11.2746 3.64541 11.3222 3.83346 11.3222 4.05041C11.3222 4.17576 11.3032 4.29629 11.265 4.412C11.2269 4.52771 11.1697 4.6434 11.0982 4.75911C11.0268 4.87482 10.941 4.99054 10.8409 5.10625C10.7408 5.22678 10.6264 5.34729 10.5073 5.47264L9.86871 6.20064H11.4414V6.20546Z" fill="#FF6B00"/>
<path d="M14.4616 5.38752V5.96607H11.8214L11.7881 5.5177L13.3179 3.04443H13.8945L13.2702 4.10992L12.5077 5.38752H14.4616ZM14.047 3.04443V6.78567H13.3226V3.04443H14.047Z" fill="#FF6B00"/>
<path d="M16.4498 3.04883L15.1059 7.10825H14.5674L15.9113 3.04883H16.4498Z" fill="#FF6B00"/>
<path d="M19.2566 3.04883V3.44899L17.8412 6.79007H17.0739L18.4893 3.62738H16.6641V3.04883H19.2518H19.2566Z" fill="#FF6B00"/>
</g>
<path d="M14.773 11.0711V13.0719C14.773 13.2551 14.7348 13.4383 14.6633 13.607C14.5919 13.7758 14.4823 13.9301 14.3488 14.0554C14.2154 14.1808 14.0581 14.2772 13.8865 14.3399C13.715 14.4025 13.5291 14.4266 13.348 14.4122C11.3131 14.1904 9.3592 13.4865 7.64357 12.3632C6.05185 11.3411 4.69841 9.97187 3.6881 8.3616C2.57294 6.62597 1.88193 4.6493 1.66271 2.59066C1.64841 2.40745 1.66748 2.21942 1.72943 2.04104C1.78662 1.86265 1.88193 1.69873 2.00583 1.55892C2.12974 1.42392 2.27748 1.31305 2.44428 1.23591C2.61107 1.16359 2.79217 1.125 2.97803 1.125H4.96053C5.27983 1.125 5.59436 1.23588 5.8374 1.44801C6.07568 1.65532 6.23295 1.93979 6.2806 2.25317C6.37115 2.89439 6.52841 3.52597 6.75716 4.12861C6.84771 4.36485 6.86678 4.62519 6.81436 4.87589C6.76194 5.12659 6.63803 5.35319 6.4617 5.53639L5.62295 6.38492C6.56178 8.05305 7.92951 9.43672 9.57842 10.3865L10.4172 9.53796C10.5983 9.35958 10.8222 9.23423 11.0701 9.1812C11.3179 9.12817 11.5705 9.14745 11.8087 9.23905C12.4092 9.47047 13.0287 9.62957 13.6626 9.72117C13.9866 9.76938 14.2821 9.94295 14.487 10.2033C14.6872 10.4492 14.792 10.7625 14.7872 11.0807L14.773 11.0711Z" stroke="#FF6B00" stroke-linecap="round" stroke-linejoin="round"/>
<path d="M12.1425 5.49648V6.07503H9.63582V5.58326L10.8225 4.28636C10.9416 4.15137 11.0369 4.03084 11.1036 3.9296C11.1704 3.82353 11.2228 3.73192 11.2514 3.64996C11.2847 3.568 11.299 3.48604 11.299 3.4089C11.299 3.29801 11.28 3.19678 11.2418 3.11964C11.2037 3.03768 11.1513 2.975 11.0798 2.93161C11.0083 2.88822 10.9225 2.86411 10.8177 2.86411C10.7081 2.86411 10.6128 2.89305 10.5318 2.94609C10.4507 2.99912 10.3936 3.07624 10.3507 3.17267C10.3125 3.26909 10.2887 3.37998 10.2887 3.50533H9.55957C9.55957 3.28356 9.61199 3.08106 9.71684 2.89303C9.82168 2.70501 9.96941 2.56038 10.1553 2.44949C10.3459 2.3386 10.5699 2.28076 10.832 2.28076C11.0941 2.28076 11.3038 2.32413 11.4801 2.41091C11.6564 2.49287 11.7899 2.61823 11.8852 2.77733C11.9757 2.93643 12.0234 3.12447 12.0234 3.34143C12.0234 3.46678 12.0043 3.58731 11.9662 3.70302C11.9281 3.81872 11.8709 3.93442 11.7994 4.05013C11.7279 4.16583 11.6422 4.28156 11.5421 4.39727C11.442 4.5178 11.3276 4.6383 11.2085 4.76365L10.5699 5.49165H12.1425V5.49648Z" fill="#FF9B53"/>
<path d="M15.1628 4.67854V5.25708H12.5226L12.4893 4.80872L14.019 2.33545H14.5957L13.9714 3.40094L13.2089 4.67854H15.1628ZM14.7482 2.33545V6.07669H14.0238V2.33545H14.7482Z" fill="#FF9B53"/>
<path d="M17.151 2.33984L15.8071 6.39927H15.2686L16.6125 2.33984H17.151Z" fill="#FF9B53"/>
<path d="M19.9577 2.33984V2.74001L18.5423 6.08108H17.7751L19.1905 2.91839H17.3652V2.33984H19.953H19.9577Z" fill="#FF9B53"/>
</svg>
