<svg width="18" height="18" viewBox="0 0 18 18" fill="none" xmlns="http://www.w3.org/2000/svg">
<g opacity="0.3">
<path d="M12.5439 13.4636L16.8082 9.19932M12.5439 4.93506L14.2496 6.64076" stroke="#FF6B00" stroke-linecap="round" stroke-linejoin="round"/>
<path d="M16.8084 9.19922H6.57422" stroke="#FF6B00" stroke-linecap="round" stroke-linejoin="round"/>
<path d="M6.57413 16.8748H3.16273C2.71035 16.8748 2.2765 16.6951 1.95662 16.3752C1.63674 16.0553 1.45703 15.6215 1.45703 15.1691V3.22914C1.45703 2.77676 1.63674 2.34291 1.95662 2.02303C2.2765 1.70315 2.71035 1.52344 3.16273 1.52344H6.57413" stroke="#FF6B00" stroke-linecap="round" stroke-linejoin="round"/>
</g>
<path d="M13.1943 12.8151L17.4586 8.55089M13.1943 4.28662L14.9 5.99233" stroke="#FF9B53" stroke-linecap="round" stroke-linejoin="round"/>
<path d="M17.4588 8.55029H7.22461" stroke="#FF9B53" stroke-linecap="round" stroke-linejoin="round"/>
<path d="M7.22452 16.2264H3.81312C3.36074 16.2264 2.92689 16.0466 2.60701 15.7268C2.28713 15.4069 2.10742 14.973 2.10742 14.5206V2.58071C2.10742 2.12832 2.28713 1.69447 2.60701 1.37459C2.92689 1.05471 3.36074 0.875 3.81312 0.875H7.22452" stroke="#FF6B00" stroke-linecap="round" stroke-linejoin="round"/>
</svg>
