<svg width="19" height="19" viewBox="0 0 19 19" fill="none" xmlns="http://www.w3.org/2000/svg">
<g opacity="0.3">
<path d="M16.3822 14.2491V16.5695C16.3822 16.784 16.3382 16.9929 16.2501 17.1909C16.1619 17.3888 16.0408 17.5648 15.8811 17.7077C15.7214 17.8507 15.5396 17.9662 15.3359 18.0377C15.1321 18.1091 14.9173 18.1366 14.7025 18.1201C12.3125 17.8617 10.016 17.0479 7.99486 15.7448C6.12243 14.5571 4.53637 12.968 3.34132 11.0985C2.03063 9.08049 1.21557 6.78758 0.962237 4.40121C0.945716 4.18676 0.967752 3.96682 1.03935 3.76337C1.10543 3.55443 1.21559 3.36748 1.36428 3.20252C1.50747 3.04306 1.68369 2.91659 1.87644 2.82862C2.0747 2.74614 2.28945 2.70215 2.50423 2.70215H4.83377C5.20826 2.70215 5.57723 2.82862 5.8636 3.07605C6.14447 3.31249 6.3262 3.6424 6.38127 4.01081C6.48591 4.75311 6.67313 5.48442 6.94298 6.18824C7.04761 6.46317 7.06967 6.76559 7.0091 7.05152C6.94852 7.34294 6.80533 7.60687 6.59606 7.81582L5.61026 8.80006C6.71169 10.7411 8.31978 12.3411 10.2638 13.4463L11.2496 12.4621C11.4588 12.2532 11.7287 12.1102 12.0151 12.0497C12.3069 11.9892 12.6043 12.0112 12.8797 12.1157C13.5846 12.3796 14.3171 12.5721 15.0605 12.6765C15.4405 12.737 15.7874 12.935 16.0298 13.2374C16.2611 13.5233 16.3877 13.8862 16.3822 14.2546V14.2491Z" stroke="#FF6B00" stroke-linecap="round" stroke-linejoin="round"/>
<path d="M10.9961 5.02783C11.7506 5.17079 12.45 5.5447 12.9897 6.08906C13.5349 6.63341 13.9094 7.32623 14.0581 8.07954" stroke="#FF6B00" stroke-linecap="round" stroke-linejoin="round"/>
<path d="M10.9961 1.93311C12.5656 2.10906 14.0305 2.81288 15.1485 3.92909C16.2664 5.04529 16.9713 6.50791 17.1476 8.075" stroke="#FF6B00" stroke-linecap="round" stroke-linejoin="round"/>
<path d="M10.9583 8.75031L10.2754 8.06299" stroke="#FF6B00" stroke-linecap="round" stroke-linejoin="round"/>
</g>
<path d="M17.1928 13.441V15.7614C17.1928 15.9759 17.1487 16.1848 17.0606 16.3828C16.9725 16.5807 16.8513 16.7567 16.6916 16.8996C16.5319 17.0426 16.3502 17.1581 16.1464 17.2295C15.9427 17.301 15.7279 17.3285 15.5131 17.312C13.123 17.0536 10.8265 16.2398 8.80541 14.9366C6.93298 13.749 5.34692 12.1599 4.15187 10.2904C2.84117 8.27238 2.02611 5.97948 1.77278 3.5931C1.75626 3.37866 1.7783 3.15871 1.84989 2.95527C1.91598 2.74632 2.02614 2.55937 2.17483 2.39441C2.31801 2.23495 2.49424 2.10849 2.68699 2.02051C2.88524 1.93803 3.1 1.89404 3.31478 1.89404H5.64432C6.0188 1.89404 6.38778 2.02051 6.67415 2.26795C6.95501 2.50438 7.13675 2.8343 7.19182 3.2027C7.29646 3.94501 7.48368 4.67632 7.75353 5.38014C7.85816 5.65506 7.88022 5.95748 7.81964 6.24341C7.75906 6.53483 7.61588 6.79877 7.40661 7.00771L6.42081 7.99195C7.52224 9.93295 9.13033 11.533 11.0743 12.6382L12.0601 11.654C12.2694 11.4451 12.5392 11.3021 12.8256 11.2416C13.1175 11.1811 13.4149 11.2031 13.6902 11.3076C14.3951 11.5715 15.1276 11.764 15.8711 11.8684C16.2511 11.9289 16.598 12.1269 16.8403 12.4293C17.0716 12.7152 17.1983 13.0781 17.1928 13.4465V13.441Z" stroke="#FF6B00" stroke-linecap="round" stroke-linejoin="round"/>
<path d="M11.8066 4.21973C12.5611 4.36269 13.2605 4.73659 13.8002 5.28095C14.3454 5.82531 14.7199 6.51813 14.8686 7.27143" stroke="#FF9B53" stroke-linecap="round" stroke-linejoin="round"/>
<path d="M11.8066 1.125C13.3762 1.30095 14.8411 2.00477 15.959 3.12098C17.077 4.23719 17.7819 5.69981 17.9581 7.2669" stroke="#FF9B53" stroke-linecap="round" stroke-linejoin="round"/>
<path d="M11.7688 7.9422L11.0859 7.25488" stroke="#FF9B53" stroke-linecap="round" stroke-linejoin="round"/>
</svg>
