<svg width="14" height="14" viewBox="0 0 14 14" fill="none" xmlns="http://www.w3.org/2000/svg">
  <path d="M10.5709 6.26758C10.1805 6.26758 9.86621 6.58192 9.86621 6.97241C9.86621 7.36289 10.1805 7.67713 10.5709 7.67713C10.9614 7.67713 11.2758 7.36289 11.2758 6.97241C11.2758 6.58192 10.9614 6.26758 10.5709 6.26758Z" fill="white"/>
  <path d="M6.91489 6.26758C6.52908 6.26758 6.21484 6.58182 6.21484 6.96751C6.21484 7.35321 6.52908 7.66756 6.91489 7.66756C7.30071 7.66756 7.61484 7.35321 7.61484 6.96751C7.61484 6.58182 7.3006 6.26758 6.91489 6.26758Z" fill="white"/>
  <path d="M7.41402 0.128906C5.57938 0.128906 3.92236 0.888993 2.74067 2.11135C2.72 2.13256 2.69966 2.15388 2.67965 2.17531C2.02115 2.87481 1.51623 3.72028 1.2182 4.65788C1.21798 4.65821 1.21787 4.65842 1.21787 4.65875C1.02611 5.32084 0.925168 6.02969 0.914943 6.74105C0.892536 8.28569 1.29771 9.8422 2.13046 10.957C2.13242 10.9605 2.13459 10.9639 2.1371 10.9675C2.40946 11.369 2.14656 12.0716 1.73562 12.4826C1.71202 12.5045 1.69973 12.5234 1.6981 12.539C1.69505 12.5681 1.7279 12.5863 1.79294 12.5925C2.37639 12.657 3.10592 12.4905 3.62389 12.2391C4.67342 12.8191 5.99869 13.1155 7.33005 13.1284C7.34125 13.1286 7.35245 13.1287 7.36377 13.1287C7.38052 13.1288 7.39727 13.1289 7.41402 13.1289C7.42805 13.1289 7.44219 13.1289 7.45633 13.1288C7.4696 13.1288 7.48298 13.1287 7.49625 13.1285C9.18525 13.1075 10.7191 12.4422 11.8635 11.3672C11.8852 11.347 11.9066 11.3266 11.9279 11.3058C13.1525 10.1239 13.9141 8.46538 13.9141 6.62891C13.9141 3.03905 11.0039 0.128906 7.41402 0.128906ZM5.57122 7.92882C5.57122 8.04314 5.47593 8.13831 5.36172 8.13831H3.05697V8.00496C3.05697 7.84311 3.09504 7.77165 3.14747 7.6954L4.81896 5.62398H3.12376V5.10014H5.56665V5.1716C5.56665 5.30963 5.54761 5.42395 5.45712 5.5573L5.44755 5.57155C5.42851 5.59537 5.38565 5.64769 5.36183 5.6763L3.79042 7.64776H5.57133V7.92871L5.57122 7.92882ZM8.08122 8.13831H7.80026C7.68595 8.13831 7.59077 8.04314 7.59077 7.9336V7.92599C7.39335 8.07153 7.14949 8.15756 6.8855 8.15756C6.2283 8.15756 5.695 7.62426 5.695 6.96707C5.695 6.30988 6.2283 5.77658 6.8855 5.77658C7.14981 5.77658 7.39357 5.86164 7.59077 6.00565V5.84304H8.08122V8.13831ZM9.0234 8.13831H8.67576C8.5758 8.13831 8.49955 8.05739 8.49955 7.9621V5.10025H9.0234V8.13831ZM10.571 8.15734C9.90912 8.15734 9.37103 7.61926 9.37103 6.95739C9.37103 6.29553 9.90912 5.75733 10.571 5.75733C11.2329 5.75733 11.7711 6.29553 11.7711 6.95739C11.7711 7.61926 11.2329 8.15734 10.571 8.15734Z" fill="white"/>
</svg>
