<svg width="51" height="50" viewBox="0 0 51 50" fill="none" xmlns="http://www.w3.org/2000/svg">
<g opacity="0.3">
<path d="M17.906 33.2735L24.9181 29.2246" stroke="#FF6B00" stroke-width="2.05181" stroke-miterlimit="10"/>
<path d="M31.9419 33.2735L24.9185 29.2246" stroke="#FF6B00" stroke-width="2.05181" stroke-miterlimit="10"/>
<path d="M25.0655 21.1055L24.9185 29.2259" stroke="#FF6B00" stroke-width="2.05181" stroke-miterlimit="10"/>
<path d="M12.8725 41.9848C16.0768 41.9848 18.6745 39.3871 18.6745 36.1828C18.6745 32.9785 16.0768 30.3809 12.8725 30.3809C9.66818 30.3809 7.07056 32.9785 7.07056 36.1828C7.07056 39.3871 9.66818 41.9848 12.8725 41.9848Z" stroke="#FF6B00" stroke-width="2.05181" stroke-miterlimit="10"/>
<path d="M36.9743 41.9848C40.1786 41.9848 42.7763 39.3871 42.7763 36.1828C42.7763 32.9785 40.1786 30.3809 36.9743 30.3809C33.77 30.3809 31.1724 32.9785 31.1724 36.1828C31.1724 39.3871 33.77 41.9848 36.9743 41.9848Z" stroke="#FF6B00" stroke-width="2.05181" stroke-miterlimit="10"/>
<path d="M24.9179 21.1059C28.1222 21.1059 30.7199 18.5082 30.7199 15.3039C30.7199 12.0996 28.1222 9.50195 24.9179 9.50195C21.7136 9.50195 19.116 12.0996 19.116 15.3039C19.116 18.5082 21.7136 21.1059 24.9179 21.1059Z" stroke="#FF6B00" stroke-width="2.05181" stroke-miterlimit="10"/>
</g>
<path d="M19.3926 31.7872L26.4047 27.7383" stroke="#FF9B53" stroke-width="2.05181" stroke-miterlimit="10"/>
<path d="M33.4284 31.7872L26.405 27.7383" stroke="#FF9B53" stroke-width="2.05181" stroke-miterlimit="10"/>
<path d="M26.5521 19.6191L26.405 27.7396" stroke="#FF9B53" stroke-width="2.05181" stroke-miterlimit="10"/>
<path d="M14.3591 40.4984C17.5634 40.4984 20.161 37.9008 20.161 34.6965C20.161 31.4922 17.5634 28.8945 14.3591 28.8945C11.1548 28.8945 8.55713 31.4922 8.55713 34.6965C8.55713 37.9008 11.1548 40.4984 14.3591 40.4984Z" stroke="#FF6B00" stroke-width="2.05181" stroke-miterlimit="10"/>
<path d="M38.4606 40.4984C41.665 40.4984 44.2626 37.9008 44.2626 34.6965C44.2626 31.4922 41.665 28.8945 38.4606 28.8945C35.2563 28.8945 32.6587 31.4922 32.6587 34.6965C32.6587 37.9008 35.2563 40.4984 38.4606 40.4984Z" stroke="#FF6B00" stroke-width="2.05181" stroke-miterlimit="10"/>
<path d="M26.4042 19.6195C29.6086 19.6195 32.2062 17.0219 32.2062 13.8176C32.2062 10.6132 29.6086 8.01562 26.4042 8.01562C23.1999 8.01562 20.6023 10.6132 20.6023 13.8176C20.6023 17.0219 23.1999 19.6195 26.4042 19.6195Z" stroke="#FF6B00" stroke-width="2.05181" stroke-miterlimit="10"/>
</svg>
