<svg width="29" height="30" viewBox="0 0 29 30" fill="none" xmlns="http://www.w3.org/2000/svg">
<path fill-rule="evenodd" clip-rule="evenodd" d="M4.50545 1.06162C4.82376 -0.347673 6.89363 -0.356102 7.22411 1.04982L7.23977 1.11725L7.27108 1.24874C7.45778 2.01925 7.87405 2.71959 8.46812 3.26267C9.06219 3.80576 9.80787 4.16764 10.6124 4.30332C12.1292 4.55955 12.1292 6.67012 10.6124 6.92635C9.8033 7.06284 9.05381 7.42799 8.45809 7.97594C7.86238 8.5239 7.447 9.23022 7.26412 10.0062L7.22411 10.1782C6.89363 11.5858 4.82202 11.5773 4.50197 10.1664L4.46892 10.0197C4.29357 9.24112 3.88294 8.53078 3.2894 7.97926C2.69585 7.42773 1.94628 7.06001 1.13626 6.92298C-0.378752 6.66843 -0.378752 4.56124 1.13626 4.305C1.94345 4.16896 2.69083 3.80384 3.28378 3.25589C3.87674 2.70793 4.28858 2.00177 4.46718 1.22682L4.49327 1.11725L4.50545 1.06162Z" fill="#FF6B00"/>
<path d="M10.8939 11.9934L18.8566 19.8903L13.457 25.3348C11.2764 27.5336 7.72612 27.5483 5.5273 25.3677C3.32847 23.187 3.31374 19.6367 5.4944 17.4379L10.8939 11.9934Z" fill="#FFCAA4"/>
<path d="M18.8601 19.8906L10.8975 11.9938L16.297 6.54927C18.4776 4.35044 22.0279 4.33571 24.2267 6.51637C26.4256 8.69702 26.4403 12.2473 24.2596 14.4461L18.8601 19.8906Z" fill="#FF6B00"/>
</svg>
