<svg width="35" height="35" viewBox="0 0 35 35" fill="none" xmlns="http://www.w3.org/2000/svg">
<g id="asicon/outline/gallery" opacity="0.3">
<g id="vuesax/outline/gallery">
<path id="Vector" d="M21.8744 33.1764H13.1244C5.2056 33.1764 1.82227 29.7931 1.82227 21.8743V13.1243C1.82227 5.2056 5.2056 1.82227 13.1244 1.82227H21.8744C29.7931 1.82227 33.1764 5.2056 33.1764 13.1243V21.8743C33.1764 29.7931 29.7931 33.1764 21.8744 33.1764ZM13.1244 4.00977C6.40143 4.00977 4.00977 6.40143 4.00977 13.1243V21.8743C4.00977 28.5973 6.40143 30.9889 13.1244 30.9889H21.8744C28.5973 30.9889 30.9889 28.5973 30.9889 21.8743V13.1243C30.9889 6.40143 28.5973 4.00977 21.8744 4.00977H13.1244Z" fill="#4D4D4F"/>
<path id="Vector_2" d="M13.1257 15.6771C10.909 15.6771 9.11523 13.8833 9.11523 11.6667C9.11523 9.45 10.909 7.65625 13.1257 7.65625C15.3423 7.65625 17.1361 9.45 17.1361 11.6667C17.1361 13.8833 15.3423 15.6771 13.1257 15.6771ZM13.1257 9.84375C12.1194 9.84375 11.3027 10.6604 11.3027 11.6667C11.3027 12.6729 12.1194 13.4896 13.1257 13.4896C14.1319 13.4896 14.9486 12.6729 14.9486 11.6667C14.9486 10.6604 14.1319 9.84375 13.1257 9.84375Z" fill="#4D4D4F"/>
<path id="Vector_3" d="M3.89395 28.7289C3.54395 28.7289 3.19395 28.5539 2.98978 28.2477C2.65436 27.7518 2.78561 27.0664 3.29603 26.731L10.4856 21.9039C12.0606 20.8393 14.2335 20.9706 15.6627 22.181L16.1439 22.6039C16.8731 23.231 18.1127 23.231 18.8273 22.6039L24.8939 17.3977C26.4398 16.0706 28.8752 16.0706 30.4356 17.3977L32.8127 19.4393C33.2648 19.8331 33.3231 20.5185 32.9294 20.9852C32.5356 21.4372 31.8502 21.4956 31.3835 21.1018L29.0064 19.0602C28.2773 18.4331 27.0377 18.4331 26.3085 19.0602L20.2419 24.2664C18.696 25.5935 16.2606 25.5935 14.7002 24.2664L14.2189 23.8435C13.5481 23.2747 12.4398 23.2164 11.696 23.7268L4.50645 28.5539C4.31686 28.6706 4.09811 28.7289 3.89395 28.7289Z" fill="#4D4D4F"/>
</g>
</g>
</svg>
