<svg width="66" height="65" viewBox="0 0 66 65" fill="none" xmlns="http://www.w3.org/2000/svg">
<g id="box">
<path id="Vector" d="M57.375 43.333V21.6663C57.374 20.7164 57.1233 19.7835 56.6479 18.9611C56.1726 18.1388 55.4893 17.4558 54.6667 16.9809L35.7083 6.14757C34.8849 5.67216 33.9508 5.42188 33 5.42188C32.0492 5.42188 31.1151 5.67216 30.2917 6.14757L11.3333 16.9809C10.5107 17.4558 9.82745 18.1388 9.35208 18.9611C8.87672 19.7835 8.62597 20.7164 8.625 21.6663V43.333C8.62597 44.2829 8.87672 45.2158 9.35208 46.0382C9.82745 46.8606 10.5107 47.5435 11.3333 48.0184L30.2917 58.8517C31.1151 59.3272 32.0492 59.5774 33 59.5774C33.9508 59.5774 34.8849 59.3272 35.7083 58.8517L54.6667 48.0184C55.4893 47.5435 56.1726 46.8606 56.6479 46.0382C57.1233 45.2158 57.374 44.2829 57.375 43.333Z" stroke="#CCCCCC" stroke-width="3" stroke-linecap="round" stroke-linejoin="round"/>
<path id="Vector_2" d="M9.35645 18.8496L33.0002 32.5267L56.6439 18.8496" stroke="#CCCCCC" stroke-width="3" stroke-linecap="round" stroke-linejoin="round"/>
<path id="Vector_3" d="M33 59.8V32.5" stroke="#CCCCCC" stroke-width="3" stroke-linecap="round" stroke-linejoin="round"/>
</g>
</svg>
