<svg width="25" height="25" viewBox="0 0 25 25" fill="none" xmlns="http://www.w3.org/2000/svg">
<g clip-path="url(#clip0_6042_142563)">
<path opacity="0.3" d="M17.3423 11.3266V8.40995C17.3423 7.12032 16.8099 5.88315 15.8577 4.96841C14.9055 4.05367 13.6158 3.54382 12.2737 3.54382C10.9316 3.54382 9.63446 4.05367 8.68223 4.96841C7.73 5.88315 7.19762 7.12032 7.19762 8.40995V11.3266H5.16573C4.04105 11.3266 3.13379 12.1964 3.13379 13.2686C3.13379 26.6822 21.3986 26.6822 21.3986 13.2686C21.3986 12.1964 20.4914 11.3266 19.3667 11.3266H10.2343" stroke="#FF6B00" stroke-width="1.5" stroke-linecap="round" stroke-linejoin="round"/>
<path d="M18.4438 10.224V7.30729C18.4438 6.01766 17.9115 4.78049 16.9593 3.86575C16.007 2.95101 14.7174 2.44116 13.3753 2.44116C12.0331 2.44116 10.736 2.95101 9.78379 3.86575C8.83156 4.78049 8.29918 6.01766 8.29918 7.30729V10.224H6.26729C5.14261 10.224 4.23535 11.0937 4.23535 12.1659C4.23535 25.5796 22.5001 25.5796 22.5001 12.1659C22.5001 11.0937 21.5929 10.224 20.4683 10.224H11.3359" stroke="#FF6B00" stroke-width="1.5" stroke-linecap="round" stroke-linejoin="round"/>
</g>
<defs>
<clipPath id="clip0_6042_142563">
<rect width="24" height="24" fill="white" transform="translate(0.5 0.88501)"/>
</clipPath>
</defs>
</svg>
