<svg width="22" height="23" viewBox="0 0 22 23" fill="none" xmlns="http://www.w3.org/2000/svg">
<path opacity="0.3" d="M15.8413 9.99177V7.07512C15.8413 5.78548 15.3089 4.54831 14.3567 3.63357C13.4045 2.71883 12.1148 2.20898 10.7727 2.20898C9.4306 2.20898 8.13348 2.71883 7.18125 3.63357C6.22902 4.54831 5.69664 5.78548 5.69664 7.07512V9.99177H3.66475C2.54007 9.99177 1.63281 10.8615 1.63281 11.9337C1.63281 25.3474 19.8976 25.3474 19.8976 11.9337C19.8976 10.8615 18.9904 9.99177 17.8657 9.99177H8.73332" stroke="#4D4D4F" stroke-width="1.5" stroke-linecap="round" stroke-linejoin="round"/>
<path d="M16.9428 8.88924V5.97258C16.9428 4.68294 16.4105 3.44578 15.4583 2.53104C14.5061 1.6163 13.2164 1.10645 11.8743 1.10645C10.5322 1.10645 9.23504 1.6163 8.28282 2.53104C7.33059 3.44578 6.79821 4.68294 6.79821 5.97258V8.88924H4.76631C3.64163 8.88924 2.73438 9.75899 2.73438 10.8312C2.73438 24.2449 20.9992 24.2449 20.9992 10.8312C20.9992 9.75899 20.092 8.88924 18.9673 8.88924H9.83488" stroke="#4D4D4F" stroke-width="1.5" stroke-linecap="round" stroke-linejoin="round"/>
</svg>
