<svg width="11" height="13" viewBox="0 0 11 13" fill="none" xmlns="http://www.w3.org/2000/svg">
<path d="M7.47811 9.07617H2.85742" stroke="#3D94FF" stroke-width="0.8" stroke-linecap="round" stroke-linejoin="round"/>
<path d="M7.47811 6.77734H2.85742" stroke="#3D94FF" stroke-width="0.8" stroke-linecap="round" stroke-linejoin="round"/>
<path d="M4.01259 4.50586H2.85742" stroke="#3D94FF" stroke-width="0.8" stroke-linecap="round" stroke-linejoin="round"/>
<path d="M4.01245 0.503855H1.70211C1.3969 0.503855 1.10325 0.623629 0.886901 0.836119C0.670547 1.04861 0.550781 1.34223 0.550781 1.64358V10.7884C0.550781 10.9391 0.581705 11.0897 0.639657 11.2288C0.697609 11.3679 0.782591 11.4954 0.890768 11.5997C0.998945 11.704 1.12645 11.789 1.26554 11.847C1.40462 11.9049 1.55528 11.932 1.70595 11.932H8.63316C8.78384 11.932 8.93449 11.9049 9.07358 11.847C9.21266 11.789 9.34017 11.7079 9.44835 11.5997C9.55652 11.4915 9.64151 11.3679 9.69946 11.2288C9.75741 11.0897 9.78833 10.9391 9.78833 10.7884V6.21405M5.74714 0.5L9.78833 4.49869H5.74714V0.5Z" stroke="#3D94FF" stroke-width="0.8" stroke-linecap="round" stroke-linejoin="round"/>
</svg>
