<svg width="14" height="14" viewBox="0 0 14 14" fill="none" xmlns="http://www.w3.org/2000/svg">
<path d="M8.51875 3.60607C9.07987 3.71533 9.59556 3.98924 9.99982 4.39272C10.4041 4.7962 10.6785 5.31091 10.788 5.87096M8.51875 1.3125C9.68454 1.44176 10.7717 1.96283 11.6016 2.79013C12.4315 3.61744 12.955 4.70182 13.0859 5.86523M12.5114 10.4409V12.1611C12.5121 12.3208 12.4793 12.4788 12.4152 12.6251C12.3511 12.7715 12.2571 12.9028 12.1392 13.0108C12.0213 13.1187 11.8821 13.2009 11.7306 13.2521C11.579 13.3032 11.4184 13.3222 11.2591 13.3078C9.49126 13.1161 7.79317 12.5132 6.30122 11.5475C4.91315 10.6672 3.73632 9.4926 2.85428 8.10719C1.88338 6.61133 1.27917 4.90823 1.0906 3.13588C1.07624 2.97732 1.09512 2.81751 1.14604 2.66663C1.19695 2.51575 1.27879 2.37711 1.38633 2.25953C1.49387 2.14194 1.62476 2.04799 1.77068 1.98367C1.91659 1.91934 2.07432 1.88604 2.23383 1.88589H3.9573C4.23611 1.88315 4.50639 1.98169 4.71779 2.16314C4.92918 2.3446 5.06726 2.59658 5.10628 2.87212C5.17902 3.42262 5.31393 3.96313 5.50842 4.48335C5.58572 4.68858 5.60245 4.91163 5.55663 5.12606C5.51081 5.34049 5.40436 5.53731 5.2499 5.69321L4.5203 6.42142C5.33812 7.85693 6.52898 9.04551 7.96724 9.86176L8.69684 9.13356C8.85304 8.97939 9.05024 8.87315 9.26508 8.82742C9.47992 8.78169 9.70339 8.79838 9.90901 8.87553C10.4302 9.06965 10.9718 9.2043 11.5233 9.2769C11.8024 9.3162 12.0573 9.45649 12.2394 9.67111C12.4216 9.88572 12.5184 10.1597 12.5114 10.4409Z" stroke="white" stroke-width="1.3" stroke-linecap="round" stroke-linejoin="round"/>
</svg>
