<svg width="11" height="12" viewBox="0 0 11 12" fill="none" xmlns="http://www.w3.org/2000/svg">
<path d="M10.3754 5.52447L5.78042 10.1195C5.2175 10.6824 4.45401 10.9986 3.65792 10.9986C2.86183 10.9986 2.09834 10.6824 1.53542 10.1195C0.972496 9.55655 0.65625 8.79306 0.65625 7.99697C0.65625 7.20088 0.972496 6.43739 1.53542 5.87447L6.13042 1.27947C6.5057 0.90419 7.01469 0.693359 7.54542 0.693359C8.07615 0.693359 8.58514 0.90419 8.96042 1.27947C9.3357 1.65475 9.54653 2.16374 9.54653 2.69447C9.54653 3.2252 9.3357 3.73419 8.96042 4.10947L4.36042 8.70447C4.17278 8.89211 3.91828 8.99753 3.65292 8.99753C3.38755 8.99753 3.13306 8.89211 2.94542 8.70447C2.75778 8.51683 2.65236 8.26234 2.65236 7.99697C2.65236 7.73161 2.75778 7.47711 2.94542 7.28947L5.06792 5.16947" stroke="#FF6B00" stroke-width="1.2" stroke-linecap="round" stroke-linejoin="round"/>
</svg>
