<svg width="21" height="21" viewBox="0 0 21 21" fill="none" xmlns="http://www.w3.org/2000/svg">
<g opacity="0.3">
<path d="M2.00002 10.6216C2.00002 15.1504 5.67129 18.8216 10.2 18.8216C14.7288 18.8216 18.4 15.1504 18.4 10.6216C18.4 6.0929 14.7288 2.42163 10.2 2.42163C5.67129 2.42163 2.00002 6.0929 2.00002 10.6216Z" stroke="white" stroke-width="1.104" stroke-linecap="round" stroke-linejoin="round"/>
<line x1="9.45154" y1="10.5771" x2="6.95554" y2="10.5771" stroke="white" stroke-width="1.104" stroke-linecap="round"/>
<line x1="13.4515" y1="10.5771" x2="11.9555" y2="10.5771" stroke="white" stroke-width="1.104" stroke-linecap="round"/>
<line x1="10.0515" y1="13.8733" x2="10.0515" y2="7.37729" stroke="white" stroke-width="1.104" stroke-linecap="round"/>
</g>
<path d="M2.59988 10.0215C2.59988 14.5503 6.27114 18.2215 10.7999 18.2215C15.3286 18.2215 18.9999 14.5503 18.9999 10.0215C18.9999 5.4928 15.3286 1.82153 10.7999 1.82153C6.27114 1.82153 2.59988 5.4928 2.59988 10.0215Z" stroke="white" stroke-width="1.104" stroke-linecap="round" stroke-linejoin="round"/>
<line x1="10.0515" y1="9.97705" x2="7.55552" y2="9.97705" stroke="white" stroke-width="1.104" stroke-linecap="round"/>
<line x1="14.0515" y1="9.97705" x2="12.5555" y2="9.97705" stroke="white" stroke-width="1.104" stroke-linecap="round"/>
<line x1="10.6515" y1="13.2732" x2="10.6515" y2="6.7772" stroke="white" stroke-width="1.104" stroke-linecap="round"/>
</svg>
