<svg width="24" height="24" viewBox="0 0 24 24" fill="none" xmlns="http://www.w3.org/2000/svg">
<g opacity="0.3">
<path d="M2.3876 12.8345C2.3876 17.8963 6.49095 21.9996 11.5527 21.9996C16.6144 21.9996 20.7178 17.8963 20.7178 12.8345C20.7178 7.77278 16.6144 3.66943 11.5527 3.66943C6.49095 3.66943 2.3876 7.77278 2.3876 12.8345Z" stroke="#FF6B00" stroke-width="1.5" stroke-linecap="round" stroke-linejoin="round"/>
<line x1="10.5811" y1="12.9185" x2="8.05736" y2="12.9185" stroke="#FF6B00" stroke-width="1.5" stroke-linecap="round"/>
<line x1="15.0527" y1="12.9185" x2="13.6467" y2="12.9185" stroke="#FF6B00" stroke-width="1.5" stroke-linecap="round"/>
<line x1="11.2529" y1="16.3359" x2="11.2529" y2="9.34147" stroke="#FF6B00" stroke-width="1.5" stroke-linecap="round"/>
</g>
<path d="M3.05459 12.1651C3.05459 17.2268 7.15794 21.3302 12.2197 21.3302C17.2814 21.3302 21.3848 17.2268 21.3848 12.1651C21.3848 7.10335 17.2814 3 12.2197 3C7.15794 3 3.05459 7.10335 3.05459 12.1651Z" stroke="#FF6B00" stroke-width="1.5" stroke-linecap="round" stroke-linejoin="round"/>
<line x1="11.249" y1="12.248" x2="8.72533" y2="12.248" stroke="#FF9B53" stroke-width="1.5" stroke-linecap="round"/>
<line x1="15.7207" y1="12.248" x2="14.3147" y2="12.248" stroke="#FF9B53" stroke-width="1.5" stroke-linecap="round"/>
<line x1="11.9199" y1="15.6665" x2="11.9199" y2="8.67203" stroke="#FF9B53" stroke-width="1.5" stroke-linecap="round"/>
</svg>
