<svg width="91" height="90" viewBox="0 0 91 90" fill="none" xmlns="http://www.w3.org/2000/svg">
<g clip-path="url(#clip0_766_64938)">
<path d="M90.5039 0H0.503906V90H90.5039V0Z" fill="white"/>
<path d="M88.7041 2.7002H3.2041V88.2002H88.7041V2.7002Z" fill="white"/>
<path d="M7.47891 35.4746H4.62891V38.3246H7.47891V35.4746Z" fill="black"/>
<path d="M7.47891 38.3252H4.62891V41.1752H7.47891V38.3252Z" fill="black"/>
<path d="M7.47891 49.7246H4.62891V52.5746H7.47891V49.7246Z" fill="black"/>
<path d="M7.47891 55.4248H4.62891V58.2748H7.47891V55.4248Z" fill="black"/>
<path d="M7.47891 58.2754H4.62891V61.1254H7.47891V58.2754Z" fill="black"/>
<path d="M10.3285 35.4746H7.47852V38.3246H10.3285V35.4746Z" fill="black"/>
<path d="M10.3285 38.3252H7.47852V41.1752H10.3285V38.3252Z" fill="black"/>
<path d="M10.3285 46.875H7.47852V49.725H10.3285V46.875Z" fill="black"/>
<path d="M10.3285 49.7246H7.47852V52.5746H10.3285V49.7246Z" fill="black"/>
<path d="M10.3285 55.4248H7.47852V58.2748H10.3285V55.4248Z" fill="black"/>
<path d="M10.3285 58.2754H7.47852V61.1254H10.3285V58.2754Z" fill="black"/>
<path d="M13.1791 29.7754H10.3291V32.6254H13.1791V29.7754Z" fill="black"/>
<path d="M13.1791 32.625H10.3291V35.475H13.1791V32.625Z" fill="black"/>
<path d="M13.1791 35.4746H10.3291V38.3246H13.1791V35.4746Z" fill="black"/>
<path d="M13.1791 38.3252H10.3291V41.1752H13.1791V38.3252Z" fill="black"/>
<path d="M13.1791 41.1748H10.3291V44.0248H13.1791V41.1748Z" fill="black"/>
<path d="M13.1791 44.0254H10.3291V46.8754H13.1791V44.0254Z" fill="black"/>
<path d="M13.1791 46.875H10.3291V49.725H13.1791V46.875Z" fill="black"/>
<path d="M13.1791 52.5752H10.3291V55.4252H13.1791V52.5752Z" fill="black"/>
<path d="M16.0287 26.9248H13.1787V29.7748H16.0287V26.9248Z" fill="black"/>
<path d="M16.0287 29.7754H13.1787V32.6254H16.0287V29.7754Z" fill="black"/>
<path d="M16.0287 32.625H13.1787V35.475H16.0287V32.625Z" fill="black"/>
<path d="M16.0287 35.4746H13.1787V38.3246H16.0287V35.4746Z" fill="black"/>
<path d="M16.0287 49.7246H13.1787V52.5746H16.0287V49.7246Z" fill="black"/>
<path d="M16.0287 52.5752H13.1787V55.4252H16.0287V52.5752Z" fill="black"/>
<path d="M16.0287 55.4248H13.1787V58.2748H16.0287V55.4248Z" fill="black"/>
<path d="M16.0287 58.2754H13.1787V61.1254H16.0287V58.2754Z" fill="black"/>
<path d="M18.8793 29.7754H16.0293V32.6254H18.8793V29.7754Z" fill="black"/>
<path d="M18.8793 35.4746H16.0293V38.3246H18.8793V35.4746Z" fill="black"/>
<path d="M18.8793 41.1748H16.0293V44.0248H18.8793V41.1748Z" fill="black"/>
<path d="M18.8793 46.875H16.0293V49.725H18.8793V46.875Z" fill="black"/>
<path d="M18.8793 52.5752H16.0293V55.4252H18.8793V52.5752Z" fill="black"/>
<path d="M18.8793 61.125H16.0293V63.975H18.8793V61.125Z" fill="black"/>
<path d="M21.7289 26.9248H18.8789V29.7748H21.7289V26.9248Z" fill="black"/>
<path d="M21.7289 41.1748H18.8789V44.0248H21.7289V41.1748Z" fill="black"/>
<path d="M21.7289 49.7246H18.8789V52.5746H21.7289V49.7246Z" fill="black"/>
<path d="M21.7289 61.125H18.8789V63.975H21.7289V61.125Z" fill="black"/>
<path d="M24.5785 26.9248H21.7285V29.7748H24.5785V26.9248Z" fill="black"/>
<path d="M24.5785 32.625H21.7285V35.475H24.5785V32.625Z" fill="black"/>
<path d="M24.5785 38.3252H21.7285V41.1752H24.5785V38.3252Z" fill="black"/>
<path d="M24.5785 44.0254H21.7285V46.8754H24.5785V44.0254Z" fill="black"/>
<path d="M24.5785 49.7246H21.7285V52.5746H24.5785V49.7246Z" fill="black"/>
<path d="M24.5785 55.4248H21.7285V58.2748H24.5785V55.4248Z" fill="black"/>
<path d="M24.5785 61.125H21.7285V63.975H24.5785V61.125Z" fill="black"/>
<path d="M27.4291 26.9248H24.5791V29.7748H27.4291V26.9248Z" fill="black"/>
<path d="M27.4291 29.7754H24.5791V32.6254H27.4291V29.7754Z" fill="black"/>
<path d="M27.4291 35.4746H24.5791V38.3246H27.4291V35.4746Z" fill="black"/>
<path d="M27.4291 38.3252H24.5791V41.1752H27.4291V38.3252Z" fill="black"/>
<path d="M27.4291 46.875H24.5791V49.725H27.4291V46.875Z" fill="black"/>
<path d="M27.4291 49.7246H24.5791V52.5746H27.4291V49.7246Z" fill="black"/>
<path d="M27.4291 55.4248H24.5791V58.2748H27.4291V55.4248Z" fill="black"/>
<path d="M27.4291 61.125H24.5791V63.975H27.4291V61.125Z" fill="black"/>
<path d="M30.2787 6.97461H27.4287V9.82461H30.2787V6.97461Z" fill="black"/>
<path d="M30.2787 9.8252H27.4287V12.6752H30.2787V9.8252Z" fill="black"/>
<path d="M30.2787 21.2246H27.4287V24.0746H30.2787V21.2246Z" fill="black"/>
<path d="M30.2787 29.7754H27.4287V32.6254H30.2787V29.7754Z" fill="black"/>
<path d="M30.2787 35.4746H27.4287V38.3246H30.2787V35.4746Z" fill="black"/>
<path d="M30.2787 41.1748H27.4287V44.0248H30.2787V41.1748Z" fill="black"/>
<path d="M30.2787 46.875H27.4287V49.725H30.2787V46.875Z" fill="black"/>
<path d="M30.2787 49.7246H27.4287V52.5746H30.2787V49.7246Z" fill="black"/>
<path d="M30.2787 52.5752H27.4287V55.4252H30.2787V52.5752Z" fill="black"/>
<path d="M30.2787 55.4248H27.4287V58.2748H30.2787V55.4248Z" fill="black"/>
<path d="M30.2787 58.2754H27.4287V61.1254H30.2787V58.2754Z" fill="black"/>
<path d="M30.2787 61.125H27.4287V63.975H30.2787V61.125Z" fill="black"/>
<path d="M30.2787 66.8252H27.4287V69.6752H30.2787V66.8252Z" fill="black"/>
<path d="M30.2787 69.6748H27.4287V72.5248H30.2787V69.6748Z" fill="black"/>
<path d="M30.2787 75.375H27.4287V78.225H30.2787V75.375Z" fill="black"/>
<path d="M33.1293 4.125H30.2793V6.975H33.1293V4.125Z" fill="black"/>
<path d="M33.1293 9.8252H30.2793V12.6752H33.1293V9.8252Z" fill="black"/>
<path d="M33.1293 15.5254H30.2793V18.3754H33.1293V15.5254Z" fill="black"/>
<path d="M33.1293 18.375H30.2793V21.225H33.1293V18.375Z" fill="black"/>
<path d="M33.1293 26.9248H30.2793V29.7748H33.1293V26.9248Z" fill="black"/>
<path d="M33.1293 29.7754H30.2793V32.6254H33.1293V29.7754Z" fill="black"/>
<path d="M33.1293 32.625H30.2793V35.475H33.1293V32.625Z" fill="black"/>
<path d="M33.1293 35.4746H30.2793V38.3246H33.1293V35.4746Z" fill="black"/>
<path d="M33.1293 44.0254H30.2793V46.8754H33.1293V44.0254Z" fill="black"/>
<path d="M33.1293 49.7246H30.2793V52.5746H33.1293V49.7246Z" fill="black"/>
<path d="M33.1293 55.4248H30.2793V58.2748H33.1293V55.4248Z" fill="black"/>
<path d="M33.1293 66.8252H30.2793V69.6752H33.1293V66.8252Z" fill="black"/>
<path d="M33.1293 69.6748H30.2793V72.5248H33.1293V69.6748Z" fill="black"/>
<path d="M33.1293 75.375H30.2793V78.225H33.1293V75.375Z" fill="black"/>
<path d="M33.1293 78.2246H30.2793V81.0746H33.1293V78.2246Z" fill="black"/>
<path d="M33.1293 81.0752H30.2793V83.9252H33.1293V81.0752Z" fill="black"/>
<path d="M33.1293 83.9248H30.2793V86.7748H33.1293V83.9248Z" fill="black"/>
<path d="M35.9789 15.5254H33.1289V18.3754H35.9789V15.5254Z" fill="black"/>
<path d="M35.9789 21.2246H33.1289V24.0746H35.9789V21.2246Z" fill="black"/>
<path d="M35.9789 24.0752H33.1289V26.9252H35.9789V24.0752Z" fill="black"/>
<path d="M35.9789 26.9248H33.1289V29.7748H35.9789V26.9248Z" fill="black"/>
<path d="M35.9789 29.7754H33.1289V32.6254H35.9789V29.7754Z" fill="black"/>
<path d="M35.9789 35.4746H33.1289V38.3246H35.9789V35.4746Z" fill="black"/>
<path d="M35.9789 49.7246H33.1289V52.5746H35.9789V49.7246Z" fill="black"/>
<path d="M35.9789 52.5752H33.1289V55.4252H35.9789V52.5752Z" fill="black"/>
<path d="M35.9789 55.4248H33.1289V58.2748H35.9789V55.4248Z" fill="black"/>
<path d="M35.9789 58.2754H33.1289V61.1254H35.9789V58.2754Z" fill="black"/>
<path d="M35.9789 61.125H33.1289V63.975H35.9789V61.125Z" fill="black"/>
<path d="M35.9789 63.9746H33.1289V66.8246H35.9789V63.9746Z" fill="black"/>
<path d="M35.9789 69.6748H33.1289V72.5248H35.9789V69.6748Z" fill="black"/>
<path d="M35.9789 72.5254H33.1289V75.3754H35.9789V72.5254Z" fill="black"/>
<path d="M35.9789 83.9248H33.1289V86.7748H35.9789V83.9248Z" fill="black"/>
<path d="M38.8285 6.97461H35.9785V9.82461H38.8285V6.97461Z" fill="black"/>
<path d="M38.8285 9.8252H35.9785V12.6752H38.8285V9.8252Z" fill="black"/>
<path d="M38.8285 12.6748H35.9785V15.5248H38.8285V12.6748Z" fill="black"/>
<path d="M38.8285 26.9248H35.9785V29.7748H38.8285V26.9248Z" fill="black"/>
<path d="M38.8285 32.625H35.9785V35.475H38.8285V32.625Z" fill="black"/>
<path d="M38.8285 38.3252H35.9785V41.1752H38.8285V38.3252Z" fill="black"/>
<path d="M38.8285 41.1748H35.9785V44.0248H38.8285V41.1748Z" fill="black"/>
<path d="M38.8285 46.875H35.9785V49.725H38.8285V46.875Z" fill="black"/>
<path d="M38.8285 55.4248H35.9785V58.2748H38.8285V55.4248Z" fill="black"/>
<path d="M38.8285 58.2754H35.9785V61.1254H38.8285V58.2754Z" fill="black"/>
<path d="M38.8285 61.125H35.9785V63.975H38.8285V61.125Z" fill="black"/>
<path d="M38.8285 66.8252H35.9785V69.6752H38.8285V66.8252Z" fill="black"/>
<path d="M38.8285 69.6748H35.9785V72.5248H38.8285V69.6748Z" fill="black"/>
<path d="M38.8285 72.5254H35.9785V75.3754H38.8285V72.5254Z" fill="black"/>
<path d="M38.8285 75.375H35.9785V78.225H38.8285V75.375Z" fill="black"/>
<path d="M41.6791 12.6748H38.8291V15.5248H41.6791V12.6748Z" fill="black"/>
<path d="M41.6791 18.375H38.8291V21.225H41.6791V18.375Z" fill="black"/>
<path d="M41.6791 21.2246H38.8291V24.0746H41.6791V21.2246Z" fill="black"/>
<path d="M41.6791 26.9248H38.8291V29.7748H41.6791V26.9248Z" fill="black"/>
<path d="M41.6791 29.7754H38.8291V32.6254H41.6791V29.7754Z" fill="black"/>
<path d="M41.6791 32.625H38.8291V35.475H41.6791V32.625Z" fill="black"/>
<path d="M41.6791 41.1748H38.8291V44.0248H41.6791V41.1748Z" fill="black"/>
<path d="M41.6791 44.0254H38.8291V46.8754H41.6791V44.0254Z" fill="black"/>
<path d="M41.6791 46.875H38.8291V49.725H41.6791V46.875Z" fill="black"/>
<path d="M41.6791 58.2754H38.8291V61.1254H41.6791V58.2754Z" fill="black"/>
<path d="M41.6791 61.125H38.8291V63.975H41.6791V61.125Z" fill="black"/>
<path d="M41.6791 63.9746H38.8291V66.8246H41.6791V63.9746Z" fill="black"/>
<path d="M41.6791 66.8252H38.8291V69.6752H41.6791V66.8252Z" fill="black"/>
<path d="M41.6791 75.375H38.8291V78.225H41.6791V75.375Z" fill="black"/>
<path d="M41.6791 81.0752H38.8291V83.9252H41.6791V81.0752Z" fill="black"/>
<path d="M44.5287 9.8252H41.6787V12.6752H44.5287V9.8252Z" fill="black"/>
<path d="M44.5287 15.5254H41.6787V18.3754H44.5287V15.5254Z" fill="black"/>
<path d="M44.5287 18.375H41.6787V21.225H44.5287V18.375Z" fill="black"/>
<path d="M44.5287 29.7754H41.6787V32.6254H44.5287V29.7754Z" fill="black"/>
<path d="M44.5287 38.3252H41.6787V41.1752H44.5287V38.3252Z" fill="black"/>
<path d="M44.5287 41.1748H41.6787V44.0248H44.5287V41.1748Z" fill="black"/>
<path d="M44.5287 44.0254H41.6787V46.8754H44.5287V44.0254Z" fill="black"/>
<path d="M44.5287 49.7246H41.6787V52.5746H44.5287V49.7246Z" fill="black"/>
<path d="M44.5287 52.5752H41.6787V55.4252H44.5287V52.5752Z" fill="black"/>
<path d="M44.5287 55.4248H41.6787V58.2748H44.5287V55.4248Z" fill="black"/>
<path d="M44.5287 58.2754H41.6787V61.1254H44.5287V58.2754Z" fill="black"/>
<path d="M44.5287 61.125H41.6787V63.975H44.5287V61.125Z" fill="black"/>
<path d="M44.5287 66.8252H41.6787V69.6752H44.5287V66.8252Z" fill="black"/>
<path d="M44.5287 75.375H41.6787V78.225H44.5287V75.375Z" fill="black"/>
<path d="M44.5287 83.9248H41.6787V86.7748H44.5287V83.9248Z" fill="black"/>
<path d="M47.3793 4.125H44.5293V6.975H47.3793V4.125Z" fill="black"/>
<path d="M47.3793 15.5254H44.5293V18.3754H47.3793V15.5254Z" fill="black"/>
<path d="M47.3793 21.2246H44.5293V24.0746H47.3793V21.2246Z" fill="black"/>
<path d="M47.3793 32.625H44.5293V35.475H47.3793V32.625Z" fill="black"/>
<path d="M47.3793 38.3252H44.5293V41.1752H47.3793V38.3252Z" fill="black"/>
<path d="M47.3793 41.1748H44.5293V44.0248H47.3793V41.1748Z" fill="black"/>
<path d="M47.3793 44.0254H44.5293V46.8754H47.3793V44.0254Z" fill="black"/>
<path d="M47.3793 46.875H44.5293V49.725H47.3793V46.875Z" fill="black"/>
<path d="M47.3793 49.7246H44.5293V52.5746H47.3793V49.7246Z" fill="black"/>
<path d="M47.3793 58.2754H44.5293V61.1254H47.3793V58.2754Z" fill="black"/>
<path d="M47.3793 75.375H44.5293V78.225H47.3793V75.375Z" fill="black"/>
<path d="M47.3793 78.2246H44.5293V81.0746H47.3793V78.2246Z" fill="black"/>
<path d="M47.3793 81.0752H44.5293V83.9252H47.3793V81.0752Z" fill="black"/>
<path d="M47.3793 83.9248H44.5293V86.7748H47.3793V83.9248Z" fill="black"/>
<path d="M50.2289 6.97461H47.3789V9.82461H50.2289V6.97461Z" fill="black"/>
<path d="M50.2289 12.6748H47.3789V15.5248H50.2289V12.6748Z" fill="black"/>
<path d="M50.2289 15.5254H47.3789V18.3754H50.2289V15.5254Z" fill="black"/>
<path d="M50.2289 24.0752H47.3789V26.9252H50.2289V24.0752Z" fill="black"/>
<path d="M50.2289 26.9248H47.3789V29.7748H50.2289V26.9248Z" fill="black"/>
<path d="M50.2289 32.625H47.3789V35.475H50.2289V32.625Z" fill="black"/>
<path d="M50.2289 41.1748H47.3789V44.0248H50.2289V41.1748Z" fill="black"/>
<path d="M50.2289 44.0254H47.3789V46.8754H50.2289V44.0254Z" fill="black"/>
<path d="M50.2289 46.875H47.3789V49.725H50.2289V46.875Z" fill="black"/>
<path d="M50.2289 52.5752H47.3789V55.4252H50.2289V52.5752Z" fill="black"/>
<path d="M50.2289 61.125H47.3789V63.975H50.2289V61.125Z" fill="black"/>
<path d="M50.2289 75.375H47.3789V78.225H50.2289V75.375Z" fill="black"/>
<path d="M50.2289 81.0752H47.3789V83.9252H50.2289V81.0752Z" fill="black"/>
<path d="M53.0785 9.8252H50.2285V12.6752H53.0785V9.8252Z" fill="black"/>
<path d="M53.0785 18.375H50.2285V21.225H53.0785V18.375Z" fill="black"/>
<path d="M53.0785 21.2246H50.2285V24.0746H53.0785V21.2246Z" fill="black"/>
<path d="M53.0785 38.3252H50.2285V41.1752H53.0785V38.3252Z" fill="black"/>
<path d="M53.0785 44.0254H50.2285V46.8754H53.0785V44.0254Z" fill="black"/>
<path d="M53.0785 52.5752H50.2285V55.4252H53.0785V52.5752Z" fill="black"/>
<path d="M53.0785 66.8252H50.2285V69.6752H53.0785V66.8252Z" fill="black"/>
<path d="M53.0785 69.6748H50.2285V72.5248H53.0785V69.6748Z" fill="black"/>
<path d="M55.9291 12.6748H53.0791V15.5248H55.9291V12.6748Z" fill="black"/>
<path d="M55.9291 15.5254H53.0791V18.3754H55.9291V15.5254Z" fill="black"/>
<path d="M55.9291 26.9248H53.0791V29.7748H55.9291V26.9248Z" fill="black"/>
<path d="M55.9291 61.125H53.0791V63.975H55.9291V61.125Z" fill="black"/>
<path d="M55.9291 69.6748H53.0791V72.5248H55.9291V69.6748Z" fill="black"/>
<path d="M55.9291 78.2246H53.0791V81.0746H55.9291V78.2246Z" fill="black"/>
<path d="M55.9291 83.9248H53.0791V86.7748H55.9291V83.9248Z" fill="black"/>
<path d="M58.7787 4.125H55.9287V6.975H58.7787V4.125Z" fill="black"/>
<path d="M58.7787 6.97461H55.9287V9.82461H58.7787V6.97461Z" fill="black"/>
<path d="M58.7787 9.8252H55.9287V12.6752H58.7787V9.8252Z" fill="black"/>
<path d="M58.7787 12.6748H55.9287V15.5248H58.7787V12.6748Z" fill="black"/>
<path d="M58.7787 15.5254H55.9287V18.3754H58.7787V15.5254Z" fill="black"/>
<path d="M58.7787 18.375H55.9287V21.225H58.7787V18.375Z" fill="black"/>
<path d="M58.7787 21.2246H55.9287V24.0746H58.7787V21.2246Z" fill="black"/>
<path d="M58.7787 26.9248H55.9287V29.7748H58.7787V26.9248Z" fill="black"/>
<path d="M58.7787 35.4746H55.9287V38.3246H58.7787V35.4746Z" fill="black"/>
<path d="M58.7787 44.0254H55.9287V46.8754H58.7787V44.0254Z" fill="black"/>
<path d="M58.7787 46.875H55.9287V49.725H58.7787V46.875Z" fill="black"/>
<path d="M58.7787 55.4248H55.9287V58.2748H58.7787V55.4248Z" fill="black"/>
<path d="M58.7787 58.2754H55.9287V61.1254H58.7787V58.2754Z" fill="black"/>
<path d="M58.7787 61.125H55.9287V63.975H58.7787V61.125Z" fill="black"/>
<path d="M58.7787 75.375H55.9287V78.225H58.7787V75.375Z" fill="black"/>
<path d="M58.7787 83.9248H55.9287V86.7748H58.7787V83.9248Z" fill="black"/>
<path d="M61.6293 9.8252H58.7793V12.6752H61.6293V9.8252Z" fill="black"/>
<path d="M61.6293 18.375H58.7793V21.225H61.6293V18.375Z" fill="black"/>
<path d="M61.6293 29.7754H58.7793V32.6254H61.6293V29.7754Z" fill="black"/>
<path d="M61.6293 32.625H58.7793V35.475H61.6293V32.625Z" fill="black"/>
<path d="M61.6293 38.3252H58.7793V41.1752H61.6293V38.3252Z" fill="black"/>
<path d="M61.6293 41.1748H58.7793V44.0248H61.6293V41.1748Z" fill="black"/>
<path d="M61.6293 61.125H58.7793V63.975H61.6293V61.125Z" fill="black"/>
<path d="M61.6293 63.9746H58.7793V66.8246H61.6293V63.9746Z" fill="black"/>
<path d="M61.6293 66.8252H58.7793V69.6752H61.6293V66.8252Z" fill="black"/>
<path d="M61.6293 75.375H58.7793V78.225H61.6293V75.375Z" fill="black"/>
<path d="M61.6293 83.9248H58.7793V86.7748H61.6293V83.9248Z" fill="black"/>
<path d="M64.4789 4.125H61.6289V6.975H64.4789V4.125Z" fill="black"/>
<path d="M64.4789 6.97461H61.6289V9.82461H64.4789V6.97461Z" fill="black"/>
<path d="M64.4789 12.6748H61.6289V15.5248H64.4789V12.6748Z" fill="black"/>
<path d="M64.4789 21.2246H61.6289V24.0746H64.4789V21.2246Z" fill="black"/>
<path d="M64.4789 24.0752H61.6289V26.9252H64.4789V24.0752Z" fill="black"/>
<path d="M64.4789 29.7754H61.6289V32.6254H64.4789V29.7754Z" fill="black"/>
<path d="M64.4789 35.4746H61.6289V38.3246H64.4789V35.4746Z" fill="black"/>
<path d="M64.4789 38.3252H61.6289V41.1752H64.4789V38.3252Z" fill="black"/>
<path d="M64.4789 41.1748H61.6289V44.0248H64.4789V41.1748Z" fill="black"/>
<path d="M64.4789 46.875H61.6289V49.725H64.4789V46.875Z" fill="black"/>
<path d="M64.4789 49.7246H61.6289V52.5746H64.4789V49.7246Z" fill="black"/>
<path d="M64.4789 55.4248H61.6289V58.2748H64.4789V55.4248Z" fill="black"/>
<path d="M64.4789 61.125H61.6289V63.975H64.4789V61.125Z" fill="black"/>
<path d="M64.4789 63.9746H61.6289V66.8246H64.4789V63.9746Z" fill="black"/>
<path d="M64.4789 66.8252H61.6289V69.6752H64.4789V66.8252Z" fill="black"/>
<path d="M64.4789 69.6748H61.6289V72.5248H64.4789V69.6748Z" fill="black"/>
<path d="M64.4789 72.5254H61.6289V75.3754H64.4789V72.5254Z" fill="black"/>
<path d="M64.4789 78.2246H61.6289V81.0746H64.4789V78.2246Z" fill="black"/>
<path d="M64.4789 81.0752H61.6289V83.9252H64.4789V81.0752Z" fill="black"/>
<path d="M67.3285 26.9248H64.4785V29.7748H67.3285V26.9248Z" fill="black"/>
<path d="M67.3285 32.625H64.4785V35.475H67.3285V32.625Z" fill="black"/>
<path d="M67.3285 46.875H64.4785V49.725H67.3285V46.875Z" fill="black"/>
<path d="M67.3285 49.7246H64.4785V52.5746H67.3285V49.7246Z" fill="black"/>
<path d="M67.3285 61.125H64.4785V63.975H67.3285V61.125Z" fill="black"/>
<path d="M67.3285 72.5254H64.4785V75.3754H67.3285V72.5254Z" fill="black"/>
<path d="M67.3285 75.375H64.4785V78.225H67.3285V75.375Z" fill="black"/>
<path d="M67.3285 83.9248H64.4785V86.7748H67.3285V83.9248Z" fill="black"/>
<path d="M70.1791 29.7754H67.3291V32.6254H70.1791V29.7754Z" fill="black"/>
<path d="M70.1791 32.625H67.3291V35.475H70.1791V32.625Z" fill="black"/>
<path d="M70.1791 35.4746H67.3291V38.3246H70.1791V35.4746Z" fill="black"/>
<path d="M70.1791 41.1748H67.3291V44.0248H70.1791V41.1748Z" fill="black"/>
<path d="M70.1791 46.875H67.3291V49.725H70.1791V46.875Z" fill="black"/>
<path d="M70.1791 52.5752H67.3291V55.4252H70.1791V52.5752Z" fill="black"/>
<path d="M70.1791 55.4248H67.3291V58.2748H70.1791V55.4248Z" fill="black"/>
<path d="M70.1791 61.125H67.3291V63.975H70.1791V61.125Z" fill="black"/>
<path d="M70.1791 66.8252H67.3291V69.6752H70.1791V66.8252Z" fill="black"/>
<path d="M70.1791 72.5254H67.3291V75.3754H70.1791V72.5254Z" fill="black"/>
<path d="M70.1791 75.375H67.3291V78.225H70.1791V75.375Z" fill="black"/>
<path d="M70.1791 78.2246H67.3291V81.0746H70.1791V78.2246Z" fill="black"/>
<path d="M70.1791 83.9248H67.3291V86.7748H70.1791V83.9248Z" fill="black"/>
<path d="M73.0287 29.7754H70.1787V32.6254H73.0287V29.7754Z" fill="black"/>
<path d="M73.0287 38.3252H70.1787V41.1752H73.0287V38.3252Z" fill="black"/>
<path d="M73.0287 41.1748H70.1787V44.0248H73.0287V41.1748Z" fill="black"/>
<path d="M73.0287 44.0254H70.1787V46.8754H73.0287V44.0254Z" fill="black"/>
<path d="M73.0287 46.875H70.1787V49.725H73.0287V46.875Z" fill="black"/>
<path d="M73.0287 55.4248H70.1787V58.2748H73.0287V55.4248Z" fill="black"/>
<path d="M73.0287 58.2754H70.1787V61.1254H73.0287V58.2754Z" fill="black"/>
<path d="M73.0287 61.125H70.1787V63.975H73.0287V61.125Z" fill="black"/>
<path d="M73.0287 72.5254H70.1787V75.3754H73.0287V72.5254Z" fill="black"/>
<path d="M73.0287 75.375H70.1787V78.225H73.0287V75.375Z" fill="black"/>
<path d="M73.0287 81.0752H70.1787V83.9252H73.0287V81.0752Z" fill="black"/>
<path d="M73.0287 83.9248H70.1787V86.7748H73.0287V83.9248Z" fill="black"/>
<path d="M75.8793 29.7754H73.0293V32.6254H75.8793V29.7754Z" fill="black"/>
<path d="M75.8793 32.625H73.0293V35.475H75.8793V32.625Z" fill="black"/>
<path d="M75.8793 38.3252H73.0293V41.1752H75.8793V38.3252Z" fill="black"/>
<path d="M75.8793 41.1748H73.0293V44.0248H75.8793V41.1748Z" fill="black"/>
<path d="M75.8793 44.0254H73.0293V46.8754H75.8793V44.0254Z" fill="black"/>
<path d="M75.8793 46.875H73.0293V49.725H75.8793V46.875Z" fill="black"/>
<path d="M75.8793 49.7246H73.0293V52.5746H75.8793V49.7246Z" fill="black"/>
<path d="M75.8793 52.5752H73.0293V55.4252H75.8793V52.5752Z" fill="black"/>
<path d="M75.8793 55.4248H73.0293V58.2748H75.8793V55.4248Z" fill="black"/>
<path d="M75.8793 58.2754H73.0293V61.1254H75.8793V58.2754Z" fill="black"/>
<path d="M75.8793 61.125H73.0293V63.975H75.8793V61.125Z" fill="black"/>
<path d="M75.8793 63.9746H73.0293V66.8246H75.8793V63.9746Z" fill="black"/>
<path d="M75.8793 66.8252H73.0293V69.6752H75.8793V66.8252Z" fill="black"/>
<path d="M75.8793 69.6748H73.0293V72.5248H75.8793V69.6748Z" fill="black"/>
<path d="M75.8793 72.5254H73.0293V75.3754H75.8793V72.5254Z" fill="black"/>
<path d="M78.7289 49.7246H75.8789V52.5746H78.7289V49.7246Z" fill="black"/>
<path d="M78.7289 52.5752H75.8789V55.4252H78.7289V52.5752Z" fill="black"/>
<path d="M78.7289 55.4248H75.8789V58.2748H78.7289V55.4248Z" fill="black"/>
<path d="M78.7289 58.2754H75.8789V61.1254H78.7289V58.2754Z" fill="black"/>
<path d="M78.7289 61.125H75.8789V63.975H78.7289V61.125Z" fill="black"/>
<path d="M78.7289 69.6748H75.8789V72.5248H78.7289V69.6748Z" fill="black"/>
<path d="M78.7289 72.5254H75.8789V75.3754H78.7289V72.5254Z" fill="black"/>
<path d="M78.7289 81.0752H75.8789V83.9252H78.7289V81.0752Z" fill="black"/>
<path d="M81.5785 26.9248H78.7285V29.7748H81.5785V26.9248Z" fill="black"/>
<path d="M81.5785 32.625H78.7285V35.475H81.5785V32.625Z" fill="black"/>
<path d="M81.5785 49.7246H78.7285V52.5746H81.5785V49.7246Z" fill="black"/>
<path d="M81.5785 63.9746H78.7285V66.8246H81.5785V63.9746Z" fill="black"/>
<path d="M81.5785 72.5254H78.7285V75.3754H81.5785V72.5254Z" fill="black"/>
<path d="M81.5785 75.375H78.7285V78.225H81.5785V75.375Z" fill="black"/>
<path d="M81.5785 78.2246H78.7285V81.0746H81.5785V78.2246Z" fill="black"/>
<path d="M81.5785 81.0752H78.7285V83.9252H81.5785V81.0752Z" fill="black"/>
<path d="M81.5785 83.9248H78.7285V86.7748H81.5785V83.9248Z" fill="black"/>
<path d="M84.4291 26.9248H81.5791V29.7748H84.4291V26.9248Z" fill="black"/>
<path d="M84.4291 32.625H81.5791V35.475H84.4291V32.625Z" fill="black"/>
<path d="M84.4291 35.4746H81.5791V38.3246H84.4291V35.4746Z" fill="black"/>
<path d="M84.4291 44.0254H81.5791V46.8754H84.4291V44.0254Z" fill="black"/>
<path d="M84.4291 46.875H81.5791V49.725H84.4291V46.875Z" fill="black"/>
<path d="M84.4291 49.7246H81.5791V52.5746H84.4291V49.7246Z" fill="black"/>
<path d="M84.4291 61.125H81.5791V63.975H84.4291V61.125Z" fill="black"/>
<path d="M84.4291 75.375H81.5791V78.225H84.4291V75.375Z" fill="black"/>
<path d="M87.2787 35.4746H84.4287V38.3246H87.2787V35.4746Z" fill="black"/>
<path d="M87.2787 41.1748H84.4287V44.0248H87.2787V41.1748Z" fill="black"/>
<path d="M87.2787 49.7246H84.4287V52.5746H87.2787V49.7246Z" fill="black"/>
<path d="M87.2787 61.125H84.4287V63.975H87.2787V61.125Z" fill="black"/>
<path d="M87.2787 66.8252H84.4287V69.6752H87.2787V66.8252Z" fill="black"/>
<path d="M87.2787 69.6748H84.4287V72.5248H87.2787V69.6748Z" fill="black"/>
<path d="M87.2787 72.5254H84.4287V75.3754H87.2787V72.5254Z" fill="black"/>
<path d="M87.2787 83.9248H84.4287V86.7748H87.2787V83.9248Z" fill="black"/>
<path d="M7.47891 4.125H4.62891V6.975H7.47891V4.125Z" fill="black"/>
<path d="M7.47891 6.97461H4.62891V9.82461H7.47891V6.97461Z" fill="black"/>
<path d="M7.47891 9.8252H4.62891V12.6752H7.47891V9.8252Z" fill="black"/>
<path d="M7.47891 12.6748H4.62891V15.5248H7.47891V12.6748Z" fill="black"/>
<path d="M7.47891 15.5254H4.62891V18.3754H7.47891V15.5254Z" fill="black"/>
<path d="M7.47891 18.375H4.62891V21.225H7.47891V18.375Z" fill="black"/>
<path d="M7.47891 21.2246H4.62891V24.0746H7.47891V21.2246Z" fill="black"/>
<path d="M10.3285 4.125H7.47852V6.975H10.3285V4.125Z" fill="black"/>
<path d="M10.3285 21.2246H7.47852V24.0746H10.3285V21.2246Z" fill="black"/>
<path d="M13.1791 4.125H10.3291V6.975H13.1791V4.125Z" fill="black"/>
<path d="M13.1791 21.2246H10.3291V24.0746H13.1791V21.2246Z" fill="black"/>
<path d="M16.0287 4.125H13.1787V6.975H16.0287V4.125Z" fill="black"/>
<path d="M16.0287 21.2246H13.1787V24.0746H16.0287V21.2246Z" fill="black"/>
<path d="M18.8793 4.125H16.0293V6.975H18.8793V4.125Z" fill="black"/>
<path d="M18.8793 21.2246H16.0293V24.0746H18.8793V21.2246Z" fill="black"/>
<path d="M21.7289 4.125H18.8789V6.975H21.7289V4.125Z" fill="black"/>
<path d="M21.7289 21.2246H18.8789V24.0746H21.7289V21.2246Z" fill="black"/>
<path d="M24.5785 4.125H21.7285V6.975H24.5785V4.125Z" fill="black"/>
<path d="M24.5785 6.97461H21.7285V9.82461H24.5785V6.97461Z" fill="black"/>
<path d="M24.5785 9.8252H21.7285V12.6752H24.5785V9.8252Z" fill="black"/>
<path d="M24.5785 12.6748H21.7285V15.5248H24.5785V12.6748Z" fill="black"/>
<path d="M24.5785 15.5254H21.7285V18.3754H24.5785V15.5254Z" fill="black"/>
<path d="M24.5785 18.375H21.7285V21.225H24.5785V18.375Z" fill="black"/>
<path d="M24.5785 21.2246H21.7285V24.0746H24.5785V21.2246Z" fill="black"/>
<path d="M13.1791 9.8252H10.3291V12.6752H13.1791V9.8252Z" fill="black"/>
<path d="M13.1791 12.6748H10.3291V15.5248H13.1791V12.6748Z" fill="black"/>
<path d="M13.1791 15.5254H10.3291V18.3754H13.1791V15.5254Z" fill="black"/>
<path d="M16.0287 9.8252H13.1787V12.6752H16.0287V9.8252Z" fill="black"/>
<path d="M16.0287 12.6748H13.1787V15.5248H16.0287V12.6748Z" fill="black"/>
<path d="M16.0287 15.5254H13.1787V18.3754H16.0287V15.5254Z" fill="black"/>
<path d="M18.8793 9.8252H16.0293V12.6752H18.8793V9.8252Z" fill="black"/>
<path d="M18.8793 12.6748H16.0293V15.5248H18.8793V12.6748Z" fill="black"/>
<path d="M18.8793 15.5254H16.0293V18.3754H18.8793V15.5254Z" fill="black"/>
<path d="M70.1791 4.125H67.3291V6.975H70.1791V4.125Z" fill="black"/>
<path d="M70.1791 6.97461H67.3291V9.82461H70.1791V6.97461Z" fill="black"/>
<path d="M70.1791 9.8252H67.3291V12.6752H70.1791V9.8252Z" fill="black"/>
<path d="M70.1791 12.6748H67.3291V15.5248H70.1791V12.6748Z" fill="black"/>
<path d="M70.1791 15.5254H67.3291V18.3754H70.1791V15.5254Z" fill="black"/>
<path d="M70.1791 18.375H67.3291V21.225H70.1791V18.375Z" fill="black"/>
<path d="M70.1791 21.2246H67.3291V24.0746H70.1791V21.2246Z" fill="black"/>
<path d="M73.0287 4.125H70.1787V6.975H73.0287V4.125Z" fill="black"/>
<path d="M73.0287 21.2246H70.1787V24.0746H73.0287V21.2246Z" fill="black"/>
<path d="M75.8793 4.125H73.0293V6.975H75.8793V4.125Z" fill="black"/>
<path d="M75.8793 21.2246H73.0293V24.0746H75.8793V21.2246Z" fill="black"/>
<path d="M78.7289 4.125H75.8789V6.975H78.7289V4.125Z" fill="black"/>
<path d="M78.7289 21.2246H75.8789V24.0746H78.7289V21.2246Z" fill="black"/>
<path d="M81.5785 4.125H78.7285V6.975H81.5785V4.125Z" fill="black"/>
<path d="M81.5785 21.2246H78.7285V24.0746H81.5785V21.2246Z" fill="black"/>
<path d="M84.4291 4.125H81.5791V6.975H84.4291V4.125Z" fill="black"/>
<path d="M84.4291 21.2246H81.5791V24.0746H84.4291V21.2246Z" fill="black"/>
<path d="M87.2787 4.125H84.4287V6.975H87.2787V4.125Z" fill="black"/>
<path d="M87.2787 6.97461H84.4287V9.82461H87.2787V6.97461Z" fill="black"/>
<path d="M87.2787 9.8252H84.4287V12.6752H87.2787V9.8252Z" fill="black"/>
<path d="M87.2787 12.6748H84.4287V15.5248H87.2787V12.6748Z" fill="black"/>
<path d="M87.2787 15.5254H84.4287V18.3754H87.2787V15.5254Z" fill="black"/>
<path d="M87.2787 18.375H84.4287V21.225H87.2787V18.375Z" fill="black"/>
<path d="M87.2787 21.2246H84.4287V24.0746H87.2787V21.2246Z" fill="black"/>
<path d="M75.8793 9.8252H73.0293V12.6752H75.8793V9.8252Z" fill="black"/>
<path d="M75.8793 12.6748H73.0293V15.5248H75.8793V12.6748Z" fill="black"/>
<path d="M75.8793 15.5254H73.0293V18.3754H75.8793V15.5254Z" fill="black"/>
<path d="M78.7289 9.8252H75.8789V12.6752H78.7289V9.8252Z" fill="black"/>
<path d="M78.7289 12.6748H75.8789V15.5248H78.7289V12.6748Z" fill="black"/>
<path d="M78.7289 15.5254H75.8789V18.3754H78.7289V15.5254Z" fill="black"/>
<path d="M81.5785 9.8252H78.7285V12.6752H81.5785V9.8252Z" fill="black"/>
<path d="M81.5785 12.6748H78.7285V15.5248H81.5785V12.6748Z" fill="black"/>
<path d="M81.5785 15.5254H78.7285V18.3754H81.5785V15.5254Z" fill="black"/>
<path d="M7.47891 66.8252H4.62891V69.6752H7.47891V66.8252Z" fill="black"/>
<path d="M7.47891 69.6748H4.62891V72.5248H7.47891V69.6748Z" fill="black"/>
<path d="M7.47891 72.5254H4.62891V75.3754H7.47891V72.5254Z" fill="black"/>
<path d="M7.47891 75.375H4.62891V78.225H7.47891V75.375Z" fill="black"/>
<path d="M7.47891 78.2246H4.62891V81.0746H7.47891V78.2246Z" fill="black"/>
<path d="M7.47891 81.0752H4.62891V83.9252H7.47891V81.0752Z" fill="black"/>
<path d="M7.47891 83.9248H4.62891V86.7748H7.47891V83.9248Z" fill="black"/>
<path d="M10.3285 66.8252H7.47852V69.6752H10.3285V66.8252Z" fill="black"/>
<path d="M10.3285 83.9248H7.47852V86.7748H10.3285V83.9248Z" fill="black"/>
<path d="M13.1791 66.8252H10.3291V69.6752H13.1791V66.8252Z" fill="black"/>
<path d="M13.1791 83.9248H10.3291V86.7748H13.1791V83.9248Z" fill="black"/>
<path d="M16.0287 66.8252H13.1787V69.6752H16.0287V66.8252Z" fill="black"/>
<path d="M16.0287 83.9248H13.1787V86.7748H16.0287V83.9248Z" fill="black"/>
<path d="M18.8793 66.8252H16.0293V69.6752H18.8793V66.8252Z" fill="black"/>
<path d="M18.8793 83.9248H16.0293V86.7748H18.8793V83.9248Z" fill="black"/>
<path d="M21.7289 66.8252H18.8789V69.6752H21.7289V66.8252Z" fill="black"/>
<path d="M21.7289 83.9248H18.8789V86.7748H21.7289V83.9248Z" fill="black"/>
<path d="M24.5785 66.8252H21.7285V69.6752H24.5785V66.8252Z" fill="black"/>
<path d="M24.5785 69.6748H21.7285V72.5248H24.5785V69.6748Z" fill="black"/>
<path d="M24.5785 72.5254H21.7285V75.3754H24.5785V72.5254Z" fill="black"/>
<path d="M24.5785 75.375H21.7285V78.225H24.5785V75.375Z" fill="black"/>
<path d="M24.5785 78.2246H21.7285V81.0746H24.5785V78.2246Z" fill="black"/>
<path d="M24.5785 81.0752H21.7285V83.9252H24.5785V81.0752Z" fill="black"/>
<path d="M24.5785 83.9248H21.7285V86.7748H24.5785V83.9248Z" fill="black"/>
<path d="M13.1791 72.5254H10.3291V75.3754H13.1791V72.5254Z" fill="black"/>
<path d="M13.1791 75.375H10.3291V78.225H13.1791V75.375Z" fill="black"/>
<path d="M13.1791 78.2246H10.3291V81.0746H13.1791V78.2246Z" fill="black"/>
<path d="M16.0287 72.5254H13.1787V75.3754H16.0287V72.5254Z" fill="black"/>
<path d="M16.0287 75.375H13.1787V78.225H16.0287V75.375Z" fill="black"/>
<path d="M16.0287 78.2246H13.1787V81.0746H16.0287V78.2246Z" fill="black"/>
<path d="M18.8793 72.5254H16.0293V75.3754H18.8793V72.5254Z" fill="black"/>
<path d="M18.8793 75.375H16.0293V78.225H18.8793V75.375Z" fill="black"/>
<path d="M18.8793 78.2246H16.0293V81.0746H18.8793V78.2246Z" fill="black"/>
</g>
<defs>
<clipPath id="clip0_766_64938">
<rect width="90" height="90" fill="white" transform="translate(0.503906)"/>
</clipPath>
</defs>
</svg>
