<svg width="46" height="49" viewBox="0 0 46 49" fill="none" xmlns="http://www.w3.org/2000/svg">
<g opacity="0.3">
<path d="M35.9755 30.6343L42.0208 40.3949C42.27 40.8125 41.9815 41.3344 41.4963 41.3344H36.3427C36.1198 41.3344 35.9231 41.4518 35.805 41.6345L32.9201 46.4887C32.6841 46.8933 32.1071 46.8933 31.8579 46.4887L29.4844 42.6915" stroke="#FF6B00" stroke-width="2.66037" stroke-linecap="round"/>
<path d="M7.82223 30.6343L1.77694 40.3949C1.52778 40.8125 1.81628 41.3344 2.30147 41.3344H7.45505C7.67798 41.3344 7.87468 41.4518 7.9927 41.6345L10.8777 46.4887C11.1137 46.8933 11.6907 46.8933 11.9398 46.4887L17.7491 37.1979" stroke="#FF6B00" stroke-width="2.66037" stroke-linecap="round"/>
<path d="M17.121 22.8084L12.623 18.4501L18.8388 17.5497L21.6189 11.9517L24.3989 17.5497L30.6147 18.4501L26.1168 22.8084L27.179 28.9675L21.632 26.0575L16.0719 28.9675" stroke="#FF6B00" stroke-width="2.66037" stroke-linecap="round" stroke-linejoin="round"/>
<path d="M21.6044 37.4597C31.046 37.4597 38.6912 29.8391 38.6912 20.4569C38.6912 11.0747 31.0329 3.4541 21.6044 3.4541C12.1758 3.4541 4.51758 11.0747 4.51758 20.4569C4.51758 29.8391 12.1758 37.4597 21.6044 37.4597Z" stroke="#FF6B00" stroke-width="2.66037" stroke-linecap="round" stroke-linejoin="round"/>
</g>
<path d="M37.9033 28.7126L43.9485 38.4733C44.1977 38.8909 43.9092 39.4128 43.424 39.4128H38.2704C38.0475 39.4128 37.8508 39.5302 37.7328 39.7129L34.8478 44.5671C34.6118 44.9716 34.0348 44.9716 33.7856 44.5671L31.4121 40.7698" stroke="#FF9B53" stroke-width="2.66037" stroke-linecap="round"/>
<path d="M9.74996 28.7126L3.70467 38.4733C3.45551 38.8909 3.74401 39.4128 4.22921 39.4128H9.38278C9.60571 39.4128 9.80241 39.5302 9.92043 39.7129L12.8054 44.5671C13.0414 44.9716 13.6184 44.9716 13.8676 44.5671L19.6768 35.2763" stroke="#FF9B53" stroke-width="2.66037" stroke-linecap="round"/>
<path d="M19.0487 20.8894L14.5508 16.5311L20.7665 15.6308L23.5466 10.0327L26.3266 15.6308L32.5424 16.5311L28.0445 20.8894L29.1067 27.0486L23.5597 24.1386L17.9996 27.0486" stroke="#FF9B53" stroke-width="2.66037" stroke-linecap="round" stroke-linejoin="round"/>
<path d="M23.5321 35.5407C32.9738 35.5407 40.6189 27.9201 40.6189 18.5379C40.6189 9.15576 32.9607 1.53516 23.5321 1.53516C14.1036 1.53516 6.44531 9.15576 6.44531 18.5379C6.44531 27.9201 14.1036 35.5407 23.5321 35.5407Z" stroke="#FF6B00" stroke-width="2.66037" stroke-linecap="round" stroke-linejoin="round"/>
</svg>
