<svg width="28" height="27" viewBox="0 0 28 27" fill="none" xmlns="http://www.w3.org/2000/svg">
<rect x="0.554688" y="0.0458984" width="26.478" height="26.478" rx="6" fill="#FFE2CE"/>
<path fill-rule="evenodd" clip-rule="evenodd" d="M9.25683 17.7907C9.22562 17.7766 9.1907 17.807 9.20227 17.8393C9.21307 17.8694 9.18341 17.8982 9.15363 17.8865L4.87901 16.2139C3.68037 15.7449 3.17116 14.326 3.79806 13.2018L6.03537 9.1899C6.0503 9.16312 6.08982 9.16637 6.10018 9.19523C6.11127 9.22613 6.1556 9.22733 6.17003 9.19785C6.31282 8.90601 6.56502 8.66734 6.89497 8.54893L18.3359 4.44313C19.0083 4.20183 19.749 4.5513 19.9903 5.22371L22.4468 12.0687C22.6881 12.7411 22.3386 13.4818 21.6662 13.7231L10.2253 17.8289C9.8967 17.9469 9.55179 17.9237 9.25683 17.7907Z" fill="#C12E00"/>
<path fill-rule="evenodd" clip-rule="evenodd" d="M9.03716 18.8697C9.01241 18.8458 8.96904 18.8627 8.96904 18.8971C8.96904 18.9293 8.93121 18.9464 8.90699 18.9253L5.44888 15.9074C4.47912 15.0611 4.47912 13.5535 5.44888 12.7072L8.90975 9.68686C8.93289 9.66666 8.96903 9.6831 8.96903 9.7138C8.96903 9.74669 9.01045 9.76282 9.03402 9.73989C9.26703 9.51317 9.58521 9.37354 9.936 9.37354H22.0913C22.8057 9.37354 23.3848 9.95267 23.3848 10.6671V17.9395C23.3848 18.6539 22.8057 19.233 22.0913 19.233H9.936C9.58678 19.233 9.26988 19.0946 9.03716 18.8697Z" fill="#FF6B00"/>
<path d="M16.636 16.3584V16.0114C16.636 15.763 16.6958 15.536 16.8154 15.3304C16.9375 15.1226 17.1144 14.9567 17.3461 14.8324C17.5803 14.7061 17.8631 14.6429 18.1945 14.6429C18.5333 14.6429 18.8174 14.705 19.0466 14.8292C19.2758 14.9534 19.449 15.1194 19.5661 15.3272C19.6857 15.5349 19.7455 15.763 19.7455 16.0114V16.3584C19.7455 16.6068 19.6857 16.8349 19.5661 17.0426C19.4465 17.2482 19.2709 17.4142 19.0391 17.5405C18.8099 17.6647 18.5284 17.7269 18.1945 17.7269C17.8581 17.7269 17.5741 17.6647 17.3424 17.5405C17.1106 17.4142 16.935 17.2482 16.8154 17.0426C16.6958 16.8349 16.636 16.6068 16.636 16.3584ZM17.5068 16.0114V16.3584C17.5068 16.5425 17.5579 16.7096 17.66 16.8595C17.7622 17.0094 17.9403 17.0844 18.1945 17.0844C18.4461 17.0844 18.6218 17.0094 18.7215 16.8595C18.8211 16.7096 18.871 16.5425 18.871 16.3584V16.0114C18.871 15.8272 18.8224 15.6602 18.7252 15.5103C18.6305 15.3604 18.4536 15.2854 18.1945 15.2854C17.9453 15.2854 17.7684 15.3604 17.6638 15.5103C17.5591 15.6602 17.5068 15.8272 17.5068 16.0114ZM12.7864 12.5934V12.2464C12.7864 11.998 12.8462 11.7699 12.9658 11.5622C13.0879 11.3544 13.2648 11.1885 13.4965 11.0643C13.7308 10.94 14.0136 10.8779 14.3449 10.8779C14.6838 10.8779 14.9678 10.94 15.1971 11.0643C15.4263 11.1885 15.5995 11.3544 15.7166 11.5622C15.8337 11.7699 15.8922 11.998 15.8922 12.2464V12.5934C15.8922 12.8418 15.8324 13.0699 15.7128 13.2776C15.5957 13.4832 15.4213 13.6492 15.1896 13.7755C14.9604 13.8998 14.6788 13.9619 14.3449 13.9619C14.0061 13.9619 13.7208 13.8998 13.4891 13.7755C13.2598 13.6492 13.0854 13.4832 12.9658 13.2776C12.8462 13.0699 12.7864 12.8418 12.7864 12.5934ZM13.661 12.2464V12.5934C13.661 12.7776 13.7108 12.9446 13.8105 13.0945C13.9126 13.2444 14.0908 13.3194 14.3449 13.3194C14.5941 13.3194 14.7685 13.2444 14.8682 13.0945C14.9703 12.9446 15.0214 12.7776 15.0214 12.5934V12.2464C15.0214 12.0622 14.9728 11.8952 14.8757 11.7453C14.7785 11.5954 14.6016 11.5204 14.3449 11.5204C14.0958 11.5204 13.9189 11.5954 13.8142 11.7453C13.7121 11.8952 13.661 12.0622 13.661 12.2464ZM13.1415 17.5919L18.4038 11.0129H19.297L14.0347 17.5919H13.1415Z" fill="white"/>
<circle cx="6.61986" cy="14.3017" r="1.01708" fill="white"/>
</svg>
