<svg width="16" height="18" viewBox="0 0 16 18" fill="none" xmlns="http://www.w3.org/2000/svg">
<g opacity="0.3">
<path d="M0.925049 1.95996V15.4234C0.925049 15.8693 1.11326 16.2981 1.44887 16.6138C1.78448 16.9296 2.24027 17.1066 2.7142 17.1066H11.3765V9.53329H4.1292V14.5829" stroke="white" stroke-width="1.1776" stroke-linecap="round" stroke-linejoin="round"/>
<path d="M11.3765 1.95996H4.12915V6.16689H10.2516" stroke="white" stroke-width="1.1776" stroke-linecap="round" stroke-linejoin="round"/>
<path d="M14.5784 17.1066V6.16689L11.3765 1.95996" stroke="white" stroke-width="1.1776" stroke-linecap="round" stroke-linejoin="round"/>
</g>
<path d="M1.56519 1.10669V14.5702C1.56519 15.016 1.7534 15.4448 2.08901 15.7606C2.42462 16.0763 2.88041 16.2534 3.35434 16.2534H12.0167V8.68002H4.76934V13.7296" stroke="white" stroke-width="1.1776" stroke-linecap="round" stroke-linejoin="round"/>
<path d="M12.0166 1.10669H4.76929V5.31362H10.8917" stroke="white" stroke-width="1.1776" stroke-linecap="round" stroke-linejoin="round"/>
<path d="M15.2185 16.2534V5.31362L12.0166 1.10669" stroke="white" stroke-width="1.1776" stroke-linecap="round" stroke-linejoin="round"/>
</svg>
