<svg width="21" height="20" viewBox="0 0 21 20" fill="none" xmlns="http://www.w3.org/2000/svg">
<g opacity="0.3">
<path d="M9.01651 13.7418C11.7836 13.7418 14.0271 11.4983 14.0271 8.73115C14.0271 5.96402 11.7836 3.72051 9.01651 3.72051C6.24938 3.72051 4.00586 5.96402 4.00586 8.73115C4.00586 11.4983 6.24938 13.7418 9.01651 13.7418Z" stroke="#FF6B00" stroke-width="2" stroke-linecap="round" stroke-linejoin="round"/>
<path d="M12.5664 12.278L17.1939 16.9055" stroke="#FF6B00" stroke-width="2" stroke-linecap="round" stroke-linejoin="round"/>
<path d="M14.457 14.1673L17.1944 16.9046" stroke="#FF6B00" stroke-width="2" stroke-linecap="round" stroke-linejoin="round"/>
<path d="M12.2691 8.06142C12.3116 8.27853 12.3372 8.4999 12.3372 8.72979C12.3372 9.08313 12.2819 9.42796 12.1797 9.74724" stroke="#FF6B00" stroke-width="2" stroke-linecap="round" stroke-linejoin="round"/>
<path d="M5.70508 8.73124C5.70508 8.24167 5.81151 7.7819 5.99882 7.3647C6.51819 6.21528 7.67612 5.41494 9.02137 5.41494" stroke="#FF6B00" stroke-width="2" stroke-linecap="round" stroke-linejoin="round"/>
</g>
<path d="M9.64346 13.1158C12.4106 13.1158 14.6541 10.8723 14.6541 8.10518C14.6541 5.33804 12.4106 3.09454 9.64346 3.09454C6.87633 3.09454 4.63281 5.33804 4.63281 8.10518C4.63281 10.8723 6.87633 13.1158 9.64346 13.1158Z" stroke="#FF6B00" stroke-linecap="round" stroke-linejoin="round"/>
<path d="M13.1934 11.6521L17.8209 16.2796" stroke="#FF6B00" stroke-linecap="round" stroke-linejoin="round"/>
<path d="M15.084 13.5406L17.8213 16.2779" stroke="#FF9B53" stroke-linecap="round" stroke-linejoin="round"/>
<path d="M12.896 7.43554C12.9386 7.65265 12.9642 7.87402 12.9642 8.10391C12.9642 8.45725 12.9088 8.80208 12.8066 9.12137" stroke="#FF9B53" stroke-linecap="round" stroke-linejoin="round"/>
<path d="M6.33203 8.10536C6.33203 7.61579 6.43846 7.15602 6.62577 6.73882C7.14514 5.58939 8.30307 4.78905 9.64833 4.78905" stroke="#FF9B53" stroke-linecap="round" stroke-linejoin="round"/>
</svg>
