<svg width="16" height="16" viewBox="0 0 16 16" fill="none" xmlns="http://www.w3.org/2000/svg">
<g opacity="0.3">
<path d="M6.01598 11.7121C8.78606 11.7121 11.0319 9.46623 11.0319 6.69615C11.0319 3.92607 8.78606 1.68018 6.01598 1.68018C3.2459 1.68018 1 3.92607 1 6.69615C1 9.46623 3.2459 11.7121 6.01598 11.7121Z" stroke="#4D4D4F" stroke-width="0.865117" stroke-linecap="round" stroke-linejoin="round"/>
<path d="M9.56982 10.2471L14.2022 14.8795" stroke="#4D4D4F" stroke-width="0.865117" stroke-linecap="round" stroke-linejoin="round"/>
<path d="M11.4629 12.1382L14.2031 14.8784" stroke="#4D4D4F" stroke-width="0.865117" stroke-linecap="round" stroke-linejoin="round"/>
<path d="M9.27161 6.02637C9.31422 6.24371 9.33981 6.46532 9.33981 6.69545C9.33981 7.04917 9.28441 7.39436 9.18213 7.71399" stroke="#4D4D4F" stroke-width="0.865117" stroke-linecap="round" stroke-linejoin="round"/>
<path d="M2.7002 6.69678C2.7002 6.20669 2.80674 5.74643 2.99425 5.32879C3.51417 4.17814 4.67333 3.37695 6.02002 3.37695" stroke="#4D4D4F" stroke-width="0.865117" stroke-linecap="round" stroke-linejoin="round"/>
</g>
<path d="M6.64245 11.0857C9.41252 11.0857 11.6584 8.83976 11.6584 6.06968C11.6584 3.2996 9.41252 1.05371 6.64245 1.05371C3.87237 1.05371 1.62646 3.2996 1.62646 6.06968C1.62646 8.83976 3.87237 11.0857 6.64245 11.0857Z" stroke="#4D4D4F" stroke-width="0.865117" stroke-linecap="round" stroke-linejoin="round"/>
<path d="M10.1963 9.62061L14.8287 14.253" stroke="#4D4D4F" stroke-width="0.865117" stroke-linecap="round" stroke-linejoin="round"/>
<path d="M12.0894 11.5117L14.8296 14.252" stroke="#4D4D4F" stroke-width="1.56627" stroke-linecap="round" stroke-linejoin="round"/>
<path d="M9.89807 5.3999C9.94069 5.61725 9.96627 5.83885 9.96627 6.06898C9.96627 6.4227 9.91087 6.7679 9.80859 7.08752" stroke="#4D4D4F" stroke-width="0.865117" stroke-linecap="round" stroke-linejoin="round"/>
<path d="M3.32715 6.07032C3.32715 5.58023 3.43369 5.11997 3.6212 4.70233C4.14113 3.55168 5.30029 2.75049 6.64697 2.75049" stroke="#4D4D4F" stroke-width="0.865117" stroke-linecap="round" stroke-linejoin="round"/>
</svg>
