<svg width="50" height="50" viewBox="0 0 50 50" fill="none" xmlns="http://www.w3.org/2000/svg">
<g opacity="0.3">
<path d="M28.9951 43.7702H20.6937C20.1967 43.7702 19.7541 43.4327 19.6143 42.9461L18.4029 38.6295C18.3252 38.3469 18.1388 38.1036 17.8826 37.9624L16.1353 36.9421C15.8868 36.793 15.584 36.7537 15.3044 36.8244L11.0023 37.9153C10.5131 38.0409 10.0083 37.8211 9.75982 37.3816L6.75455 32.1232C6.50605 31.6837 6.56818 31.1343 6.91763 30.7654L10.0083 27.5476C10.2102 27.3357 10.3267 27.0532 10.3267 26.7628V24.7222C10.3267 24.4318 10.2102 24.1493 10.0083 23.9374L6.91763 20.7196C6.56818 20.3585 6.49829 19.8013 6.75455 19.3618L9.75982 14.1034C10.0083 13.6639 10.5208 13.452 11.0023 13.5697L15.3044 14.6606C15.584 14.7313 15.8868 14.692 16.1353 14.5429L17.8826 13.5226C18.1311 13.3735 18.3175 13.1381 18.4029 12.8555L19.6143 8.53892C19.7541 8.05232 20.189 7.71484 20.6937 7.71484H26.7042C27.2012 7.71484 27.6439 8.05232 27.7837 8.53892L28.9951 12.8555C29.0727 13.1381 29.2591 13.3814 29.5154 13.5226L31.2626 14.5429C31.5111 14.692 31.814 14.7313 32.0935 14.6606L36.3957 13.5697C36.8849 13.4441 37.3896 13.6639 37.6381 14.1034L40.6434 19.3618C40.8919 19.8013 40.8298 20.3507 40.4803 20.7196L37.3896 23.9374C37.1877 24.1493 37.0713 24.4318 37.0713 24.7222V26.7628C37.0713 27.0532 37.1877 27.3357 37.3896 27.5476L40.4803 30.7654" stroke="#FF6B00" stroke-width="2.05181" stroke-miterlimit="10" stroke-linecap="round"/>
<path d="M41.6707 38.796L31.0678 28.1932C30.7798 27.9052 30.679 27.4842 30.7554 27.0841C30.9603 26.0113 30.909 24.9019 30.6013 23.8474C30.2317 22.5809 29.5078 21.4464 28.5149 20.5776C27.522 19.7088 26.3015 19.1419 24.9971 18.9437C24.2295 18.8271 23.4516 18.8411 22.6956 18.9813C21.9275 19.1238 21.7428 20.0535 22.2931 20.608L24.5667 22.8986C24.9994 23.3345 24.998 24.0383 24.5637 24.4726L22.6155 26.4209C22.1811 26.8552 21.4774 26.8565 21.0414 26.4238L18.7508 24.1503C18.1964 23.6 17.2666 23.7846 17.1241 24.5528C16.9839 25.3088 16.9699 26.0866 17.0866 26.8543C17.2847 28.1587 17.8516 29.3792 18.7204 30.3721C19.5892 31.365 20.7237 32.0889 21.9902 32.4584C23.0447 32.7661 24.1541 32.8175 25.227 32.6126C25.6271 32.5362 26.048 32.637 26.336 32.925L36.9388 43.5278C37.0963 43.6827 37.3084 43.7694 37.5293 43.7694C37.7502 43.7694 37.9622 43.6827 38.1198 43.5278L41.6707 39.977C41.8255 39.8194 41.9122 39.6074 41.9122 39.3865C41.9122 39.1656 41.8255 38.9535 41.6707 38.796Z" stroke="#FF6B00" stroke-width="2.05181"/>
</g>
<path d="M30.4824 42.2838H22.181C21.684 42.2838 21.2414 41.9463 21.1016 41.4598L19.8902 37.1432C19.8125 36.8606 19.6262 36.6173 19.3699 36.4761L17.6226 35.4558C17.3741 35.3066 17.0713 35.2674 16.7917 35.338L12.4896 36.429C12.0004 36.5545 11.4956 36.3348 11.2471 35.8953L8.24185 30.6369C7.99336 30.1974 8.05548 29.648 8.40493 29.2791L11.4956 26.0613C11.6975 25.8494 11.814 25.5668 11.814 25.2765V23.2359C11.814 22.9455 11.6975 22.663 11.4956 22.4511L8.40493 19.2332C8.05548 18.8722 7.98559 18.315 8.24185 17.8755L11.2471 12.6171C11.4956 12.1776 12.0081 11.9657 12.4896 12.0834L16.7917 13.1743C17.0713 13.2449 17.3741 13.2057 17.6226 13.0566L19.3699 12.0363C19.6184 11.8872 19.8048 11.6517 19.8902 11.3692L21.1016 7.05259C21.2414 6.56599 21.6763 6.22852 22.181 6.22852H28.1916C28.6885 6.22852 29.1312 6.56599 29.271 7.05259L30.4824 11.3692C30.56 11.6517 30.7464 11.895 31.0027 12.0363L32.7499 13.0566C32.9984 13.2057 33.3013 13.2449 33.5808 13.1743L37.883 12.0834C38.3722 11.9578 38.877 12.1776 39.1254 12.6171L42.1307 17.8755C42.3792 18.315 42.3171 18.8644 41.9676 19.2332L38.877 22.4511C38.675 22.663 38.5586 22.9455 38.5586 23.2359V25.2765C38.5586 25.5668 38.675 25.8494 38.877 26.0613L41.9676 29.2791" stroke="#FF6B00" stroke-width="2.05181" stroke-miterlimit="10" stroke-linecap="round"/>
<path d="M43.158 37.3096L32.5552 26.7068C32.2671 26.4188 32.1663 25.9979 32.2428 25.5978C32.4477 24.525 32.3963 23.4155 32.0886 22.361C31.719 21.0945 30.9951 19.96 30.0022 19.0912C29.0093 18.2224 27.7888 17.6556 26.4844 17.4574C25.7168 17.3408 24.9389 17.3547 24.1829 17.495C23.4148 17.6374 23.2301 18.5672 23.7805 19.1217L26.054 21.4123C26.4867 21.8482 26.4853 22.552 26.051 22.9863L24.1028 24.9346C23.6684 25.3689 22.9647 25.3702 22.5287 24.9375L20.2381 22.664C19.6837 22.1137 18.7539 22.2983 18.6114 23.0664C18.4712 23.8225 18.4573 24.6003 18.5739 25.368C18.772 26.6723 19.3389 27.8929 20.2077 28.8858C21.0765 29.8787 22.211 30.6026 23.4775 30.9721C24.532 31.2798 25.6414 31.3312 26.7143 31.1263C27.1144 31.0499 27.5353 31.1507 27.8233 31.4387L38.4261 42.0415C38.5836 42.1963 38.7957 42.2831 39.0166 42.2831C39.2375 42.2831 39.4495 42.1963 39.6071 42.0415L43.158 38.4906C43.3128 38.3331 43.3995 38.121 43.3995 37.9001C43.3995 37.6792 43.3128 37.4672 43.158 37.3096Z" stroke="#FF9B53" stroke-width="2.05181"/>
</svg>
