<svg width="26" height="17" viewBox="0 0 26 17" fill="none" xmlns="http://www.w3.org/2000/svg">
<path d="M5.68402 13.3339H4.21875V11.6836" stroke="#3D94FF" stroke-width="1.2" stroke-linecap="round" stroke-linejoin="round"/>
<path d="M4.21875 4.06434V1.05664H16.4963V13.3341H12.193" stroke="#3D94FF" stroke-width="1.2" stroke-linecap="round" stroke-linejoin="round"/>
<path d="M16.4902 3.15039H20.9375L24.5004 6.11695V13.3302H23.8886" stroke="#3D94FF" stroke-width="1.2" stroke-linecap="round" stroke-linejoin="round"/>
<path d="M16.1426 13.334H17.4742" stroke="#3D94FF" stroke-width="1.2" stroke-linecap="round" stroke-linejoin="round"/>
<path d="M18.5312 5.66016V9.28994H22.0685V6.78611L20.7472 5.6653H18.5312V5.66016Z" stroke="#3D94FF" stroke-width="1.2" stroke-linecap="round" stroke-linejoin="round"/>
<path d="M9.95215 5.65039H3.48438" stroke="#3D94FF" stroke-width="1.2" stroke-linecap="round" stroke-linejoin="round"/>
<path d="M8.58375 7.98438H2.12109" stroke="#3D94FF" stroke-width="1.2" stroke-linecap="round" stroke-linejoin="round"/>
<path d="M7.21657 10.3184H0.753906" stroke="#3D94FF" stroke-width="1.2" stroke-linecap="round" stroke-linejoin="round"/>
<path d="M8.88255 16.1908C9.89025 16.1908 10.7026 15.3734 10.7026 14.3708C10.7026 13.3682 9.88511 12.5508 8.88255 12.5508C7.87999 12.5508 7.0625 13.3682 7.0625 14.3708C7.0625 15.3734 7.87999 16.1908 8.88255 16.1908Z" stroke="#3D94FF" stroke-width="1.2" stroke-linecap="round" stroke-linejoin="round"/>
<path d="M20.6501 16.1908C21.6578 16.1908 22.4702 15.3734 22.4702 14.3708C22.4702 13.3682 21.6527 12.5508 20.6501 12.5508C19.6475 12.5508 18.8301 13.3682 18.8301 14.3708C18.8301 15.3734 19.6475 16.1908 20.6501 16.1908Z" stroke="#3D94FF" stroke-width="1.2" stroke-linecap="round" stroke-linejoin="round"/>
</svg>
