<svg width="65" height="44" viewBox="0 0 65 44" fill="none" xmlns="http://www.w3.org/2000/svg">
<g opacity="0.3">
<path d="M14.6182 35.2299H10.8809V31.0413" stroke="#FF6B00" stroke-width="2.66203" stroke-linecap="round" stroke-linejoin="round"/>
<path d="M10.8809 11.7181V4.08447H42.1957V35.2453H31.2198" stroke="#FF6B00" stroke-width="2.66203" stroke-linecap="round" stroke-linejoin="round"/>
<path d="M42.1797 9.40747H53.5228L62.6104 16.9367V35.2443H61.0499" stroke="#FF6B00" stroke-width="2.66203" stroke-linecap="round" stroke-linejoin="round"/>
<path d="M41.2891 35.2449H44.6854" stroke="#FF6B00" stroke-width="2.66203" stroke-linecap="round" stroke-linejoin="round"/>
<path d="M47.3887 15.7622V24.9747H56.4107V18.6199L53.0406 15.7753H47.3887V15.7622Z" stroke="#FF6B00" stroke-width="2.66203" stroke-linecap="round" stroke-linejoin="round"/>
<path d="M25.5005 15.7537H9.00391" stroke="#FF6B00" stroke-width="2.66203" stroke-linecap="round" stroke-linejoin="round"/>
<path d="M22.0129 21.6619H5.5293" stroke="#FF6B00" stroke-width="2.66203" stroke-linecap="round" stroke-linejoin="round"/>
<path d="M18.5246 27.5869H2.04102" stroke="#FF6B00" stroke-width="2.66203" stroke-linecap="round" stroke-linejoin="round"/>
<path d="M22.7731 42.5018C25.3433 42.5018 27.4152 40.427 27.4152 37.8825C27.4152 35.3379 25.3302 33.2632 22.7731 33.2632C20.2159 33.2632 18.1309 35.3379 18.1309 37.8825C18.1309 40.427 20.2159 42.5018 22.7731 42.5018Z" stroke="#FF6B00" stroke-width="2.66203" stroke-linecap="round" stroke-linejoin="round"/>
<path d="M52.7906 42.5018C55.3608 42.5018 57.4328 40.427 57.4328 37.8825C57.4328 35.3379 55.3477 33.2632 52.7906 33.2632C50.2334 33.2632 48.1484 35.3379 48.1484 37.8825C48.1484 40.427 50.2334 42.5018 52.7906 42.5018Z" stroke="#FF6B00" stroke-width="2.66203" stroke-linecap="round" stroke-linejoin="round"/>
</g>
<path d="M15.4267 33.309H11.6895V29.1204" stroke="#FF6B00" stroke-width="2.66203" stroke-linecap="round" stroke-linejoin="round"/>
<path d="M11.6895 9.79724V2.16357H43.0043V33.3244H32.0284" stroke="#FF6B00" stroke-width="2.66203" stroke-linecap="round" stroke-linejoin="round"/>
<path d="M42.9883 7.48657H54.3314L63.419 15.0158V33.3234H61.8585" stroke="#FF6B00" stroke-width="2.66203" stroke-linecap="round" stroke-linejoin="round"/>
<path d="M42.0977 33.324H45.494" stroke="#FF6B00" stroke-width="2.66203" stroke-linecap="round" stroke-linejoin="round"/>
<path d="M48.1973 13.8413V23.0538H57.2193V16.699L53.8492 13.8544H48.1973V13.8413Z" stroke="#FF6B00" stroke-width="2.66203" stroke-linecap="round" stroke-linejoin="round"/>
<path d="M26.3091 13.8328H9.8125" stroke="#FF9B53" stroke-width="2.66203" stroke-linecap="round" stroke-linejoin="round"/>
<path d="M22.8215 19.741H6.33789" stroke="#FF9B53" stroke-width="2.66203" stroke-linecap="round" stroke-linejoin="round"/>
<path d="M19.3332 25.666H2.84961" stroke="#FF9B53" stroke-width="2.66203" stroke-linecap="round" stroke-linejoin="round"/>
<path d="M23.5817 40.5809C26.1519 40.5809 28.2238 38.5061 28.2238 35.9616C28.2238 33.417 26.1388 31.3423 23.5817 31.3423C21.0245 31.3423 18.9395 33.417 18.9395 35.9616C18.9395 38.5061 21.0245 40.5809 23.5817 40.5809Z" stroke="#FF9B53" stroke-width="2.66203" stroke-linecap="round" stroke-linejoin="round"/>
<path d="M53.5992 40.5809C56.1694 40.5809 58.2414 38.5061 58.2414 35.9616C58.2414 33.417 56.1563 31.3423 53.5992 31.3423C51.042 31.3423 48.957 33.417 48.957 35.9616C48.957 38.5061 51.042 40.5809 53.5992 40.5809Z" stroke="#FF9B53" stroke-width="2.66203" stroke-linecap="round" stroke-linejoin="round"/>
</svg>
