<svg width="13" height="13" viewBox="0 0 13 13" fill="none" xmlns="http://www.w3.org/2000/svg">
<g opacity="0.3">
<path d="M9.92204 5.09869V10.9226C9.92204 11.2035 9.80886 11.4728 9.6074 11.6714C9.40594 11.87 9.13271 11.9815 8.8478 11.9815H3.47659C3.19168 11.9815 2.91844 11.87 2.71698 11.6714C2.51552 11.4728 2.40234 11.2035 2.40234 10.9226V5.09869" stroke="#4D4D4F" stroke-width="0.9375" stroke-linecap="round" stroke-linejoin="round"/>
<path d="M7.23638 6.15784V9.33452M5.08789 6.15784V9.33452" stroke="#4D4D4F" stroke-width="0.9375" stroke-linecap="round" stroke-linejoin="round"/>
<path d="M1.32812 3.51013H8.3107M8.3107 3.51013H10.9963M8.3107 3.51013V2.45123C8.3107 2.17039 8.19752 1.90106 7.99606 1.70248C7.7946 1.5039 7.52137 1.39233 7.23646 1.39233H5.08797C4.80307 1.39233 4.52983 1.5039 4.32837 1.70248C4.2614 1.76849 4.20419 1.84231 4.15765 1.92178" stroke="#4D4D4F" stroke-width="0.9375" stroke-linecap="round" stroke-linejoin="round"/>
</g>
<path d="M10.5353 4.63831V10.4622C10.5353 10.7431 10.4221 11.0124 10.2207 11.211C10.0192 11.4096 9.74599 11.5211 9.46108 11.5211H4.08987C3.80496 11.5211 3.53172 11.4096 3.33026 11.211C3.1288 11.0124 3.01562 10.7431 3.01562 10.4622V4.63831" stroke="#4D4D4F" stroke-width="0.9375" stroke-linecap="round" stroke-linejoin="round"/>
<path d="M7.84966 5.69763V8.87432M5.70117 5.69763V8.87432" stroke="#4D4D4F" stroke-width="0.9375" stroke-linecap="round" stroke-linejoin="round"/>
<path d="M1.94141 3.05023H8.92398M8.92398 3.05023H11.6096M8.92398 3.05023V1.99133C8.92398 1.71049 8.8108 1.44116 8.60934 1.24258C8.40788 1.044 8.13465 0.932434 7.84974 0.932434H5.70126C5.41635 0.932434 5.14311 1.044 4.94165 1.24258C4.87469 1.30859 4.81747 1.38241 4.77093 1.46188" stroke="#4D4D4F" stroke-width="0.9375" stroke-linecap="round" stroke-linejoin="round"/>
</svg>
