<svg width="30" height="27" viewBox="0 0 30 27" fill="none" xmlns="http://www.w3.org/2000/svg">
<g opacity="0.3">
<path d="M1 22.9959V5.08923C1 3.67623 2.1426 2.53363 3.5556 2.53363H21.4623C22.8753 2.53363 24.0179 3.67623 24.0179 5.08923V12.7648" stroke="#FF6B00" stroke-width="1.77061" stroke-linecap="round" stroke-linejoin="round"/>
<path d="M21.4707 25.5587H3.56396L17.6329 11.4897L21.4707 15.3275" stroke="#FF6B00" stroke-width="1.77061" stroke-linecap="round" stroke-linejoin="round"/>
<path d="M8.52645 12.2766C9.74756 12.2766 10.7419 11.2823 10.7419 10.0611C10.7419 8.84004 9.74756 7.8457 8.52645 7.8457C7.30535 7.8457 6.31104 8.84004 6.31104 10.0611C6.31104 11.2823 7.30535 12.2766 8.52645 12.2766Z" stroke="#FF6B00" stroke-width="1.77061" stroke-linecap="round" stroke-linejoin="round"/>
<path d="M27.7188 21.3407L23.9766 17.5985L20.2344 21.3407" stroke="#FF6B00" stroke-width="1.7695" stroke-linecap="round" stroke-linejoin="round"/>
<path d="M24.1035 18.1509L24.1035 25.6122" stroke="#FF6B00" stroke-width="1.7695" stroke-linecap="round" stroke-linejoin="round"/>
</g>
<path d="M2.28198 21.7123V3.8056C2.28198 2.3926 3.42458 1.25 4.83758 1.25H22.7443C24.1573 1.25 25.2999 2.3926 25.2999 3.8056V11.4811" stroke="#FF6B00" stroke-width="1.77061" stroke-linecap="round" stroke-linejoin="round"/>
<path d="M22.7526 24.275H4.84595L18.9149 10.2061L22.7526 14.0439" stroke="#FF9B53" stroke-width="1.77061" stroke-linecap="round" stroke-linejoin="round"/>
<path d="M9.80844 10.9929C11.0295 10.9929 12.0239 9.99863 12.0239 8.77752C12.0239 7.55641 11.0295 6.56207 9.80844 6.56207C8.58733 6.56207 7.59302 7.55641 7.59302 8.77752C7.59302 9.99863 8.58733 10.9929 9.80844 10.9929Z" stroke="#FF9B53" stroke-width="1.77061" stroke-linecap="round" stroke-linejoin="round"/>
<path d="M28.9998 20.0571L25.2576 16.3149L21.5154 20.0571" stroke="#FF9B53" stroke-width="1.7695" stroke-linecap="round" stroke-linejoin="round"/>
<path d="M25.3845 16.8672L25.3845 24.3286" stroke="#FF9B53" stroke-width="1.7695" stroke-linecap="round" stroke-linejoin="round"/>
</svg>
