<svg width="25" height="24" viewBox="0 0 25 24" fill="none" xmlns="http://www.w3.org/2000/svg">
<g opacity="0.3">
<path d="M1.8252 20.9998V19.6079C1.8252 17.2714 3.71979 15.3824 6.05072 15.3824H7.61081M21.1135 20.9998V19.6079C21.1135 17.277 19.2244 15.3824 16.8879 15.3824H15.325" stroke="#FF6B00" stroke-width="1.5" stroke-linecap="round" stroke-linejoin="round"/>
<path d="M11.4699 16.5923C14.9994 16.5923 17.8551 13.7311 17.8551 10.2015C17.8551 6.67199 14.9939 3.81079 11.4699 3.81079C7.94583 3.81079 5.0791 6.67199 5.0791 10.2015C5.0791 13.7311 7.9403 16.5923 11.4699 16.5923Z" stroke="#FF6B00" stroke-width="1.5" stroke-linecap="round" stroke-linejoin="round"/>
</g>
<path d="M2.63965 20.1886V18.7967C2.63965 16.4602 4.53424 14.5712 6.86518 14.5712H8.42526M21.9279 20.1886V18.7967C21.9279 16.4657 20.0388 14.5712 17.7024 14.5712H16.1394" stroke="#FF9B53" stroke-width="1.5" stroke-linecap="round" stroke-linejoin="round"/>
<path d="M12.2843 15.7815C15.8139 15.7815 18.6695 12.9203 18.6695 9.39075C18.6695 5.8612 15.8083 3 12.2843 3C8.76028 3 5.89355 5.8612 5.89355 9.39075C5.89355 12.9203 8.75476 15.7815 12.2843 15.7815Z" stroke="#FF6B00" stroke-width="1.5" stroke-linecap="round" stroke-linejoin="round"/>
</svg>
