<svg width="21" height="14" viewBox="0 0 21 14" fill="none" xmlns="http://www.w3.org/2000/svg">
<g opacity="0.3">
<path d="M11.9887 3.88623H2C1.44772 3.88623 1 4.33395 1 4.88623V12.369C1 12.9213 1.44772 13.369 2 13.369H15.0371C15.5894 13.369 16.0371 12.9213 16.0371 12.369V8.03494" stroke="#3D94FF" stroke-linecap="round"/>
<path d="M18.6721 6.89501C19.2317 6.89501 19.6812 6.42968 19.6812 5.86096C19.6812 5.29223 19.2271 4.8269 18.6721 4.8269C18.1171 4.8269 17.6631 5.29223 17.6631 5.86096C17.6631 6.42968 18.1171 6.89501 18.6721 6.89501Z" fill="#3D94FF" stroke="#3D94FF" stroke-width="0.8" stroke-linecap="round" stroke-linejoin="round"/>
<path d="M15.805 3.35888C16.3645 3.35888 16.814 2.89355 16.814 2.32482C16.814 1.7561 16.3599 1.29077 15.805 1.29077C15.25 1.29077 14.7959 1.7561 14.7959 2.32482C14.7959 2.89355 15.25 3.35888 15.805 3.35888Z" fill="#3D94FF" stroke="#3D94FF" stroke-width="0.8" stroke-linecap="round" stroke-linejoin="round"/>
<path d="M19.079 2.323L15.2227 6.27484L19.079 2.323Z" fill="#3D94FF"/>
<path d="M19.079 2.323L15.2227 6.27484" stroke="#3D94FF" stroke-width="0.8" stroke-linecap="round" stroke-linejoin="round"/>
</g>
<path d="M12.394 3.39136H2.40527C1.85299 3.39136 1.40527 3.83907 1.40527 4.39136V11.8741C1.40527 12.4264 1.85299 12.8741 2.40527 12.8741H15.4424C15.9947 12.8741 16.4424 12.4264 16.4424 11.8741V7.54007" stroke="#3D94FF" stroke-linecap="round"/>
<path d="M19.1165 6.35424C19.6761 6.35424 20.1256 5.88891 20.1256 5.32019C20.1256 4.75146 19.6715 4.28613 19.1165 4.28613C18.5615 4.28613 18.1074 4.75146 18.1074 5.32019C18.1074 5.88891 18.5615 6.35424 19.1165 6.35424Z" stroke="#3D94FF" stroke-width="0.8" stroke-linecap="round" stroke-linejoin="round"/>
<path d="M16.2493 2.81811C16.8089 2.81811 17.2584 2.35278 17.2584 1.78405C17.2584 1.21533 16.8043 0.75 16.2493 0.75C15.6943 0.75 15.2402 1.21533 15.2402 1.78405C15.2402 2.35278 15.6943 2.81811 16.2493 2.81811Z" stroke="#3D94FF" stroke-width="0.8" stroke-linecap="round" stroke-linejoin="round"/>
<path d="M19.5233 1.78223L15.667 5.73407" stroke="#3D94FF" stroke-width="0.8" stroke-linecap="round" stroke-linejoin="round"/>
<g opacity="0.3">
<mask id="path-10-outside-1_5530_109448" maskUnits="userSpaceOnUse" x="3.29297" y="6.70581" width="11" height="5" fill="black">
<rect fill="white" x="3.29297" y="6.70581" width="11" height="5"/>
<path d="M6.95864 6.84481C7.03564 6.84481 7.10164 6.87048 7.15664 6.92181C7.21164 6.97314 7.23914 7.03548 7.23914 7.10881C7.23914 7.14914 7.22998 7.19131 7.21164 7.23531L5.82014 10.5243C5.79081 10.5866 5.75048 10.6325 5.69914 10.6618C5.65148 10.6911 5.60198 10.7058 5.55064 10.7058C5.49931 10.7021 5.44981 10.6856 5.40214 10.6563C5.35814 10.627 5.32331 10.5848 5.29764 10.5298L3.90614 7.23531C3.89881 7.21698 3.89331 7.19864 3.88964 7.18031C3.88598 7.15831 3.88414 7.13631 3.88414 7.11431C3.88414 7.02998 3.91531 6.96398 3.97764 6.91631C4.03998 6.86864 4.10048 6.84481 4.15914 6.84481C4.27648 6.84481 4.36264 6.90531 4.41764 7.02631L5.67714 10.0128H5.51764L6.70564 7.02081C6.75698 6.90348 6.84131 6.84481 6.95864 6.84481ZM9.04671 7.57081L7.80921 10.5408C7.78721 10.5995 7.75421 10.6453 7.71021 10.6783C7.66621 10.7113 7.61671 10.7278 7.56171 10.7278C7.48104 10.7278 7.42054 10.7058 7.38021 10.6618C7.33988 10.6141 7.31788 10.5555 7.31421 10.4858C7.31421 10.4601 7.31971 10.4308 7.33071 10.3978L8.72771 7.02081C8.75338 6.95848 8.79004 6.91081 8.83771 6.87781C8.88904 6.84481 8.94404 6.83014 9.00271 6.83381C9.05771 6.83381 9.10904 6.85031 9.15671 6.88331C9.20438 6.91631 9.23921 6.96214 9.26121 7.02081L10.6417 10.3483C10.6564 10.385 10.6637 10.4216 10.6637 10.4583C10.6637 10.539 10.6362 10.605 10.5812 10.6563C10.5299 10.704 10.4712 10.7278 10.4052 10.7278C10.3502 10.7278 10.2989 10.7113 10.2512 10.6783C10.2072 10.6416 10.1742 10.5958 10.1522 10.5408L8.90371 7.58731L9.04671 7.57081ZM8.02921 9.75981L8.27671 9.23181H9.83321L9.92671 9.75981H8.02921ZM12.1806 10.7058C12.0926 10.7058 12.0211 10.6801 11.9661 10.6288C11.9148 10.5738 11.8891 10.506 11.8891 10.4253V7.13081H12.4776V10.4253C12.4776 10.506 12.4483 10.5738 12.3896 10.6288C12.3346 10.6801 12.2649 10.7058 12.1806 10.7058ZM10.9321 7.38381C10.8551 7.38381 10.7891 7.35998 10.7341 7.31231C10.6791 7.26098 10.6516 7.19498 10.6516 7.11431C10.6516 7.03731 10.6791 6.97498 10.7341 6.92731C10.7891 6.87964 10.8551 6.85581 10.9321 6.85581H13.4346C13.5116 6.85581 13.5758 6.88148 13.6271 6.93281C13.6821 6.98048 13.7096 7.04281 13.7096 7.11981C13.7096 7.20048 13.6821 7.26464 13.6271 7.31231C13.5758 7.35998 13.5116 7.38381 13.4346 7.38381H10.9321Z"/>
</mask>
<path d="M6.95864 6.84481C7.03564 6.84481 7.10164 6.87048 7.15664 6.92181C7.21164 6.97314 7.23914 7.03548 7.23914 7.10881C7.23914 7.14914 7.22998 7.19131 7.21164 7.23531L5.82014 10.5243C5.79081 10.5866 5.75048 10.6325 5.69914 10.6618C5.65148 10.6911 5.60198 10.7058 5.55064 10.7058C5.49931 10.7021 5.44981 10.6856 5.40214 10.6563C5.35814 10.627 5.32331 10.5848 5.29764 10.5298L3.90614 7.23531C3.89881 7.21698 3.89331 7.19864 3.88964 7.18031C3.88598 7.15831 3.88414 7.13631 3.88414 7.11431C3.88414 7.02998 3.91531 6.96398 3.97764 6.91631C4.03998 6.86864 4.10048 6.84481 4.15914 6.84481C4.27648 6.84481 4.36264 6.90531 4.41764 7.02631L5.67714 10.0128H5.51764L6.70564 7.02081C6.75698 6.90348 6.84131 6.84481 6.95864 6.84481ZM9.04671 7.57081L7.80921 10.5408C7.78721 10.5995 7.75421 10.6453 7.71021 10.6783C7.66621 10.7113 7.61671 10.7278 7.56171 10.7278C7.48104 10.7278 7.42054 10.7058 7.38021 10.6618C7.33988 10.6141 7.31788 10.5555 7.31421 10.4858C7.31421 10.4601 7.31971 10.4308 7.33071 10.3978L8.72771 7.02081C8.75338 6.95848 8.79004 6.91081 8.83771 6.87781C8.88904 6.84481 8.94404 6.83014 9.00271 6.83381C9.05771 6.83381 9.10904 6.85031 9.15671 6.88331C9.20438 6.91631 9.23921 6.96214 9.26121 7.02081L10.6417 10.3483C10.6564 10.385 10.6637 10.4216 10.6637 10.4583C10.6637 10.539 10.6362 10.605 10.5812 10.6563C10.5299 10.704 10.4712 10.7278 10.4052 10.7278C10.3502 10.7278 10.2989 10.7113 10.2512 10.6783C10.2072 10.6416 10.1742 10.5958 10.1522 10.5408L8.90371 7.58731L9.04671 7.57081ZM8.02921 9.75981L8.27671 9.23181H9.83321L9.92671 9.75981H8.02921ZM12.1806 10.7058C12.0926 10.7058 12.0211 10.6801 11.9661 10.6288C11.9148 10.5738 11.8891 10.506 11.8891 10.4253V7.13081H12.4776V10.4253C12.4776 10.506 12.4483 10.5738 12.3896 10.6288C12.3346 10.6801 12.2649 10.7058 12.1806 10.7058ZM10.9321 7.38381C10.8551 7.38381 10.7891 7.35998 10.7341 7.31231C10.6791 7.26098 10.6516 7.19498 10.6516 7.11431C10.6516 7.03731 10.6791 6.97498 10.7341 6.92731C10.7891 6.87964 10.8551 6.85581 10.9321 6.85581H13.4346C13.5116 6.85581 13.5758 6.88148 13.6271 6.93281C13.6821 6.98048 13.7096 7.04281 13.7096 7.11981C13.7096 7.20048 13.6821 7.26464 13.6271 7.31231C13.5758 7.35998 13.5116 7.38381 13.4346 7.38381H10.9321Z" fill="#3D94FF"/>
<path d="M7.21164 7.23531L7.30374 7.27427L7.30395 7.27377L7.21164 7.23531ZM5.82014 10.5243L5.9107 10.5669L5.91224 10.5633L5.82014 10.5243ZM5.69914 10.6618L5.6495 10.5749L5.64673 10.5766L5.69914 10.6618ZM5.55064 10.7058L5.5435 10.8058H5.55064V10.7058ZM5.40214 10.6563L5.34664 10.7396L5.34973 10.7415L5.40214 10.6563ZM5.29764 10.5298L5.20546 10.5687L5.20702 10.5721L5.29764 10.5298ZM3.90614 7.23531L3.81328 7.27246L3.81402 7.27422L3.90614 7.23531ZM3.88964 7.18031L3.79095 7.19676L3.79158 7.19992L3.88964 7.18031ZM3.97764 6.91631L4.03839 6.99575L4.03839 6.99575L3.97764 6.91631ZM4.41764 7.02631L4.50982 6.98744L4.50868 6.98493L4.41764 7.02631ZM5.67714 10.0128V10.1128H5.82784L5.76928 9.97395L5.67714 10.0128ZM5.51764 10.0128L5.4247 9.97591L5.37034 10.1128H5.51764V10.0128ZM6.70564 7.02081L6.61397 6.9807L6.6127 6.98391L6.70564 7.02081ZM6.95864 6.94481C7.01097 6.94481 7.0524 6.96131 7.08841 6.99492L7.22487 6.8487C7.15088 6.77964 7.06031 6.74481 6.95864 6.74481V6.94481ZM7.08841 6.99492C7.12374 7.02789 7.13914 7.064 7.13914 7.10881H7.33914C7.33914 7.00696 7.29954 6.9184 7.22487 6.8487L7.08841 6.99492ZM7.13914 7.10881C7.13914 7.13377 7.1335 7.16286 7.11933 7.19685L7.30395 7.27377C7.32645 7.21976 7.33914 7.16452 7.33914 7.10881H7.13914ZM7.11955 7.19635L5.72805 10.4853L5.91224 10.5633L7.30374 7.27427L7.11955 7.19635ZM5.72966 10.4817C5.70759 10.5286 5.6802 10.5575 5.64953 10.575L5.74876 10.7486C5.82075 10.7075 5.87403 10.6447 5.91062 10.5669L5.72966 10.4817ZM5.64673 10.5766C5.61335 10.5972 5.58181 10.6058 5.55064 10.6058V10.8058C5.62214 10.8058 5.6896 10.7851 5.75155 10.747L5.64673 10.5766ZM5.55777 10.6061C5.52386 10.6036 5.48974 10.5928 5.45455 10.5711L5.34973 10.7415C5.40988 10.7785 5.47476 10.8006 5.54352 10.8056L5.55777 10.6061ZM5.45761 10.5731C5.431 10.5554 5.40735 10.5284 5.38826 10.4875L5.20702 10.5721C5.23927 10.6412 5.28529 10.6986 5.34667 10.7395L5.45761 10.5731ZM5.38976 10.4909L3.99826 7.1964L3.81402 7.27422L5.20552 10.5687L5.38976 10.4909ZM3.99899 7.19817C3.9938 7.18519 3.9901 7.17272 3.9877 7.1607L3.79158 7.19992C3.79651 7.22457 3.80382 7.24876 3.81329 7.27245L3.99899 7.19817ZM3.98828 7.16387C3.98551 7.14723 3.98414 7.13073 3.98414 7.11431H3.78414C3.78414 7.14189 3.78644 7.16939 3.791 7.19675L3.98828 7.16387ZM3.98414 7.11431C3.98414 7.05843 4.00286 7.02291 4.03839 6.99575L3.9169 6.83687C3.82776 6.90504 3.78414 7.00152 3.78414 7.11431H3.98414ZM4.03839 6.99575C4.08913 6.95694 4.12881 6.94481 4.15914 6.94481V6.74481C4.07214 6.74481 3.99082 6.78035 3.9169 6.83687L4.03839 6.99575ZM4.15914 6.94481C4.1997 6.94481 4.22996 6.95493 4.2543 6.97203C4.27942 6.98966 4.30458 7.01923 4.32661 7.06769L4.50868 6.98493C4.47571 6.91239 4.43028 6.85121 4.36923 6.80834C4.30741 6.76494 4.23592 6.74481 4.15914 6.74481V6.94481ZM4.3255 7.06517L5.585 10.0517L5.76928 9.97395L4.50978 6.98745L4.3255 7.06517ZM5.67714 9.91281H5.51764V10.1128H5.67714V9.91281ZM5.61058 10.0497L6.79858 7.05771L6.6127 6.98391L5.4247 9.97591L5.61058 10.0497ZM6.79726 7.06089C6.81734 7.015 6.84083 6.98737 6.8645 6.9709C6.8876 6.95483 6.91739 6.94481 6.95864 6.94481V6.74481C6.88256 6.74481 6.81152 6.76412 6.75029 6.80672C6.68963 6.84892 6.64528 6.90929 6.61403 6.98073L6.79726 7.06089ZM9.04671 7.57081L9.13902 7.60927L9.20458 7.45193L9.03525 7.47147L9.04671 7.57081ZM7.80921 10.5408L7.71684 10.5023L7.71558 10.5057L7.80921 10.5408ZM7.71021 10.6783L7.77021 10.7583L7.71021 10.6783ZM7.38021 10.6618L7.30381 10.7265L7.30649 10.7294L7.38021 10.6618ZM7.31421 10.4858H7.21407L7.21435 10.4911L7.31421 10.4858ZM7.33071 10.3978L7.23807 10.3595L7.23584 10.3662L7.33071 10.3978ZM8.72771 7.02081L8.82011 7.05904L8.82018 7.05889L8.72771 7.02081ZM8.83771 6.87781L8.7836 6.79364L8.78079 6.79559L8.83771 6.87781ZM9.00271 6.83381L8.99646 6.93381H9.00271V6.83381ZM9.15671 6.88331L9.09979 6.96553V6.96553L9.15671 6.88331ZM9.26121 7.02081L9.16752 7.05594L9.16884 7.05913L9.26121 7.02081ZM10.6417 10.3483L10.7346 10.3112L10.7341 10.31L10.6417 10.3483ZM10.5812 10.6563L10.6493 10.7296L10.6494 10.7294L10.5812 10.6563ZM10.2512 10.6783L10.1869 10.7554L10.1943 10.7605L10.2512 10.6783ZM10.1522 10.5408L10.2451 10.5037L10.2443 10.5019L10.1522 10.5408ZM8.90371 7.58731L8.89225 7.48797L8.75962 7.50327L8.8116 7.62625L8.90371 7.58731ZM8.02921 9.75981L7.93866 9.71737L7.87189 9.85981H8.02921V9.75981ZM8.27671 9.23181V9.13181H8.21314L8.18616 9.18937L8.27671 9.23181ZM9.83321 9.23181L9.93168 9.21437L9.91706 9.13181H9.83321V9.23181ZM9.92671 9.75981V9.85981H10.046L10.0252 9.74237L9.92671 9.75981ZM8.9544 7.53235L7.7169 10.5023L7.90152 10.5793L9.13902 7.60927L8.9544 7.53235ZM7.71558 10.5057C7.69932 10.5491 7.6769 10.5783 7.65021 10.5983L7.77021 10.7583C7.83152 10.7123 7.8751 10.6499 7.90284 10.5759L7.71558 10.5057ZM7.65021 10.5983C7.62352 10.6183 7.59507 10.6278 7.56171 10.6278V10.8278C7.63835 10.8278 7.7089 10.8043 7.77021 10.7583L7.65021 10.5983ZM7.56171 10.6278C7.4988 10.6278 7.46934 10.6111 7.45392 10.5942L7.30649 10.7294C7.37174 10.8006 7.46328 10.8278 7.56171 10.8278V10.6278ZM7.45655 10.5972C7.43197 10.5682 7.41673 10.5311 7.41407 10.4806L7.21435 10.4911C7.21902 10.5799 7.24778 10.6601 7.30387 10.7264L7.45655 10.5972ZM7.41421 10.4858C7.41421 10.4739 7.41685 10.4556 7.42558 10.4294L7.23584 10.3662C7.22257 10.406 7.21421 10.4463 7.21421 10.4858H7.41421ZM7.42311 10.436L8.82011 7.05904L8.6353 6.98258L7.2383 10.3596L7.42311 10.436ZM8.82018 7.05889C8.83972 7.01142 8.86527 6.98036 8.89463 6.96003L8.78079 6.79559C8.71482 6.84126 8.66703 6.90553 8.63524 6.98274L8.82018 7.05889ZM8.89178 6.96193C8.92593 6.93998 8.95992 6.93133 8.99647 6.93362L9.00895 6.734C8.92817 6.72896 8.85215 6.74964 8.78363 6.79369L8.89178 6.96193ZM9.00271 6.93381C9.03623 6.93381 9.06789 6.94344 9.09979 6.96553L9.21363 6.80109C9.1502 6.75718 9.07918 6.73381 9.00271 6.73381V6.93381ZM9.09979 6.96553C9.12934 6.98599 9.15212 7.01471 9.16758 7.05592L9.35484 6.9857C9.3263 6.90958 9.27941 6.84663 9.21363 6.80109L9.09979 6.96553ZM9.16884 7.05913L10.5493 10.3866L10.7341 10.31L9.35358 6.98249L9.16884 7.05913ZM10.5489 10.3854C10.5592 10.4112 10.5637 10.4353 10.5637 10.4583H10.7637C10.7637 10.408 10.7536 10.3587 10.7346 10.3112L10.5489 10.3854ZM10.5637 10.4583C10.5637 10.5135 10.5461 10.5523 10.513 10.5832L10.6494 10.7294C10.7263 10.6577 10.7637 10.5645 10.7637 10.4583H10.5637ZM10.5132 10.583C10.4791 10.6147 10.4443 10.6278 10.4052 10.6278V10.8278C10.4981 10.8278 10.5807 10.7933 10.6493 10.7296L10.5132 10.583ZM10.4052 10.6278C10.3717 10.6278 10.34 10.6182 10.3081 10.5961L10.1943 10.7605C10.2577 10.8044 10.3287 10.8278 10.4052 10.8278V10.6278ZM10.3152 10.6015C10.2844 10.5758 10.2611 10.5438 10.2451 10.5037L10.0594 10.5779C10.0873 10.6478 10.13 10.7075 10.1872 10.7551L10.3152 10.6015ZM10.2443 10.5019L8.99582 7.54837L8.8116 7.62625L10.0601 10.5797L10.2443 10.5019ZM8.91517 7.68665L9.05817 7.67015L9.03525 7.47147L8.89225 7.48797L8.91517 7.68665ZM8.11975 9.80225L8.36725 9.27425L8.18616 9.18937L7.93866 9.71737L8.11975 9.80225ZM8.27671 9.33181H9.83321V9.13181H8.27671V9.33181ZM9.73474 9.24925L9.82824 9.77725L10.0252 9.74237L9.93168 9.21437L9.73474 9.24925ZM9.92671 9.65981H8.02921V9.85981H9.92671V9.65981ZM11.9661 10.6288L11.8928 10.6972L11.8979 10.7019L11.9661 10.6288ZM11.8891 7.13081V7.03081H11.7891V7.13081H11.8891ZM12.4776 7.13081H12.5776V7.03081H12.4776V7.13081ZM12.3896 10.6288L12.4578 10.7019L12.458 10.7018L12.3896 10.6288ZM10.7341 7.31231L10.6658 7.38547L10.6686 7.38788L10.7341 7.31231ZM10.7341 6.92731L10.7996 7.00288L10.7341 6.92731ZM13.6271 6.93281L13.5562 7.0037L13.5616 7.00838L13.6271 6.93281ZM13.6271 7.31231L13.5616 7.2367L13.559 7.23903L13.6271 7.31231ZM12.1806 10.6058C12.1133 10.6058 12.0677 10.5869 12.0343 10.5557L11.8979 10.7019C11.9745 10.7734 12.0719 10.8058 12.1806 10.8058V10.6058ZM12.0392 10.5606C12.0065 10.5255 11.9891 10.4827 11.9891 10.4253H11.7891C11.7891 10.5293 11.8231 10.6221 11.893 10.697L12.0392 10.5606ZM11.9891 10.4253V7.13081H11.7891V10.4253H11.9891ZM11.8891 7.23081H12.4776V7.03081H11.8891V7.23081ZM12.3776 7.13081V10.4253H12.5776V7.13081H12.3776ZM12.3776 10.4253C12.3776 10.4784 12.3596 10.5198 12.3212 10.5559L12.458 10.7018C12.5369 10.6278 12.5776 10.5335 12.5776 10.4253H12.3776ZM12.3214 10.5557C12.2872 10.5876 12.2429 10.6058 12.1806 10.6058V10.8058C12.2869 10.8058 12.382 10.7727 12.4578 10.7019L12.3214 10.5557ZM10.9321 7.28381C10.8776 7.28381 10.8353 7.26769 10.7996 7.23674L10.6686 7.38788C10.7429 7.45227 10.8325 7.48381 10.9321 7.48381V7.28381ZM10.8023 7.2392C10.7692 7.20826 10.7516 7.1695 10.7516 7.11431H10.5516C10.5516 7.22046 10.589 7.31369 10.6659 7.38542L10.8023 7.2392ZM10.7516 7.11431C10.7516 7.0644 10.7679 7.03033 10.7996 7.00288L10.6686 6.85174C10.5903 6.91962 10.5516 7.01022 10.5516 7.11431H10.7516ZM10.7996 7.00288C10.8353 6.97194 10.8776 6.95581 10.9321 6.95581V6.75581C10.8325 6.75581 10.7429 6.78735 10.6686 6.85174L10.7996 7.00288ZM10.9321 6.95581H13.4346V6.75581H10.9321V6.95581ZM13.4346 6.95581C13.4869 6.95581 13.525 6.97217 13.5564 7.00352L13.6978 6.8621C13.6265 6.79079 13.5363 6.75581 13.4346 6.75581V6.95581ZM13.5616 7.00838C13.5933 7.03583 13.6096 7.0699 13.6096 7.11981H13.8096C13.8096 7.01572 13.7709 6.92512 13.6926 6.85724L13.5616 7.00838ZM13.6096 7.11981C13.6096 7.175 13.5922 7.21026 13.5616 7.23674L13.6926 7.38788C13.772 7.31902 13.8096 7.22595 13.8096 7.11981H13.6096ZM13.559 7.23903C13.5281 7.26776 13.4891 7.28381 13.4346 7.28381V7.48381C13.5341 7.48381 13.6234 7.4522 13.6951 7.38559L13.559 7.23903ZM13.4346 7.28381H10.9321V7.48381H13.4346V7.28381Z" fill="#3D94FF" mask="url(#path-10-outside-1_5530_109448)"/>
</g>
<mask id="path-12-outside-2_5530_109448" maskUnits="userSpaceOnUse" x="3.56641" y="6.43213" width="11" height="5" fill="black">
<rect fill="white" x="3.56641" y="6.43213" width="11" height="5"/>
<path d="M7.23208 6.57113C7.30908 6.57113 7.37508 6.5968 7.43008 6.64813C7.48508 6.69946 7.51258 6.7618 7.51258 6.83513C7.51258 6.87546 7.50341 6.91763 7.48508 6.96163L6.09358 10.2506C6.06425 10.313 6.02391 10.3588 5.97258 10.3881C5.92491 10.4175 5.87541 10.4321 5.82408 10.4321C5.77275 10.4285 5.72325 10.412 5.67558 10.3826C5.63158 10.3533 5.59675 10.3111 5.57108 10.2561L4.17958 6.96163C4.17225 6.9433 4.16675 6.92496 4.16308 6.90663C4.15941 6.88463 4.15758 6.86263 4.15758 6.84063C4.15758 6.7563 4.18875 6.6903 4.25108 6.64263C4.31341 6.59496 4.37391 6.57113 4.43258 6.57113C4.54991 6.57113 4.63608 6.63163 4.69108 6.75263L5.95058 9.73913H5.79108L6.97908 6.74713C7.03041 6.6298 7.11475 6.57113 7.23208 6.57113ZM9.32015 7.29713L8.08265 10.2671C8.06065 10.3258 8.02765 10.3716 7.98365 10.4046C7.93965 10.4376 7.89015 10.4541 7.83515 10.4541C7.75448 10.4541 7.69398 10.4321 7.65365 10.3881C7.61331 10.3405 7.59131 10.2818 7.58765 10.2121C7.58765 10.1865 7.59315 10.1571 7.60415 10.1241L9.00115 6.74713C9.02681 6.6848 9.06348 6.63713 9.11115 6.60413C9.16248 6.57113 9.21748 6.55646 9.27615 6.56013C9.33115 6.56013 9.38248 6.57663 9.43015 6.60963C9.47781 6.64263 9.51265 6.68846 9.53465 6.74713L10.9151 10.0746C10.9298 10.1113 10.9371 10.148 10.9371 10.1846C10.9371 10.2653 10.9096 10.3313 10.8546 10.3826C10.8033 10.4303 10.7446 10.4541 10.6786 10.4541C10.6236 10.4541 10.5723 10.4376 10.5246 10.4046C10.4806 10.368 10.4476 10.3221 10.4256 10.2671L9.17715 7.31363L9.32015 7.29713ZM8.30265 9.48613L8.55015 8.95813H10.1066L10.2001 9.48613H8.30265ZM12.454 10.4321C12.366 10.4321 12.2945 10.4065 12.2395 10.3551C12.1882 10.3001 12.1625 10.2323 12.1625 10.1516V6.85713H12.751V10.1516C12.751 10.2323 12.7217 10.3001 12.663 10.3551C12.608 10.4065 12.5384 10.4321 12.454 10.4321ZM11.2055 7.11013C11.1285 7.11013 11.0625 7.0863 11.0075 7.03863C10.9525 6.9873 10.925 6.9213 10.925 6.84063C10.925 6.76363 10.9525 6.7013 11.0075 6.65363C11.0625 6.60596 11.1285 6.58213 11.2055 6.58213H13.708C13.785 6.58213 13.8492 6.6078 13.9005 6.65913C13.9555 6.7068 13.983 6.76913 13.983 6.84613C13.983 6.9268 13.9555 6.99096 13.9005 7.03863C13.8492 7.0863 13.785 7.11013 13.708 7.11013H11.2055Z"/>
</mask>
<path d="M7.23208 6.57113C7.30908 6.57113 7.37508 6.5968 7.43008 6.64813C7.48508 6.69946 7.51258 6.7618 7.51258 6.83513C7.51258 6.87546 7.50341 6.91763 7.48508 6.96163L6.09358 10.2506C6.06425 10.313 6.02391 10.3588 5.97258 10.3881C5.92491 10.4175 5.87541 10.4321 5.82408 10.4321C5.77275 10.4285 5.72325 10.412 5.67558 10.3826C5.63158 10.3533 5.59675 10.3111 5.57108 10.2561L4.17958 6.96163C4.17225 6.9433 4.16675 6.92496 4.16308 6.90663C4.15941 6.88463 4.15758 6.86263 4.15758 6.84063C4.15758 6.7563 4.18875 6.6903 4.25108 6.64263C4.31341 6.59496 4.37391 6.57113 4.43258 6.57113C4.54991 6.57113 4.63608 6.63163 4.69108 6.75263L5.95058 9.73913H5.79108L6.97908 6.74713C7.03041 6.6298 7.11475 6.57113 7.23208 6.57113ZM9.32015 7.29713L8.08265 10.2671C8.06065 10.3258 8.02765 10.3716 7.98365 10.4046C7.93965 10.4376 7.89015 10.4541 7.83515 10.4541C7.75448 10.4541 7.69398 10.4321 7.65365 10.3881C7.61331 10.3405 7.59131 10.2818 7.58765 10.2121C7.58765 10.1865 7.59315 10.1571 7.60415 10.1241L9.00115 6.74713C9.02681 6.6848 9.06348 6.63713 9.11115 6.60413C9.16248 6.57113 9.21748 6.55646 9.27615 6.56013C9.33115 6.56013 9.38248 6.57663 9.43015 6.60963C9.47781 6.64263 9.51265 6.68846 9.53465 6.74713L10.9151 10.0746C10.9298 10.1113 10.9371 10.148 10.9371 10.1846C10.9371 10.2653 10.9096 10.3313 10.8546 10.3826C10.8033 10.4303 10.7446 10.4541 10.6786 10.4541C10.6236 10.4541 10.5723 10.4376 10.5246 10.4046C10.4806 10.368 10.4476 10.3221 10.4256 10.2671L9.17715 7.31363L9.32015 7.29713ZM8.30265 9.48613L8.55015 8.95813H10.1066L10.2001 9.48613H8.30265ZM12.454 10.4321C12.366 10.4321 12.2945 10.4065 12.2395 10.3551C12.1882 10.3001 12.1625 10.2323 12.1625 10.1516V6.85713H12.751V10.1516C12.751 10.2323 12.7217 10.3001 12.663 10.3551C12.608 10.4065 12.5384 10.4321 12.454 10.4321ZM11.2055 7.11013C11.1285 7.11013 11.0625 7.0863 11.0075 7.03863C10.9525 6.9873 10.925 6.9213 10.925 6.84063C10.925 6.76363 10.9525 6.7013 11.0075 6.65363C11.0625 6.60596 11.1285 6.58213 11.2055 6.58213H13.708C13.785 6.58213 13.8492 6.6078 13.9005 6.65913C13.9555 6.7068 13.983 6.76913 13.983 6.84613C13.983 6.9268 13.9555 6.99096 13.9005 7.03863C13.8492 7.0863 13.785 7.11013 13.708 7.11013H11.2055Z" fill="#3D94FF"/>
<path d="M7.48508 6.96163L7.57718 7.00059L7.57739 7.00009L7.48508 6.96163ZM6.09358 10.2506L6.18413 10.2932L6.18568 10.2896L6.09358 10.2506ZM5.97258 10.3881L5.92294 10.3013L5.92017 10.303L5.97258 10.3881ZM5.82408 10.4321L5.81694 10.5321H5.82408V10.4321ZM5.67558 10.3826L5.62007 10.4659L5.62317 10.4678L5.67558 10.3826ZM5.57108 10.2561L5.4789 10.2951L5.48046 10.2984L5.57108 10.2561ZM4.17958 6.96163L4.08672 6.99877L4.08746 7.00054L4.17958 6.96163ZM4.16308 6.90663L4.06439 6.92308L4.06502 6.92624L4.16308 6.90663ZM4.25108 6.64263L4.31182 6.72206L4.31182 6.72206L4.25108 6.64263ZM4.69108 6.75263L4.78326 6.71376L4.78212 6.71125L4.69108 6.75263ZM5.95058 9.73913V9.83913H6.10128L6.04272 9.70027L5.95058 9.73913ZM5.79108 9.73913L5.69814 9.70223L5.64378 9.83913H5.79108V9.73913ZM6.97908 6.74713L6.88741 6.70702L6.88614 6.71023L6.97908 6.74713ZM7.23208 6.67113C7.28441 6.67113 7.32584 6.68763 7.36185 6.72123L7.49831 6.57502C7.42432 6.50596 7.33375 6.47113 7.23208 6.47113V6.67113ZM7.36185 6.72123C7.39718 6.75421 7.41258 6.79032 7.41258 6.83513H7.61258C7.61258 6.73327 7.57298 6.64471 7.49831 6.57502L7.36185 6.72123ZM7.41258 6.83513C7.41258 6.86009 7.40694 6.88918 7.39277 6.92317L7.57739 7.00009C7.59989 6.94608 7.61258 6.89084 7.61258 6.83513H7.41258ZM7.39298 6.92266L6.00148 10.2117L6.18568 10.2896L7.57718 7.00059L7.39298 6.92266ZM6.0031 10.208C5.98103 10.2549 5.95364 10.2838 5.92297 10.3013L6.02219 10.475C6.09419 10.4338 6.14747 10.371 6.18406 10.2932L6.0031 10.208ZM5.92017 10.303C5.88679 10.3235 5.85525 10.3321 5.82408 10.3321V10.5321C5.89558 10.5321 5.96304 10.5114 6.02499 10.4733L5.92017 10.303ZM5.8312 10.3324C5.7973 10.33 5.76318 10.3191 5.72799 10.2975L5.62317 10.4678C5.68331 10.5048 5.7482 10.527 5.81696 10.5319L5.8312 10.3324ZM5.73105 10.2994C5.70444 10.2817 5.68078 10.2547 5.6617 10.2138L5.48046 10.2984C5.51271 10.3675 5.55872 10.4249 5.62011 10.4658L5.73105 10.2994ZM5.6632 10.2172L4.2717 6.92272L4.08746 7.00054L5.47896 10.295L5.6632 10.2172ZM4.27243 6.92449C4.26724 6.91151 4.26354 6.89904 4.26114 6.88702L4.06502 6.92624C4.06995 6.95089 4.07726 6.97508 4.08673 6.99877L4.27243 6.92449ZM4.26172 6.89019C4.25895 6.87355 4.25758 6.85705 4.25758 6.84063H4.05758C4.05758 6.86821 4.05988 6.89571 4.06444 6.92307L4.26172 6.89019ZM4.25758 6.84063C4.25758 6.78475 4.2763 6.74923 4.31182 6.72206L4.19033 6.56319C4.1012 6.63136 4.05758 6.72784 4.05758 6.84063H4.25758ZM4.31182 6.72206C4.36257 6.68326 4.40225 6.67113 4.43258 6.67113V6.47113C4.34558 6.47113 4.26426 6.50667 4.19033 6.56319L4.31182 6.72206ZM4.43258 6.67113C4.47314 6.67113 4.50339 6.68125 4.52774 6.69835C4.55286 6.71598 4.57801 6.74554 4.60004 6.79401L4.78212 6.71125C4.74915 6.63871 4.70372 6.57753 4.64267 6.53466C4.58085 6.49126 4.50936 6.47113 4.43258 6.47113V6.67113ZM4.59894 6.79149L5.85844 9.77799L6.04272 9.70027L4.78322 6.71377L4.59894 6.79149ZM5.95058 9.63913H5.79108V9.83913H5.95058V9.63913ZM5.88402 9.77603L7.07202 6.78403L6.88614 6.71023L5.69814 9.70223L5.88402 9.77603ZM7.0707 6.78721C7.09078 6.74131 7.11426 6.71369 7.13794 6.69722C7.16104 6.68115 7.19083 6.67113 7.23208 6.67113V6.47113C7.156 6.47113 7.08496 6.49044 7.02372 6.53304C6.96306 6.57524 6.91872 6.63561 6.88746 6.70705L7.0707 6.78721ZM9.32015 7.29713L9.41245 7.33559L9.47801 7.17825L9.30868 7.19779L9.32015 7.29713ZM8.08265 10.2671L7.99028 10.2286L7.98901 10.232L8.08265 10.2671ZM7.98365 10.4046L8.04365 10.4846L7.98365 10.4046ZM7.65365 10.3881L7.57725 10.4528L7.57993 10.4557L7.65365 10.3881ZM7.58765 10.2121H7.48751L7.48778 10.2174L7.58765 10.2121ZM7.60415 10.1241L7.51151 10.0858L7.50928 10.0925L7.60415 10.1241ZM9.00115 6.74713L9.09355 6.78536L9.09361 6.7852L9.00115 6.74713ZM9.11115 6.60413L9.05704 6.51996L9.05423 6.52191L9.11115 6.60413ZM9.27615 6.56013L9.2699 6.66013H9.27615V6.56013ZM9.43015 6.60963L9.37323 6.69185V6.69185L9.43015 6.60963ZM9.53465 6.74713L9.44096 6.78226L9.44228 6.78545L9.53465 6.74713ZM10.9151 10.0746L11.008 10.0375L11.0075 10.0363L10.9151 10.0746ZM10.8546 10.3826L10.9227 10.4559L10.9229 10.4557L10.8546 10.3826ZM10.5246 10.4046L10.4604 10.4818L10.4677 10.4868L10.5246 10.4046ZM10.4256 10.2671L10.5185 10.23L10.5178 10.2282L10.4256 10.2671ZM9.17715 7.31363L9.16568 7.21429L9.03305 7.22959L9.08504 7.35256L9.17715 7.31363ZM8.30265 9.48613L8.2121 9.44369L8.14533 9.58613H8.30265V9.48613ZM8.55015 8.95813V8.85813H8.48658L8.4596 8.91569L8.55015 8.95813ZM10.1066 8.95813L10.2051 8.94069L10.1905 8.85813H10.1066V8.95813ZM10.2001 9.48613V9.58613H10.3194L10.2986 9.46869L10.2001 9.48613ZM9.22784 7.25867L7.99034 10.2287L8.17495 10.3056L9.41245 7.33559L9.22784 7.25867ZM7.98901 10.232C7.97276 10.2754 7.95034 10.3046 7.92365 10.3246L8.04365 10.4846C8.10495 10.4386 8.14854 10.3762 8.17628 10.3022L7.98901 10.232ZM7.92365 10.3246C7.89696 10.3446 7.86851 10.3541 7.83515 10.3541V10.5541C7.91178 10.5541 7.98234 10.5306 8.04365 10.4846L7.92365 10.3246ZM7.83515 10.3541C7.77224 10.3541 7.74278 10.3374 7.72736 10.3206L7.57993 10.4557C7.64518 10.5269 7.73672 10.5541 7.83515 10.5541V10.3541ZM7.72998 10.3235C7.70541 10.2945 7.69017 10.2574 7.68751 10.2069L7.48778 10.2174C7.49246 10.3062 7.52121 10.3864 7.57731 10.4527L7.72998 10.3235ZM7.68765 10.2121C7.68765 10.2003 7.69029 10.1819 7.69901 10.1558L7.50928 10.0925C7.496 10.1323 7.48765 10.1727 7.48765 10.2121H7.68765ZM7.69655 10.1624L9.09355 6.78536L8.90874 6.7089L7.51174 10.0859L7.69655 10.1624ZM9.09361 6.7852C9.11316 6.73774 9.1387 6.70668 9.16807 6.68635L9.05423 6.52191C8.98825 6.56758 8.94047 6.63185 8.90868 6.70905L9.09361 6.7852ZM9.16522 6.68825C9.19937 6.6663 9.23336 6.65765 9.26991 6.65993L9.28238 6.46032C9.2016 6.45527 9.12559 6.47596 9.05707 6.52001L9.16522 6.68825ZM9.27615 6.66013C9.30967 6.66013 9.34133 6.66976 9.37323 6.69185L9.48707 6.52741C9.42363 6.48349 9.35262 6.46013 9.27615 6.46013V6.66013ZM9.37323 6.69185C9.40277 6.7123 9.42556 6.74103 9.44101 6.78224L9.62828 6.71202C9.59973 6.63589 9.55285 6.57295 9.48707 6.52741L9.37323 6.69185ZM9.44228 6.78545L10.8228 10.1129L11.0075 10.0363L9.62701 6.70881L9.44228 6.78545ZM10.8223 10.1118C10.8326 10.1375 10.8371 10.1616 10.8371 10.1846H11.0371C11.0371 10.1343 11.027 10.0851 11.008 10.0375L10.8223 10.1118ZM10.8371 10.1846C10.8371 10.2398 10.8196 10.2786 10.7864 10.3095L10.9229 10.4557C10.9997 10.384 11.0371 10.2908 11.0371 10.1846H10.8371ZM10.7866 10.3093C10.7525 10.341 10.7178 10.3541 10.6786 10.3541V10.5541C10.7715 10.5541 10.8541 10.5196 10.9227 10.4559L10.7866 10.3093ZM10.6786 10.3541C10.6451 10.3541 10.6135 10.3445 10.5816 10.3224L10.4677 10.4868C10.5312 10.5308 10.6022 10.5541 10.6786 10.5541V10.3541ZM10.5887 10.3278C10.5579 10.3021 10.5345 10.2701 10.5185 10.23L10.3328 10.3043C10.3607 10.3741 10.4034 10.4338 10.4606 10.4815L10.5887 10.3278ZM10.5178 10.2282L9.26925 7.27469L9.08504 7.35256L10.3335 10.3061L10.5178 10.2282ZM9.18861 7.41297L9.33161 7.39647L9.30868 7.19779L9.16568 7.21429L9.18861 7.41297ZM8.39319 9.52857L8.64069 9.00057L8.4596 8.91569L8.2121 9.44369L8.39319 9.52857ZM8.55015 9.05813H10.1066V8.85813H8.55015V9.05813ZM10.0082 8.97557L10.1017 9.50357L10.2986 9.46869L10.2051 8.94069L10.0082 8.97557ZM10.2001 9.38613H8.30265V9.58613H10.2001V9.38613ZM12.2395 10.3551L12.1662 10.4235L12.1713 10.4282L12.2395 10.3551ZM12.1625 6.85713V6.75713H12.0625V6.85713H12.1625ZM12.751 6.85713H12.851V6.75713H12.751V6.85713ZM12.663 10.3551L12.7313 10.4282L12.7314 10.4281L12.663 10.3551ZM11.0075 7.03863L10.9393 7.11178L10.942 7.1142L11.0075 7.03863ZM11.0075 6.65363L11.073 6.7292L11.0075 6.65363ZM13.9005 6.65913L13.8296 6.73002L13.835 6.7347L13.9005 6.65913ZM13.9005 7.03863L13.835 6.96302L13.8325 6.96535L13.9005 7.03863ZM12.454 10.3321C12.3868 10.3321 12.3411 10.3132 12.3078 10.282L12.1713 10.4282C12.2479 10.4997 12.3453 10.5321 12.454 10.5321V10.3321ZM12.3126 10.2869C12.2799 10.2518 12.2625 10.209 12.2625 10.1516H12.0625C12.0625 10.2556 12.0965 10.3484 12.1664 10.4234L12.3126 10.2869ZM12.2625 10.1516V6.85713H12.0625V10.1516H12.2625ZM12.1625 6.95713H12.751V6.75713H12.1625V6.95713ZM12.651 6.85713V10.1516H12.851V6.85713H12.651ZM12.651 10.1516C12.651 10.2048 12.6331 10.2461 12.5946 10.2822L12.7314 10.4281C12.8103 10.3541 12.851 10.2598 12.851 10.1516H12.651ZM12.5948 10.282C12.5606 10.3139 12.5163 10.3321 12.454 10.3321V10.5321C12.5604 10.5321 12.6555 10.499 12.7313 10.4282L12.5948 10.282ZM11.2055 7.01013C11.1511 7.01013 11.1087 6.994 11.073 6.96306L10.942 7.1142C11.0163 7.17859 11.106 7.21013 11.2055 7.21013V7.01013ZM11.0758 6.96552C11.0426 6.93458 11.025 6.89582 11.025 6.84063H10.825C10.825 6.94677 10.8625 7.04001 10.9393 7.11173L11.0758 6.96552ZM11.025 6.84063C11.025 6.79072 11.0413 6.75665 11.073 6.7292L10.942 6.57806C10.8637 6.64594 10.825 6.73654 10.825 6.84063H11.025ZM11.073 6.7292C11.1087 6.69825 11.1511 6.68213 11.2055 6.68213V6.48213C11.106 6.48213 11.0163 6.51367 10.942 6.57806L11.073 6.7292ZM11.2055 6.68213H13.708V6.48213H11.2055V6.68213ZM13.708 6.68213C13.7603 6.68213 13.7985 6.69849 13.8298 6.72984L13.9712 6.58842C13.8999 6.51711 13.8098 6.48213 13.708 6.48213V6.68213ZM13.835 6.7347C13.8667 6.76215 13.883 6.79622 13.883 6.84613H14.083C14.083 6.74204 14.0443 6.65144 13.966 6.58356L13.835 6.7347ZM13.883 6.84613C13.883 6.90132 13.8656 6.93658 13.835 6.96306L13.966 7.1142C14.0455 7.04534 14.083 6.95227 14.083 6.84613H13.883ZM13.8325 6.96535C13.8015 6.99408 13.7625 7.01013 13.708 7.01013V7.21013C13.8076 7.21013 13.8968 7.17852 13.9686 7.11191L13.8325 6.96535ZM13.708 7.01013H11.2055V7.21013H13.708V7.01013Z" fill="#3D94FF" mask="url(#path-12-outside-2_5530_109448)"/>
</svg>
