<svg width="44" height="44" viewBox="0 0 44 44" fill="none" xmlns="http://www.w3.org/2000/svg">
<circle opacity="0.8" cx="22.2383" cy="22.25" r="21.75" transform="rotate(180 22.2383 22.25)" fill="black" fill-opacity="0.68"/>
<path d="M21.8025 30.2808C25.0982 30.2808 28.86 30.2656 31.1904 32.596L32.8244 34.23C33.0877 34.4933 33.4347 34.625 33.7938 34.625C34.5716 34.625 35.1341 34.0266 35.1341 33.2607C35.1341 32.9016 35.0145 32.5666 34.7511 32.3033L33.3488 30.898C30.923 28.467 31.0054 24.5122 31.0054 21.0779C31.0054 16.0157 26.8646 11.875 21.8025 11.875C16.7283 11.875 12.5996 16.0157 12.5996 21.0779C12.5996 26.1401 16.7283 30.2808 21.8025 30.2808ZM21.8025 28.2942C17.8413 28.2942 14.5862 25.0272 14.5862 21.0779C14.5862 17.1287 17.8413 13.8616 21.8025 13.8616C25.7517 13.8616 29.0188 17.1287 29.0188 21.0779C29.0188 25.0272 25.7517 28.2942 21.8025 28.2942Z" fill="white"/>
<path d="M21.7826 16.2488C22.0787 16.2488 22.3265 16.4845 22.3265 16.7746V16.8894C22.3265 19.0455 24.0744 20.7934 26.2305 20.7934C26.5206 20.7934 26.7744 21.0412 26.7744 21.3373C26.7744 21.6334 26.5206 21.8751 26.2305 21.8751C24.0744 21.8751 22.3265 23.623 22.3265 25.7791V25.9C22.3265 26.1901 22.0787 26.4258 21.7826 26.4258C21.4865 26.4258 21.2448 26.1901 21.2448 25.9V25.7791C21.2448 23.623 19.4969 21.8751 17.3408 21.8751C17.0507 21.8751 16.7969 21.6334 16.7969 21.3373C16.7969 21.0412 17.0507 20.7934 17.3408 20.7934C19.4969 20.7934 21.2448 19.0455 21.2448 16.8894V16.7746C21.2448 16.4845 21.4865 16.2488 21.7826 16.2488Z" fill="white"/>
</svg>
