<svg width="44" height="44" viewBox="0 0 44 44" fill="none" xmlns="http://www.w3.org/2000/svg">
<circle opacity="0.6" cx="22.2173" cy="21.75" r="21.75" transform="rotate(180 22.2173 21.75)" fill="black"/>
<path d="M21.4065 29.7808C23.3931 29.7808 25.248 29.1346 26.7559 28.0575L32.4284 33.73C32.6917 33.9933 33.0387 34.125 33.3978 34.125C34.1756 34.125 34.7381 33.5266 34.7381 32.7607C34.7381 32.4016 34.6186 32.0666 34.3551 31.8033L28.7185 26.1547C29.9033 24.599 30.6094 22.6722 30.6094 20.5779C30.6094 15.5157 26.4686 11.375 21.4065 11.375C16.3323 11.375 12.2036 15.5157 12.2036 20.5779C12.2036 25.6401 16.3323 29.7808 21.4065 29.7808ZM21.4065 27.7942C17.4453 27.7942 14.1902 24.5272 14.1902 20.5779C14.1902 16.6287 17.4453 13.3616 21.4065 13.3616C25.3557 13.3616 28.6228 16.6287 28.6228 20.5779C28.6228 24.5272 25.3557 27.7942 21.4065 27.7942Z" fill="white"/>
<path d="M17.2173 20.75H25.6548" stroke="white" stroke-width="2" stroke-linecap="round"/>
</svg>
