<svg width="18" height="18" viewBox="0 0 18 18" fill="none" xmlns="http://www.w3.org/2000/svg">
  <g opacity="0.3">
  <path d="M16.574 8.65574C16.5987 8.90419 16.6113 9.15618 16.6113 9.41111C16.6113 13.5829 13.2294 16.9648 9.0576 16.9648C4.88581 16.9648 1.50391 13.5829 1.50391 9.41111C1.50391 5.23932 4.88581 1.85742 9.0576 1.85742C10.4857 1.85742 11.8213 2.25376 12.9603 2.94244" stroke="#FF6B00" stroke-width="1.32369" stroke-linecap="round"/>
  <path d="M5.78418 7.70813L8.98111 11.1738L16.6111 4.37549" stroke="#FF6B00" stroke-width="1.32369" stroke-linecap="round" stroke-linejoin="round"/>
  </g>
  <path d="M17.2918 7.69676C17.3164 7.94521 17.3291 8.19719 17.3291 8.45213C17.3291 12.6239 13.9472 16.0058 9.77537 16.0058C5.60358 16.0058 2.22168 12.6239 2.22168 8.45213C2.22168 4.28034 5.60358 0.898438 9.77537 0.898438C11.2035 0.898438 12.5391 1.29477 13.6781 1.98345" stroke="#FF6B00" stroke-width="1.32369" stroke-linecap="round"/>
  <path d="M6.50195 6.74914L9.69889 10.2148L17.3289 3.4165" stroke="#4D4D4F" stroke-width="1.32369" stroke-linecap="round" stroke-linejoin="round"/>
</svg>
