<svg width="26" height="26" viewBox="0 0 26 26" fill="none" xmlns="http://www.w3.org/2000/svg">
<g clip-path="url(#clip0_59_93015)">
<path d="M13.5508 0.307556C6.79178 0.307556 1.55078 5.26042 1.55078 11.9472C1.55078 15.4451 2.98478 18.4691 5.31878 20.557C5.51378 20.731 5.63378 20.977 5.63978 21.241L5.70578 23.3769C5.71059 23.5341 5.75392 23.6877 5.83198 23.8241C5.91004 23.9606 6.02043 24.0759 6.15345 24.1597C6.28647 24.2435 6.43805 24.2934 6.59486 24.305C6.75167 24.3165 6.90892 24.2894 7.05278 24.2259L9.43478 23.1759C9.63578 23.0859 9.86378 23.0709 10.0768 23.1279C11.1718 23.4279 12.3358 23.5899 13.5508 23.5899C20.3098 23.5899 25.5508 18.6371 25.5508 11.9502C25.5508 5.26342 20.3098 0.307556 13.5508 0.307556Z" fill="url(#paint0_radial_59_93015)"/>
<path d="M6.34296 15.3525L9.86796 9.76061C10.0006 9.55008 10.1754 9.36933 10.3814 9.22977C10.5874 9.0902 10.82 8.99486 11.0647 8.94976C11.3094 8.90465 11.5608 8.91077 11.803 8.96772C12.0452 9.02467 12.273 9.13121 12.472 9.28063L15.277 11.3836C15.4022 11.4773 15.5545 11.5277 15.711 11.5272C15.8674 11.5267 16.0194 11.4752 16.144 11.3806L19.93 8.50665C20.434 8.12266 21.094 8.72864 20.758 9.26563L17.23 14.8545C17.0974 15.065 16.9225 15.2458 16.7166 15.3853C16.5106 15.5249 16.2779 15.6202 16.0332 15.6653C15.7885 15.7104 15.5371 15.7043 15.2949 15.6474C15.0527 15.5904 14.8249 15.4839 14.626 15.3345L11.821 13.2315C11.6957 13.1378 11.5434 13.0873 11.387 13.0879C11.2305 13.0884 11.0785 13.1399 10.954 13.2345L7.16796 16.1084C6.66396 16.4924 6.00396 15.8894 6.34296 15.3525Z" fill="white"/>
</g>
<defs>
<radialGradient id="paint0_radial_59_93015" cx="0" cy="0" r="1" gradientUnits="userSpaceOnUse" gradientTransform="translate(5.57078 24.3069) scale(26.4 26.3993)">
<stop stop-color="#0099FF"/>
<stop offset="0.6" stop-color="#A033FF"/>
<stop offset="0.9" stop-color="#FF5280"/>
<stop offset="1" stop-color="#FF7061"/>
</radialGradient>
<clipPath id="clip0_59_93015">
<rect width="25" height="25" fill="white" transform="translate(0.550781 0.307556)"/>
</clipPath>
</defs>
</svg>
