<svg width="1916" height="119" viewBox="0 0 1916 119" fill="none" xmlns="http://www.w3.org/2000/svg"><g opacity="0.6"><path d="M226.324 121.943C221.991 124.765 216.19 123.54 213.368 119.206L200.518 99.4737C197.696 95.1398 198.921 89.3398 203.255 86.5181C207.588 83.6963 213.389 84.9214 216.211 89.2541L229.061 108.986C231.883 113.32 230.657 119.12 226.324 121.943Z" fill="url(#paint0_linear_784_45357)"/><path d="M217.922 109.04C213.588 111.861 207.788 110.636 204.966 106.304L200.518 99.4737C197.696 95.1398 198.921 89.3398 203.255 86.5181C207.588 83.6963 213.389 84.9214 216.211 89.2541L220.658 96.0841C223.479 100.418 222.254 106.218 217.922 109.04Z" fill="url(#paint1_linear_784_45357)"/></g><g opacity="0.2"><path d="M2.88362 39.9504C4.09068 40.672 4.48044 42.2337 3.75594 43.4457L-9.06209 64.8882L-13.3797 62.3072L-0.561621 40.8647C0.162876 39.6527 1.72298 39.2566 2.93004 39.9782L2.88362 39.9504Z" fill="url(#paint2_linear_784_45357)"/><path d="M87.2472 144.86C87.2472 144.86 87.2007 144.832 87.1543 144.805C81.574 141.595 77.1454 136.354 74.4257 129.73C71.4739 122.65 70.4259 113.862 71.3746 104.369C73.4301 83.6422 66.8954 66.955 53.5528 58.5993C39.9781 50.1049 21.5359 51.8613 2.95288 63.3407C-13.0577 73.2575 -28.8441 75.2095 -40.3298 68.5966C-41.7598 67.9316 -43.4963 68.4121 -44.3323 69.8105C-45.1682 71.2089 -44.7506 73.0403 -43.3857 73.9195C-43.3857 73.9195 -43.3393 73.9473 -43.2929 73.975C-43.2929 73.975 -43.2929 73.975 -43.2465 74.0028C-43.2 74.0305 -43.1536 74.0583 -43.1072 74.086C-29.653 81.6226 -11.7308 79.6819 6.16499 68.6142C22.6585 58.4167 38.742 56.7055 50.2833 63.8578C61.5647 70.918 67.0504 85.4596 65.2274 103.794C64.1671 114.423 65.3263 123.974 68.7051 132.131C71.9818 140.037 77.2831 146.243 84.0241 150.146C85.4633 151.007 87.367 150.563 88.2587 149.071C89.1504 147.58 88.6864 145.721 87.2007 144.832L87.2472 144.86Z" fill="url(#paint3_linear_784_45357)"/><path d="M116.367 96.1483C116.367 96.1483 116.321 96.1205 116.274 96.0927C102.839 88.3143 84.7678 90.2927 66.6956 101.445C50.2021 111.642 34.1185 113.353 22.5772 106.201C11.2959 99.1409 5.81018 84.5992 7.63314 66.2646C8.69343 55.636 7.5342 46.085 4.1554 37.9279C0.925141 30.0493 -4.37616 23.8433 -11.1171 19.9402C-12.5563 19.0798 -14.46 19.5236 -15.3517 21.0153C-16.2434 22.5069 -15.7794 24.3661 -14.2938 25.2542C-14.2938 25.2542 -14.2474 25.2819 -14.2009 25.3097C-8.62058 28.519 -4.19201 33.7605 -1.47228 40.3847C1.47953 47.4641 2.52745 56.2526 1.57878 65.7457C-0.476714 86.4722 6.01153 103.132 19.4006 111.515C32.9753 120.009 51.4175 118.253 70.0005 106.774C86.0111 96.8569 101.798 94.9049 113.283 101.518C114.722 102.378 116.626 101.934 117.518 100.443C118.409 98.951 117.806 97.0086 116.367 96.1483Z" fill="url(#paint4_linear_784_45357)"/><path d="M27.5164 56.511C28.7235 57.2325 29.1132 58.7942 28.3888 60.0062L9.05024 92.3565L4.73268 89.7755L24.0712 57.4252C24.7957 56.2133 26.3558 55.8172 27.5629 56.5387L27.5164 56.511Z" fill="url(#paint5_linear_784_45357)"/><path d="M15.0047 77.4407C16.2118 78.1622 16.6015 79.7239 15.877 80.9359L8.32554 93.5684L4.00798 90.9874L11.5595 78.3549C12.284 77.143 13.8441 76.7469 15.0511 77.4684L15.0047 77.4407Z" fill="url(#paint6_linear_784_45357)"/><path d="M43.8499 58.1787C45.057 58.9003 45.4467 60.462 44.7222 61.6739L31.319 84.0954L27.0015 81.5144L40.4325 59.0463C41.157 57.8344 42.7171 57.4383 43.9242 58.1598L43.8499 58.1787Z" fill="url(#paint7_linear_784_45357)"/><path d="M34.2078 74.3059C35.4149 75.0275 35.8047 76.5892 35.0802 77.8011L17.3021 107.541L12.9845 104.96L30.7626 75.2202C31.4871 74.0082 33.0472 73.6121 34.2543 74.3337L34.2078 74.3059Z" fill="url(#paint8_linear_784_45357)"/><path d="M57.6863 63.9153C58.8934 64.6368 59.2832 66.1985 58.5587 67.4105L35.4862 106.007L31.1687 103.426L54.2411 64.8295C54.9656 63.6176 56.5257 63.2215 57.7328 63.943L57.6863 63.9153Z" fill="url(#paint9_linear_784_45357)"/><path d="M38.4012 96.1731C39.6083 96.8947 39.998 98.4564 39.2735 99.6683L30.5517 114.259L26.2341 111.678L34.956 97.0874C35.6805 95.8754 37.2406 95.4793 38.4476 96.2008L38.4012 96.1731Z" fill="url(#paint10_linear_784_45357)"/><path d="M66.1141 77.7512C67.3211 78.4728 67.7109 80.0345 66.9864 81.2465L56.0075 99.6125L51.6899 97.0315L62.6688 78.6655C63.3933 77.4535 64.9534 77.0574 66.1605 77.779L66.1141 77.7512Z" fill="url(#paint11_linear_784_45357)"/><path d="M58.8973 89.8235C60.1043 90.545 60.4941 92.1067 59.7696 93.3187L46.45 115.6L42.1324 113.019L55.452 90.7377C56.1765 89.5258 57.7366 89.1297 58.9437 89.8512L58.8973 89.8235Z" fill="url(#paint12_linear_784_45357)"/><path d="M91.4539 94.2883C92.661 95.0099 93.0507 96.5716 92.3262 97.7836L76.861 123.654L72.5435 121.073L88.0087 95.2026C88.7332 93.9906 90.2933 93.5945 91.5004 94.3161L91.4539 94.2883Z" fill="url(#paint13_linear_784_45357)"/><path d="M79.7488 113.868C80.9559 114.59 81.3457 116.152 80.6212 117.364L72.373 131.161L68.0555 128.58L76.3036 114.783C77.0281 113.571 78.5882 113.175 79.7953 113.896L79.7488 113.868Z" fill="url(#paint14_linear_784_45357)"/><path d="M107.212 96.8137C108.419 97.5353 108.809 99.097 108.084 100.309L96.5757 119.561L92.2581 116.98L103.767 97.728C104.491 96.516 106.051 96.1199 107.258 96.8415L107.212 96.8137Z" fill="url(#paint15_linear_784_45357)"/><path d="M99.493 109.726C100.7 110.447 101.09 112.009 100.365 113.221L82.5873 142.961L78.2697 140.38L96.0478 110.64C96.7723 109.428 98.3324 109.032 99.5394 109.754L99.493 109.726Z" fill="url(#paint16_linear_784_45357)"/></g><path d="M1720.69 89.6375L1683.31 133.965C1680.27 137.578 1674.88 138.03 1671.28 134.971L1643.02 110.968C1639.42 107.909 1638.97 102.502 1642.02 98.888L1679.4 54.5571C1681.58 51.9835 1684.61 50.2841 1687.92 49.7679L1692.26 49.1047C1695.38 48.6262 1698.23 47.0323 1700.27 44.6132L1702.73 41.693L1701.97 41.0486C1701.19 40.3855 1701.09 39.2174 1701.75 38.4336L1707.47 31.6549C1708.13 30.8749 1709.29 30.777 1710.07 31.4401L1738.35 55.4614C1739.12 56.1208 1739.22 57.2927 1738.56 58.0726L1732.85 64.8513C1732.19 65.6351 1731.02 65.7293 1730.25 65.0699L1729.48 64.4218L1727.03 67.3307C1724.99 69.7536 1723.89 72.8358 1723.93 76.0085L1723.99 80.4058C1724.04 83.782 1722.87 87.0602 1720.69 89.6375Z" fill="url(#paint17_linear_784_45357)"/><path opacity="0.5" fill-rule="evenodd" clip-rule="evenodd" d="M1830.28 -6.26116L1813.48 -1.12887L1817.77 12.9323L1800.3 18.2706L1805.6 35.6398L1823.08 30.3014L1827.21 43.8254L1844.01 38.6931L1839.88 25.1692L1855.39 20.4297L1850.09 3.06058L1834.57 7.80001L1830.28 -6.26116Z" fill="url(#paint18_linear_784_45357)"/><path fill-rule="evenodd" clip-rule="evenodd" d="M1806.87 131.771C1802.36 136.304 1795.04 136.337 1790.52 131.844C1786 127.351 1786 120.033 1790.5 115.5C1794.21 111.775 1799.81 111.089 1804.19 113.454L1809.54 108.075L1806.82 97.9919L1794.73 94.8036C1793.61 94.5076 1792.73 93.635 1792.43 92.5141L1789.16 80.3772L1780.38 78.3281C1779.83 79.5211 1779.06 80.64 1778.08 81.6268C1773.57 86.1597 1766.25 86.1925 1761.74 81.6999C1757.22 77.2073 1757.21 69.8886 1761.72 65.3556C1766.23 60.8227 1773.55 60.7899 1778.06 65.2825C1779.92 67.1295 1781.02 69.4541 1781.35 71.8665L1790.64 74.0369L1799.82 64.8034C1800.64 63.9777 1801.84 63.6514 1802.96 63.9475L1817.12 67.68C1818.25 67.9759 1819.12 68.8485 1819.43 69.9694L1822.67 82.0142L1832.8 84.6825L1841.81 75.614C1842.63 74.7882 1843.83 74.4619 1844.96 74.758L1859.11 78.4905C1860.24 78.7864 1861.11 79.6591 1861.42 80.78L1864.72 93.0439L1877.07 96.299C1878.19 96.5949 1879.07 97.4676 1879.37 98.5884L1882.41 109.851L1889.14 111.612C1889.64 110.734 1890.26 109.908 1891.01 109.158C1895.52 104.625 1902.84 104.592 1907.35 109.085C1911.87 113.577 1911.88 120.896 1907.37 125.429C1902.86 129.962 1895.54 129.995 1891.03 125.502C1888.92 123.41 1887.8 120.704 1887.65 117.953L1881.8 116.423L1872 126.279C1871.18 127.105 1869.98 127.431 1868.86 127.135L1854.7 123.403C1853.57 123.107 1852.7 122.234 1852.39 121.113L1849.09 108.849L1838.71 106.114L1829.68 115.203C1828.85 116.028 1827.66 116.355 1826.53 116.059L1814.04 112.765L1808.81 118.024C1811.23 122.403 1810.58 128.034 1806.87 131.771ZM1774.95 73.4656C1774.95 72.1739 1774.45 70.8848 1773.47 69.9041C1771.49 67.9412 1768.29 67.9555 1766.32 69.9361C1764.36 71.9166 1764.36 75.1154 1766.33 77.0783C1768.31 79.0412 1771.51 79.0269 1773.47 77.0463C1774.15 76.3678 1774.59 75.5463 1774.8 74.6805C1774.78 74.3598 1774.81 74.0301 1774.88 73.7005C1774.9 73.6208 1774.93 73.5424 1774.95 73.4656ZM1795.11 120.08C1797.06 118.122 1800.21 118.086 1802.18 119.983C1802.2 119.994 1802.21 120.005 1802.22 120.016C1802.22 120.021 1802.23 120.027 1802.23 120.032C1802.25 120.053 1802.28 120.073 1802.3 120.093C1804.23 122.06 1804.21 125.225 1802.26 127.19C1800.29 129.171 1797.09 129.185 1795.12 127.222C1793.14 125.259 1793.14 122.061 1795.11 120.08ZM1813.18 96.5295L1821.28 88.3813L1831.11 90.9742L1833.99 101.65L1826.4 109.288L1815.87 106.512L1813.18 96.5295ZM1816.32 83.4767L1813.63 73.4941L1803.1 70.7183L1795.39 78.475L1798.22 88.9894L1808.22 91.6248L1816.32 83.4767ZM1837.52 89.1471L1840.39 99.8226L1850.7 102.54L1858.44 94.759L1855.62 84.3047L1845.09 81.5289L1837.52 89.1471ZM1855.37 107.134L1863.11 99.3532L1873.58 102.113L1876.41 112.628L1868.72 120.364L1858.19 117.589L1855.37 107.134ZM1902.76 120.848C1900.8 122.829 1897.6 122.843 1895.62 120.88C1893.65 118.918 1893.65 115.719 1895.61 113.738C1897.58 111.758 1900.78 111.743 1902.76 113.706C1904.73 115.669 1904.73 118.868 1902.76 120.848Z" fill="url(#paint19_linear_784_45357)"/><g opacity="0.5"><rect x="213.447" y="-24" width="112.029" height="51.7057" rx="11" transform="rotate(20.9032 213.447 -24)" fill="url(#paint20_linear_784_45357)"/><circle cx="224.237" cy="-3.94645" r="7.05078" transform="rotate(20.9032 224.237 -3.94645)" fill="url(#paint21_linear_784_45357)"/><circle cx="248.387" cy="5.27816" r="7.05078" transform="rotate(20.9032 248.387 5.27816)" fill="url(#paint22_linear_784_45357)"/><circle cx="272.54" cy="14.5008" r="7.05078" transform="rotate(20.9032 272.54 14.5008)" fill="url(#paint23_linear_784_45357)"/><circle cx="296.69" cy="23.7274" r="7.05078" transform="rotate(20.9032 296.69 23.7274)" fill="url(#paint24_linear_784_45357)"/><circle cx="216.69" cy="15.8153" r="7.05078" transform="rotate(20.9032 216.69 15.8153)" fill="url(#paint25_linear_784_45357)"/><circle cx="240.841" cy="25.0399" r="7.05078" transform="rotate(20.9032 240.841 25.0399)" fill="url(#paint26_linear_784_45357)"/><circle cx="264.993" cy="34.2625" r="7.05078" transform="rotate(20.9032 264.993 34.2625)" fill="url(#paint27_linear_784_45357)"/><circle cx="289.143" cy="43.4871" r="7.05078" transform="rotate(20.9032 289.143 43.4871)" fill="url(#paint28_linear_784_45357)"/></g><defs><linearGradient id="paint0_linear_784_45357" x1="214.789" y1="85" x2="214.789" y2="123.461" gradientUnits="userSpaceOnUse"><stop stop-color="#FAFAFA"/><stop offset="1" stop-color="#FAFAFA" stop-opacity="0"/></linearGradient><linearGradient id="paint1_linear_784_45357" x1="233.539" y1="78.75" x2="193.079" y2="110.658" gradientUnits="userSpaceOnUse"><stop offset="0.0588133" stop-color="#FCFDFD"/><stop offset="1" stop-color="#FCFDFD" stop-opacity="0"/></linearGradient><linearGradient id="paint2_linear_784_45357" x1="2.90683" y1="39.9643" x2="-11.2209" y2="63.5977" gradientUnits="userSpaceOnUse"><stop stop-color="white"/><stop offset="0.793005" stop-color="white" stop-opacity="0"/></linearGradient><linearGradient id="paint3_linear_784_45357" x1="52.6744" y1="58.066" x2="20.3732" y2="112.101" gradientUnits="userSpaceOnUse"><stop stop-color="white"/><stop offset="0.793005" stop-color="white" stop-opacity="0"/></linearGradient><linearGradient id="paint4_linear_784_45357" x1="52.673" y1="58.0692" x2="20.3719" y2="112.104" gradientUnits="userSpaceOnUse"><stop stop-color="white"/><stop offset="0.793005" stop-color="white" stop-opacity="0"/></linearGradient><linearGradient id="paint5_linear_784_45357" x1="27.5396" y1="56.5249" x2="6.89146" y2="91.066" gradientUnits="userSpaceOnUse"><stop stop-color="white"/><stop offset="0.793005" stop-color="white" stop-opacity="0"/></linearGradient><linearGradient id="paint6_linear_784_45357" x1="15.0279" y1="77.4545" x2="6.16676" y2="92.2779" gradientUnits="userSpaceOnUse"><stop stop-color="white"/><stop offset="0.793005" stop-color="white" stop-opacity="0"/></linearGradient><linearGradient id="paint7_linear_784_45357" x1="43.901" y1="58.146" x2="29.1602" y2="82.8049" gradientUnits="userSpaceOnUse"><stop stop-color="white"/><stop offset="0.793005" stop-color="white" stop-opacity="0"/></linearGradient><linearGradient id="paint8_linear_784_45357" x1="34.231" y1="74.3198" x2="15.1433" y2="106.251" gradientUnits="userSpaceOnUse"><stop stop-color="white"/><stop offset="0.793005" stop-color="white" stop-opacity="0"/></linearGradient><linearGradient id="paint9_linear_784_45357" x1="57.7096" y1="63.9292" x2="33.3274" y2="104.717" gradientUnits="userSpaceOnUse"><stop stop-color="white"/><stop offset="0.793005" stop-color="white" stop-opacity="0"/></linearGradient><linearGradient id="paint10_linear_784_45357" x1="38.4244" y1="96.187" x2="28.3929" y2="112.968" gradientUnits="userSpaceOnUse"><stop stop-color="white"/><stop offset="0.793005" stop-color="white" stop-opacity="0"/></linearGradient><linearGradient id="paint11_linear_784_45357" x1="66.1373" y1="77.7651" x2="53.8487" y2="98.322" gradientUnits="userSpaceOnUse"><stop stop-color="white"/><stop offset="0.793005" stop-color="white" stop-opacity="0"/></linearGradient><linearGradient id="paint12_linear_784_45357" x1="58.9205" y1="89.8374" x2="44.2912" y2="114.31" gradientUnits="userSpaceOnUse"><stop stop-color="white"/><stop offset="0.793005" stop-color="white" stop-opacity="0"/></linearGradient><linearGradient id="paint13_linear_784_45357" x1="91.4771" y1="94.3022" x2="74.7022" y2="122.364" gradientUnits="userSpaceOnUse"><stop stop-color="white"/><stop offset="0.793005" stop-color="white" stop-opacity="0"/></linearGradient><linearGradient id="paint14_linear_784_45357" x1="79.7721" y1="113.882" x2="70.2143" y2="129.871" gradientUnits="userSpaceOnUse"><stop stop-color="white"/><stop offset="0.793005" stop-color="white" stop-opacity="0"/></linearGradient><linearGradient id="paint15_linear_784_45357" x1="107.235" y1="96.8276" x2="94.4169" y2="118.27" gradientUnits="userSpaceOnUse"><stop stop-color="white"/><stop offset="0.793005" stop-color="white" stop-opacity="0"/></linearGradient><linearGradient id="paint16_linear_784_45357" x1="99.5162" y1="109.74" x2="80.4285" y2="141.67" gradientUnits="userSpaceOnUse"><stop stop-color="white"/><stop offset="0.793005" stop-color="white" stop-opacity="0"/></linearGradient><linearGradient id="paint17_linear_784_45357" x1="1781.27" y1="-46.0127" x2="1684.56" y2="100.337" gradientUnits="userSpaceOnUse"><stop stop-color="#FCFCFC"/><stop offset="1" stop-color="white" stop-opacity="0"/></linearGradient><linearGradient id="paint18_linear_784_45357" x1="1852.73" y1="11.7182" x2="1802.94" y2="26.9283" gradientUnits="userSpaceOnUse"><stop stop-color="white"/><stop offset="1" stop-color="white" stop-opacity="0"/></linearGradient><linearGradient id="paint19_linear_784_45357" x1="1786.27" y1="104.455" x2="2139.61" y2="181.299" gradientUnits="userSpaceOnUse"><stop stop-color="white" stop-opacity="0"/><stop offset="1" stop-color="white"/></linearGradient><linearGradient id="paint20_linear_784_45357" x1="269.462" y1="-24" x2="269.462" y2="27.7057" gradientUnits="userSpaceOnUse"><stop stop-color="white"/><stop offset="1" stop-color="white" stop-opacity="0"/></linearGradient><linearGradient id="paint21_linear_784_45357" x1="224.237" y1="-10.9972" x2="224.237" y2="3.10433" gradientUnits="userSpaceOnUse"><stop stop-color="white"/><stop offset="1" stop-color="white" stop-opacity="0"/></linearGradient><linearGradient id="paint22_linear_784_45357" x1="248.387" y1="-1.77262" x2="248.387" y2="12.3289" gradientUnits="userSpaceOnUse"><stop stop-color="white"/><stop offset="1" stop-color="white" stop-opacity="0"/></linearGradient><linearGradient id="paint23_linear_784_45357" x1="272.54" y1="7.45003" x2="272.54" y2="21.5516" gradientUnits="userSpaceOnUse"><stop stop-color="white"/><stop offset="1" stop-color="white" stop-opacity="0"/></linearGradient><linearGradient id="paint24_linear_784_45357" x1="296.69" y1="16.6766" x2="296.69" y2="30.7782" gradientUnits="userSpaceOnUse"><stop stop-color="white"/><stop offset="1" stop-color="white" stop-opacity="0"/></linearGradient><linearGradient id="paint25_linear_784_45357" x1="216.69" y1="8.76449" x2="216.69" y2="22.866" gradientUnits="userSpaceOnUse"><stop stop-color="white"/><stop offset="1" stop-color="white" stop-opacity="0"/></linearGradient><linearGradient id="paint26_linear_784_45357" x1="240.841" y1="17.9891" x2="240.841" y2="32.0907" gradientUnits="userSpaceOnUse"><stop stop-color="white"/><stop offset="1" stop-color="white" stop-opacity="0"/></linearGradient><linearGradient id="paint27_linear_784_45357" x1="264.993" y1="27.2118" x2="264.993" y2="41.3133" gradientUnits="userSpaceOnUse"><stop stop-color="white"/><stop offset="1" stop-color="white" stop-opacity="0"/></linearGradient><linearGradient id="paint28_linear_784_45357" x1="289.143" y1="36.4364" x2="289.143" y2="50.5379" gradientUnits="userSpaceOnUse"><stop stop-color="white"/><stop offset="1" stop-color="white" stop-opacity="0"/></linearGradient></defs></svg>
