<svg width="18" height="18" viewBox="0 0 18 18" fill="none" xmlns="http://www.w3.org/2000/svg">
  <g opacity="0.3">
  <path d="M6.1897 13.3778C9.36959 13.3778 11.9477 10.7996 11.9477 7.61974C11.9477 4.43985 9.36959 1.86169 6.1897 1.86169C3.00981 1.86169 0.431641 4.43985 0.431641 7.61974C0.431641 10.7996 3.00981 13.3778 6.1897 13.3778Z" stroke="white" stroke-width="0.792716" stroke-linecap="round" stroke-linejoin="round"/>
  <path d="M10.2695 11.6967L15.5873 17.0144" stroke="white" stroke-width="0.792716" stroke-linecap="round" stroke-linejoin="round"/>
  <path d="M12.4434 13.8656L15.589 17.0112" stroke="white" stroke-width="0.792716" stroke-linecap="round" stroke-linejoin="round"/>
  <path d="M9.92693 6.84998C9.97586 7.09947 10.0052 7.35387 10.0052 7.61804C10.0052 8.02409 9.94163 8.42036 9.82422 8.78727" stroke="white" stroke-width="0.792716" stroke-linecap="round" stroke-linejoin="round"/>
  <path d="M2.38281 7.61969C2.38281 7.05709 2.50512 6.52874 2.72037 6.04931C3.31721 4.72844 4.64786 3.80872 6.19378 3.80872" stroke="white" stroke-width="0.792716" stroke-linecap="round" stroke-linejoin="round"/>
  </g>
  <path d="M6.90845 12.6579C10.0883 12.6579 12.6665 10.0798 12.6665 6.89989C12.6665 3.72 10.0883 1.14185 6.90845 1.14185C3.72856 1.14185 1.15039 3.72 1.15039 6.89989C1.15039 10.0798 3.72856 12.6579 6.90845 12.6579Z" stroke="white" stroke-width="0.792716" stroke-linecap="round" stroke-linejoin="round"/>
  <path d="M10.9883 10.9768L16.306 16.2946" stroke="white" stroke-width="0.792716" stroke-linecap="round" stroke-linejoin="round"/>
  <path d="M13.1602 13.1458L16.3058 16.2914" stroke="white" stroke-width="1.43519" stroke-linecap="round" stroke-linejoin="round"/>
  <path d="M10.6457 6.1311C10.6946 6.3806 10.724 6.63499 10.724 6.89917C10.724 7.30522 10.6604 7.70148 10.543 8.06839" stroke="white" stroke-width="0.792716" stroke-linecap="round" stroke-linejoin="round"/>
  <path d="M3.10352 6.90192C3.10352 6.33932 3.22582 5.81097 3.44107 5.33154C4.03792 4.01066 5.36857 3.09094 6.91448 3.09094" stroke="white" stroke-width="0.792716" stroke-linecap="round" stroke-linejoin="round"/>
</svg>
