<svg width="17" height="20" viewBox="0 0 17 20" fill="none" xmlns="http://www.w3.org/2000/svg">
<path d="M7.2832 5.71146V4.09236C7.2832 2.33834 7.2832 1.39387 5.66411 1.12402" stroke="#FF9B53" stroke-width="1.11299" stroke-linecap="round"/>
<path d="M9.98145 5.71146V4.09236C9.98145 2.33834 9.98145 1.39387 11.6005 1.12402" stroke="#FF9B53" stroke-width="1.11299" stroke-linecap="round"/>
<path d="M14.7479 10.2997C13.8531 7.7084 11.3924 5.84717 8.49704 5.84717C6.49594 5.84717 4.70249 6.73622 3.49013 8.14088M15.0593 13.268C14.6601 16.5375 11.8743 19.0698 8.49704 19.0698C4.84572 19.0698 1.88574 16.1098 1.88574 12.4585C1.88574 11.8999 1.95502 11.3575 2.08544 10.8394" stroke="#FF6B00" stroke-width="1.11299" stroke-linecap="round"/>
<path d="M0.806641 10.1641C6.47347 13.1324 10.3863 8.54497 16.188 10.8387" stroke="#FF9B53" stroke-width="1.11299" stroke-linecap="round"/>
<circle cx="8.63181" cy="12.9975" r="0.809547" fill="#FF9B53"/>
<circle cx="12.6806" cy="12.728" r="0.809547" fill="#FF9B53"/>
<circle cx="7.28318" cy="15.9653" r="0.809547" fill="#FF9B53"/>
<circle cx="11.0605" cy="15.4253" r="0.809547" fill="#FF9B53"/>
<circle cx="5.39451" cy="13.5376" r="0.809547" fill="#FF9B53"/>
</svg>
