<svg width="87" height="99" viewBox="0 0 87 99" fill="none" xmlns="http://www.w3.org/2000/svg">
<g opacity="0.3">
<path d="M35.1208 29.7519V21.7218C35.1208 13.0226 35.1208 8.33834 27.0908 7" stroke="#4D4D4F" stroke-width="5.52" stroke-linecap="round"/>
<path d="M48.5034 29.7519V21.7218C48.5034 13.0226 48.5034 8.33834 56.5335 7" stroke="#4D4D4F" stroke-width="5.52" stroke-linecap="round"/>
<path d="M72.145 52.5065C67.7073 39.6548 55.5034 30.4238 41.1434 30.4238C31.2188 30.4238 22.3239 34.8332 16.3111 41.7998M73.6895 67.2283C71.7098 83.4434 57.8933 96.0027 41.1434 96.0027C23.0343 96.0027 8.354 81.3224 8.354 63.2133C8.354 60.4429 8.69757 57.7528 9.34443 55.1832" stroke="#4D4D4F" stroke-width="5.52" stroke-linecap="round"/>
<path d="M3 51.8354C31.1052 66.5572 50.5112 43.8054 79.2856 55.1813" stroke="#4D4D4F" stroke-width="5.52" stroke-linecap="round"/>
<circle cx="41.8107" cy="65.8876" r="4.01503" fill="#4D4D4F"/>
<circle cx="61.8888" cy="64.5502" r="4.01503" fill="#4D4D4F"/>
<circle cx="35.1215" cy="80.6078" r="4.01503" fill="#4D4D4F"/>
<circle cx="53.8559" cy="77.9286" r="4.01503" fill="#4D4D4F"/>
<circle cx="25.7531" cy="68.5663" r="4.01503" fill="#4D4D4F"/>
</g>
<path d="M39.1208 25.7519V17.7218C39.1208 9.02255 39.1208 4.33834 31.0908 3" stroke="#4D4D4F" stroke-width="5.52" stroke-linecap="round"/>
<path d="M52.5034 25.7519V17.7218C52.5034 9.02255 52.5034 4.33834 60.5335 3" stroke="#4D4D4F" stroke-width="5.52" stroke-linecap="round"/>
<path d="M76.145 48.5065C71.7073 35.6548 59.5034 26.4238 45.1434 26.4238C35.2188 26.4238 26.3239 30.8332 20.3111 37.7998M77.6895 63.2283C75.7098 79.4434 61.8933 92.0027 45.1434 92.0027C27.0343 92.0027 12.354 77.3224 12.354 59.2133C12.354 56.4429 12.6976 53.7528 13.3444 51.1832" stroke="#4D4D4F" stroke-width="5.52" stroke-linecap="round"/>
<path d="M7 47.8354C35.1052 62.5572 54.5112 39.8054 83.2856 51.1813" stroke="#4D4D4F" stroke-width="5.52" stroke-linecap="round"/>
<circle cx="45.8107" cy="61.8876" r="4.01503" fill="#4D4D4F"/>
<circle cx="65.8888" cy="60.5502" r="4.01503" fill="#4D4D4F"/>
<circle cx="39.1215" cy="76.6078" r="4.01503" fill="#4D4D4F"/>
<circle cx="57.8559" cy="73.9286" r="4.01503" fill="#4D4D4F"/>
<circle cx="29.7531" cy="64.5663" r="4.01503" fill="#4D4D4F"/>
</svg>
