<svg width="88" height="72" viewBox="0 0 88 72" fill="none" xmlns="http://www.w3.org/2000/svg">
<path opacity="0.3" d="M41.9636 17.0752L38.0183 13.1027C36.1409 11.1709 33.8825 9.6471 31.3793 8.58594C28.9033 7.52479 26.2095 7.00794 23.5158 7.00794C20.8221 7.00794 18.1558 7.552 15.6525 8.58594C13.1765 9.6471 10.9181 11.1709 9.01351 13.1027C5.14983 16.9936 2.97304 22.2722 3.00025 27.7685C3.00025 42.9783 26.3728 69.2078 41.9364 69.2078C57.5 69.2078 80.8453 42.8967 80.8453 27.7685C80.8453 22.2722 78.6959 16.9936 74.8595 13.0755C71.6488 9.78321 67.4041 7.68813 62.8329 7.14395C58.2618 6.59977 53.6363 7.6065 49.7454 10.0281" stroke="#FF6B00" stroke-width="5.52344" stroke-linecap="round" stroke-linejoin="round"/>
<path d="M45.9636 13.0752L42.0183 9.10274C40.1409 7.1709 37.8825 5.6471 35.3793 4.58594C32.9033 3.52479 30.2095 3.00794 27.5158 3.00794C24.8221 3.00794 22.1558 3.552 19.6525 4.58594C17.1765 5.6471 14.9181 7.1709 13.0135 9.10274C9.14983 12.9936 6.97304 18.2722 7.00025 23.7685C7.00025 38.9783 30.3728 65.2078 45.9364 65.2078C61.5 65.2078 84.8453 38.8967 84.8453 23.7685C84.8453 18.2722 82.6959 12.9936 78.8595 9.0755C75.6488 5.78321 71.4041 3.68813 66.8329 3.14395C62.2618 2.59977 57.6363 3.6065 53.7454 6.0281" stroke="#FF6B00" stroke-width="5.52344" stroke-linecap="round" stroke-linejoin="round"/>
</svg>
