<svg width="88" height="73" viewBox="0 0 88 73" fill="none" xmlns="http://www.w3.org/2000/svg">
<path opacity="0.3" d="M41.9636 17.4502L38.0183 13.4777C36.1409 11.5459 33.8825 10.0221 31.3793 8.96094C28.9033 7.89979 26.2095 7.38294 23.5158 7.38294C20.8221 7.38294 18.1558 7.927 15.6525 8.96094C13.1765 10.0221 10.9181 11.5459 9.01351 13.4777C5.14983 17.3686 2.97304 22.6472 3.00025 28.1435C3.00025 43.3533 26.3728 69.5828 41.9364 69.5828C57.5 69.5828 80.8453 43.2717 80.8453 28.1435C80.8453 22.6472 78.6959 17.3686 74.8595 13.4505C71.6488 10.1582 67.4041 8.06313 62.8329 7.51895C58.2618 6.97477 53.6363 7.9815 49.7454 10.4031" stroke="#4D4D4F" stroke-width="5.52344" stroke-linecap="round" stroke-linejoin="round"/>
<path d="M45.9636 13.4502L42.0183 9.47774C40.1409 7.5459 37.8825 6.0221 35.3793 4.96094C32.9033 3.89979 30.2095 3.38294 27.5158 3.38294C24.8221 3.38294 22.1558 3.927 19.6525 4.96094C17.1765 6.0221 14.9181 7.5459 13.0135 9.47774C9.14983 13.3686 6.97304 18.6472 7.00025 24.1435C7.00025 39.3533 30.3728 65.5828 45.9364 65.5828C61.5 65.5828 84.8453 39.2717 84.8453 24.1435C84.8453 18.6472 82.6959 13.3686 78.8595 9.4505C75.6488 6.15821 71.4041 4.06313 66.8329 3.51895C62.2618 2.97477 57.6363 3.9815 53.7454 6.4031" stroke="#4D4D4F" stroke-width="5.52344" stroke-linecap="round" stroke-linejoin="round"/>
</svg>
