<svg width="20" height="20" viewBox="0 0 26 25" fill="none" xmlns="http://www.w3.org/2000/svg">
<path fill-rule="evenodd" clip-rule="evenodd" d="M10.7232 5.61696H6.14834C5.86358 5.23499 5.68867 4.78115 5.64287 4.30534C5.6009 3.83374 5.71586 3.50584 5.89652 3.30504C6.06258 3.11898 6.47317 2.8316 7.4677 2.8316C8.37464 2.8316 9.30713 3.45794 10.0991 4.56324C10.3491 4.91325 10.5553 5.27431 10.7232 5.61696ZM2.91474 4.5485C2.94759 4.90957 3.01876 5.26879 3.1246 5.61696H2.04065C1.55668 5.61696 1.09252 5.81104 0.750301 6.15651C0.408079 6.50199 0.21582 6.97055 0.21582 7.45912V9.08391C0.21582 9.57248 0.408079 10.041 0.750301 10.3865C1.09252 10.732 1.55668 10.9261 2.04065 10.9261H23.216C23.7 10.9261 24.1641 10.732 24.5063 10.3865C24.8486 10.041 25.0408 9.57248 25.0408 9.08391V7.45912C25.0408 6.97055 24.8486 6.50199 24.5063 6.15651C24.1641 5.81104 23.7 5.61696 23.216 5.61696H22.132C22.2379 5.26879 22.309 4.90957 22.3419 4.5485C22.4295 3.53163 22.2105 2.37106 21.393 1.45367C20.5627 0.527058 19.3127 0.0702015 17.7889 0.0702015C15.5991 0.0702015 13.9513 1.5292 12.9367 2.95135C12.8296 3.10186 12.7267 3.25544 12.6283 3.41189C12.5293 3.25541 12.4258 3.10184 12.3181 2.95135C11.3071 1.52551 9.65749 0.0683594 7.46952 0.0683594C5.94396 0.0683594 4.69578 0.525216 3.86548 1.45551C3.04613 2.37106 2.82898 3.53163 2.91657 4.55034L2.91474 4.5485ZM14.5334 5.61696H19.1083C19.394 5.23551 19.569 4.78139 19.6138 4.30534C19.6557 3.83374 19.5408 3.50584 19.3601 3.30504C19.1941 3.11898 18.7835 2.8316 17.7889 2.8316C16.882 2.8316 15.9495 3.45794 15.1575 4.56324C14.9075 4.91325 14.7013 5.27431 14.5334 5.61696ZM2.04065 13.2288H11.4878V24.8934H3.78519C3.30121 24.8934 2.83706 24.6993 2.49484 24.3538C2.15262 24.0083 1.96036 23.5398 1.96036 23.0512V13.2288H2.04065ZM21.4714 24.8934H13.7688V13.2288H23.216H23.2963V23.0512C23.2963 23.5398 23.104 24.0083 22.7618 24.3538C22.4196 24.6993 21.9554 24.8934 21.4714 24.8934Z" fill="#FF6B00"/>
</svg>
