<svg width="19" height="23" viewBox="0 0 19 23" fill="none" xmlns="http://www.w3.org/2000/svg">
<path fill-rule="evenodd" clip-rule="evenodd" d="M7.11709 1.16854C7.21128 1.06169 7.33331 0.983116 7.46956 0.941589C7.60581 0.900063 7.75092 0.897218 7.88869 0.933374C9.59329 1.37758 12.2124 2.53191 14.4196 4.58695C16.6438 6.66044 18.4636 9.66846 18.4636 13.7709C18.4636 15.3955 18.0994 17.3829 16.8374 19.0291C15.5555 20.7045 13.4298 21.9188 10.1313 22.1232H10.122C5.72606 22.3446 2.63965 20.0605 1.39925 16.9141C0.169603 13.7955 0.785962 9.91593 3.55727 6.97246C3.63058 6.89437 3.71941 6.83246 3.81805 6.79071C3.91669 6.74896 4.02297 6.72829 4.13006 6.73003C4.23716 6.73176 4.34271 6.75587 4.43995 6.80079C4.53718 6.84572 4.62396 6.91048 4.69469 6.99091L6.63907 9.19812C7.35072 7.92851 7.69656 6.82183 7.74882 5.71362C7.80262 4.58695 7.55362 3.39727 6.98029 1.9632C6.92745 1.83093 6.9124 1.68659 6.93683 1.54627C6.96126 1.40594 7.0242 1.27517 7.11863 1.16854H7.11709ZM7.04024 12.8578C7.04024 12.7065 7.07006 12.5566 7.12799 12.4167C7.18592 12.2768 7.27084 12.1497 7.37788 12.0427C7.48493 11.9357 7.61201 11.8507 7.75188 11.7928C7.89174 11.7349 8.04164 11.7051 8.19303 11.7051C8.34442 11.7051 8.49432 11.7349 8.63419 11.7928C8.77405 11.8507 8.90113 11.9357 9.00818 12.0427C9.11522 12.1497 9.20014 12.2768 9.25807 12.4167C9.316 12.5566 9.34582 12.7065 9.34582 12.8578C9.34582 13.1636 9.22437 13.4568 9.00818 13.673C8.79199 13.8892 8.49877 14.0106 8.19303 14.0106C7.88729 14.0106 7.59407 13.8892 7.37788 13.673C7.16169 13.4568 7.04024 13.1636 7.04024 12.8578ZM13.1731 13.0515C13.2444 12.9801 13.301 12.8953 13.3396 12.8019C13.3782 12.7086 13.398 12.6086 13.3979 12.5076C13.3979 12.4066 13.3779 12.3067 13.3392 12.2134C13.3005 12.1201 13.2438 12.0354 13.1723 11.9641C13.1009 11.8927 13.0161 11.8361 12.9227 11.7975C12.8294 11.759 12.7294 11.7391 12.6284 11.7392C12.5274 11.7393 12.4275 11.7592 12.3342 11.798C12.2409 11.8367 12.1562 11.8934 12.0849 11.9648L7.0387 17.011C6.9653 17.0819 6.90675 17.1667 6.86647 17.2604C6.8262 17.3542 6.805 17.455 6.80411 17.5571C6.80322 17.6591 6.82267 17.7603 6.86131 17.8548C6.89995 17.9492 6.95702 18.035 7.02918 18.1072C7.10134 18.1794 7.18714 18.2364 7.28159 18.2751C7.37604 18.3137 7.47724 18.3332 7.57929 18.3323C7.68133 18.3314 7.78218 18.3102 7.87594 18.2699C7.9697 18.2296 8.05451 18.1711 8.1254 18.0977L13.1716 13.0515H13.1731ZM11.1288 17.2062C11.1288 16.9004 11.2503 16.6072 11.4665 16.391C11.6826 16.1748 11.9759 16.0534 12.2816 16.0534C12.5873 16.0534 12.8806 16.1748 13.0967 16.391C13.3129 16.6072 13.4344 16.9004 13.4344 17.2062C13.4344 17.5119 13.3129 17.8051 13.0967 18.0213C12.8806 18.2375 12.5873 18.359 12.2816 18.359C11.9759 18.359 11.6826 18.2375 11.4665 18.0213C11.2503 17.8051 11.1288 17.5119 11.1288 17.2062Z" fill="#FF6B00"/>
</svg>
