<svg width="20" height="30" viewBox="0 0 20 30" fill="none" xmlns="http://www.w3.org/2000/svg">
<g id="Layer_1" clip-path="url(#clip0_83_59539)">
<path id="Vector" d="M3.46416 6.73505C4.46583 7.75627 5.4675 8.77748 6.52058 9.85296C7.7123 8.54191 8.42471 6.94349 8.94826 5.23777C9.46822 3.54314 9.61405 1.78932 9.73238 0.00219727C15.1842 4.26959 17.0776 10.0244 16.2994 17.0348C17.6047 16.1221 18.6172 15.1107 19.4551 13.8243C19.5961 14.5853 19.785 15.3401 19.871 16.1073C20.1233 18.3877 20.0479 20.6485 19.2674 22.829C17.9406 26.5352 15.4567 28.9526 11.6867 29.7987C6.83136 30.889 1.04006 27.4788 0.17226 21.7955C-0.247295 19.0464 0.0897835 16.423 1.30303 13.9193C2.24494 11.9768 2.98364 9.95656 3.28605 7.7908C3.33028 7.47506 3.3243 7.15069 3.34104 6.83125L3.46535 6.73382L3.46416 6.73505ZM6.60425 14.9837C6.17513 16.9127 5.20453 18.4963 4.45746 20.1835C3.89208 21.46 3.77613 22.8081 4.06779 24.1944C4.63198 26.8732 6.89232 28.9711 9.63078 29.3263C11.9891 29.6322 14.6152 28.1016 15.7412 25.736C16.7513 23.6122 16.5827 21.4477 15.893 19.2758C15.8739 19.2178 15.8548 19.1598 15.8213 19.0612C15.0623 20.5375 14.473 21.0974 13.8132 21.0407C14.2196 17.184 13.1008 13.7405 11.1644 10.5017C11.0173 13.1386 10.4926 15.5954 8.59445 17.6366C8.11991 16.5451 7.65732 15.5868 6.60544 14.9825L6.60425 14.9837Z" fill="#FF6B00"/>
<path id="Vector_2" d="M6.60417 14.9822C7.65605 15.5866 8.11983 16.5449 8.59318 17.6364C10.4913 15.5952 11.0161 13.1384 11.1631 10.5015C13.0995 13.739 14.2183 17.1825 13.8119 21.0404C14.4717 21.0972 15.061 20.5372 15.82 19.0609C15.8535 19.1596 15.8738 19.2175 15.8918 19.2755C16.5815 21.4474 16.75 23.612 15.74 25.7358C14.6152 28.1014 11.9879 29.632 9.62951 29.3261C6.89105 28.9709 4.63071 26.873 4.06652 24.1941C3.77486 22.8078 3.89081 21.4585 4.45619 20.1833C5.20326 18.496 6.17386 16.9124 6.60298 14.9835L6.60417 14.9822Z" fill="#FFB038"/>
<path id="Vector_3" d="M11.1761 21.3439C11.3459 22.0703 11.7284 22.7216 12.0666 23.3814C12.4049 24.0412 12.7097 24.7529 12.7049 25.5003C12.6966 26.741 11.708 27.8967 10.5163 28.0583C9.32458 28.2198 8.07906 27.3688 7.75991 26.1712C7.57344 25.4732 7.67863 24.7257 7.87107 24.0301C8.22489 22.7499 8.8847 21.5647 9.76206 20.5903C9.92941 20.4041 10.8892 19.3002 11.1295 19.4544C11.304 19.5666 11.1618 19.9872 11.1438 20.1377C11.0972 20.5509 11.0805 20.932 11.1761 21.3427V21.3439Z" fill="#EEEFEE"/>
</g>
<defs>
<clipPath id="clip0_83_59539">
<rect width="20" height="30" fill="white" transform="translate(0 0.000732422)"/>
</clipPath>
</defs>
</svg>
