<svg width="128" height="37" viewBox="0 0 128 37" fill="none" xmlns="http://www.w3.org/2000/svg">
<path d="M126.743 32.84C126.743 34.762 125.127 36.3189 123.128 36.3189H4.83052C2.83263 36.3189 1.21094 34.762 1.21094 32.84V5.09674C1.21094 3.17562 2.83263 1.61328 4.83052 1.61328H123.127C125.127 1.61328 126.742 3.17562 126.742 5.09674L126.743 32.84Z" fill="white"/>
<path d="M122.745 1.65583C124.922 1.65583 126.693 3.35435 126.693 5.4417V32.4917C126.693 34.579 124.922 36.2775 122.745 36.2775H5.20549C3.02866 36.2775 1.25734 34.579 1.25734 32.4917V5.4417C1.25734 3.35435 3.02866 1.65583 5.20549 1.65583H122.745ZM122.745 0.933376H5.20549C2.6208 0.933376 0.503906 2.96325 0.503906 5.4417V32.4917C0.503906 34.9701 2.6208 37 5.20549 37H122.745C125.33 37 127.447 34.9701 127.447 32.4917V5.4417C127.447 2.96325 125.33 0.933376 122.745 0.933376Z" fill="#4D4D4F"/>
<path d="M28.8327 18.772C28.8054 15.8659 31.3142 14.4521 31.4289 14.3863C30.0081 12.3999 27.8058 12.1285 27.032 12.1068C25.1824 11.9202 23.3882 13.1681 22.446 13.1681C21.485 13.1681 20.0341 12.1249 18.4704 12.1555C16.4581 12.1853 14.5756 13.3025 13.5431 15.0373C11.4124 18.5745 13.0015 23.7726 15.0429 26.6318C16.0641 28.0321 17.2574 29.5956 18.8192 29.5406C20.3473 29.4801 20.918 28.6064 22.762 28.6064C24.589 28.6064 25.125 29.5406 26.7179 29.5054C28.3578 29.4801 29.3903 28.0988 30.3757 26.6859C31.5558 25.0809 32.0298 23.5003 32.0486 23.4191C32.01 23.4065 28.8637 22.2551 28.8327 18.772Z" fill="#4D4D4F"/>
<path d="M25.8237 10.226C26.6455 9.24045 27.2078 7.89968 27.0517 6.53906C25.8622 6.58956 24.3746 7.32802 23.518 8.2919C22.7601 9.14127 22.0831 10.5334 22.258 11.8427C23.5942 11.9382 24.9661 11.1962 25.8237 10.226Z" fill="#4D4D4F"/>
<path d="M46.6275 9.95939C46.6275 11.0207 46.2956 11.8195 45.6326 12.356C45.0186 12.851 44.146 13.099 43.0157 13.099C42.4553 13.099 41.9757 13.0755 41.5742 13.0287V7.23005C42.098 7.1489 42.6622 7.10742 43.2715 7.10742C44.3482 7.10742 45.1597 7.33194 45.7069 7.78097C46.32 8.2886 46.6275 9.01444 46.6275 9.95939ZM45.5884 9.98554C45.5884 9.29757 45.3985 8.77009 45.0186 8.40221C44.6387 8.03524 44.0839 7.8513 43.3533 7.8513C43.043 7.8513 42.7788 7.87113 42.5597 7.91261V12.3209C42.681 12.3389 42.9029 12.347 43.2254 12.347C43.9796 12.347 44.5616 12.1459 44.9716 11.7438C45.3816 11.3416 45.5884 10.7556 45.5884 9.98554Z" fill="#4D4D4F"/>
<path d="M52.1383 10.8856C52.1383 11.5393 51.9437 12.0749 51.5544 12.4951C51.1463 12.927 50.6056 13.1425 49.9305 13.1425C49.2798 13.1425 48.7616 12.936 48.3752 12.5212C47.9896 12.1074 47.7969 11.5853 47.7969 10.9559C47.7969 10.2977 47.9953 9.75762 48.394 9.33835C48.7927 8.91907 49.3287 8.70898 50.0038 8.70898C50.6545 8.70898 51.1773 8.91547 51.5732 9.32933C51.9493 9.73147 52.1383 10.2508 52.1383 10.8856ZM51.1162 10.9163C51.1162 10.524 51.0278 10.1877 50.852 9.9073C50.6451 9.56827 50.3508 9.39876 49.9681 9.39876C49.5722 9.39876 49.2713 9.56827 49.0644 9.9073C48.8876 10.1877 48.8002 10.5294 48.8002 10.9334C48.8002 11.3256 48.8886 11.6619 49.0644 11.9424C49.2779 12.2814 49.575 12.4509 49.9587 12.4509C50.3348 12.4509 50.6301 12.2787 50.8426 11.9333C51.025 11.6475 51.1162 11.3085 51.1162 10.9163Z" fill="#4D4D4F"/>
<path d="M59.5239 8.79492L58.137 13.0454H57.2343L56.6597 11.1997C56.514 10.7389 56.3955 10.2809 56.3033 9.82643H56.2855C56.1999 10.2935 56.0814 10.7506 55.9291 11.1997L55.3188 13.0454H54.4058L53.1016 8.79492H54.1143L54.6155 10.8156C54.7368 11.2934 54.8364 11.7488 54.9164 12.1798H54.9342C55.0076 11.8245 55.1289 11.3719 55.3 10.8246L55.9291 8.79582H56.7321L57.3349 10.7813C57.4806 11.2655 57.5991 11.7316 57.6903 12.1807H57.7176C57.7843 11.7434 57.885 11.2772 58.0185 10.7813L58.5563 8.79582H59.5239V8.79492Z" fill="#4D4D4F"/>
<path d="M64.6315 13.0467H63.646V10.6123C63.646 9.86207 63.3489 9.48697 62.7527 9.48697C62.4603 9.48697 62.2243 9.58976 62.0409 9.79624C61.8594 10.0027 61.7673 10.2462 61.7673 10.5248V13.0458H60.7818V10.0108C60.7818 9.63755 60.7696 9.2327 60.7461 8.79449H61.6121L61.6582 9.45902H61.6855C61.8002 9.25254 61.9713 9.08212 62.1961 8.94597C62.4631 8.78728 62.7621 8.70703 63.0894 8.70703C63.5031 8.70703 63.8472 8.83507 64.1209 9.09204C64.4613 9.40672 64.6315 9.87649 64.6315 10.5004V13.0467Z" fill="#4D4D4F"/>
<path d="M67.3517 13.0465H66.3672V6.8457H67.3517V13.0465Z" fill="#4D4D4F"/>
<path d="M73.1539 10.8856C73.1539 11.5393 72.9593 12.0749 72.57 12.4951C72.1619 12.927 71.6203 13.1425 70.9461 13.1425C70.2944 13.1425 69.7763 12.936 69.3908 12.5212C69.0053 12.1074 68.8125 11.5853 68.8125 10.9559C68.8125 10.2977 69.0109 9.75762 69.4096 9.33835C69.8083 8.91907 70.3443 8.70898 71.0185 8.70898C71.6701 8.70898 72.192 8.91547 72.5888 9.32933C72.9649 9.73147 73.1539 10.2508 73.1539 10.8856ZM72.1309 10.9163C72.1309 10.524 72.0425 10.1877 71.8667 9.9073C71.6607 9.56827 71.3655 9.39876 70.9837 9.39876C70.5869 9.39876 70.286 9.56827 70.08 9.9073C69.9033 10.1877 69.8158 10.5294 69.8158 10.9334C69.8158 11.3256 69.9042 11.6619 70.08 11.9424C70.2935 12.2814 70.5906 12.4509 70.9743 12.4509C71.3504 12.4509 71.6447 12.2787 71.8572 11.9333C72.0406 11.6475 72.1309 11.3085 72.1309 10.9163Z" fill="#4D4D4F"/>
<path d="M77.9203 13.046H77.0354L76.9621 12.5564H76.9348C76.632 12.9468 76.2004 13.1425 75.64 13.1425C75.2216 13.1425 74.8831 13.0135 74.6282 12.7575C74.3969 12.5248 74.2812 12.2354 74.2812 11.8919C74.2812 11.3725 74.5069 10.9767 74.9611 10.7026C75.4143 10.4285 76.0519 10.2941 76.8728 10.3004V10.2211C76.8728 9.66114 76.5662 9.38163 75.9522 9.38163C75.5149 9.38163 75.1294 9.48712 74.7965 9.69631L74.5963 9.07596C75.0081 8.83161 75.5168 8.70898 76.1168 8.70898C77.2752 8.70898 77.8563 9.29507 77.8563 10.4672V12.0325C77.8563 12.4572 77.878 12.7953 77.9203 13.046ZM76.8972 11.5853V10.9298C75.8102 10.9118 75.2667 11.1976 75.2667 11.7864C75.2667 12.0082 75.3288 12.1741 75.4557 12.285C75.5826 12.3959 75.7444 12.4509 75.9371 12.4509C76.1534 12.4509 76.3556 12.3851 76.5399 12.2543C76.7251 12.1227 76.8389 11.9559 76.8812 11.7512C76.8916 11.7052 76.8972 11.6493 76.8972 11.5853Z" fill="#4D4D4F"/>
<path d="M83.5205 13.0465H82.646L82.5999 12.3639H82.5726C82.2934 12.8833 81.8176 13.1429 81.149 13.1429C80.6149 13.1429 80.1701 12.9419 79.8175 12.5397C79.4649 12.1376 79.2891 11.6155 79.2891 10.9744C79.2891 10.2865 79.4799 9.72923 79.8636 9.30364C80.235 8.90691 80.6901 8.70854 81.2317 8.70854C81.827 8.70854 82.2435 8.9006 82.4805 9.28561H82.4993V6.8457H83.4857V11.9013C83.4857 12.3152 83.497 12.6966 83.5205 13.0465ZM82.4993 11.2539V10.5452C82.4993 10.4226 82.4899 10.3234 82.472 10.2477C82.4165 10.0205 82.2971 9.82931 82.1156 9.67513C81.9323 9.52095 81.7113 9.4434 81.4565 9.4434C81.0888 9.4434 80.8011 9.58316 80.5895 9.86358C80.3798 10.144 80.2736 10.502 80.2736 10.9393C80.2736 11.3594 80.3742 11.7003 80.5764 11.9627C80.7898 12.2422 81.0775 12.3819 81.4377 12.3819C81.7611 12.3819 82.0197 12.2656 82.2163 12.0321C82.4062 11.8166 82.4993 11.5569 82.4993 11.2539Z" fill="#4D4D4F"/>
<path d="M91.9508 10.8856C91.9508 11.5393 91.7562 12.0749 91.3669 12.4951C90.9588 12.927 90.419 13.1425 89.743 13.1425C89.0932 13.1425 88.5751 12.936 88.1877 12.5212C87.8021 12.1074 87.6094 11.5853 87.6094 10.9559C87.6094 10.2977 87.8078 9.75762 88.2065 9.33835C88.6052 8.91907 89.1412 8.70898 89.8172 8.70898C90.467 8.70898 90.9908 8.91547 91.3857 9.32933C91.7618 9.73147 91.9508 10.2508 91.9508 10.8856ZM90.9296 10.9163C90.9296 10.524 90.8412 10.1877 90.6654 9.9073C90.4576 9.56827 90.1642 9.39876 89.7806 9.39876C89.3856 9.39876 89.0847 9.56827 88.8769 9.9073C88.7001 10.1877 88.6127 10.5294 88.6127 10.9334C88.6127 11.3256 88.7011 11.6619 88.8769 11.9424C89.0904 12.2814 89.3875 12.4509 89.7712 12.4509C90.1473 12.4509 90.4435 12.2787 90.656 11.9333C90.8375 11.6475 90.9296 11.3085 90.9296 10.9163Z" fill="#4D4D4F"/>
<path d="M97.2477 13.0467H96.2632V10.6123C96.2632 9.86207 95.9661 9.48697 95.369 9.48697C95.0765 9.48697 94.8405 9.58976 94.6581 9.79624C94.4757 10.0027 94.3845 10.2462 94.3845 10.5248V13.0458H93.3981V10.0108C93.3981 9.63755 93.3868 9.2327 93.3633 8.79449H94.2284L94.2744 9.45902H94.3017C94.4174 9.25254 94.5885 9.08212 94.8123 8.94597C95.0803 8.78728 95.3784 8.70703 95.7066 8.70703C96.1193 8.70703 96.4635 8.83507 96.7371 9.09204C97.0785 9.40672 97.2477 9.87649 97.2477 10.5004V13.0467Z" fill="#4D4D4F"/>
<path d="M103.879 9.50269H102.794V11.5675C102.794 12.0923 102.987 12.3547 103.369 12.3547C103.546 12.3547 103.692 12.3402 103.808 12.3105L103.833 13.0273C103.639 13.0976 103.383 13.1328 103.068 13.1328C102.679 13.1328 102.376 13.0192 102.157 12.792C101.937 12.5647 101.828 12.1824 101.828 11.6459V9.50269H101.18V8.79488H101.828V8.01584L102.793 7.73633V8.79398H103.878V9.50269H103.879Z" fill="#4D4D4F"/>
<path d="M109.096 13.0465H108.109V10.63C108.109 9.86809 107.812 9.48668 107.217 9.48668C106.76 9.48668 106.448 9.70759 106.277 10.1494C106.248 10.2423 106.231 10.3559 106.231 10.4893V13.0456H105.246V6.8457H106.231V9.40734H106.249C106.56 8.94117 107.004 8.70854 107.581 8.70854C107.989 8.70854 108.327 8.83658 108.595 9.09356C108.928 9.41365 109.096 9.88973 109.096 10.5191V13.0465Z" fill="#4D4D4F"/>
<path d="M114.476 10.72C114.476 10.8895 114.463 11.032 114.439 11.1483H111.484C111.497 11.5685 111.638 11.8886 111.912 12.1104C112.162 12.3087 112.484 12.4079 112.879 12.4079C113.317 12.4079 113.715 12.3412 114.075 12.2068L114.229 12.8633C113.808 13.0382 113.314 13.1256 112.741 13.1256C112.055 13.1256 111.514 12.9318 111.123 12.5441C110.73 12.1564 110.535 11.6361 110.535 10.9833C110.535 10.3422 110.717 9.80842 111.082 9.38283C111.464 8.92839 111.98 8.70117 112.632 8.70117C113.27 8.70117 113.754 8.92839 114.081 9.38283C114.345 9.7435 114.476 10.1898 114.476 10.72ZM113.536 10.4756C113.543 10.1952 113.478 9.95359 113.345 9.74981C113.174 9.48742 112.913 9.35578 112.561 9.35578C112.239 9.35578 111.977 9.48382 111.776 9.74079C111.613 9.94547 111.516 10.1898 111.484 10.4756H113.536Z" fill="#4D4D4F"/>
<path d="M50.9473 29.3392H48.8118L47.6421 25.8146H43.5761L42.4619 29.3392H40.3828L44.4111 17.3398H46.8992L50.9473 29.3392ZM47.2894 24.3359L46.2316 21.2026C46.1197 20.8825 45.91 20.1287 45.6006 18.9421H45.563C45.4398 19.4524 45.2414 20.2062 44.9687 21.2026L43.9297 24.3359H47.2894Z" fill="#4D4D4F"/>
<path d="M61.3067 24.9072C61.3067 26.3787 60.892 27.5419 60.0626 28.3957C59.3198 29.1558 58.3973 29.5354 57.2962 29.5354C56.1076 29.5354 55.2538 29.1261 54.7338 28.3074H54.6962V32.8653H52.6915V23.5358C52.6915 22.6106 52.6661 21.6612 52.6172 20.6874H54.3803L54.4922 22.0588H54.5298C55.1984 21.0255 56.213 20.5098 57.5745 20.5098C58.639 20.5098 59.5276 20.9128 60.2385 21.7198C60.9512 22.5277 61.3067 23.5899 61.3067 24.9072ZM59.2643 24.9775C59.2643 24.1354 59.0668 23.4411 58.67 22.8947C58.2365 22.3248 57.6545 22.0399 56.9248 22.0399C56.4302 22.0399 55.9807 22.1986 55.5792 22.5115C55.1767 22.827 54.9134 23.2391 54.7903 23.7495C54.7282 23.9875 54.6972 24.1823 54.6972 24.3355V25.7782C54.6972 26.4076 54.8984 26.9386 55.3009 27.3723C55.7033 27.806 56.2261 28.0224 56.8693 28.0224C57.6244 28.0224 58.2121 27.7429 58.6324 27.1857C59.0537 26.6276 59.2643 25.8918 59.2643 24.9775Z" fill="#4D4D4F"/>
<path d="M71.6846 24.9072C71.6846 26.3787 71.2699 27.5419 70.4396 28.3957C69.6977 29.1558 68.7753 29.5354 67.6742 29.5354C66.4856 29.5354 65.6318 29.1261 65.1127 28.3074H65.0751V32.8653H63.0704V23.5358C63.0704 22.6106 63.045 21.6612 62.9961 20.6874H64.7592L64.8711 22.0588H64.9087C65.5763 21.0255 66.5909 20.5098 67.9534 20.5098C69.0169 20.5098 69.9055 20.9128 70.6183 21.7198C71.3282 22.5277 71.6846 23.5899 71.6846 24.9072ZM69.6423 24.9775C69.6423 24.1354 69.4438 23.4411 69.047 22.8947C68.6135 22.3248 68.0334 22.0399 67.3027 22.0399C66.8072 22.0399 66.3587 22.1986 65.9562 22.5115C65.5538 22.827 65.2914 23.2391 65.1682 23.7495C65.1071 23.9875 65.0751 24.1823 65.0751 24.3355V25.7782C65.0751 26.4076 65.2764 26.9386 65.6769 27.3723C66.0794 27.8051 66.6022 28.0224 67.2473 28.0224C68.0023 28.0224 68.59 27.7429 69.0104 27.1857C69.4316 26.6276 69.6423 25.8918 69.6423 24.9775Z" fill="#4D4D4F"/>
<path d="M83.2867 25.9742C83.2867 26.9949 82.9172 27.8254 82.1752 28.4664C81.36 29.167 80.225 29.5169 78.7666 29.5169C77.4201 29.5169 76.3406 29.268 75.5234 28.7694L75.988 27.1671C76.8681 27.6775 77.8338 27.9336 78.886 27.9336C79.6411 27.9336 80.2288 27.7695 80.651 27.4431C81.0713 27.1166 81.281 26.6784 81.281 26.132C81.281 25.6451 81.108 25.2349 80.761 24.9022C80.4159 24.5694 79.8395 24.2602 79.0346 23.9743C76.8436 23.1908 75.7491 22.043 75.7491 20.5336C75.7491 19.5472 76.1328 18.7384 76.901 18.109C77.6664 17.4787 78.6876 17.1641 79.9646 17.1641C81.1033 17.1641 82.0492 17.3543 82.8043 17.7339L82.3031 19.301C81.5979 18.9331 80.8005 18.7492 79.9081 18.7492C79.2029 18.7492 78.6519 18.916 78.2569 19.2478C77.9231 19.5445 77.7558 19.906 77.7558 20.3343C77.7558 20.8086 77.9466 21.2008 78.3303 21.5092C78.6641 21.7941 79.2706 22.1025 80.1507 22.4352C81.2274 22.8509 82.0182 23.3369 82.5269 23.8941C83.0338 24.4495 83.2867 25.1447 83.2867 25.9742Z" fill="#4D4D4F"/>
<path d="M89.9171 22.1298H87.7073V26.3307C87.7073 27.3991 88.0966 27.9329 88.8771 27.9329C89.2354 27.9329 89.5325 27.9032 89.7676 27.8437L89.8231 29.3035C89.4281 29.445 88.9081 29.5162 88.264 29.5162C87.4723 29.5162 86.8535 29.2845 86.4069 28.822C85.9621 28.3585 85.7383 27.5813 85.7383 26.4894V22.128H84.4219V20.6853H85.7383V19.1011L87.7073 18.5312V20.6853H89.9171V22.1298Z" fill="#4D4D4F"/>
<path d="M99.8849 24.9415C99.8849 26.2714 99.4881 27.3633 98.6964 28.2172C97.8661 29.0963 96.764 29.5345 95.3902 29.5345C94.0662 29.5345 93.0121 29.1135 92.226 28.2713C91.4399 27.4291 91.0469 26.3661 91.0469 25.0848C91.0469 23.744 91.4512 22.6458 92.2627 21.7919C93.0723 20.9372 94.165 20.5098 95.5388 20.5098C96.8627 20.5098 97.9281 20.9308 98.7321 21.7739C99.5013 22.5917 99.8849 23.6476 99.8849 24.9415ZM97.8049 25.0037C97.8049 24.2057 97.6272 23.5213 97.2671 22.9506C96.8467 22.2599 96.2459 21.9155 95.4673 21.9155C94.6614 21.9155 94.0493 22.2608 93.629 22.9506C93.2688 23.5222 93.0911 24.2174 93.0911 25.0397C93.0911 25.8377 93.2688 26.5221 93.629 27.0919C94.0625 27.7826 94.668 28.127 95.4494 28.127C96.2149 28.127 96.8157 27.7754 97.2492 27.0739C97.6188 26.4923 97.8049 25.8007 97.8049 25.0037Z" fill="#4D4D4F"/>
<path d="M106.402 22.378C106.203 22.3429 105.992 22.3248 105.77 22.3248C105.065 22.3248 104.519 22.58 104.136 23.0912C103.802 23.5421 103.634 24.1119 103.634 24.7999V29.3398H101.631L101.649 23.4122C101.649 22.415 101.624 21.507 101.574 20.6883H103.32L103.394 22.3438H103.449C103.661 21.7748 103.995 21.3168 104.452 20.9732C104.898 20.664 105.381 20.5098 105.901 20.5098C106.086 20.5098 106.253 20.5224 106.402 20.5449V22.378Z" fill="#4D4D4F"/>
<path d="M115.371 24.6029C115.371 24.9473 115.347 25.2377 115.297 25.4748H109.283C109.306 26.3296 109.597 26.9833 110.156 27.4341C110.662 27.8372 111.318 28.0391 112.123 28.0391C113.013 28.0391 113.826 27.903 114.556 27.6298L114.87 28.9642C114.017 29.3213 113.009 29.4989 111.845 29.4989C110.446 29.4989 109.348 29.104 108.549 28.315C107.751 27.5261 107.352 26.4666 107.352 25.1376C107.352 23.8329 107.723 22.7464 108.467 21.8799C109.245 20.9547 110.298 20.4922 111.622 20.4922C112.922 20.4922 113.907 20.9547 114.575 21.8799C115.104 22.6147 115.371 23.5236 115.371 24.6029ZM113.459 24.1043C113.472 23.5344 113.341 23.0421 113.07 22.6264C112.723 22.0917 112.189 21.8248 111.472 21.8248C110.817 21.8248 110.283 22.0854 109.876 22.6084C109.543 23.0241 109.344 23.5227 109.283 24.1034H113.459V24.1043Z" fill="#4D4D4F"/>
</svg>
