<svg width="128" height="37" viewBox="0 0 128 37" fill="none" xmlns="http://www.w3.org/2000/svg">
<path d="M122.745 36.0664H5.20549C2.6208 36.0664 0.503906 34.0365 0.503906 31.5581V4.50811C0.503906 2.02966 2.6208 -0.000217438 5.20549 -0.000217438H122.745C125.33 -0.000217438 127.447 2.02966 127.447 4.50811V31.5581C127.447 34.0365 125.33 36.0664 122.745 36.0664Z" fill="white"/>
<path d="M122.745 0.72224C124.922 0.72224 126.693 2.42075 126.693 4.50811V31.5581C126.693 33.6454 124.922 35.3439 122.745 35.3439H5.20549C3.02866 35.3439 1.25734 33.6454 1.25734 31.5581V4.50811C1.25734 2.42075 3.02866 0.72224 5.20549 0.72224H122.745ZM122.745 -0.000217438H5.20549C2.6208 -0.000217438 0.503906 2.02966 0.503906 4.50811V31.5581C0.503906 34.0365 2.6208 36.0664 5.20549 36.0664H122.745C125.33 36.0664 127.447 34.0365 127.447 31.5581V4.50811C127.447 2.02966 125.33 -0.000217438 122.745 -0.000217438Z" fill="#4D4D4F"/>
<path d="M9.61185 6.79685C9.33563 7.07411 9.17578 7.50578 9.17578 8.06482V28.0052C9.17578 28.5642 9.33563 28.9959 9.61185 29.2731L9.68003 29.334L21.3329 18.1646V17.9009L9.68003 6.73148L9.61185 6.79685Z" fill="#4D4D4F"/>
<path d="M26.6222 21.8906L22.7422 18.1656V17.9019L26.6269 14.1769L26.7139 14.2253L31.3143 16.7354C32.6273 17.4477 32.6273 18.6198 31.3143 19.3367L26.7139 21.8422L26.6222 21.8906Z" fill="#4D4D4F"/>
<path d="M26.0091 22.5349L22.0375 18.7265L10.3164 29.9669C10.7525 30.4064 11.4636 30.4594 12.2723 30.0198L26.0091 22.5349Z" fill="#4D4D4F"/>
<path d="M26.0091 13.5314L12.2723 6.04649C11.4636 5.61143 10.7525 5.6644 10.3164 6.10397L22.0375 17.3398L26.0091 13.5314Z" fill="#4D4D4F"/>
<path d="M45.0897 9.23596C45.0897 9.98885 44.8547 10.5918 44.3916 11.0415C43.8591 11.5747 43.1656 11.8429 42.3158 11.8429C41.5036 11.8429 40.8101 11.5701 40.2412 11.0325C39.6712 10.487 39.3867 9.81753 39.3867 9.01618C39.3867 8.21482 39.6712 7.54533 40.2412 7.00433C40.8101 6.46221 41.5036 6.18945 42.3158 6.18945C42.7201 6.18945 43.1057 6.26948 43.4736 6.41825C43.8403 6.56815 44.1388 6.77103 44.3551 7.02124L43.8638 7.49687C43.4865 7.06971 42.9729 6.85894 42.3158 6.85894C41.7234 6.85894 41.2098 7.05731 40.7737 7.45742C40.3423 7.85866 40.126 8.37825 40.126 9.01618C40.126 9.6541 40.3423 10.1782 40.7737 10.5794C41.2098 10.975 41.7234 11.1779 42.3158 11.1779C42.9446 11.1779 43.4736 10.975 43.8908 10.5749C44.1659 10.3101 44.3222 9.94489 44.3633 9.47828H42.3158V8.82683H45.0474C45.0803 8.96771 45.0897 9.10409 45.0897 9.23596Z" fill="#4D4D4F" stroke="#4D4D4F" stroke-width="0.0842471" stroke-miterlimit="10"/>
<path d="M49.4251 6.9783H46.8592V8.69147H49.1724V9.34292H46.8592V11.0561H49.4251V11.7199H46.1328V6.31445H49.4251V6.9783Z" fill="#4D4D4F" stroke="#4D4D4F" stroke-width="0.0842471" stroke-miterlimit="10"/>
<path d="M52.4799 11.7199H51.7535V6.9783H50.1797V6.31445H54.055V6.9783H52.4799V11.7199Z" fill="#4D4D4F" stroke="#4D4D4F" stroke-width="0.0842471" stroke-miterlimit="10"/>
<path d="M56.8594 11.7199V6.31445H57.5846V11.7199H56.8594Z" fill="#4D4D4F" stroke="#4D4D4F" stroke-width="0.0842471" stroke-miterlimit="10"/>
<path d="M60.8002 11.7199H60.0797V6.9783H58.5V6.31445H62.38V6.9783H60.8002V11.7199Z" fill="#4D4D4F" stroke="#4D4D4F" stroke-width="0.0842471" stroke-miterlimit="10"/>
<path d="M69.7184 11.0235C69.1624 11.5701 68.4737 11.8429 67.6521 11.8429C66.8257 11.8429 66.137 11.5701 65.581 11.0235C65.0262 10.478 64.75 9.80851 64.75 9.01618C64.75 8.22384 65.0262 7.55435 65.581 7.00884C66.137 6.46221 66.8257 6.18945 67.6521 6.18945C68.469 6.18945 69.1577 6.46221 69.7137 7.01335C70.2732 7.56337 70.5494 8.22834 70.5494 9.01618C70.5494 9.80851 70.2732 10.478 69.7184 11.0235ZM66.1182 10.5704C66.5366 10.975 67.0455 11.1779 67.6521 11.1779C68.2539 11.1779 68.7675 10.975 69.1812 10.5704C69.5985 10.1658 69.8101 9.64621 69.8101 9.01618C69.8101 8.38614 69.5985 7.86655 69.1812 7.46193C68.7675 7.05731 68.2539 6.85443 67.6521 6.85443C67.0455 6.85443 66.5366 7.05731 66.1182 7.46193C65.7009 7.86655 65.4893 8.38614 65.4893 9.01618C65.4893 9.64621 65.7009 10.1658 66.1182 10.5704Z" fill="#4D4D4F" stroke="#4D4D4F" stroke-width="0.0842471" stroke-miterlimit="10"/>
<path d="M71.5664 11.7199V6.31445H72.448L75.189 10.5185H75.2207L75.189 9.4793V6.31445H75.9142V11.7199H75.1572L72.2869 7.30854H72.2552L72.2869 8.35222V11.7199H71.5664Z" fill="#4D4D4F" stroke="#4D4D4F" stroke-width="0.0842471" stroke-miterlimit="10"/>
<path d="M64.5716 19.6135C62.3631 19.6135 60.5588 21.2253 60.5588 23.449C60.5588 25.6547 62.3631 27.2833 64.5716 27.2833C66.7849 27.2833 68.5891 25.6547 68.5891 23.449C68.5891 21.2253 66.7849 19.6135 64.5716 19.6135ZM64.5716 25.773C63.3598 25.773 62.3172 24.8139 62.3172 23.449C62.3172 22.0661 63.3598 21.1238 64.5716 21.1238C65.7835 21.1238 66.8307 22.0661 66.8307 23.449C66.8307 24.8139 65.7835 25.773 64.5716 25.773ZM55.8161 19.6135C53.6028 19.6135 51.8033 21.2253 51.8033 23.449C51.8033 25.6547 53.6028 27.2833 55.8161 27.2833C58.0282 27.2833 59.8289 25.6547 59.8289 23.449C59.8289 21.2253 58.0282 19.6135 55.8161 19.6135ZM55.8161 25.773C54.6031 25.773 53.557 24.8139 53.557 23.449C53.557 22.0661 54.6031 21.1238 55.8161 21.1238C57.0279 21.1238 58.0705 22.0661 58.0705 23.449C58.0705 24.8139 57.0279 25.773 55.8161 25.773ZM45.3974 20.7891V22.4188H49.456C49.3373 23.3295 49.02 23.999 48.5334 24.4656C47.941 25.0292 47.0183 25.6547 45.3974 25.6547C42.8997 25.6547 40.9438 23.7218 40.9438 21.3267C40.9438 18.9317 42.8997 16.9987 45.3974 16.9987C46.7479 16.9987 47.7306 17.5048 48.4558 18.1607L49.6535 17.0122C48.6391 16.0835 47.2898 15.3701 45.3974 15.3701C41.9723 15.3701 39.0938 18.0424 39.0938 21.3267C39.0938 24.611 41.9723 27.2833 45.3974 27.2833C47.2486 27.2833 48.6391 26.7018 49.7323 25.6107C50.8524 24.5366 51.2015 23.0263 51.2015 21.8068C51.2015 21.4281 51.1686 21.0799 51.1098 20.7891H45.3974ZM88.0008 22.0525C87.6705 21.1948 86.6514 19.6135 84.5757 19.6135C82.5188 19.6135 80.8062 21.1678 80.8062 23.449C80.8062 25.5972 82.5011 27.2833 84.7732 27.2833C86.6103 27.2833 87.6705 26.2092 88.1066 25.5837L86.7431 24.7125C86.2882 25.3504 85.6688 25.773 84.7732 25.773C83.8834 25.773 83.2451 25.3819 82.8361 24.611L88.1853 22.4887L88.0008 22.0525ZM82.547 23.3295C82.5011 21.8508 83.7447 21.0934 84.6356 21.0934C85.3338 21.0934 85.9262 21.4281 86.1237 21.9071L82.547 23.3295ZM78.1992 27.05H79.9576V15.7792H78.1992V27.05ZM75.3195 20.4679H75.2607C74.8657 20.0193 74.1123 19.6135 73.1579 19.6135C71.155 19.6135 69.3238 21.2997 69.3238 23.4614C69.3238 25.6107 71.155 27.2833 73.1579 27.2833C74.1123 27.2833 74.8657 26.8742 75.2607 26.4121H75.3195V26.9621C75.3195 28.4284 74.5026 29.2163 73.1849 29.2163C72.1106 29.2163 71.4442 28.4724 71.1691 27.8469L69.6399 28.4589C70.0807 29.4755 71.2479 30.7266 73.1849 30.7266C75.2466 30.7266 76.9862 29.5634 76.9862 26.7333V19.8468H75.3195V20.4679ZM73.3084 25.773C72.0965 25.773 71.0821 24.8004 71.0821 23.4614C71.0821 22.11 72.0965 21.1238 73.3084 21.1238C74.5026 21.1238 75.444 22.11 75.444 23.4614C75.444 24.8004 74.5026 25.773 73.3084 25.773ZM96.2333 15.7792H92.0277V27.05H93.7814V22.7795H96.2333C98.1809 22.7795 100.091 21.4281 100.091 19.2788C100.091 17.1306 98.1762 15.7792 96.2333 15.7792ZM96.2791 21.2117H93.7814V17.347H96.2791C97.5885 17.347 98.3361 18.3895 98.3361 19.2788C98.3361 20.1512 97.5885 21.2117 96.2791 21.2117ZM107.12 19.5921C105.853 19.5921 104.535 20.1286 103.993 21.3177L105.549 21.9432C105.884 21.3177 106.5 21.1148 107.152 21.1148C108.061 21.1148 108.984 21.6389 108.998 22.5642V22.6826C108.681 22.5068 108.001 22.2464 107.166 22.2464C105.49 22.2464 103.782 23.1312 103.782 24.7823C103.782 26.2926 105.155 27.2653 106.698 27.2653C107.878 27.2653 108.529 26.7547 108.938 26.1608H108.998V27.032H110.692V22.7085C110.692 20.7102 109.136 19.5921 107.12 19.5921ZM106.908 25.7685C106.335 25.7685 105.535 25.4958 105.535 24.8139C105.535 23.9415 106.532 23.6068 107.395 23.6068C108.167 23.6068 108.529 23.7702 108.998 23.9855C108.861 25.0292 107.924 25.7685 106.908 25.7685ZM116.863 19.839L114.847 24.7249H114.787L112.703 19.839H110.812L113.943 26.6668L112.156 30.4662H113.989L118.814 19.839H116.863ZM101.055 27.05H102.813V15.7792H101.055V27.05Z" fill="#4D4D4F"/>
</svg>
