<svg width="1921" height="120" viewBox="0 0 1921 120" fill="none" xmlns="http://www.w3.org/2000/svg">
<rect y="0.0234375" width="1920" height="119" fill="url(#paint0_linear_80_54196)"/>
<g opacity="0.5">
<mask id="mask0_80_54196" style="mask-type:alpha" maskUnits="userSpaceOnUse" x="0" y="0" width="1921" height="120">
<rect x="0.214844" y="0.0234375" width="1920" height="119" fill="#FF6B00"/>
</mask>
<g mask="url(#mask0_80_54196)">
<g opacity="0.6">
<path d="M226.334 121.967C222.002 124.788 216.2 123.563 213.379 119.229L200.529 99.4971C197.707 95.1632 198.932 89.3632 203.266 86.5415C207.599 83.7198 213.4 84.9449 216.222 89.2775L229.072 109.01C231.893 113.344 230.668 119.144 226.334 121.967Z" fill="url(#paint1_linear_80_54196)"/>
<path d="M217.933 109.063C213.599 111.885 207.799 110.66 204.977 106.327L200.529 99.4971C197.707 95.1632 198.932 89.3632 203.266 86.5415C207.599 83.7198 213.4 84.9449 216.222 89.2775L220.669 96.1075C223.49 100.441 222.265 106.241 217.933 109.063Z" fill="url(#paint2_linear_80_54196)"/>
</g>
<g opacity="0.2">
<path d="M2.89436 39.9739C4.10142 40.6954 4.49118 42.2571 3.76668 43.4691L-9.05135 64.9117L-13.3689 62.3307L-0.550879 40.8881C0.173618 39.6762 1.73372 39.2801 2.94078 40.0016L2.89436 39.9739Z" fill="url(#paint3_linear_80_54196)"/>
<path d="M87.2589 144.884C87.2589 144.884 87.2125 144.856 87.1661 144.828C81.5857 141.619 77.1571 136.377 74.4374 129.753C71.4856 122.674 70.4377 113.885 71.3863 104.392C73.4418 83.6656 66.9072 66.9784 53.5646 58.6228C39.9898 50.1284 21.5476 51.8848 2.9646 63.3641C-13.046 73.2809 -28.8324 75.2329 -40.3181 68.62C-41.748 67.9551 -43.4846 68.4355 -44.3205 69.8339C-45.1565 71.2324 -44.7389 73.0638 -43.374 73.943C-43.374 73.943 -43.3276 73.9707 -43.2812 73.9985C-43.2812 73.9985 -43.2812 73.9985 -43.2347 74.0262C-43.1883 74.054 -43.1419 74.0817 -43.0955 74.1095C-29.6413 81.646 -11.7191 79.7053 6.17671 68.6377C22.6702 58.4401 38.7538 56.729 50.2951 63.8813C61.5764 70.9414 67.0621 85.4831 65.2391 103.818C64.1788 114.446 65.3381 123.997 68.7168 132.154C71.9935 140.061 77.2948 146.267 84.0358 150.17C85.475 151.03 87.3787 150.586 88.2704 149.095C89.1621 147.603 88.6981 145.744 87.2125 144.856L87.2589 144.884Z" fill="url(#paint4_linear_80_54196)"/>
<path d="M116.379 96.1707C116.379 96.1707 116.332 96.143 116.286 96.1152C102.85 88.3367 84.7795 90.3152 66.7073 101.467C50.2138 111.665 34.1302 113.376 22.5889 106.223C11.3076 99.1633 5.8219 84.6217 7.64486 66.287C8.70514 55.6585 7.54592 46.1075 4.16712 37.9503C0.93686 30.0718 -4.36444 23.8657 -11.1054 19.9626C-12.5446 19.1023 -14.4483 19.5461 -15.34 21.0377C-16.2317 22.5294 -15.7677 24.3886 -14.2821 25.2766C-14.2821 25.2766 -14.2356 25.3044 -14.1892 25.3321C-8.60886 28.5415 -4.18029 33.7829 -1.46056 40.4072C1.49125 47.4866 2.53917 56.275 1.5905 65.7681C-0.464995 86.4947 6.02325 103.154 19.4123 111.538C32.987 120.032 51.4292 118.275 70.0122 106.796C86.0228 96.8794 101.809 94.9274 113.295 101.54C114.734 102.401 116.638 101.957 117.529 100.465C118.421 98.9735 117.818 97.031 116.379 96.1707Z" fill="url(#paint5_linear_80_54196)"/>
<path d="M27.5272 56.5344C28.7342 57.256 29.124 58.8177 28.3995 60.0297L9.06098 92.3799L4.74342 89.799L24.0819 57.4487C24.8064 56.2367 26.3665 55.8406 27.5736 56.5622L27.5272 56.5344Z" fill="url(#paint6_linear_80_54196)"/>
<path d="M15.0164 77.4641C16.2235 78.1857 16.6132 79.7474 15.8887 80.9593L8.33726 93.5918L4.0197 91.0108L11.5712 78.3784C12.2957 77.1664 13.8558 76.7703 15.0629 77.4919L15.0164 77.4641Z" fill="url(#paint7_linear_80_54196)"/>
<path d="M43.8616 58.2012C45.0687 58.9227 45.4584 60.4844 44.7339 61.6964L31.3307 84.1178L27.0132 81.5369L40.4442 59.0688C41.1687 57.8568 42.7288 57.4607 43.9359 58.1823L43.8616 58.2012Z" fill="url(#paint8_linear_80_54196)"/>
<path d="M34.2205 74.3284C35.4276 75.0499 35.8173 76.6116 35.0929 77.8236L17.3148 107.563L12.9972 104.983L30.7753 75.2426C31.4998 74.0307 33.0599 73.6346 34.267 74.3561L34.2205 74.3284Z" fill="url(#paint9_linear_80_54196)"/>
<path d="M57.6971 63.9377C58.9042 64.6593 59.2939 66.221 58.5694 67.433L35.497 106.03L31.1794 103.449L54.2519 64.852C54.9764 63.64 56.5365 63.2439 57.7435 63.9655L57.6971 63.9377Z" fill="url(#paint10_linear_80_54196)"/>
<path d="M38.4139 96.1965C39.6209 96.9181 40.0107 98.4798 39.2862 99.6918L30.5644 114.282L26.2468 111.701L34.9687 97.1108C35.6931 95.8988 37.2533 95.5027 38.4603 96.2243L38.4139 96.1965Z" fill="url(#paint11_linear_80_54196)"/>
<path d="M66.1248 77.7737C67.3319 78.4952 67.7217 80.0569 66.9972 81.2689L56.0182 99.6349L51.7007 97.0539L62.6796 78.6879C63.4041 77.476 64.9642 77.0799 66.1712 77.8014L66.1248 77.7737Z" fill="url(#paint12_linear_80_54196)"/>
<path d="M58.909 89.8459C60.1161 90.5675 60.5058 92.1292 59.7813 93.3412L46.4617 115.623L42.1442 113.042L55.4638 90.7602C56.1883 89.5482 57.7484 89.1521 58.9554 89.8737L58.909 89.8459Z" fill="url(#paint13_linear_80_54196)"/>
<path d="M91.4647 94.3118C92.6717 95.0333 93.0615 96.595 92.337 97.807L76.8718 123.678L72.5542 121.097L88.0194 95.226C88.7439 94.0141 90.304 93.618 91.5111 94.3395L91.4647 94.3118Z" fill="url(#paint14_linear_80_54196)"/>
<path d="M79.7615 113.891C80.9686 114.612 81.3584 116.174 80.6339 117.386L72.3857 131.184L68.0682 128.603L76.3163 114.805C77.0408 113.593 78.6009 113.197 79.808 113.919L79.7615 113.891Z" fill="url(#paint15_linear_80_54196)"/>
<path d="M107.223 96.8362C108.431 97.5577 108.82 99.1194 108.096 100.331L96.5874 119.583L92.2699 117.002L103.778 97.7504C104.503 96.5385 106.063 96.1424 107.27 96.8639L107.223 96.8362Z" fill="url(#paint16_linear_80_54196)"/>
<path d="M99.5037 109.749C100.711 110.471 101.101 112.033 100.376 113.244L82.598 142.984L78.2804 140.403L96.0585 110.664C96.783 109.452 98.3431 109.055 99.5502 109.777L99.5037 109.749Z" fill="url(#paint17_linear_80_54196)"/>
</g>
<path d="M1720.71 89.6609L1683.33 133.988C1680.28 137.602 1674.89 138.054 1671.29 134.994L1643.04 110.992C1639.44 107.932 1638.99 102.525 1642.03 98.9115L1679.41 54.5805C1681.59 52.0069 1684.62 50.3075 1687.94 49.7913L1692.27 49.1281C1695.4 48.6496 1698.24 47.0557 1700.28 44.6366L1702.74 41.7164L1701.98 41.0721C1701.2 40.4089 1701.1 39.2408 1701.76 38.4571L1707.48 31.6784C1708.14 30.8984 1709.3 30.8004 1710.08 31.4636L1738.36 55.4848C1739.14 56.1442 1739.23 57.3161 1738.58 58.0961L1732.86 64.8748C1732.2 65.6585 1731.03 65.7527 1730.26 65.0933L1729.49 64.4452L1727.04 67.3541C1725 69.777 1723.9 72.8592 1723.94 76.0319L1724 80.4292C1724.05 83.8054 1722.88 87.0836 1720.71 89.6609Z" fill="url(#paint18_linear_80_54196)"/>
<path opacity="0.5" fill-rule="evenodd" clip-rule="evenodd" d="M1830.29 -6.2374L1813.49 -1.10512L1817.78 12.9559L1800.31 18.2944L1805.61 35.6635L1823.09 30.325L1827.22 43.8492L1844.02 38.7169L1839.89 25.1927L1855.4 20.4535L1850.1 3.08434L1834.58 7.8236L1830.29 -6.2374Z" fill="url(#paint19_linear_80_54196)"/>
<path fill-rule="evenodd" clip-rule="evenodd" d="M1806.88 131.794C1802.37 136.327 1795.05 136.36 1790.53 131.867C1786.01 127.375 1786.01 120.056 1790.51 115.523C1794.22 111.799 1799.82 111.112 1804.2 113.477L1809.55 108.098L1806.83 98.0154L1794.74 94.827C1793.62 94.5311 1792.74 93.6584 1792.44 92.5375L1789.17 80.4006L1780.39 78.3516C1779.84 79.5445 1779.07 80.6634 1778.09 81.6502C1773.58 86.1832 1766.26 86.2159 1761.75 81.7233C1757.23 77.2307 1757.22 69.912 1761.73 65.3791C1766.24 60.8461 1773.56 60.8133 1778.07 65.3059C1779.93 67.1529 1781.03 69.4776 1781.36 71.8899L1790.65 74.0603L1799.83 64.8269C1800.65 64.0011 1801.85 63.6748 1802.97 63.9709L1817.13 67.7034C1818.26 67.9993 1819.13 68.872 1819.44 69.9929L1822.68 82.0376L1832.8 84.706L1841.82 75.6374C1842.64 74.8117 1843.84 74.4854 1844.97 74.7815L1859.12 78.514C1860.25 78.8099 1861.12 79.6825 1861.43 80.8034L1864.73 93.0673L1877.08 96.3224C1878.2 96.6183 1879.08 97.491 1879.38 98.6119L1882.42 109.874L1889.15 111.635C1889.65 110.758 1890.27 109.931 1891.02 109.181C1895.53 104.648 1902.85 104.615 1907.36 109.108C1911.88 113.601 1911.89 120.919 1907.38 125.452C1902.87 129.985 1895.55 130.018 1891.04 125.525C1888.93 123.433 1887.81 120.728 1887.66 117.976L1881.81 116.446L1872.01 126.303C1871.19 127.128 1869.99 127.455 1868.87 127.159L1854.71 123.426C1853.58 123.13 1852.71 122.258 1852.4 121.137L1849.1 108.873L1838.72 106.138L1829.69 115.226C1828.86 116.052 1827.67 116.378 1826.54 116.082L1814.05 112.789L1808.82 118.048C1811.24 122.427 1810.59 128.057 1806.88 131.794ZM1774.96 73.489C1774.96 72.1974 1774.46 70.9082 1773.48 69.9275C1771.5 67.9647 1768.3 67.979 1766.33 69.9595C1764.37 71.94 1764.37 75.1388 1766.34 77.1017C1768.32 79.0646 1771.52 79.0503 1773.48 77.0698C1774.16 76.3913 1774.6 75.5697 1774.81 74.7039C1774.79 74.3832 1774.82 74.0536 1774.89 73.7239C1774.91 73.6442 1774.94 73.5659 1774.96 73.489ZM1795.12 120.104C1797.07 118.145 1800.22 118.109 1802.19 120.006C1802.21 120.017 1802.22 120.028 1802.23 120.039C1802.23 120.045 1802.24 120.05 1802.24 120.055C1802.26 120.076 1802.28 120.097 1802.31 120.117C1804.24 122.083 1804.22 125.248 1802.27 127.214C1800.3 129.194 1797.1 129.209 1795.13 127.246C1793.15 125.283 1793.15 122.084 1795.12 120.104ZM1813.19 96.5529L1821.29 88.4048L1831.12 90.9976L1834 101.673L1826.41 109.311L1815.88 106.535L1813.19 96.5529ZM1816.33 83.5001L1813.64 73.5176L1803.11 70.7417L1795.4 78.4984L1798.23 89.0128L1808.23 91.6482L1816.33 83.5001ZM1837.53 89.1705L1840.4 99.846L1850.71 102.563L1858.45 94.7825L1855.63 84.3281L1845.1 81.5523L1837.53 89.1705ZM1855.38 107.158L1863.12 99.3766L1873.59 102.137L1876.42 112.651L1868.73 120.388L1858.2 117.612L1855.38 107.158ZM1902.77 120.872C1900.81 122.852 1897.61 122.867 1895.63 120.904C1893.66 118.941 1893.66 115.742 1895.62 113.762C1897.59 111.781 1900.79 111.767 1902.77 113.73C1904.74 115.693 1904.74 118.891 1902.77 120.872Z" fill="url(#paint20_linear_80_54196)"/>
<g opacity="0.5">
<rect x="213.459" y="-23.9766" width="112.029" height="51.7057" rx="11" transform="rotate(20.9032 213.459 -23.9766)" fill="url(#paint21_linear_80_54196)"/>
<circle cx="224.249" cy="-3.92204" r="7.05078" transform="rotate(20.9032 224.249 -3.92204)" fill="url(#paint22_linear_80_54196)"/>
<circle cx="248.4" cy="5.30257" r="7.05078" transform="rotate(20.9032 248.4 5.30257)" fill="url(#paint23_linear_80_54196)"/>
<circle cx="272.552" cy="14.5262" r="7.05078" transform="rotate(20.9032 272.552 14.5262)" fill="url(#paint24_linear_80_54196)"/>
<circle cx="296.703" cy="23.7518" r="7.05078" transform="rotate(20.9032 296.703 23.7518)" fill="url(#paint25_linear_80_54196)"/>
<circle cx="216.702" cy="15.8377" r="7.05078" transform="rotate(20.9032 216.702 15.8377)" fill="url(#paint26_linear_80_54196)"/>
<circle cx="240.853" cy="25.0623" r="7.05078" transform="rotate(20.9032 240.853 25.0623)" fill="url(#paint27_linear_80_54196)"/>
<circle cx="265.005" cy="34.286" r="7.05078" transform="rotate(20.9032 265.005 34.286)" fill="url(#paint28_linear_80_54196)"/>
<circle cx="289.156" cy="43.5106" r="7.05078" transform="rotate(20.9032 289.156 43.5106)" fill="url(#paint29_linear_80_54196)"/>
</g>
</g>
</g>
<defs>
<linearGradient id="paint0_linear_80_54196" x1="1920" y1="49.102" x2="7.47854" y2="49.102" gradientUnits="userSpaceOnUse">
<stop stop-color="#FF9B53"/>
<stop offset="0.29919" stop-color="#FF6B00"/>
<stop offset="0.741898" stop-color="#FF6B00"/>
<stop offset="1" stop-color="#FF9B53"/>
</linearGradient>
<linearGradient id="paint1_linear_80_54196" x1="214.8" y1="85.0234" x2="214.8" y2="123.485" gradientUnits="userSpaceOnUse">
<stop stop-color="#FAFAFA"/>
<stop offset="1" stop-color="#FAFAFA" stop-opacity="0"/>
</linearGradient>
<linearGradient id="paint2_linear_80_54196" x1="233.55" y1="78.7735" x2="193.09" y2="110.681" gradientUnits="userSpaceOnUse">
<stop offset="0.0588133" stop-color="#FCFDFD"/>
<stop offset="1" stop-color="#FCFDFD" stop-opacity="0"/>
</linearGradient>
<linearGradient id="paint3_linear_80_54196" x1="2.91757" y1="39.9878" x2="-11.2101" y2="63.6212" gradientUnits="userSpaceOnUse">
<stop stop-color="white"/>
<stop offset="0.793005" stop-color="white" stop-opacity="0"/>
</linearGradient>
<linearGradient id="paint4_linear_80_54196" x1="52.6861" y1="58.0894" x2="20.3849" y2="112.124" gradientUnits="userSpaceOnUse">
<stop stop-color="white"/>
<stop offset="0.793005" stop-color="white" stop-opacity="0"/>
</linearGradient>
<linearGradient id="paint5_linear_80_54196" x1="52.6847" y1="58.0916" x2="20.3836" y2="112.126" gradientUnits="userSpaceOnUse">
<stop stop-color="white"/>
<stop offset="0.793005" stop-color="white" stop-opacity="0"/>
</linearGradient>
<linearGradient id="paint6_linear_80_54196" x1="27.5504" y1="56.5483" x2="6.9022" y2="91.0894" gradientUnits="userSpaceOnUse">
<stop stop-color="white"/>
<stop offset="0.793005" stop-color="white" stop-opacity="0"/>
</linearGradient>
<linearGradient id="paint7_linear_80_54196" x1="15.0396" y1="77.478" x2="6.17848" y2="92.3013" gradientUnits="userSpaceOnUse">
<stop stop-color="white"/>
<stop offset="0.793005" stop-color="white" stop-opacity="0"/>
</linearGradient>
<linearGradient id="paint8_linear_80_54196" x1="43.9127" y1="58.1684" x2="29.172" y2="82.8273" gradientUnits="userSpaceOnUse">
<stop stop-color="white"/>
<stop offset="0.793005" stop-color="white" stop-opacity="0"/>
</linearGradient>
<linearGradient id="paint9_linear_80_54196" x1="34.2437" y1="74.3422" x2="15.156" y2="106.273" gradientUnits="userSpaceOnUse">
<stop stop-color="white"/>
<stop offset="0.793005" stop-color="white" stop-opacity="0"/>
</linearGradient>
<linearGradient id="paint10_linear_80_54196" x1="57.7203" y1="63.9516" x2="33.3382" y2="104.739" gradientUnits="userSpaceOnUse">
<stop stop-color="white"/>
<stop offset="0.793005" stop-color="white" stop-opacity="0"/>
</linearGradient>
<linearGradient id="paint11_linear_80_54196" x1="38.4371" y1="96.2104" x2="28.4056" y2="112.992" gradientUnits="userSpaceOnUse">
<stop stop-color="white"/>
<stop offset="0.793005" stop-color="white" stop-opacity="0"/>
</linearGradient>
<linearGradient id="paint12_linear_80_54196" x1="66.148" y1="77.7876" x2="53.8595" y2="98.3444" gradientUnits="userSpaceOnUse">
<stop stop-color="white"/>
<stop offset="0.793005" stop-color="white" stop-opacity="0"/>
</linearGradient>
<linearGradient id="paint13_linear_80_54196" x1="58.9322" y1="89.8598" x2="44.3029" y2="114.332" gradientUnits="userSpaceOnUse">
<stop stop-color="white"/>
<stop offset="0.793005" stop-color="white" stop-opacity="0"/>
</linearGradient>
<linearGradient id="paint14_linear_80_54196" x1="91.4879" y1="94.3256" x2="74.713" y2="122.387" gradientUnits="userSpaceOnUse">
<stop stop-color="white"/>
<stop offset="0.793005" stop-color="white" stop-opacity="0"/>
</linearGradient>
<linearGradient id="paint15_linear_80_54196" x1="79.7848" y1="113.905" x2="70.227" y2="129.893" gradientUnits="userSpaceOnUse">
<stop stop-color="white"/>
<stop offset="0.793005" stop-color="white" stop-opacity="0"/>
</linearGradient>
<linearGradient id="paint16_linear_80_54196" x1="107.247" y1="96.8501" x2="94.4286" y2="118.293" gradientUnits="userSpaceOnUse">
<stop stop-color="white"/>
<stop offset="0.793005" stop-color="white" stop-opacity="0"/>
</linearGradient>
<linearGradient id="paint17_linear_80_54196" x1="99.5269" y1="109.763" x2="80.4392" y2="141.694" gradientUnits="userSpaceOnUse">
<stop stop-color="white"/>
<stop offset="0.793005" stop-color="white" stop-opacity="0"/>
</linearGradient>
<linearGradient id="paint18_linear_80_54196" x1="1781.28" y1="-45.9892" x2="1684.57" y2="100.361" gradientUnits="userSpaceOnUse">
<stop stop-color="#FCFCFC"/>
<stop offset="1" stop-color="white" stop-opacity="0"/>
</linearGradient>
<linearGradient id="paint19_linear_80_54196" x1="1852.74" y1="11.7422" x2="1802.95" y2="26.9522" gradientUnits="userSpaceOnUse">
<stop stop-color="white"/>
<stop offset="1" stop-color="white" stop-opacity="0"/>
</linearGradient>
<linearGradient id="paint20_linear_80_54196" x1="1786.28" y1="104.479" x2="2139.62" y2="181.322" gradientUnits="userSpaceOnUse">
<stop stop-color="white" stop-opacity="0"/>
<stop offset="1" stop-color="white"/>
</linearGradient>
<linearGradient id="paint21_linear_80_54196" x1="269.474" y1="-23.9766" x2="269.474" y2="27.7291" gradientUnits="userSpaceOnUse">
<stop stop-color="white"/>
<stop offset="1" stop-color="white" stop-opacity="0"/>
</linearGradient>
<linearGradient id="paint22_linear_80_54196" x1="224.249" y1="-10.9728" x2="224.249" y2="3.12874" gradientUnits="userSpaceOnUse">
<stop stop-color="white"/>
<stop offset="1" stop-color="white" stop-opacity="0"/>
</linearGradient>
<linearGradient id="paint23_linear_80_54196" x1="248.4" y1="-1.74821" x2="248.4" y2="12.3533" gradientUnits="userSpaceOnUse">
<stop stop-color="white"/>
<stop offset="1" stop-color="white" stop-opacity="0"/>
</linearGradient>
<linearGradient id="paint24_linear_80_54196" x1="272.552" y1="7.47543" x2="272.552" y2="21.577" gradientUnits="userSpaceOnUse">
<stop stop-color="white"/>
<stop offset="1" stop-color="white" stop-opacity="0"/>
</linearGradient>
<linearGradient id="paint25_linear_80_54196" x1="296.703" y1="16.701" x2="296.703" y2="30.8026" gradientUnits="userSpaceOnUse">
<stop stop-color="white"/>
<stop offset="1" stop-color="white" stop-opacity="0"/>
</linearGradient>
<linearGradient id="paint26_linear_80_54196" x1="216.702" y1="8.78695" x2="216.702" y2="22.8885" gradientUnits="userSpaceOnUse">
<stop stop-color="white"/>
<stop offset="1" stop-color="white" stop-opacity="0"/>
</linearGradient>
<linearGradient id="paint27_linear_80_54196" x1="240.853" y1="18.0116" x2="240.853" y2="32.1131" gradientUnits="userSpaceOnUse">
<stop stop-color="white"/>
<stop offset="1" stop-color="white" stop-opacity="0"/>
</linearGradient>
<linearGradient id="paint28_linear_80_54196" x1="265.005" y1="27.2352" x2="265.005" y2="41.3367" gradientUnits="userSpaceOnUse">
<stop stop-color="white"/>
<stop offset="1" stop-color="white" stop-opacity="0"/>
</linearGradient>
<linearGradient id="paint29_linear_80_54196" x1="289.156" y1="36.4598" x2="289.156" y2="50.5614" gradientUnits="userSpaceOnUse">
<stop stop-color="white"/>
<stop offset="1" stop-color="white" stop-opacity="0"/>
</linearGradient>
</defs>
</svg>
