<svg width="134" height="45" viewBox="0 0 134 45" fill="none" xmlns="http://www.w3.org/2000/svg">
<path d="M64.954 18.3769C64.954 18.8638 64.1876 19.0121 63.6358 19.0121C62.9192 19.0121 62.2295 18.7459 62.2295 17.544V12.0671H61.4975C61.3892 12.057 61.2886 12.0071 61.2154 11.9273C61.1421 11.8475 61.1016 11.7434 61.1016 11.6354C61.1016 11.5274 61.1421 11.4233 61.2154 11.3435C61.2886 11.2637 61.3892 11.2138 61.4975 11.2037H62.2295V9.85351C62.2295 9.71935 62.2831 9.59068 62.3787 9.49582C62.4743 9.40095 62.6039 9.34766 62.7391 9.34766C62.8743 9.34766 63.0039 9.40095 63.0995 9.49582C63.1951 9.59068 63.2488 9.71935 63.2488 9.85351V11.2037H64.5018C64.5624 11.1981 64.6234 11.205 64.6811 11.2242C64.7388 11.2433 64.7918 11.2742 64.8368 11.3148C64.8818 11.3554 64.9177 11.4049 64.9423 11.4601C64.9669 11.5154 64.9795 11.575 64.9795 11.6354C64.9795 11.6958 64.9669 11.7555 64.9423 11.8107C64.9177 11.8659 64.8818 11.9154 64.8368 11.956C64.7918 11.9967 64.7388 12.0275 64.6811 12.0467C64.6234 12.0658 64.5624 12.0727 64.5018 12.0671H63.2488V17.4679C63.2488 17.9434 63.4557 18.1221 63.8466 18.1221C64.0497 18.1165 64.2511 18.0819 64.4444 18.0194C64.502 17.9994 64.5636 17.9934 64.6241 18.0018C64.6845 18.0102 64.7421 18.0329 64.792 18.0679C64.8418 18.1028 64.8826 18.1491 64.9108 18.2029C64.9389 18.2567 64.9538 18.3163 64.954 18.3769Z" fill="white"/>
<path d="M70.9202 11.622C70.9202 11.9186 70.6635 12.1088 70.2304 12.1088C69.5995 12.1154 68.9902 12.3377 68.5051 12.7381C68.02 13.1385 67.6888 13.6927 67.5672 14.3072V18.4909C67.5733 18.5608 67.5647 18.6311 67.542 18.6975C67.5193 18.7639 67.4829 18.8249 67.4351 18.8766C67.3874 18.9283 67.3293 18.9695 67.2647 18.9978C67.2 19.026 67.1301 19.0406 67.0595 19.0406C66.9888 19.0406 66.9189 19.026 66.8543 18.9978C66.7896 18.9695 66.7315 18.9283 66.6838 18.8766C66.6361 18.8249 66.5997 18.7639 66.5769 18.6975C66.5542 18.6311 66.5456 18.5608 66.5517 18.4909V11.679C66.5456 11.6092 66.5542 11.5388 66.5769 11.4724C66.5997 11.406 66.6361 11.345 66.6838 11.2933C66.7315 11.2417 66.7896 11.2004 66.8543 11.1721C66.9189 11.1439 66.9888 11.1293 67.0595 11.1293C67.1301 11.1293 67.2 11.1439 67.2647 11.1721C67.3293 11.2004 67.3874 11.2417 67.4351 11.2933C67.4829 11.345 67.5193 11.406 67.542 11.4724C67.5647 11.5388 67.5733 11.6092 67.5672 11.679V13.014C67.7792 12.4609 68.1538 11.9839 68.6424 11.6448C69.1309 11.3057 69.7109 11.1201 70.3071 11.1123C70.6941 11.1503 70.9202 11.3367 70.9202 11.622Z" fill="white"/>
<path d="M72.5186 15.7908V11.6946C72.5186 11.6281 72.5317 11.5624 72.5573 11.501C72.583 11.4396 72.6205 11.3838 72.6678 11.3369C72.7152 11.2899 72.7713 11.2526 72.8332 11.2272C72.895 11.2018 72.9613 11.1887 73.0282 11.1887C73.0951 11.1887 73.1614 11.2018 73.2232 11.2272C73.2851 11.2526 73.3413 11.2899 73.3886 11.3369C73.4359 11.3838 73.4735 11.4396 73.4991 11.501C73.5247 11.5624 73.5379 11.6281 73.5379 11.6946V15.7908C73.5379 17.5138 74.5993 18.1375 75.7029 18.1375C76.3408 18.125 76.9537 17.8891 77.4333 17.4715C77.9129 17.0539 78.2284 16.4816 78.324 15.8555V11.6717C78.3179 11.6019 78.3265 11.5315 78.3492 11.4651C78.372 11.3987 78.4084 11.3378 78.4561 11.2861C78.5039 11.2344 78.5619 11.1931 78.6266 11.1649C78.6912 11.1367 78.7611 11.1221 78.8318 11.1221C78.9024 11.1221 78.9723 11.1367 79.037 11.1649C79.1016 11.1931 79.1597 11.2344 79.2074 11.2861C79.2552 11.3378 79.2916 11.3987 79.3143 11.4651C79.3371 11.5315 79.3456 11.6019 79.3395 11.6717V18.4951C79.3456 18.5649 79.3371 18.6353 79.3143 18.7017C79.2916 18.7681 79.2552 18.829 79.2074 18.8807C79.1597 18.9324 79.1016 18.9737 79.037 19.0019C78.9723 19.0302 78.9024 19.0447 78.8318 19.0447C78.7611 19.0447 78.6912 19.0302 78.6266 19.0019C78.5619 18.9737 78.5039 18.9324 78.4561 18.8807C78.4084 18.829 78.372 18.7681 78.3492 18.7017C78.3265 18.6353 78.3179 18.5649 78.324 18.4951V17.1563C78.2321 17.6469 77.2894 19.058 75.4654 19.058C74.0743 19.0427 72.5186 18.2402 72.5186 15.7908Z" fill="white"/>
<path d="M88.1921 14.3794V18.4795C88.1982 18.5494 88.1896 18.6197 88.1669 18.6861C88.1441 18.7525 88.1077 18.8135 88.06 18.8652C88.0122 18.9169 87.9542 18.9581 87.8895 18.9864C87.8249 19.0146 87.755 19.0292 87.6843 19.0292C87.6137 19.0292 87.5438 19.0146 87.4791 18.9864C87.4145 18.9581 87.3564 18.9169 87.3087 18.8652C87.2609 18.8135 87.2245 18.7525 87.2018 18.6861C87.179 18.6197 87.1705 18.5494 87.1766 18.4795V14.3794C87.1766 12.6603 86.1151 12.0365 85.0077 12.0365C84.3691 12.0454 83.7548 12.2801 83.275 12.6985C82.7952 13.1168 82.4816 13.6912 82.3904 14.3186V18.5023C82.3904 18.6365 82.3367 18.7652 82.2411 18.86C82.1456 18.9549 82.0159 19.0082 81.8808 19.0082C81.7456 19.0082 81.616 18.9549 81.5204 18.86C81.4248 18.7652 81.3711 18.6365 81.3711 18.5023V11.679C81.3711 11.5449 81.4248 11.4162 81.5204 11.3213C81.616 11.2265 81.7456 11.1732 81.8808 11.1732C82.0159 11.1732 82.1456 11.2265 82.2411 11.3213C82.3367 11.4162 82.3904 11.5449 82.3904 11.679V13.014C82.4785 12.5272 83.4212 11.1123 85.2453 11.1123C86.6593 11.1503 88.1921 11.93 88.1921 14.3794Z" fill="white"/>
<path d="M97.4805 11.6796V18.7767C97.4805 21.2261 95.369 21.9678 93.7864 21.9678C93.0506 21.9806 92.3238 21.8065 91.675 21.4619C91.5883 21.427 91.5139 21.3678 91.4607 21.2914C91.4076 21.215 91.3782 21.1249 91.3761 21.0321C91.379 20.9231 91.4239 20.8193 91.5016 20.7422C91.5793 20.665 91.6839 20.6204 91.7938 20.6176C91.9077 20.6283 92.0191 20.6579 92.1233 20.705C92.6479 20.9641 93.2274 21.0946 93.8132 21.0854C95.2502 21.0854 96.4611 20.3856 96.4611 18.8033V18.6398C96.4539 18.6008 96.4539 18.5608 96.4611 18.5219V17.2363C96.2294 17.7748 95.8407 18.2321 95.3448 18.5493C94.849 18.8665 94.2689 19.0292 93.6791 19.0163C92.0045 19.0163 89.9697 17.727 89.9697 15.0532C89.9697 12.3794 92.0045 11.1052 93.6791 11.1052C94.2532 11.0858 94.8207 11.2308 95.314 11.5228C95.8073 11.8148 96.2055 12.2416 96.4611 12.7521V11.6796C96.4599 11.5454 96.5104 11.4159 96.6023 11.3176C96.6942 11.2193 96.8206 11.1596 96.9555 11.1509C97.0252 11.1504 97.0943 11.1637 97.1588 11.1902C97.2232 11.2167 97.2816 11.2557 97.3306 11.305C97.3796 11.3543 97.418 11.4129 97.4438 11.4772C97.4695 11.5415 97.482 11.6103 97.4805 11.6796ZM96.5071 15.0646C96.5071 12.9271 95.0395 12.0219 93.7711 12.0219C92.5027 12.0219 90.9737 13.0031 90.9737 15.0646C90.9737 17.126 92.5065 18.1377 93.7711 18.1377C95.0356 18.1377 96.5071 17.1565 96.5071 15.0646Z" fill="white"/>
<path d="M102.669 18.3769C102.669 18.8638 101.922 19.0121 101.351 19.0121C100.634 19.0121 99.9443 18.7459 99.9443 17.544V12.0671H99.2124C99.1041 12.057 99.0035 12.0071 98.9302 11.9273C98.857 11.8475 98.8164 11.7434 98.8164 11.6354C98.8164 11.5274 98.857 11.4233 98.9302 11.3435C99.0035 11.2637 99.1041 11.2138 99.2124 11.2037H99.9443V9.85351C99.9443 9.71935 99.998 9.59068 100.094 9.49582C100.189 9.40095 100.319 9.34766 100.454 9.34766C100.589 9.34766 100.719 9.40095 100.814 9.49582C100.91 9.59068 100.964 9.71935 100.964 9.85351V11.2037H102.221C102.281 11.1981 102.342 11.205 102.4 11.2242C102.457 11.2433 102.51 11.2742 102.555 11.3148C102.6 11.3554 102.636 11.4049 102.661 11.4601C102.686 11.5154 102.698 11.575 102.698 11.6354C102.698 11.6958 102.686 11.7555 102.661 11.8107C102.636 11.8659 102.6 11.9154 102.555 11.956C102.51 11.9967 102.457 12.0275 102.4 12.0467C102.342 12.0658 102.281 12.0727 102.221 12.0671H100.964V17.4679C100.964 17.9434 101.171 18.1221 101.561 18.1221C101.765 18.1165 101.966 18.0819 102.159 18.0194C102.217 17.9994 102.278 17.9934 102.339 18.0018C102.399 18.0102 102.457 18.0329 102.507 18.0679C102.557 18.1028 102.597 18.1491 102.626 18.2029C102.654 18.2567 102.669 18.3163 102.669 18.3769Z" fill="white"/>
<path d="M110.31 12.7633V11.6793C110.308 11.5424 110.36 11.4102 110.455 11.3112C110.551 11.2123 110.682 11.1546 110.819 11.1506C110.888 11.1501 110.956 11.1631 111.019 11.189C111.083 11.2148 111.141 11.2529 111.189 11.301C111.238 11.3491 111.276 11.4064 111.302 11.4693C111.328 11.5323 111.341 11.5998 111.341 11.6679V18.495C111.347 18.5659 111.338 18.6373 111.315 18.7046C111.292 18.772 111.255 18.8338 111.206 18.8863C111.158 18.9387 111.099 18.9805 111.033 19.0092C110.968 19.0378 110.897 19.0526 110.825 19.0526C110.753 19.0526 110.683 19.0378 110.617 19.0092C110.551 18.9805 110.492 18.9387 110.444 18.8863C110.396 18.8338 110.359 18.772 110.335 18.7046C110.312 18.6373 110.304 18.5659 110.31 18.495V17.2361C110.078 17.7745 109.689 18.2318 109.193 18.5491C108.698 18.8663 108.118 19.0289 107.528 19.0161C105.853 19.0161 103.818 17.7267 103.818 15.0529C103.818 12.3791 105.853 11.105 107.528 11.105C108.103 11.0871 108.671 11.2339 109.164 11.528C109.658 11.8221 110.055 12.2509 110.31 12.7633ZM110.371 15.0643C110.371 12.9268 108.903 12.0216 107.631 12.0216C106.359 12.0216 104.834 13.0029 104.834 15.0643C104.834 17.1258 106.367 18.1375 107.631 18.1375C108.896 18.1375 110.371 17.1562 110.371 15.0643Z" fill="white"/>
<path d="M126.013 14.3805V18.4806C126.011 18.6152 125.957 18.744 125.863 18.8403C125.768 18.9366 125.639 18.993 125.504 18.9978C125.369 18.9903 125.243 18.9329 125.149 18.8371C125.055 18.7413 125.001 18.614 124.998 18.4806V14.3805C124.998 12.6614 123.932 12.0376 122.84 12.0376C122.2 12.0475 121.585 12.2822 121.103 12.7C120.621 13.1178 120.304 13.6917 120.208 14.3197V18.5034C120.214 18.5733 120.205 18.6436 120.183 18.71C120.16 18.7764 120.123 18.8374 120.076 18.8891C120.028 18.9408 119.97 18.982 119.905 19.0103C119.841 19.0385 119.771 19.0531 119.7 19.0531C119.629 19.0531 119.559 19.0385 119.495 19.0103C119.43 18.982 119.372 18.9408 119.324 18.8891C119.277 18.8374 119.24 18.7764 119.217 18.71C119.195 18.6436 119.186 18.5733 119.192 18.5034V14.3805C119.192 12.6614 118.131 12.0376 117.023 12.0376C116.385 12.0465 115.77 12.2812 115.291 12.6995C114.811 13.1178 114.497 13.6923 114.406 14.3197V18.5034C114.412 18.5733 114.404 18.6436 114.381 18.71C114.358 18.7764 114.322 18.8374 114.274 18.8891C114.226 18.9408 114.168 18.982 114.104 19.0103C114.039 19.0385 113.969 19.0531 113.898 19.0531C113.828 19.0531 113.758 19.0385 113.693 19.0103C113.628 18.982 113.57 18.9408 113.523 18.8891C113.475 18.8374 113.439 18.7764 113.416 18.71C113.393 18.6436 113.384 18.5733 113.391 18.5034V11.6801C113.384 11.6102 113.393 11.5399 113.416 11.4735C113.439 11.4071 113.475 11.3461 113.523 11.2944C113.57 11.2427 113.628 11.2015 113.693 11.1732C113.758 11.145 113.828 11.1304 113.898 11.1304C113.969 11.1304 114.039 11.145 114.104 11.1732C114.168 11.2015 114.226 11.2427 114.274 11.2944C114.322 11.3461 114.358 11.4071 114.381 11.4735C114.404 11.5399 114.412 11.6102 114.406 11.6801V13.0151C114.494 12.5283 115.437 11.1134 117.265 11.1134C117.884 11.0799 118.495 11.2573 118.999 11.6164C119.502 11.9754 119.866 12.4945 120.031 13.0874C120.292 12.4969 120.721 11.9953 121.266 11.6445C121.811 11.2936 122.448 11.109 123.097 11.1134C124.473 11.1514 126.013 11.9311 126.013 14.3805Z" fill="white"/>
<path d="M61.6241 22.1807V31.3089C61.6142 31.579 61.4993 31.8348 61.3036 32.0227C61.1078 32.2106 60.8464 32.316 60.5741 32.3168C60.3031 32.3178 60.0426 32.2124 59.8495 32.0236C59.6564 31.8348 59.5463 31.5779 59.5433 31.3089V31.0122C59.4168 31.4952 58.5891 32.332 57.2441 32.332C55.5235 32.332 53.4619 31.0122 53.4619 28.1901C53.4619 25.4288 55.5389 24.0596 57.2441 24.0596C57.7142 24.0395 58.1802 24.1531 58.5875 24.3869C58.9948 24.6207 59.3264 24.965 59.5433 25.3794V25.1169C59.5357 25.0601 59.5357 25.0026 59.5433 24.9458V22.1807C59.5482 21.9145 59.6566 21.6606 59.8459 21.472C60.0352 21.2834 60.2906 21.1748 60.5588 21.169C60.8341 21.1668 61.0994 21.2713 61.2983 21.4602C61.4973 21.6491 61.6141 21.9076 61.6241 22.1807ZM59.6391 28.2167C59.6391 26.4633 58.4895 25.8243 57.6043 25.8243C56.5735 25.8243 55.4929 26.6345 55.4929 28.2167C55.4929 29.7989 56.5735 30.6052 57.6043 30.6052C58.4818 30.59 59.6391 29.9548 59.6391 28.2015V28.2167Z" fill="white"/>
<path d="M63.5742 28.6461V25.128C63.5902 24.8689 63.7051 24.6256 63.8956 24.4478C64.0861 24.2699 64.3378 24.1709 64.5993 24.1709C64.8608 24.1709 65.1125 24.2699 65.3029 24.4478C65.4934 24.6256 65.6084 24.8689 65.6243 25.128V28.6461C65.6243 30.042 66.3601 30.6163 67.2798 30.6163C68.6899 30.6163 69.1574 29.3117 69.2188 28.8781V25.128C69.2347 24.8689 69.3497 24.6256 69.5402 24.4478C69.7306 24.2699 69.9823 24.1709 70.2438 24.1709C70.5053 24.1709 70.757 24.2699 70.9475 24.4478C71.138 24.6256 71.2529 24.8689 71.2689 25.128V31.3085C71.2774 31.4474 71.2573 31.5865 71.2096 31.7173C71.162 31.8481 71.0879 31.9678 70.9918 32.0692C70.8958 32.1705 70.7799 32.2512 70.6513 32.3064C70.5226 32.3616 70.384 32.3901 70.2438 32.3901C70.1037 32.3901 69.965 32.3616 69.8364 32.3064C69.7077 32.2512 69.5918 32.1705 69.4958 32.0692C69.3998 31.9678 69.3257 31.8481 69.278 31.7173C69.2304 31.5865 69.2102 31.4474 69.2188 31.3085V30.5478C69.1574 31.1069 68.2339 32.3773 66.5364 32.3773C64.9691 32.343 63.5742 31.3085 63.5742 28.6461Z" fill="white"/>
<path d="M81.2591 28.2173C81.2591 30.9938 78.8679 32.344 77.0861 32.344C75.3042 32.344 72.9092 30.9938 72.9092 28.2173C72.9122 27.1211 73.3526 26.0707 74.1339 25.2959C74.9152 24.5211 75.9739 24.085 77.0784 24.083C78.8679 24.083 81.2591 25.456 81.2591 28.2173ZM74.944 28.2173C74.944 29.7082 75.9748 30.5754 77.0861 30.5754C78.1973 30.5754 79.2282 29.7082 79.2282 28.2173C79.2282 26.7264 78.1782 25.844 77.0861 25.844C75.9939 25.844 74.944 26.7112 74.944 28.2173Z" fill="white"/>
<path d="M89.6549 30.5138C89.6362 30.7026 89.5744 30.8846 89.4741 31.0461C89.3738 31.2076 89.2378 31.3442 89.0763 31.4457C88.4058 32.0364 87.5312 32.3471 86.6353 32.3128C84.7461 32.3128 82.4623 30.9626 82.4623 28.2014C82.455 27.6565 82.5581 27.1158 82.7655 26.6112C82.973 26.1067 83.2805 25.6487 83.6697 25.2645C84.059 24.8802 84.5221 24.5776 85.0316 24.3745C85.541 24.1714 86.0864 24.072 86.6353 24.0823C87.5298 24.0441 88.4044 24.3508 89.0763 24.938C89.2369 25.0441 89.3719 25.1839 89.4719 25.3476C89.5719 25.5113 89.6344 25.6948 89.6549 25.8851C89.6515 25.9892 89.6273 26.0915 89.5837 26.1863C89.5401 26.281 89.4781 26.3662 89.4011 26.4369C89.3241 26.5077 89.2337 26.5626 89.1352 26.5984C89.0367 26.6343 88.932 26.6504 88.8272 26.6458C88.5308 26.6341 88.2483 26.5182 88.0302 26.3187C87.6665 26.0036 87.1985 25.8329 86.7158 25.8395C85.4819 25.8395 84.4932 26.6914 84.4932 28.1976C84.4932 29.7037 85.4819 30.5405 86.7158 30.5405C87.1989 30.5456 87.6669 30.3736 88.0302 30.0574C88.2498 29.8607 88.5317 29.7464 88.8272 29.7341C88.9336 29.7295 89.0399 29.7463 89.1396 29.7833C89.2393 29.8203 89.3306 29.8769 89.4078 29.9496C89.485 30.0224 89.5467 30.1099 89.5892 30.2068C89.6317 30.3037 89.654 30.4081 89.6549 30.5138Z" fill="white"/>
<path d="M99.473 28.2022C99.473 31.0243 97.4076 32.3441 95.6908 32.3441C94.3305 32.3441 93.4989 31.5074 93.3916 31.0243V31.3096C93.3999 31.3663 93.3999 31.424 93.3916 31.4807V34.2724C93.3856 34.5412 93.2741 34.7969 93.0808 34.9852C92.8875 35.1735 92.6278 35.2794 92.357 35.2803C92.0859 35.2814 91.8255 35.176 91.6324 34.9872C91.4393 34.7984 91.3292 34.5414 91.3262 34.2724V25.129C91.3379 24.8596 91.4534 24.6048 91.6487 24.4173C91.8441 24.2298 92.1044 24.1238 92.3761 24.1211C92.6463 24.1231 92.9051 24.2294 93.0975 24.4176C93.29 24.6057 93.401 24.861 93.407 25.129V25.3915C93.6235 24.9768 93.955 24.6322 94.3624 24.3984C94.7698 24.1646 95.236 24.0512 95.7062 24.0717C97.3884 24.0831 99.473 25.4409 99.473 28.2022ZM97.4267 28.2022C97.4267 26.62 96.3461 25.8099 95.3153 25.8099C94.4378 25.8099 93.2805 26.4488 93.2805 28.2022C93.2805 29.9556 94.4301 30.5907 95.3153 30.5907C96.3461 30.5907 97.4267 29.7882 97.4267 28.2022Z" fill="white"/>
<path d="M108.808 27.7983V31.3089C108.792 31.568 108.677 31.8112 108.487 31.9891C108.296 32.1669 108.044 32.266 107.783 32.266C107.521 32.266 107.27 32.1669 107.079 31.9891C106.889 31.8112 106.774 31.568 106.758 31.3089V27.8021C106.758 26.4063 106.022 25.832 105.102 25.832C103.692 25.832 103.225 27.1327 103.163 27.5701V31.3089C103.147 31.568 103.032 31.8112 102.842 31.9891C102.652 32.1669 102.4 32.266 102.138 32.266C101.877 32.266 101.625 32.1669 101.435 31.9891C101.244 31.8112 101.129 31.568 101.113 31.3089V22.1807C101.129 21.9216 101.244 21.6784 101.435 21.5005C101.625 21.3227 101.877 21.2236 102.138 21.2236C102.4 21.2236 102.652 21.3227 102.842 21.5005C103.032 21.6784 103.147 21.9216 103.163 22.1807V25.9347C103.225 25.3756 104.148 24.1052 105.846 24.1052C107.417 24.0824 108.808 25.1131 108.808 27.7983Z" fill="white"/>
<path d="M118.625 25.1287V31.3093C118.615 31.5794 118.5 31.8352 118.305 32.0231C118.109 32.211 117.847 32.3164 117.575 32.3172C117.305 32.3172 117.045 32.2114 116.853 32.0227C116.661 31.834 116.551 31.5776 116.548 31.3093V31.0126C116.426 31.4956 115.594 32.3324 114.249 32.3324C112.528 32.3324 110.467 31.0126 110.467 28.1905C110.467 25.4292 112.548 24.06 114.249 24.06C114.719 24.0395 115.185 24.1528 115.593 24.3867C116 24.6205 116.332 24.9651 116.548 25.3798V25.1173C116.554 24.8492 116.665 24.594 116.858 24.4058C117.05 24.2177 117.309 24.1113 117.579 24.1094C117.852 24.1132 118.113 24.2212 118.308 24.411C118.503 24.6009 118.616 24.8579 118.625 25.1287ZM116.64 28.2019C116.64 26.4485 115.491 25.8095 114.605 25.8095C113.575 25.8095 112.494 26.6197 112.494 28.2019C112.494 29.7841 113.575 30.5904 114.605 30.5904C115.483 30.5904 116.64 29.9553 116.64 28.2019Z" fill="white"/>
<path d="M133.914 27.7986V31.3091C133.899 31.5682 133.784 31.8115 133.593 31.9893C133.403 32.1672 133.151 32.2662 132.889 32.2662C132.628 32.2662 132.376 32.1672 132.186 31.9893C131.995 31.8115 131.88 31.5682 131.864 31.3091V27.8024C131.864 26.4065 131.132 25.8322 130.209 25.8322C128.803 25.8322 128.316 27.133 128.27 27.5704V31.3091C128.27 31.5785 128.162 31.8368 127.97 32.0272C127.778 32.2177 127.518 32.3246 127.247 32.3246C126.975 32.3246 126.715 32.2177 126.523 32.0272C126.331 31.8368 126.224 31.5785 126.224 31.3091V27.8024C126.224 26.4065 125.488 25.8322 124.564 25.8322C123.158 25.8322 122.687 27.133 122.625 27.5704V31.3091C122.625 31.5785 122.518 31.8368 122.326 32.0272C122.134 32.2177 121.874 32.3246 121.602 32.3246C121.331 32.3246 121.071 32.2177 120.879 32.0272C120.687 31.8368 120.579 31.5785 120.579 31.3091V25.1438C120.579 25.0105 120.606 24.8784 120.657 24.7552C120.708 24.632 120.784 24.52 120.879 24.4257C120.974 24.3314 121.087 24.2566 121.211 24.2056C121.335 24.1546 121.468 24.1283 121.602 24.1283C121.737 24.1283 121.87 24.1546 121.994 24.2056C122.118 24.2566 122.231 24.3314 122.326 24.4257C122.421 24.52 122.496 24.632 122.548 24.7552C122.599 24.8784 122.625 25.0105 122.625 25.1438V25.9045C122.687 25.3454 123.61 24.0751 125.308 24.0751C125.913 24.0475 126.51 24.2242 127.001 24.5765C127.493 24.9287 127.849 25.4357 128.013 26.0148C128.258 25.4413 128.667 24.9518 129.189 24.6069C129.712 24.2621 130.325 24.0772 130.952 24.0751C132.523 24.0827 133.914 25.1134 133.914 27.7986Z" fill="white"/>
<path d="M39.0374 14.1243H36.8187C36.3817 14.1248 35.949 14.0398 35.5452 13.874C35.1414 13.7083 34.7746 13.4651 34.4656 13.1585C34.1566 12.8518 33.9116 12.4877 33.7447 12.0869C33.5777 11.6862 33.492 11.2566 33.4925 10.823V8.62459C33.4925 6.43666 32.6168 4.33835 31.0581 2.79125C29.4994 1.24415 27.3853 0.375 25.1809 0.375C22.9765 0.375 20.8624 1.24415 19.3037 2.79125C17.745 4.33835 16.8693 6.43666 16.8693 8.62459V10.823C16.8693 11.6946 16.522 12.5309 15.9032 13.1493C15.2844 13.7678 14.4443 14.1183 13.5661 14.1243H11.332C9.12732 14.1243 7.01283 14.9933 5.45349 16.5403C3.89415 18.0873 3.01762 20.1856 3.0166 22.3739C3.01762 24.5622 3.89415 26.6605 5.45349 28.2075C7.01283 29.7545 9.12732 30.6235 11.332 30.6235H13.5661C14.0029 30.6235 14.4354 30.7089 14.839 30.8748C15.2425 31.0407 15.6092 31.2839 15.9181 31.5904C16.2269 31.897 16.4719 32.2609 16.6391 32.6615C16.8062 33.062 16.8923 33.4913 16.8923 33.9249V36.127C16.8918 37.976 17.5174 39.7715 18.6687 41.2251C19.82 42.6788 21.4301 43.7062 23.2404 44.1423C25.0507 44.5785 26.9562 44.398 28.6508 43.6301C30.3454 42.8621 31.7307 41.5511 32.5843 39.9076L23.3875 23.4008C23.1568 22.9316 23.1125 22.3934 23.2636 21.8933C23.4147 21.3932 23.75 20.9679 24.2029 20.7022C24.6557 20.4365 25.1927 20.3498 25.707 20.4594C26.2213 20.569 26.6751 20.8669 26.9781 21.2937L33.1093 31.0609C33.1189 30.6227 33.2411 30.1942 33.4644 29.8161C33.6878 29.438 34.0048 29.1228 34.3854 28.9006C35.6614 28.06 37.3054 28.1399 38.2978 29.4787C38.4136 29.6327 38.515 29.7969 38.6006 29.9693C38.1791 28.9005 38.6006 27.79 39.9878 27.2689C41.0914 26.8543 42.241 26.9076 43.1338 28.098C43.3287 28.3739 43.4907 28.6713 43.6167 28.9842C43.5852 28.68 43.6536 28.3738 43.8117 28.1113C43.9699 27.8488 44.2093 27.644 44.4942 27.5275C44.8851 27.3258 45.3182 27.2177 45.7587 27.2118C46.7926 25.8075 47.3495 24.1132 47.349 22.3739C47.349 21.2906 47.134 20.2178 46.7163 19.2169C46.2986 18.216 45.6864 17.3066 44.9146 16.5406C44.1428 15.7745 43.2265 15.1669 42.2181 14.7523C41.2097 14.3377 40.1289 14.1243 39.0374 14.1243ZM31.0132 23.8991C30.9969 23.9605 30.9685 24.0181 30.9297 24.0687C30.8909 24.1192 30.8424 24.1617 30.7871 24.1937C30.7318 24.2256 30.6706 24.2465 30.6072 24.255C30.5437 24.2635 30.4792 24.2595 30.4173 24.2433C30.3554 24.227 30.2974 24.1989 30.2464 24.1604C30.1955 24.1219 30.1527 24.0738 30.1205 24.0189C30.0883 23.9639 30.0673 23.9033 30.0588 23.8403C30.0502 23.7773 30.0542 23.7133 30.0705 23.6518C30.3266 22.6918 30.2898 21.6779 29.9648 20.7386C29.6398 19.7992 29.0412 18.9768 28.2449 18.3755C27.4485 17.7741 26.4903 17.4209 25.4915 17.3606C24.4927 17.3002 23.4984 17.5355 22.6345 18.0365C21.7705 18.5376 21.0759 19.2819 20.6385 20.1751C20.2011 21.0684 20.0407 22.0704 20.1775 23.0542C20.3144 24.038 20.7424 24.9594 21.4073 25.7015C22.0722 26.4437 22.9441 26.9733 23.9125 27.2232C24.0251 27.2553 24.1225 27.3263 24.187 27.4235C24.2514 27.5206 24.2787 27.6374 24.2639 27.7528C24.2491 27.8682 24.1931 27.9745 24.1062 28.0524C24.0192 28.1304 23.907 28.1749 23.7899 28.1779C23.7492 28.1837 23.7079 28.1837 23.6673 28.1779C22.5117 27.8811 21.4708 27.2506 20.6764 26.3662C19.882 25.4819 19.3699 24.3835 19.2048 23.2101C19.0398 22.0367 19.2292 20.8411 19.7491 19.7746C20.2691 18.7082 21.0962 17.8188 22.1257 17.2191C23.1551 16.6195 24.3408 16.3365 25.5324 16.406C26.724 16.4756 27.8681 16.8945 28.8197 17.6097C29.7713 18.3249 30.4877 19.3044 30.8782 20.424C31.2686 21.5435 31.3156 22.753 31.0132 23.8991ZM34.5616 24.8309C34.5417 24.9002 34.4967 24.9598 34.4352 24.9983C34.403 25.0166 34.3674 25.0284 34.3306 25.033C34.2937 25.0376 34.2564 25.0348 34.2206 25.0249C34.1851 25.017 34.1518 25.0017 34.1227 24.9801C34.0936 24.9585 34.0695 24.9309 34.052 24.8994C34.0329 24.8677 34.0203 24.8325 34.015 24.7959C34.0098 24.7594 34.0119 24.7221 34.0213 24.6864C34.4798 22.9522 34.4101 21.1221 33.8209 19.4273C33.2318 17.7325 32.1496 16.2491 30.7113 15.1646C29.2729 14.08 27.5429 13.4431 25.7399 13.3342C23.9369 13.2253 22.1418 13.6494 20.5816 14.5528C19.0214 15.4562 17.766 16.7985 16.9741 18.4099C16.1823 20.0213 15.8895 21.8295 16.1328 23.606C16.3761 25.3825 17.1445 27.0476 18.341 28.3908C19.5375 29.7339 21.1083 30.6949 22.8549 31.1522C22.9259 31.1719 22.9864 31.2183 23.0235 31.2815C23.0421 31.3127 23.054 31.3474 23.0586 31.3833C23.0633 31.4193 23.0604 31.4558 23.0503 31.4907C23.035 31.5496 23.0003 31.6018 22.9517 31.639C22.9031 31.6762 22.8434 31.6963 22.7821 31.6961H22.7093C20.8525 31.2123 19.1823 30.1923 17.9102 28.7654C16.6382 27.3384 15.8215 25.5688 15.5638 23.6808C15.306 21.7927 15.6188 19.8712 16.4625 18.1598C17.3061 16.4483 18.6427 15.024 20.3028 14.0673C21.9592 13.1085 23.865 12.6589 25.7789 12.7752C27.6929 12.8915 29.5291 13.5686 31.0554 14.7207C32.5817 15.8728 33.7294 17.4483 34.3536 19.2479C34.9777 21.0476 35.0501 22.9904 34.5616 24.8309Z" fill="white"/>
<path d="M8.05987 10.9326C6.69384 11.4287 5.43983 12.1874 4.36966 13.1652C3.32471 14.1234 2.4797 15.2761 1.88269 16.5578C1.30061 17.8146 0.973773 19.173 0.920855 20.5552C0.871493 21.9082 1.09156 23.2575 1.56846 24.526C1.24604 23.2415 1.17965 21.9068 1.37303 20.597C1.56693 19.3154 2.01218 18.0839 2.68358 16.9724C3.34214 15.8883 4.20934 14.9436 5.23569 14.1921C6.23909 13.4599 7.37671 12.9289 8.58486 12.6289C8.70166 12.6031 8.81209 12.5544 8.90963 12.4856C9.00717 12.4168 9.08986 12.3294 9.15281 12.2284C9.21577 12.1274 9.25772 12.0149 9.2762 11.8976C9.29468 11.7802 9.28931 11.6604 9.26041 11.5452C9.23151 11.4299 9.17966 11.3216 9.10792 11.2265C9.03618 11.1315 8.946 11.0516 8.84269 10.9917C8.73939 10.9318 8.62504 10.893 8.50639 10.8776C8.38774 10.8622 8.26719 10.8706 8.15184 10.9022L8.05604 10.9288L8.05987 10.9326Z" fill="white"/>
</svg>
