<svg width="58" height="63" viewBox="0 0 58 63" fill="none" xmlns="http://www.w3.org/2000/svg">
<path opacity="0.3" d="M42.0934 26.4453V18.2151C42.0934 14.576 40.5913 11.085 37.9043 8.50379C35.2173 5.92258 31.5781 4.48389 27.7909 4.48389C24.0038 4.48389 20.3436 5.92258 17.6566 8.50379C14.9696 11.085 13.4673 14.576 13.4673 18.2151V26.4453H7.73372C4.5601 26.4453 2 28.8996 2 31.9251C2 69.7758 53.5395 69.7758 53.5395 31.9251C53.5395 28.8996 50.9796 26.4453 47.8059 26.4453H22.0362" stroke="#FF6B00" stroke-width="4" stroke-linecap="round" stroke-linejoin="round"/>
<path d="M44.5539 23.9849V15.7547C44.5539 12.1156 43.0517 8.62455 40.3647 6.04334C37.6777 3.46213 34.0386 2.02344 30.2514 2.02344C26.4642 2.02344 22.804 3.46213 20.117 6.04334C17.43 8.62455 15.9278 12.1156 15.9278 15.7547V23.9849H10.1942C7.02055 23.9849 4.46045 26.4391 4.46045 29.4647C4.46045 67.3153 56 67.3153 56 29.4647C56 26.4391 53.44 23.9849 50.2664 23.9849H24.4966" stroke="#FF6B00" stroke-width="4" stroke-linecap="round" stroke-linejoin="round"/>
</svg>
