<svg width="35" height="35" viewBox="0 0 35 35" fill="none" xmlns="http://www.w3.org/2000/svg">
<path d="M32.6924 15.9508C32.743 16.4607 32.769 16.9778 32.769 17.5009C32.769 26.0619 25.829 33.0019 17.268 33.0019C8.70709 33.0019 1.76709 26.0619 1.76709 17.5009C1.76709 8.94 8.70709 2 17.268 2C20.1987 2 22.9395 2.81332 25.2768 4.22656" stroke="#FF6B00" stroke-width="2.72" stroke-linecap="round"/>
<path d="M23.0418 22.5563V24.8143H13.0464V22.8874L17.7732 17.8195C18.2482 17.2909 18.6228 16.8259 18.8971 16.4245C19.1715 16.0164 19.3688 15.6518 19.4892 15.3306C19.6164 15.0028 19.6799 14.6917 19.6799 14.3973C19.6799 13.9558 19.6063 13.5777 19.4591 13.2633C19.312 12.9422 19.0945 12.6946 18.8068 12.5207C18.5258 12.3467 18.1779 12.2597 17.7631 12.2597C17.3216 12.2597 16.9402 12.3668 16.6191 12.5809C16.3046 12.795 16.0638 13.0927 15.8965 13.474C15.7359 13.8554 15.6557 14.2869 15.6557 14.7686H12.7554C12.7554 13.8989 12.9628 13.1027 13.3776 12.3802C13.7924 11.6509 14.3778 11.0722 15.1338 10.644C15.8898 10.2091 16.7863 9.9917 17.8233 9.9917C18.847 9.9917 19.71 10.159 20.4125 10.4935C21.1217 10.8213 21.6569 11.2963 22.0182 11.9185C22.3862 12.534 22.5702 13.27 22.5702 14.1264C22.5702 14.6081 22.4932 15.0797 22.3394 15.5414C22.1855 15.9963 21.9647 16.4513 21.677 16.9062C21.396 17.3545 21.0548 17.8094 20.6534 18.2711C20.252 18.7327 19.807 19.2111 19.3186 19.7061L16.7796 22.5563H23.0418Z" fill="#FF9B53"/>
</svg>
