<svg width="36" height="37" viewBox="0 0 36 37" fill="none" xmlns="http://www.w3.org/2000/svg">
<g opacity="0.3">
<path d="M32.6734 17.9489C32.724 18.4587 32.7499 18.9758 32.7499 19.499C32.7499 28.0599 25.8099 34.9999 17.249 34.9999C8.68805 34.9999 1.74805 28.0599 1.74805 19.499C1.74805 10.9381 8.68805 3.99805 17.249 3.99805C20.1797 3.99805 22.9204 4.81136 25.2578 6.2246" stroke="#FF6B00" stroke-width="2.72" stroke-linecap="round"/>
<path d="M19.0994 11.9912V26.6331H16.2091V15.323L12.7368 16.4269V14.1489L18.7883 11.9912H19.0994Z" fill="#FF6B00"/>
</g>
<path d="M33.667 15.9499C33.7176 16.4597 33.7436 16.9768 33.7436 17.5C33.7436 26.0609 26.8036 33.0009 18.2426 33.0009C9.6817 33.0009 2.7417 26.0609 2.7417 17.5C2.7417 8.93903 9.6817 1.99902 18.2426 1.99902C21.1733 1.99902 23.9141 2.81234 26.2514 4.22558" stroke="#FF6B00" stroke-width="2.72" stroke-linecap="round"/>
<path d="M20.0964 9.99219V24.6341H17.2062V13.324L13.7339 14.4279V12.1498L19.7853 9.99219H20.0964Z" fill="#FF9B53"/>
</svg>
