<svg width="21" height="21" viewBox="0 0 21 21" fill="none" xmlns="http://www.w3.org/2000/svg">
<path d="M10.58 6.20017C10.2804 6.20017 10.0192 6.10026 9.79637 5.89281C9.58123 5.69304 9.47363 5.40108 9.47363 5.03227C9.47363 4.6942 9.58124 4.41759 9.80406 4.20245C10.0269 3.98732 10.2804 3.87207 10.58 3.87207C10.8797 3.87207 11.1179 3.97197 11.3331 4.17173C11.5482 4.3715 11.6634 4.65579 11.6634 5.03227C11.6634 5.40876 11.5559 5.68536 11.3407 5.89281C11.1256 6.10026 10.872 6.20017 10.58 6.20017ZM11.6634 8.65887V15.5432C11.6634 16.0195 11.5558 16.3807 11.3484 16.6266C11.1409 16.8724 10.8797 16.9954 10.557 16.9954C10.2343 16.9954 9.97307 16.8724 9.7733 16.6189C9.57353 16.3653 9.47363 16.0119 9.47363 15.5432V8.73568C9.47363 8.267 9.57353 7.90586 9.7733 7.66768C9.97307 7.42949 10.2343 7.31427 10.557 7.31427C10.8797 7.31427 11.1409 7.42949 11.3484 7.66768C11.5558 7.90586 11.6634 8.23628 11.6634 8.65887Z" fill="#FF9B53"/>
<path d="M10.5646 19.8705C15.7756 19.8705 19.9999 15.6462 19.9999 10.4353C19.9999 5.22432 15.7756 1 10.5646 1C5.35371 1 1.12939 5.22432 1.12939 10.4353C1.12939 15.6462 5.35371 19.8705 10.5646 19.8705Z" stroke="#FF6B00" stroke-width="1.55876"/>
</svg>
