<svg width="35" height="35" viewBox="0 0 35 35" fill="none" xmlns="http://www.w3.org/2000/svg">
<path d="M32.6692 15.9508C32.7198 16.4607 32.7457 16.9778 32.7457 17.5009C32.7457 26.0619 25.8057 33.0019 17.2448 33.0019C8.68384 33.0019 1.74384 26.0619 1.74384 17.5009C1.74384 8.94 8.68384 2 17.2448 2C20.1755 2 22.9162 2.81332 25.2536 4.22656" stroke="#FF6B00" stroke-width="2.72" stroke-linecap="round"/>
<path d="M16.0666 16.2544H17.6121C18.1072 16.2544 18.5153 16.1708 18.8364 16.0035C19.1576 15.8296 19.3951 15.5887 19.549 15.2809C19.7095 14.9665 19.7898 14.6019 19.7898 14.1871C19.7898 13.8124 19.7162 13.4812 19.569 13.1935C19.4285 12.8992 19.2111 12.6717 18.9167 12.5111C18.6223 12.3439 18.251 12.2602 17.8028 12.2602C17.4482 12.2602 17.1204 12.3305 16.8193 12.471C16.5182 12.6115 16.2774 12.8088 16.0967 13.0631C15.9161 13.3173 15.8258 13.6251 15.8258 13.9864H12.9255C12.9255 13.1835 13.1396 12.4844 13.5678 11.8889C14.0026 11.2935 14.5847 10.8285 15.3139 10.494C16.0432 10.1594 16.846 9.99219 17.7225 9.99219C18.7127 9.99219 19.5791 10.1528 20.3217 10.4739C21.0643 10.7883 21.6431 11.2533 22.0579 11.8688C22.4727 12.4844 22.6801 13.2471 22.6801 14.157C22.6801 14.6186 22.573 15.0668 22.3589 15.5017C22.1448 15.9299 21.8371 16.318 21.4357 16.6659C21.0409 17.0071 20.5592 17.2814 19.9905 17.4888C19.4218 17.6895 18.7829 17.7898 18.0737 17.7898H16.0666V16.2544ZM16.0666 18.4522V16.9569H18.0737C18.8699 16.9569 19.569 17.0472 20.1712 17.2278C20.7733 17.4085 21.2784 17.6694 21.6865 18.0106C22.0947 18.3451 22.4024 18.7432 22.6098 19.2049C22.8172 19.6598 22.9209 20.1649 22.9209 20.7202C22.9209 21.4026 22.7905 22.0115 22.5295 22.5467C22.2686 23.0752 21.9006 23.5235 21.4256 23.8915C20.9573 24.2594 20.4087 24.5404 19.7798 24.7345C19.1509 24.9218 18.4651 25.0155 17.7225 25.0155C17.107 25.0155 16.5015 24.9318 15.906 24.7646C15.3173 24.5906 14.7821 24.333 14.3004 23.9918C13.8253 23.6439 13.444 23.2091 13.1563 22.6872C12.8753 22.1587 12.7348 21.5331 12.7348 20.8105H15.6351C15.6351 21.1852 15.7288 21.5197 15.9161 21.8141C16.1034 22.1085 16.361 22.3393 16.6888 22.5066C17.0233 22.6738 17.3947 22.7574 17.8028 22.7574C18.2644 22.7574 18.6591 22.6738 18.987 22.5066C19.3215 22.3326 19.5757 22.0918 19.7497 21.784C19.9303 21.4696 20.0206 21.1049 20.0206 20.6901C20.0206 20.1549 19.9236 19.7267 19.7296 19.4056C19.5356 19.0777 19.2579 18.8369 18.8967 18.683C18.5354 18.5291 18.1072 18.4522 17.6121 18.4522H16.0666Z" fill="#FF9142"/>
</svg>
