<svg width="36" height="37" viewBox="0 0 36 37" fill="none" xmlns="http://www.w3.org/2000/svg">
<g opacity="0.3">
<path d="M33.0953 17.9499C33.1459 18.4597 33.1718 18.9768 33.1718 19.5C33.1718 28.0609 26.2318 35.0009 17.6709 35.0009C9.10993 35.0009 2.16992 28.0609 2.16992 19.5C2.16992 10.939 9.10993 3.99902 17.6709 3.99902C20.6016 3.99902 23.3423 4.81234 25.6797 6.22558" stroke="#4D4D4F" stroke-width="2.72" stroke-linecap="round"/>
<path d="M23.4471 24.5567V26.8147H13.4517V24.8879L18.1784 19.8199C18.6535 19.2914 19.0281 18.8264 19.3024 18.425C19.5767 18.0169 19.7741 17.6523 19.8945 17.3311C20.0216 17.0033 20.0852 16.6922 20.0852 16.3978C20.0852 15.9562 20.0116 15.5782 19.8644 15.2638C19.7172 14.9426 19.4998 14.6951 19.2121 14.5212C18.9311 14.3472 18.5832 14.2602 18.1684 14.2602C17.7268 14.2602 17.3455 14.3673 17.0243 14.5814C16.7099 14.7955 16.469 15.0932 16.3018 15.4745C16.1412 15.8559 16.0609 16.2874 16.0609 16.7691H13.1606C13.1606 15.8994 13.368 15.1032 13.7829 14.3807C14.1977 13.6514 14.7831 13.0727 15.5391 12.6445C16.2951 12.2096 17.1916 11.9922 18.2286 11.9922C19.2522 11.9922 20.1153 12.1594 20.8178 12.494C21.527 12.8218 22.0622 13.2968 22.4235 13.919C22.7915 14.5345 22.9754 15.2705 22.9754 16.1268C22.9754 16.6086 22.8985 17.0802 22.7446 17.5419C22.5907 17.9968 22.37 18.4518 22.0823 18.9067C21.8013 19.355 21.4601 19.8099 21.0586 20.2715C20.6572 20.7332 20.2123 21.2115 19.7239 21.7066L17.1849 24.5567H23.4471Z" fill="#4D4D4F"/>
</g>
<path d="M34.0948 15.9508C34.1454 16.4607 34.1713 16.9778 34.1713 17.5009C34.1713 26.0619 27.2313 33.0019 18.6704 33.0019C10.1094 33.0019 3.16943 26.0619 3.16943 17.5009C3.16943 8.94 10.1094 2 18.6704 2C21.6011 2 24.3418 2.81332 26.6792 4.22656" stroke="#4D4D4F" stroke-width="2.72" stroke-linecap="round"/>
<path d="M24.4461 22.5567V24.8147H14.4507V22.8879L19.1775 17.8199C19.6525 17.2914 20.0271 16.8264 20.3014 16.425C20.5758 16.0169 20.7731 15.6523 20.8935 15.3311C21.0207 15.0033 21.0842 14.6922 21.0842 14.3978C21.0842 13.9562 21.0106 13.5782 20.8634 13.2638C20.7162 12.9426 20.4988 12.6951 20.2111 12.5212C19.9301 12.3472 19.5822 12.2602 19.1674 12.2602C18.7259 12.2602 18.3445 12.3673 18.0234 12.5814C17.7089 12.7955 17.4681 13.0932 17.3008 13.4745C17.1402 13.8559 17.06 14.2874 17.06 14.7691H14.1597C14.1597 13.8994 14.3671 13.1032 14.7819 12.3807C15.1967 11.6514 15.7821 11.0727 16.5381 10.6445C17.2941 10.2096 18.1906 9.99219 19.2276 9.99219C20.2513 9.99219 21.1143 10.1594 21.8168 10.494C22.526 10.8218 23.0612 11.2968 23.4225 11.919C23.7905 12.5345 23.9745 13.2705 23.9745 14.1268C23.9745 14.6086 23.8975 15.0802 23.7437 15.5419C23.5898 15.9968 23.369 16.4518 23.0813 16.9067C22.8003 17.355 22.4591 17.8099 22.0577 18.2715C21.6562 18.7332 21.2113 19.2115 20.7229 19.7066L18.1839 22.5567H24.4461Z" fill="#4D4D4F"/>
</svg>
