<svg width="36" height="37" viewBox="0 0 36 37" fill="none" xmlns="http://www.w3.org/2000/svg">
<g opacity="0.3">
<path d="M33.2052 17.9634C33.2559 18.4737 33.2818 18.9913 33.2818 19.5149C33.2818 28.0836 26.3355 35.0299 17.7669 35.0299C9.19822 35.0299 2.25195 28.0836 2.25195 19.5149C2.25195 10.9463 9.19822 4 17.7669 4C20.7002 4 23.4434 4.81405 25.7829 6.22857" stroke="#4D4D4F" stroke-width="2.71881" stroke-linecap="round"/>
<path d="M16.5868 18.2679H18.1336C18.6292 18.2679 19.0377 18.1842 19.3591 18.0167C19.6805 17.8426 19.9182 17.6016 20.0723 17.2935C20.233 16.9788 20.3133 16.6138 20.3133 16.1987C20.3133 15.8237 20.2397 15.4922 20.0924 15.2042C19.9517 14.9096 19.7341 14.6819 19.4395 14.5212C19.1448 14.3538 18.7732 14.2701 18.3245 14.2701C17.9696 14.2701 17.6415 14.3404 17.3401 14.481C17.0388 14.6217 16.7977 14.8192 16.6169 15.0737C16.4361 15.3281 16.3457 15.6362 16.3457 15.9978H13.4428C13.4428 15.1942 13.6571 14.4944 14.0857 13.8984C14.5209 13.3025 15.1035 12.8371 15.8334 12.5022C16.5633 12.1674 17.3669 12 18.2441 12C19.2352 12 20.1024 12.1607 20.8457 12.4821C21.589 12.7969 22.1682 13.2623 22.5834 13.8783C22.9986 14.4944 23.2062 15.2578 23.2062 16.1685C23.2062 16.6306 23.0991 17.0792 22.8848 17.5145C22.6705 17.9431 22.3624 18.3315 21.9607 18.6797C21.5656 19.0212 21.0834 19.2958 20.5142 19.5033C19.945 19.7042 19.3055 19.8047 18.5957 19.8047H16.5868V18.2679ZM16.5868 20.4676V18.971H18.5957C19.3926 18.971 20.0924 19.0614 20.695 19.2422C21.2977 19.423 21.8033 19.6842 22.2118 20.0257C22.6203 20.3605 22.9283 20.7589 23.1359 21.221C23.3435 21.6763 23.4473 22.1819 23.4473 22.7377C23.4473 23.4208 23.3167 24.0301 23.0555 24.5658C22.7944 25.0949 22.4261 25.5435 21.9506 25.9118C21.4819 26.2801 20.9328 26.5614 20.3033 26.7556C19.6738 26.9431 18.9874 27.0368 18.2441 27.0368C17.6281 27.0368 17.022 26.9531 16.4261 26.7857C15.8368 26.6116 15.3011 26.3538 14.8189 26.0123C14.3435 25.6641 13.9618 25.2288 13.6738 24.7065C13.3926 24.1775 13.252 23.5513 13.252 22.8281H16.1549C16.1549 23.2031 16.2486 23.5379 16.4361 23.8326C16.6236 24.1272 16.8814 24.3583 17.2095 24.5257C17.5444 24.6931 17.916 24.7768 18.3245 24.7768C18.7866 24.7768 19.1816 24.6931 19.5098 24.5257C19.8446 24.3516 20.0991 24.1105 20.2732 23.8025C20.454 23.4877 20.5444 23.1228 20.5444 22.7076C20.5444 22.1719 20.4473 21.7433 20.2531 21.4219C20.0589 21.0938 19.781 20.8527 19.4194 20.6987C19.0578 20.5446 18.6292 20.4676 18.1336 20.4676H16.5868Z" fill="#4D4D4F"/>
</g>
<path d="M34.2052 15.9634C34.2559 16.4737 34.2818 16.9913 34.2818 17.5149C34.2818 26.0836 27.3355 33.0299 18.7669 33.0299C10.1982 33.0299 3.25195 26.0836 3.25195 17.5149C3.25195 8.94627 10.1982 2 18.7669 2C21.7002 2 24.4434 2.81405 26.7829 4.22857" stroke="#4D4D4F" stroke-width="2.71881" stroke-linecap="round"/>
<path d="M17.5868 16.2679H19.1336C19.6292 16.2679 20.0377 16.1842 20.3591 16.0167C20.6805 15.8426 20.9182 15.6016 21.0723 15.2935C21.233 14.9788 21.3133 14.6138 21.3133 14.1987C21.3133 13.8237 21.2397 13.4922 21.0924 13.2042C20.9517 12.9096 20.7341 12.6819 20.4395 12.5212C20.1448 12.3538 19.7732 12.2701 19.3245 12.2701C18.9696 12.2701 18.6415 12.3404 18.3401 12.481C18.0388 12.6217 17.7977 12.8192 17.6169 13.0737C17.4361 13.3281 17.3457 13.6362 17.3457 13.9978H14.4428C14.4428 13.1942 14.6571 12.4944 15.0857 11.8984C15.5209 11.3025 16.1035 10.8371 16.8334 10.5022C17.5633 10.1674 18.3669 10 19.2441 10C20.2352 10 21.1024 10.1607 21.8457 10.4821C22.589 10.7969 23.1682 11.2623 23.5834 11.8783C23.9986 12.4944 24.2062 13.2578 24.2062 14.1685C24.2062 14.6306 24.0991 15.0792 23.8848 15.5145C23.6705 15.9431 23.3624 16.3315 22.9607 16.6797C22.5656 17.0212 22.0834 17.2958 21.5142 17.5033C20.945 17.7042 20.3055 17.8047 19.5957 17.8047H17.5868V16.2679ZM17.5868 18.4676V16.971H19.5957C20.3926 16.971 21.0924 17.0614 21.695 17.2422C22.2977 17.423 22.8033 17.6842 23.2118 18.0257C23.6203 18.3605 23.9283 18.7589 24.1359 19.221C24.3435 19.6763 24.4473 20.1819 24.4473 20.7377C24.4473 21.4208 24.3167 22.0301 24.0555 22.5658C23.7944 23.0949 23.4261 23.5435 22.9506 23.9118C22.4819 24.2801 21.9328 24.5614 21.3033 24.7556C20.6738 24.9431 19.9874 25.0368 19.2441 25.0368C18.6281 25.0368 18.022 24.9531 17.4261 24.7857C16.8368 24.6116 16.3011 24.3538 15.8189 24.0123C15.3435 23.6641 14.9618 23.2288 14.6738 22.7065C14.3926 22.1775 14.252 21.5513 14.252 20.8281H17.1549C17.1549 21.2031 17.2486 21.5379 17.4361 21.8326C17.6236 22.1272 17.8814 22.3583 18.2095 22.5257C18.5444 22.6931 18.916 22.7768 19.3245 22.7768C19.7866 22.7768 20.1816 22.6931 20.5098 22.5257C20.8446 22.3516 21.0991 22.1105 21.2732 21.8025C21.454 21.4877 21.5444 21.1228 21.5444 20.7076C21.5444 20.1719 21.4473 19.7433 21.2531 19.4219C21.0589 19.0938 20.781 18.8527 20.4194 18.6987C20.0578 18.5446 19.6292 18.4676 19.1336 18.4676H17.5868Z" fill="#4D4D4F"/>
</svg>
