<svg width="36" height="36" viewBox="0 0 36 36" fill="none" xmlns="http://www.w3.org/2000/svg">
<g opacity="0.3">
<path d="M32.7208 17.3135C32.7715 17.8238 32.7974 18.3414 32.7974 18.865C32.7974 27.4337 25.8512 34.3799 17.2825 34.3799C8.71385 34.3799 1.76758 27.4337 1.76758 18.865C1.76758 10.2964 8.71385 3.3501 17.2825 3.3501C20.2158 3.3501 22.9591 4.16415 25.2985 5.57866" stroke="#FF6B00" stroke-width="2.71881" stroke-linecap="round"/>
<path d="M10.5596 15.3671L17.1259 22.4854L32.7976 8.52197" stroke="#FF6B00" stroke-width="2.71881" stroke-linecap="round" stroke-linejoin="round"/>
</g>
<path d="M34.1984 15.3438C34.249 15.8541 34.275 16.3717 34.275 16.8953C34.275 25.464 27.3287 32.4102 18.76 32.4102C10.1914 32.4102 3.24512 25.464 3.24512 16.8953C3.24512 8.32664 10.1914 1.38037 18.76 1.38037C21.6934 1.38037 24.4366 2.19442 26.7761 3.60894" stroke="#FF6B00" stroke-width="2.71881" stroke-linecap="round"/>
<path d="M12.0371 13.3973L18.6035 20.5157L34.2752 6.55225" stroke="#FF9B53" stroke-width="2.71881" stroke-linecap="round" stroke-linejoin="round"/>
</svg>
