<svg width="16" height="24" viewBox="0 0 16 24" fill="none" xmlns="http://www.w3.org/2000/svg">
<circle cx="8" cy="19.916" r="4" fill="#FF6B00"/>
<path d="M7 19.666C7 20.2183 7.44772 20.666 8 20.666C8.55228 20.666 9 20.2183 9 19.666L7 19.666ZM8.70711 0.958908C8.31658 0.568384 7.68342 0.568384 7.29289 0.958908L0.928932 7.32287C0.538407 7.71339 0.538407 8.34656 0.928932 8.73708C1.31946 9.12761 1.95262 9.12761 2.34315 8.73708L8 3.08023L13.6569 8.73708C14.0474 9.12761 14.6805 9.12761 15.0711 8.73708C15.4616 8.34656 15.4616 7.71339 15.0711 7.32287L8.70711 0.958908ZM9 19.666L9 1.66602L7 1.66602L7 19.666L9 19.666Z" fill="#FF6B00"/>
</svg>
