<svg width="24" height="25" viewBox="0 0 24 25" fill="none" xmlns="http://www.w3.org/2000/svg">
<g clip-path="url(#clip0_7688_52070)">
<g opacity="0.3">
<path d="M11.3636 17.4373C11.6932 17.4373 11.9805 17.5471 12.2256 17.7753C12.4623 17.995 12.5806 18.3162 12.5806 18.7219C12.5806 19.0938 12.4623 19.398 12.2172 19.6347C11.9721 19.8713 11.6932 19.9981 11.3636 19.9981C11.034 19.9981 10.7719 19.8882 10.5353 19.6685C10.2986 19.4487 10.1719 19.136 10.1719 18.7219C10.1719 18.3078 10.2902 18.0035 10.5268 17.7753C10.7635 17.5471 11.0424 17.4373 11.3636 17.4373ZM10.1719 14.7327V7.15989C10.1719 6.63589 10.2902 6.23868 10.5184 5.96822C10.7466 5.69776 11.034 5.5625 11.3889 5.5625C11.7439 5.5625 12.0313 5.69777 12.251 5.97668C12.4707 6.25559 12.5806 6.64434 12.5806 7.15989V14.6481C12.5806 15.1637 12.4707 15.5609 12.251 15.8229C12.0313 16.0849 11.7439 16.2117 11.3889 16.2117C11.034 16.2117 10.7466 16.0849 10.5184 15.8229C10.2902 15.5609 10.1719 15.1975 10.1719 14.7327Z" fill="#FF6B00"/>
<path d="M11.3788 23.1599C17.1108 23.1599 21.7575 18.5132 21.7575 12.7811C21.7575 7.0491 17.1108 2.40234 11.3788 2.40234C5.64673 2.40234 1 7.0491 1 12.7811C1 18.5132 5.64673 23.1599 11.3788 23.1599Z" stroke="#FF6B00" stroke-width="1.79258"/>
</g>
<path d="M12.6058 16.1951C12.9354 16.1951 13.2227 16.3049 13.4678 16.5331C13.7045 16.7529 13.8228 17.074 13.8228 17.4797C13.8228 17.8516 13.7045 18.1559 13.4594 18.3925C13.2143 18.6292 12.9354 18.7559 12.6058 18.7559C12.2761 18.7559 12.0141 18.646 11.7775 18.4263C11.5408 18.2065 11.4141 17.8938 11.4141 17.4797C11.4141 17.0656 11.5324 16.7613 11.769 16.5331C12.0057 16.3049 12.2846 16.1951 12.6058 16.1951ZM11.4141 13.4905V5.91771C11.4141 5.3937 11.5324 4.99649 11.7606 4.72603C11.9888 4.45558 12.2761 4.32031 12.6311 4.32031C12.9861 4.32031 13.2734 4.45558 13.4932 4.73449C13.7129 5.0134 13.8228 5.40215 13.8228 5.91771V13.4059C13.8228 13.9215 13.7129 14.3188 13.4932 14.5808C13.2734 14.8428 12.9861 14.9696 12.6311 14.9696C12.2761 14.9696 11.9888 14.8428 11.7606 14.5808C11.5324 14.3188 11.4141 13.9553 11.4141 13.4905Z" fill="#FF9B53"/>
<path d="M12.6209 21.9177C18.353 21.9177 22.9997 17.271 22.9997 11.5389C22.9997 5.80691 18.353 1.16016 12.6209 1.16016C6.88891 1.16016 2.24219 5.80691 2.24219 11.5389C2.24219 17.271 6.88891 21.9177 12.6209 21.9177Z" stroke="#FF6B00" stroke-width="1.79258"/>
</g>
<defs>
<clipPath id="clip0_7688_52070">
<rect width="24" height="24" fill="white" transform="translate(0 0.160156)"/>
</clipPath>
</defs>
</svg>
