<svg width="15" height="16" viewBox="0 0 15 16" fill="none" xmlns="http://www.w3.org/2000/svg">
<path d="M10.75 5.79859L4.25 2.17969" stroke="#3D94FF" stroke-linecap="round" stroke-linejoin="round"/>
<path d="M14 10.4012V4.82289C13.9997 4.57834 13.9329 4.33815 13.8061 4.12642C13.6793 3.91469 13.4971 3.73887 13.2778 3.61659L8.22222 0.827461C8.00264 0.705063 7.75355 0.640625 7.5 0.640625C7.24645 0.640625 6.99736 0.705063 6.77778 0.827461L1.72222 3.61659C1.50286 3.73887 1.32065 3.91469 1.19389 4.12642C1.06713 4.33815 1.00026 4.57834 1 4.82289V10.4012C1.00026 10.6457 1.06713 10.8859 1.19389 11.0976C1.32065 11.3094 1.50286 11.4852 1.72222 11.6075L6.77778 14.3966C6.99736 14.519 7.24645 14.5834 7.5 14.5834C7.75355 14.5834 8.00264 14.519 8.22222 14.3966L13.2778 11.6075C13.4971 11.4852 13.6793 11.3094 13.8061 11.0976C13.9329 10.8859 13.9997 10.6457 14 10.4012Z" stroke="#3D94FF" stroke-linecap="round" stroke-linejoin="round"/>
<path d="M1.19141 4.09766L7.49641 7.61894L13.8014 4.09766" stroke="#3D94FF" stroke-linecap="round" stroke-linejoin="round"/>
<path d="M7.5 14.6399V7.61133" stroke="#3D94FF" stroke-linecap="round" stroke-linejoin="round"/>
</svg>
