<svg width="30" height="20" viewBox="0 0 30 20" fill="none" xmlns="http://www.w3.org/2000/svg">
<g id="&#196;&#144;ang giao h&#195;&#160;ng">
<g id="&#196;&#144;ang giao h&#195;&#160;ng_2" opacity="0.3">
<path id="Vector" d="M6.5519 15.4634H4.90234V13.6055" stroke="#FF6B00" stroke-width="1.17496" stroke-linecap="round" stroke-linejoin="round"/>
<path id="Vector_2" d="M4.90234 5.03442V1.64844H18.724V15.4701H13.8795" stroke="#FF6B00" stroke-width="1.17496" stroke-linecap="round" stroke-linejoin="round"/>
<path id="Vector_3" d="M18.7148 4.00977H23.7214L27.7325 7.34943V15.4699H27.0437" stroke="#FF6B00" stroke-width="1.17496" stroke-linecap="round" stroke-linejoin="round"/>
<path id="Vector_4" d="M18.3242 15.4688H19.8233" stroke="#FF6B00" stroke-width="1.17496" stroke-linecap="round" stroke-linejoin="round"/>
<path id="Vector_5" d="M21.0117 6.82812V10.9144H24.9938V8.09569L23.5063 6.83392H21.0117V6.82812Z" stroke="#FF6B00" stroke-width="1.17496" stroke-linecap="round" stroke-linejoin="round"/>
<path id="Vector_6" d="M11.3555 6.82227H4.07422" stroke="#FF6B00" stroke-width="1.17496" stroke-linecap="round" stroke-linejoin="round"/>
<path id="Vector_7" d="M9.81454 9.44531H2.53906" stroke="#FF6B00" stroke-width="1.17496" stroke-linecap="round" stroke-linejoin="round"/>
<path id="Vector_8" d="M8.27548 12.0723H1" stroke="#FF6B00" stroke-width="1.17496" stroke-linecap="round" stroke-linejoin="round"/>
<path id="Vector_9" d="M10.1505 18.6877C11.285 18.6877 12.1995 17.7674 12.1995 16.6388C12.1995 15.5101 11.2792 14.5898 10.1505 14.5898C9.02187 14.5898 8.10156 15.5101 8.10156 16.6388C8.10156 17.7674 9.02187 18.6877 10.1505 18.6877Z" stroke="#FF6B00" stroke-width="1.17496" stroke-linecap="round" stroke-linejoin="round"/>
<path id="Vector_10" d="M23.4005 18.6877C24.5349 18.6877 25.4495 17.7674 25.4495 16.6388C25.4495 15.5101 24.5291 14.5898 23.4005 14.5898C22.2718 14.5898 21.3516 15.5101 21.3516 16.6388C21.3516 17.7674 22.2718 18.6877 23.4005 18.6877Z" stroke="#FF6B00" stroke-width="1.17496" stroke-linecap="round" stroke-linejoin="round"/>
</g>
<g id="&#196;&#144;ang giao h&#195;&#160;ng_3">
<path id="Vector_11" d="M7.39956 14.6157H5.75V12.7578" stroke="#FF6B00" stroke-width="1.17496" stroke-linecap="round" stroke-linejoin="round"/>
<path id="Vector_12" d="M5.75 4.18676V0.800781H19.5717V14.6224H14.7271" stroke="#FF6B00" stroke-width="1.17496" stroke-linecap="round" stroke-linejoin="round"/>
<path id="Vector_13" d="M19.5625 3.16211H24.5691L28.5802 6.50178V14.6223H27.8914" stroke="#FF6B00" stroke-width="1.17496" stroke-linecap="round" stroke-linejoin="round"/>
<path id="Vector_14" d="M19.1719 14.6211H20.6709" stroke="#FF6B00" stroke-width="1.17496" stroke-linecap="round" stroke-linejoin="round"/>
<path id="Vector_15" d="M21.8594 5.98047V10.0668H25.8415V7.24803L24.354 5.98626H21.8594V5.98047Z" stroke="#FF6B00" stroke-width="1.17496" stroke-linecap="round" stroke-linejoin="round"/>
<path id="Vector_16" d="M12.2031 5.97461H4.92188" stroke="#FF9142" stroke-width="1.17496" stroke-linecap="round" stroke-linejoin="round"/>
<path id="Vector_17" d="M10.6622 8.59766H3.38672" stroke="#FF9142" stroke-width="1.17496" stroke-linecap="round" stroke-linejoin="round"/>
<path id="Vector_18" d="M9.12313 11.2246H1.84766" stroke="#FF9142" stroke-width="1.17496" stroke-linecap="round" stroke-linejoin="round"/>
<path id="Vector_19" d="M10.9982 17.84C12.1326 17.84 13.0471 16.9198 13.0471 15.7911C13.0471 14.6625 12.1268 13.7422 10.9982 13.7422C9.86953 13.7422 8.94922 14.6625 8.94922 15.7911C8.94922 16.9198 9.86953 17.84 10.9982 17.84Z" stroke="#FF9142" stroke-width="1.17496" stroke-linecap="round" stroke-linejoin="round"/>
<path id="Vector_20" d="M24.2481 17.84C25.3826 17.84 26.2971 16.9198 26.2971 15.7911C26.2971 14.6625 25.3768 13.7422 24.2481 13.7422C23.1195 13.7422 22.1992 14.6625 22.1992 15.7911C22.1992 16.9198 23.1195 17.84 24.2481 17.84Z" stroke="#FF9142" stroke-width="1.17496" stroke-linecap="round" stroke-linejoin="round"/>
</g>
</g>
</svg>
